<svg width="100" height="100" viewBox="0 0 100 100" fill="none" xmlns="http://www.w3.org/2000/svg">
<g clip-path="url(#clip0_338_355)">
<path d="M100 21.6585V78.3387C100 89.8128 91.0427 99.2003 79.7133 99.9521C79.2298 99.9831 78.7407 100 78.2487 100H21.7513C9.73762 100 0 90.3027 0 78.3387V21.6585C0 9.69731 9.73762 0 21.7513 0H78.2487C84.0053 0 89.2389 2.22441 93.1265 5.8595C93.4347 6.1467 93.7345 6.44235 94.0229 6.74645C95.1849 7.96565 96.2056 9.31719 97.0595 10.7785C97.1556 10.9419 97.2489 11.1052 97.3394 11.2713C99.0359 14.3545 100 17.8938 100 21.6585Z" fill="url(#paint0_linear_338_355)"/>
<path opacity="0.4" d="M63.2944 73.9945L68.118 69.1909V73.9945H63.2944Z" fill="#D4DFFF"/>
<path opacity="0.4" d="M68.1182 69.1909L72.9417 73.9945H68.1182V69.1909Z" fill="#E9F0FF"/>
<path opacity="0.4" d="M72.9417 73.9941L68.1182 78.7977V73.9941H72.9417Z" fill="#AAD0FF"/>
<path opacity="0.4" d="M68.118 78.7977L63.2944 73.9941H68.118V78.7977Z" fill="#7FB8FF"/>
<path opacity="0.4" d="M72.9414 64.3872L77.765 69.1908H72.9414V64.3872Z" fill="#D4DFFF"/>
<path opacity="0.4" d="M77.765 69.1909L72.9414 73.9945V69.1909H77.765Z" fill="#E9F0FF"/>
<path opacity="0.4" d="M72.9417 73.9945L68.1182 69.1909H72.9417V73.9945Z" fill="#AAD0FF"/>
<path opacity="0.4" d="M68.1182 69.1908L72.9417 64.3872V69.1908H68.1182Z" fill="#7FB8FF"/>
<path opacity="0.4" d="M63.2943 83.6015L58.4707 78.7979H63.2943V83.6015Z" fill="#D4DFFF"/>
<path opacity="0.4" d="M58.4707 78.7977L63.2943 73.9941V78.7977H58.4707Z" fill="#E9F0FF"/>
<path opacity="0.4" d="M63.2944 73.9941L68.118 78.7977H63.2944V73.9941Z" fill="#AAD0FF"/>
<path opacity="0.4" d="M68.118 78.7979L63.2944 83.6015V78.7979H68.118Z" fill="#7FB8FF"/>
<path opacity="0.4" d="M63.2943 83.6016L58.4707 88.4052V83.6016H63.2943Z" fill="#D4DFFF"/>
<path opacity="0.4" d="M58.471 88.4052L53.6475 83.6016H58.471V88.4052Z" fill="#E9F0FF"/>
<path opacity="0.4" d="M53.6475 83.6015L58.471 78.7979V83.6015H53.6475Z" fill="#AAD0FF"/>
<path opacity="0.4" d="M58.4707 78.7979L63.2943 83.6015H58.4707V78.7979Z" fill="#7FB8FF"/>
<path opacity="0.4" d="M72.9414 64.3871L77.765 59.5835V64.3871H72.9414Z" fill="#D4DFFF"/>
<path opacity="0.4" d="M77.7651 59.5835L82.5887 64.3871H77.7651V59.5835Z" fill="#E9F0FF"/>
<path opacity="0.4" d="M82.5887 64.3872L77.7651 69.1908V64.3872H82.5887Z" fill="#AAD0FF"/>
<path opacity="0.4" d="M77.765 69.1908L72.9414 64.3872H77.765V69.1908Z" fill="#7FB8FF"/>
<path opacity="0.4" d="M82.5887 64.3871L77.7651 59.5835H82.5887V64.3871Z" fill="#D4DFFF"/>
<path opacity="0.4" d="M77.7651 59.5835L82.5887 54.7827V59.5835H77.7651Z" fill="#E9F0FF"/>
<path opacity="0.4" d="M82.5889 54.7827L87.4124 59.5835H82.5889V54.7827Z" fill="#AAD0FF"/>
<path opacity="0.4" d="M87.4124 59.5835L82.5889 64.3871V59.5835H87.4124Z" fill="#7FB8FF"/>
<path opacity="0.4" d="M53.6475 83.6016L58.471 88.4052H53.6475V83.6016Z" fill="#D4DFFF"/>
<path opacity="0.4" d="M58.471 88.4053L53.6475 93.2088V88.4053H58.471Z" fill="#E9F0FF"/>
<path opacity="0.4" d="M53.6473 93.2088L48.8237 88.4053H53.6473V93.2088Z" fill="#AAD0FF"/>
<path opacity="0.4" d="M48.8237 88.4052L53.6473 83.6016V88.4052H48.8237Z" fill="#7FB8FF"/>
<path opacity="0.4" d="M41.1729 100.001H39.1768V98.0127L41.1729 100.001Z" fill="#D4DFFF"/>
<path opacity="0.4" d="M39.1768 98.0127V100.001H37.1807L39.1768 98.0127Z" fill="#7FB8FF"/>
<path opacity="0.4" d="M39.1768 98.0126L44.0003 93.209V98.0126H39.1768Z" fill="#D4DFFF"/>
<path opacity="0.4" d="M44.0005 93.209L48.8241 98.0126H44.0005V93.209Z" fill="#E9F0FF"/>
<path opacity="0.4" d="M48.8241 98.0127L46.8279 100.001H44.0005V98.0127H48.8241Z" fill="#AAD0FF"/>
<path opacity="0.4" d="M44.0003 98.0127V100.001H41.1729L39.1768 98.0127H44.0003Z" fill="#7FB8FF"/>
<path opacity="0.4" d="M48.8241 98.0126L44.0005 93.209H48.8241V98.0126Z" fill="#D4DFFF"/>
<path opacity="0.4" d="M44.0005 93.2088L48.8241 88.4053V93.2088H44.0005Z" fill="#E9F0FF"/>
<path opacity="0.4" d="M48.8237 88.4053L53.6473 93.2088H48.8237V88.4053Z" fill="#AAD0FF"/>
<path opacity="0.4" d="M53.6473 93.209L48.8237 98.0126V93.209H53.6473Z" fill="#7FB8FF"/>
<path opacity="0.4" d="M82.5918 16.3534L87.4126 11.5498V16.3534H82.5918Z" fill="#D4DFFF"/>
<path opacity="0.4" d="M87.4126 11.5498L92.2362 16.3534H87.4126V11.5498Z" fill="#E9F0FF"/>
<path opacity="0.4" d="M92.2362 16.3535L87.4126 21.1571V16.3535H92.2362Z" fill="#AAD0FF"/>
<path opacity="0.4" d="M87.4126 21.1571L82.5918 16.3535H87.4126V21.1571Z" fill="#7FB8FF"/>
<path opacity="0.4" d="M92.2363 6.74609L97.0599 11.5497H92.2363V6.74609Z" fill="#D4DFFF"/>
<path opacity="0.4" d="M97.0599 11.5498L92.2363 16.3534V11.5498H97.0599Z" fill="#E9F0FF"/>
<path opacity="0.4" d="M92.2362 16.3534L87.4126 11.5498H92.2362V16.3534Z" fill="#AAD0FF"/>
<path opacity="0.4" d="M87.4126 11.5497L92.2362 6.74609V11.5497H87.4126Z" fill="#7FB8FF"/>
<path opacity="0.4" d="M82.5916 25.9608L77.7681 21.1572H82.5916V25.9608Z" fill="#D4DFFF"/>
<path opacity="0.4" d="M77.7681 21.1571L82.5916 16.3535V21.1571H77.7681Z" fill="#E9F0FF"/>
<path opacity="0.4" d="M82.5918 16.3535L87.4126 21.1571H82.5918V16.3535Z" fill="#AAD0FF"/>
<path opacity="0.4" d="M87.4126 21.1572L82.5918 25.9608V21.1572H87.4126Z" fill="#7FB8FF"/>
<path opacity="0.4" d="M82.5916 25.9609L77.7681 30.7646V25.9609H82.5916Z" fill="#D4DFFF"/>
<path opacity="0.4" d="M77.7684 30.7646L72.9448 25.9609H77.7684V30.7646Z" fill="#E9F0FF"/>
<path opacity="0.4" d="M72.9448 25.9608L77.7684 21.1572V25.9608H72.9448Z" fill="#AAD0FF"/>
<path opacity="0.4" d="M77.7681 21.1572L82.5916 25.9608H77.7681V21.1572Z" fill="#7FB8FF"/>
<path opacity="0.4" d="M94.0233 6.74632H92.2363L93.127 5.85938C93.4352 6.14658 93.7349 6.44223 94.0233 6.74632Z" fill="#D4DFFF"/>
<path opacity="0.4" d="M97.3395 11.2711L97.0596 11.5498V10.7783C97.1557 10.9416 97.249 11.1049 97.3395 11.2711Z" fill="#AAD0FF"/>
<path opacity="0.4" d="M97.0599 10.7782V11.5497L92.2363 6.74609H94.0233C95.1853 7.9653 96.206 9.31684 97.0599 10.7782Z" fill="#7FB8FF"/>
<path opacity="0.4" d="M72.9448 25.9609L77.7684 30.7646H72.9448V25.9609Z" fill="#D4DFFF"/>
<path opacity="0.4" d="M77.7684 30.7642L72.9448 35.5678V30.7642H77.7684Z" fill="#E9F0FF"/>
<path opacity="0.4" d="M72.9446 35.5678L68.1211 30.7642H72.9446V35.5678Z" fill="#AAD0FF"/>
<path opacity="0.4" d="M68.1211 30.7646L72.9446 25.9609V30.7646H68.1211Z" fill="#7FB8FF"/>
<path opacity="0.4" d="M63.2972 35.5682L58.4736 30.7646H63.2972V35.5682Z" fill="#D4DFFF"/>
<path opacity="0.4" d="M58.4736 30.7645L63.2972 25.9609V30.7645H58.4736Z" fill="#E9F0FF"/>
<path opacity="0.4" d="M63.2974 25.9609L68.121 30.7645H63.2974V25.9609Z" fill="#AAD0FF"/>
<path opacity="0.4" d="M68.121 30.7646L63.2974 35.5682V30.7646H68.121Z" fill="#7FB8FF"/>
<path opacity="0.4" d="M53.6499 25.9613L58.4735 21.1577V25.9613H53.6499Z" fill="#D4DFFF"/>
<path opacity="0.4" d="M58.4736 21.1577L63.2972 25.9613H58.4736V21.1577Z" fill="#E9F0FF"/>
<path opacity="0.4" d="M63.2972 25.9609L58.4736 30.7645V25.9609H63.2972Z" fill="#AAD0FF"/>
<path opacity="0.4" d="M58.4735 30.7645L53.6499 25.9609H58.4735V30.7645Z" fill="#7FB8FF"/>
<path opacity="0.4" d="M72.9442 35.5684L68.1206 40.372V35.5684H72.9442Z" fill="#D4DFFF"/>
<path opacity="0.4" d="M68.121 40.372L63.2974 35.5684H68.121V40.372Z" fill="#E9F0FF"/>
<path opacity="0.4" d="M63.2974 35.5682L68.121 30.7646V35.5682H63.2974Z" fill="#AAD0FF"/>
<path opacity="0.4" d="M68.1206 30.7646L72.9442 35.5682H68.1206V30.7646Z" fill="#7FB8FF"/>
<path opacity="0.4" d="M72.9443 35.5684L77.7679 40.372H72.9443V35.5684Z" fill="#D4DFFF"/>
<path opacity="0.4" d="M77.7679 40.3721L72.9443 45.1757V40.3721H77.7679Z" fill="#E9F0FF"/>
<path opacity="0.4" d="M72.9442 45.1757L68.1206 40.3721H72.9442V45.1757Z" fill="#AAD0FF"/>
<path opacity="0.4" d="M68.1206 40.372L72.9442 35.5684V40.372H68.1206Z" fill="#7FB8FF"/>
<path opacity="0.4" d="M53.6502 25.9613L48.8267 21.1577H53.6502V25.9613Z" fill="#D4DFFF"/>
<path opacity="0.4" d="M48.8267 21.1576L53.6502 16.354V21.1576H48.8267Z" fill="#E9F0FF"/>
<path opacity="0.4" d="M53.6499 16.354L58.4735 21.1576H53.6499V16.354Z" fill="#AAD0FF"/>
<path opacity="0.4" d="M58.4735 21.1577L53.6499 25.9613V21.1577H58.4735Z" fill="#7FB8FF"/>
<path opacity="0.4" d="M53.6502 16.354L48.8267 21.1576V16.354H53.6502Z" fill="#D4DFFF"/>
<path opacity="0.4" d="M48.8265 21.1576L44.0029 16.354H48.8265V21.1576Z" fill="#E9F0FF"/>
<path opacity="0.4" d="M44.0029 16.3539L48.8265 11.5503V16.3539H44.0029Z" fill="#AAD0FF"/>
<path opacity="0.4" d="M48.8267 11.5503L53.6502 16.3539H48.8267V11.5503Z" fill="#7FB8FF"/>
<path opacity="0.4" d="M72.9443 45.1757L77.7679 40.3721V45.1757H72.9443Z" fill="#D4DFFF"/>
<path opacity="0.4" d="M77.7681 40.3721L82.5916 45.1757H77.7681V40.3721Z" fill="#E9F0FF"/>
<path opacity="0.4" d="M82.5916 45.1753L77.7681 49.9789V45.1753H82.5916Z" fill="#AAD0FF"/>
<path opacity="0.4" d="M77.7679 49.9789L72.9443 45.1753H77.7679V49.9789Z" fill="#7FB8FF"/>
<path opacity="0.4" d="M97.0594 69.1903L92.2358 64.3867H97.0594V69.1903Z" fill="#D4DFFF"/>
<path opacity="0.4" d="M92.2358 64.3871L97.0594 59.5835V64.3871H92.2358Z" fill="#E9F0FF"/>
<path opacity="0.4" d="M100 62.5118V64.3871H97.0596V59.5835L100 62.5118Z" fill="#AAD0FF"/>
<path opacity="0.4" d="M100 64.3867V66.262L97.0596 69.1903V64.3867H100Z" fill="#7FB8FF"/>
<path opacity="0.4" d="M87.4126 59.5834L92.2362 54.7798V59.5834H87.4126Z" fill="#D4DFFF"/>
<path opacity="0.4" d="M92.2358 54.7798L97.0594 59.5834H92.2358V54.7798Z" fill="#E9F0FF"/>
<path opacity="0.4" d="M97.0594 59.5835L92.2358 64.3871V59.5835H97.0594Z" fill="#AAD0FF"/>
<path opacity="0.4" d="M92.2362 64.3871L87.4126 59.5835H92.2362V64.3871Z" fill="#7FB8FF"/>
<path opacity="0.4" d="M100 69.1904V72.1188L97.0596 69.1904H100Z" fill="#E9F0FF"/>
<path opacity="0.4" d="M100 66.2622V69.1906H97.0596L100 66.2622Z" fill="#AAD0FF"/>
<path opacity="0.4" d="M87.4126 59.5834L82.5918 54.7798H87.4126V59.5834Z" fill="#D4DFFF"/>
<path opacity="0.4" d="M82.5918 54.7798L87.4126 49.979V54.7798H82.5918Z" fill="#E9F0FF"/>
<path opacity="0.4" d="M87.4126 49.979L92.2362 54.7798H87.4126V49.979Z" fill="#AAD0FF"/>
<path opacity="0.4" d="M92.2362 54.7798L87.4126 59.5834V54.7798H92.2362Z" fill="#7FB8FF"/>
<path opacity="0.4" d="M87.4126 49.979L82.5918 54.7798V49.979H87.4126Z" fill="#D4DFFF"/>
<path opacity="0.4" d="M82.5916 54.7798L77.7681 49.979H82.5916V54.7798Z" fill="#E9F0FF"/>
<path opacity="0.4" d="M77.7681 49.9789L82.5916 45.1753V49.9789H77.7681Z" fill="#AAD0FF"/>
<path opacity="0.4" d="M82.5918 45.1753L87.4126 49.9789H82.5918V45.1753Z" fill="#7FB8FF"/>
<path opacity="0.4" d="M34.353 64.3866L29.5322 59.583H34.353V64.3866Z" fill="#D4DFFF"/>
<path opacity="0.4" d="M29.5322 59.583L34.353 54.7822V59.583H29.5322Z" fill="#E9F0FF"/>
<path opacity="0.4" d="M34.353 54.7822L39.1766 59.583H34.353V54.7822Z" fill="#AAD0FF"/>
<path opacity="0.4" d="M39.1766 59.583L34.353 64.3866V59.583H39.1766Z" fill="#7FB8FF"/>
<path opacity="0.4" d="M24.7085 54.7826L29.5321 49.979V54.7826H24.7085Z" fill="#D4DFFF"/>
<path opacity="0.4" d="M29.5322 49.979L34.353 54.7826H29.5322V49.979Z" fill="#E9F0FF"/>
<path opacity="0.4" d="M34.353 54.7822L29.5322 59.583V54.7822H34.353Z" fill="#AAD0FF"/>
<path opacity="0.4" d="M29.5321 59.583L24.7085 54.7822H29.5321V59.583Z" fill="#7FB8FF"/>
<path opacity="0.4" d="M44.0003 64.3867L39.1768 69.1903V64.3867H44.0003Z" fill="#D4DFFF"/>
<path opacity="0.4" d="M39.1766 69.1903L34.353 64.3867H39.1766V69.1903Z" fill="#E9F0FF"/>
<path opacity="0.4" d="M34.353 64.3866L39.1766 59.583V64.3866H34.353Z" fill="#AAD0FF"/>
<path opacity="0.4" d="M39.1768 59.583L44.0003 64.3866H39.1768V59.583Z" fill="#7FB8FF"/>
<path opacity="0.4" d="M44 64.3867L48.8236 69.1903H44V64.3867Z" fill="#D4DFFF"/>
<path opacity="0.4" d="M48.8236 69.1904L44 73.994V69.1904H48.8236Z" fill="#E9F0FF"/>
<path opacity="0.4" d="M44.0003 73.994L39.1768 69.1904H44.0003V73.994Z" fill="#AAD0FF"/>
<path opacity="0.4" d="M39.1768 69.1903L44.0003 64.3867V69.1903H39.1768Z" fill="#7FB8FF"/>
<path opacity="0.4" d="M24.7088 54.7826L19.8853 49.979H24.7088V54.7826Z" fill="#D4DFFF"/>
<path opacity="0.4" d="M19.8853 49.9789L24.7088 45.1753V49.9789H19.8853Z" fill="#E9F0FF"/>
<path opacity="0.4" d="M24.7085 45.1753L29.5321 49.9789H24.7085V45.1753Z" fill="#AAD0FF"/>
<path opacity="0.4" d="M29.5321 49.979L24.7085 54.7826V49.979H29.5321Z" fill="#7FB8FF"/>
<path opacity="0.4" d="M24.7088 45.1753L19.8853 49.9789V45.1753H24.7088Z" fill="#D4DFFF"/>
<path opacity="0.4" d="M19.8851 49.9789L15.0615 45.1753H19.8851V49.9789Z" fill="#E9F0FF"/>
<path opacity="0.4" d="M15.0615 45.1752L19.8851 40.3716V45.1752H15.0615Z" fill="#AAD0FF"/>
<path opacity="0.4" d="M19.8853 40.3716L24.7088 45.1752H19.8853V40.3716Z" fill="#7FB8FF"/>
<path opacity="0.4" d="M44 73.994L48.8236 69.1904V73.994H44Z" fill="#D4DFFF"/>
<path opacity="0.4" d="M48.8237 69.1904L53.6473 73.994H48.8237V69.1904Z" fill="#E9F0FF"/>
<path opacity="0.4" d="M53.6473 73.9941L48.8237 78.7977V73.9941H53.6473Z" fill="#AAD0FF"/>
<path opacity="0.4" d="M48.8236 78.7977L44 73.9941H48.8236V78.7977Z" fill="#7FB8FF"/>
<path opacity="0.4" d="M68.118 98.0121L63.2944 93.2085H68.118V98.0121Z" fill="#D4DFFF"/>
<path opacity="0.4" d="M63.2944 93.2084L68.118 88.4048V93.2084H63.2944Z" fill="#E9F0FF"/>
<path opacity="0.4" d="M68.1182 88.4048L72.9417 93.2084H68.1182V88.4048Z" fill="#AAD0FF"/>
<path opacity="0.4" d="M72.9417 93.2085L68.1182 98.0121V93.2085H72.9417Z" fill="#7FB8FF"/>
<path opacity="0.4" d="M58.4707 88.4052L63.2943 83.6016V88.4052H58.4707Z" fill="#D4DFFF"/>
<path opacity="0.4" d="M63.2944 83.6016L68.118 88.4052H63.2944V83.6016Z" fill="#E9F0FF"/>
<path opacity="0.4" d="M68.118 88.4048L63.2944 93.2084V88.4048H68.118Z" fill="#AAD0FF"/>
<path opacity="0.4" d="M63.2943 93.2084L58.4707 88.4048H63.2943V93.2084Z" fill="#7FB8FF"/>
<path opacity="0.4" d="M77.765 98.0122L75.7688 100H72.9414V98.0122H77.765Z" fill="#D4DFFF"/>
<path opacity="0.4" d="M72.9417 98.0122V100H70.1143L68.1182 98.0122H72.9417Z" fill="#E9F0FF"/>
<path opacity="0.4" d="M68.1182 98.0121L72.9417 93.2085V98.0121H68.1182Z" fill="#AAD0FF"/>
<path opacity="0.4" d="M72.9414 93.2085L77.765 98.0121H72.9414V93.2085Z" fill="#7FB8FF"/>
<path opacity="0.4" d="M79.7132 99.9522C79.2297 99.9832 78.7406 100 78.2486 100H77.7651V98.0122L79.7132 99.9522Z" fill="#D4DFFF"/>
<path opacity="0.4" d="M77.7652 98.0122V100H75.769L77.7652 98.0122Z" fill="#7FB8FF"/>
<path opacity="0.4" d="M58.471 88.4052L53.6475 83.6016H58.471V88.4052Z" fill="#D4DFFF"/>
<path opacity="0.4" d="M53.6475 83.6015L58.471 78.7979V83.6015H53.6475Z" fill="#E9F0FF"/>
<path opacity="0.4" d="M58.4707 78.7979L63.2943 83.6015H58.4707V78.7979Z" fill="#AAD0FF"/>
<path opacity="0.4" d="M63.2943 83.6016L58.4707 88.4052V83.6016H63.2943Z" fill="#7FB8FF"/>
<path opacity="0.4" d="M58.471 78.7979L53.6475 83.6015V78.7979H58.471Z" fill="#D4DFFF"/>
<path opacity="0.4" d="M53.6473 83.6015L48.8237 78.7979H53.6473V83.6015Z" fill="#E9F0FF"/>
<path opacity="0.4" d="M48.8237 78.7977L53.6473 73.9941V78.7977H48.8237Z" fill="#AAD0FF"/>
<path opacity="0.4" d="M53.6475 73.9941L58.471 78.7977H53.6475V73.9941Z" fill="#7FB8FF"/>
<path opacity="0.4" d="M34.353 25.961L24.7059 35.5682L24.6465 25.9019L34.353 25.961Z" fill="#D4DFFF"/>
<path opacity="0.4" d="M24.7058 35.5682L14.9399 25.8428L24.6464 25.9019L24.7058 35.5682Z" fill="#E9F0FF"/>
<path opacity="0.4" d="M14.9399 25.8426L24.5871 16.2354L24.6465 25.9017L14.9399 25.8426Z" fill="#AAD0FF"/>
<path opacity="0.4" d="M24.5874 16.2354L34.3533 25.9608L24.6468 25.9017L24.5874 16.2354Z" fill="#7FB8FF"/>
<path opacity="0.4" d="M15.0589 45.1752L5.29297 35.4497L14.9995 35.5088L15.0589 45.1752Z" fill="#D4DFFF"/>
<path opacity="0.4" d="M5.29297 35.45L14.9401 25.8428L14.9995 35.5091L5.29297 35.45Z" fill="#E9F0FF"/>
<path opacity="0.4" d="M14.9399 25.8428L24.7058 35.5682L14.9993 35.5091L14.9399 25.8428Z" fill="#AAD0FF"/>
<path opacity="0.4" d="M24.706 35.5679L15.0589 45.1751L14.9995 35.5088L24.706 35.5679Z" fill="#7FB8FF"/>
<path opacity="0.4" d="M34.2344 6.62842L44.0003 16.3539L34.2938 16.2948L34.2344 6.62842Z" fill="#D4DFFF"/>
<path opacity="0.4" d="M44.0004 16.3536L34.3533 25.9608L34.2939 16.2944L44.0004 16.3536Z" fill="#E9F0FF"/>
<path opacity="0.4" d="M34.3533 25.9608L24.5874 16.2354L34.2939 16.2945L34.3533 25.9608Z" fill="#AAD0FF"/>
<path opacity="0.4" d="M24.5874 16.2356L34.2345 6.62842L34.2939 16.2947L24.5874 16.2356Z" fill="#7FB8FF"/>
<path opacity="0.4" d="M43.9409 6.68732L34.2344 6.62819L40.8901 0H43.8985L43.9409 6.68732Z" fill="#D4DFFF"/>
<path opacity="0.4" d="M53.6474 6.74644L43.9409 6.68731L43.8984 0H46.8729L53.6474 6.74644Z" fill="#E9F0FF"/>
<path opacity="0.4" d="M53.6474 6.74663L44.0003 16.3538L43.9409 6.6875L53.6474 6.74663Z" fill="#AAD0FF"/>
<path opacity="0.4" d="M44.0003 16.3539L34.2344 6.62842L43.9409 6.68755L44.0003 16.3539Z" fill="#7FB8FF"/>
<path opacity="0.4" d="M15.0591 45.1753L5.41191 54.7797L5.35254 45.1162L15.0591 45.1753Z" fill="#D4DFFF"/>
<path opacity="0.4" d="M5.41167 54.7798L0 49.3934V45.0825L5.3523 45.1163L5.41167 54.7798Z" fill="#E9F0FF"/>
<path opacity="0.4" d="M5.3523 45.116L0 45.0823V40.7207L5.29292 35.4497L5.3523 45.116Z" fill="#AAD0FF"/>
<path opacity="0.4" d="M5.29297 35.4497L15.0589 45.1752L5.35234 45.116L5.29297 35.4497Z" fill="#7FB8FF"/>
<path opacity="0.4" d="M5.41167 54.7795L0 54.7485V49.3931L5.41167 54.7795Z" fill="#D4DFFF"/>
<path opacity="0.4" d="M5.41167 54.7795L0 60.1688V54.7485L5.41167 54.7795Z" fill="#E9F0FF"/>
<path opacity="0.4" d="M53.6475 6.74644L46.873 0H53.6051L53.6475 6.74644Z" fill="#D4DFFF"/>
<path opacity="0.4" d="M60.4219 0L53.6474 6.74644L53.605 0H60.4219Z" fill="#7FB8FF"/>
<path d="M48.4661 43.7056H47.4766V54.5742H48.4661V43.7056Z" fill="#80EF80"/>
<path d="M48.1777 54.8532H46.8545V43.5059L47.5189 43.5228L48.1777 43.5059V54.8532ZM47.1401 54.5688H47.8922V43.7987L47.5189 43.81L47.1401 43.7987V54.5688Z" fill="white"/>
<path d="M47.1401 54.8531H45.8169V43.5677L46.7132 43.5452V43.5029L47.1401 43.5114V54.8531ZM46.1025 54.5687H46.8545V43.8267L46.1025 43.8464V54.5687Z" fill="white"/>
<path d="M75.8493 78.4402L69.7025 78.4346C69.0438 78.3248 67.794 77.6687 67.794 75.9793V68.7204C64.8224 68.7401 49.5091 68.8387 46.6704 68.8021L46.6845 67.8166C49.8032 67.8588 68.1022 67.7349 68.286 67.7321L68.7836 67.7293V75.9793C68.7836 77.1338 69.6262 77.4069 69.8354 77.4548H75.8493C76.395 77.4548 76.7145 76.0638 76.7654 75.3176L76.7739 75.2585C77.4412 71.7445 77.3761 61.7093 77.3733 61.6079V61.5713L77.379 61.5347C78.7814 51.4573 77.3139 45.6513 77.2998 45.5978C77.2631 45.4711 77.215 45.274 77.1584 45.0234C76.9662 44.2012 76.6467 42.8271 76.0529 41.6586C75.4733 40.5239 73.169 39.5778 72.3292 39.3075L71.9277 39.178L71.9927 38.7613C72.0747 38.246 72.1369 37.1056 72.1369 37.0944L72.1652 36.5988L72.6628 36.6269C73.3471 36.6664 74.7466 36.6241 75.8154 36.4833C75.9935 36.4608 76.0727 36.3848 76.1208 36.3228C76.3017 36.0835 76.2932 35.633 76.2735 35.45C76.2169 35.2838 75.9992 34.6391 75.756 34.1266C75.5977 33.7972 75.1821 33.5719 74.9898 33.4959C74.6194 33.4452 72.4678 33.1467 71.9786 33.1101C71.7015 33.0876 71.5743 33.3297 71.5658 33.3664C71.546 33.4959 71.5799 34.1097 71.611 34.701C71.6308 35.0811 71.6563 35.5232 71.6789 36.0103C71.7185 36.8888 71.6648 37.5392 71.5234 37.8912L71.3905 38.2291L71.0031 38.215C70.777 38.1981 70.5903 38.0376 70.5395 37.8152C70.3585 37.0409 68.826 33.1918 67.2964 29.8045C65.8657 26.6368 64.944 24.6602 64.0873 23.9337C63.2871 23.2551 61.0874 23.0214 60.7227 23.044C60.0441 23.0862 59.0347 23.1228 57.2534 23.044C55.3986 22.9623 47.1765 22.6695 47.0917 22.6667L47.1256 21.6812C47.2076 21.684 55.4354 21.974 57.2958 22.0585C59.0319 22.1345 60.0045 22.0979 60.6605 22.0585C61.0987 22.0331 63.6292 22.2499 64.7263 23.1791C65.7498 24.0463 66.6659 26.0061 68.1984 29.3962C69.0635 31.3109 69.9909 33.5212 70.6497 35.1909C70.6412 35.0361 70.6328 34.8897 70.6271 34.7489C70.5762 33.8394 70.5564 33.4283 70.5932 33.2059C70.6695 32.7103 71.2265 32.0599 72.0578 32.1218C72.6233 32.164 75.0803 32.5076 75.1849 32.5245L75.2782 32.547C75.38 32.5808 76.2763 32.9102 76.6523 33.7014C76.9605 34.3518 77.2206 35.1515 77.2319 35.1853L77.2489 35.2585C77.2659 35.3599 77.3931 36.2722 76.9181 36.9057C76.6891 37.2126 76.3526 37.4041 75.9511 37.4576C75.0266 37.5787 73.8984 37.6293 73.1039 37.6237C73.087 37.8828 73.0615 38.2094 73.0304 38.4994C73.9719 38.8429 76.2254 39.7918 76.9464 41.2081C77.5967 42.4808 77.9331 43.9309 78.1339 44.7953C78.1848 45.0206 78.2272 45.198 78.2611 45.3106C78.6061 46.4566 79.6324 52.5836 78.3771 61.6305C78.3827 62.3963 78.4308 71.8487 77.7635 75.4049C77.7211 75.8442 77.461 78.4402 75.8493 78.4402Z" fill="#80EF80"/>
<path d="M66.8298 36.4553C66.6574 36.4553 66.4708 36.4469 66.27 36.43C63.9826 36.2413 50.3602 35.8331 46.7467 35.8753L46.7354 34.8898C50.3602 34.8447 64.0505 35.2615 66.352 35.4501C67.3812 35.5346 67.6555 35.3459 67.7007 35.3037C66.6008 32.8428 63.7621 26.544 63.3861 25.9246C63.0383 25.353 62.2523 25.3445 62.2353 25.3445H62.207L62.1788 25.3417C59.0827 25.0095 46.7269 24.8659 46.6025 24.8659L46.6138 23.8804C47.1228 23.886 59.0827 24.024 62.2607 24.3619C62.4841 24.3675 63.6405 24.4407 64.2343 25.4177C64.7149 26.209 68.2351 34.0761 68.6337 34.9686L68.645 34.9996C68.727 35.2192 68.7355 35.5853 68.4952 35.8978C68.2068 36.2695 67.6611 36.4553 66.8298 36.4553Z" fill="#80EF80"/>
<path d="M69.5893 68.7344C68.9927 68.7344 68.5205 68.7231 68.2773 68.7175L68.3056 67.732C70.757 67.7996 74.5033 67.656 75.1564 67.1294C76.1828 66.3016 77.1215 64.9557 77.3873 63.9336L78.3457 64.1814C78.0291 65.4062 76.9745 66.9323 75.7813 67.8953C74.8793 68.6217 71.5571 68.7344 69.5893 68.7344Z" fill="#80EF80"/>
<path d="M64.3816 48.906C62.7191 48.906 62.3374 48.4415 62.0914 47.1265C61.95 46.3775 61.9868 45.1612 62.0405 44.2742C62.0772 43.6773 62.5975 43.2071 63.2252 43.2042C65.1704 43.193 71.6509 43.1592 73.4293 43.2071C74.2097 43.2296 74.7921 43.4548 75.1625 43.8772C75.7591 44.5642 75.6404 45.5751 75.5442 46.3888C75.5329 46.493 75.5188 46.5943 75.5103 46.6957C75.3774 47.9825 74.1644 48.4696 73.5424 48.5485L73.5028 48.5513C73.189 48.5682 65.7868 48.906 64.3816 48.906ZM63.2308 44.1897C63.1234 44.1897 63.0329 44.2545 63.0273 44.3362C62.9566 45.5131 62.9679 46.4423 63.064 46.9491C63.228 47.8304 63.2478 47.9234 64.3816 47.9234C65.7246 47.9234 72.9515 47.5939 73.4321 47.5714C73.5622 47.5517 74.4444 47.3799 74.5235 46.5972C74.5348 46.493 74.5461 46.386 74.5603 46.2762C74.6366 45.6229 74.7243 44.8824 74.4133 44.5248C74.2351 44.3193 73.893 44.2066 73.401 44.1926C71.6396 44.1447 65.1733 44.1785 63.2308 44.1897Z" fill="#80EF80"/>
<path d="M60.5219 56.0047H46.6789V55.0192H59.5323V42.6328C59.5323 41.8979 58.7491 41.8135 58.5936 41.805L58.5371 41.7994C52.6221 40.8111 46.7298 40.6759 46.6704 40.6759L46.6902 39.6904C46.7496 39.6904 52.6928 39.8284 58.6728 40.8223C59.3316 40.8646 60.5219 41.2869 60.5219 42.6328V56.0047Z" fill="#80EF80"/>
<path d="M57.4429 54.6082H46.1135V53.9043H57.4429C57.6493 53.9043 57.8076 53.8395 57.9434 53.7016C58.3194 53.3186 58.3788 52.4824 58.3703 52.1923V44.3928C58.3703 44.2492 58.3392 44.1479 58.2742 44.0944C58.1639 44.0014 57.9518 44.0099 57.8868 44.0211L57.8557 44.0268H57.819L46.105 43.7396L46.1219 43.0356L57.8048 43.32C57.9462 43.3031 58.3901 43.2722 58.7266 43.5509C58.8877 43.6833 59.0772 43.9395 59.0772 44.3928V52.1839C59.08 52.3106 59.0998 53.527 58.4523 54.1915C58.1865 54.4646 57.8359 54.6082 57.4429 54.6082Z" fill="#80EF80"/>
<path d="M63.0296 44.3615L62.04 44.3305C62.0796 43.0465 62.4811 42.047 63.2671 41.2783C63.6093 40.9432 64.0871 40.7602 65.1361 40.3575C65.7948 40.1041 66.6968 39.7578 67.9465 39.2284C70.282 38.2401 70.5393 37.7389 70.5477 37.7164C70.5364 37.7417 70.5166 37.8347 70.5647 37.9557L71.4864 37.5981C71.7579 38.2936 70.7287 39.1243 68.3339 40.1351C67.07 40.6701 66.1568 41.022 65.4923 41.2755C64.6045 41.6162 64.1578 41.7879 63.9627 41.9794C63.3661 42.5651 63.0607 43.3422 63.0296 44.3615Z" fill="#80EF80"/>
<path d="M60.502 42.7654L59.5464 42.5035C59.5747 42.3993 60.3013 39.9074 64.0363 38.7108C64.7658 38.4771 65.4076 38.28 65.9788 38.1054C68.1389 37.4437 69.2218 37.1114 70.3301 36.2217L70.9522 36.9904C69.6968 37.9984 68.4782 38.3701 66.27 39.0487C65.7017 39.2232 65.0655 39.4175 64.3389 39.6512C61.1099 40.6846 60.5105 42.7429 60.502 42.7654Z" fill="#80EF80"/>
<path d="M61.5625 49.6075C63.8923 49.5428 66.2221 49.4498 68.549 49.3231C69.7111 49.2584 70.8732 49.1823 72.0296 49.0866C73.1832 48.9909 74.3452 48.8783 75.4536 48.6812L75.6034 49.6554C74.4046 49.7821 73.2369 49.8102 72.0635 49.8271C70.893 49.8412 69.7252 49.8356 68.5575 49.8187C66.2249 49.7793 63.8923 49.7089 61.5625 49.6075Z" fill="#80EF80"/>
<path d="M73.6043 43.2212C73.9493 43.2296 74.2292 43.2747 74.5402 43.3676C74.8427 43.4605 75.1538 43.6041 75.4224 43.8463C75.6938 44.0856 75.8917 44.4404 75.9454 44.7952C75.9907 45.1781 75.9624 45.3921 75.9737 45.6624C75.9878 46.7155 76.0387 47.7911 76.05 48.8639C76.0585 49.9395 76.0557 51.0207 75.9058 52.1132C75.8154 52.6679 75.7079 53.1832 75.51 53.7294C75.4054 53.9941 75.2612 54.2898 74.9869 54.5066C74.7042 54.7149 74.3903 54.7741 74.1217 54.8191L73.3216 54.9346C73.0417 54.9712 72.7759 54.9909 72.5045 55.0134C71.9673 55.0528 71.4301 55.0838 70.8957 55.1148L67.6809 55.2668L61.2485 55.5146L67.6639 55.0218L70.8674 54.7459C71.4018 54.6952 71.9333 54.6445 72.4649 54.5854C72.7278 54.5544 72.9964 54.5235 73.2452 54.4812L74.0341 54.3376C74.2886 54.2869 74.5148 54.2222 74.6618 54.1011C74.806 53.9772 74.9106 53.7745 74.9869 53.5408C75.1368 53.079 75.2329 52.5384 75.2923 52.0372C75.3941 51.0066 75.3602 49.9451 75.3093 48.8864C75.2584 47.8249 75.1651 46.7662 75.1113 45.6878C75.0972 45.4259 75.0972 45.1021 75.0689 44.9585C75.0293 44.7839 74.9474 44.6516 74.8145 44.5389C74.5543 44.3137 74.0454 44.2039 73.6298 44.2095L73.6043 43.2212Z" fill="#80EF80"/>
<path d="M61.5625 53.1889C63.8951 53.1016 66.2249 52.9777 68.5519 52.8201C69.7139 52.7384 70.876 52.6455 72.0296 52.53C73.1775 52.4061 74.3509 52.2766 75.4168 52.0176L75.6374 52.9777C74.4159 53.1805 73.2567 53.2199 72.0776 53.2649C70.9043 53.2987 69.7366 53.31 68.566 53.31C66.2334 53.3072 63.8979 53.2649 61.5625 53.1889Z" fill="#80EF80"/>
<path d="M57.9488 43.666H57.3833V54.2587H57.9488V43.666Z" fill="#80EF80"/>
<path d="M56.8404 43.6382H56.2749V54.2562H56.8404V43.6382Z" fill="#80EF80"/>
<path d="M55.732 43.6099H55.1665V54.2561H55.732V43.6099Z" fill="#80EF80"/>
<path d="M54.6236 43.5845H54.0581V54.256H54.6236V43.5845Z" fill="#80EF80"/>
<path d="M53.5157 43.5562H52.9502V54.2559H53.5157V43.5562Z" fill="#80EF80"/>
<path d="M52.4073 43.5312H51.8418V54.2563H52.4073V43.5312Z" fill="#80EF80"/>
<path d="M51.2989 43.6099H50.7334V54.2561H51.2989V43.6099Z" fill="#80EF80"/>
<path d="M50.1905 43.4775H49.625V54.2561H50.1905V43.4775Z" fill="#80EF80"/>
<path d="M49.0821 43.4521H48.5166V54.256H49.0821V43.4521Z" fill="#80EF80"/>
<path d="M62.4416 68.5485C62.1447 68.1852 59.5322 64.9528 59.5322 63.0297V55.5117H60.5218V63.0297C60.5218 64.3615 62.4614 67.0139 63.2078 67.9234L62.4416 68.5485Z" fill="#80EF80"/>
<path d="M56.3828 65.654C52.3452 65.654 47.0127 65.6173 46.6763 65.6173L46.6819 64.6318C46.8063 64.6318 59.2215 64.7135 60.6946 64.6318L60.7511 65.6145C60.2365 65.6455 58.4836 65.654 56.3828 65.654Z" fill="#80EF80"/>
<path d="M55.8907 62.0078C53.2471 62.0078 49.7892 61.974 46.6733 61.9317L46.6875 60.9463C51.4828 61.0082 59.3091 61.0674 59.9056 60.9632C59.883 60.966 59.8661 60.9744 59.8548 60.9773L60.2025 61.9008C59.9905 61.9796 58.2714 62.0078 55.8907 62.0078Z" fill="#80EF80"/>
<path d="M56.869 61.5151H55.8794V65.1643H56.869V61.5151Z" fill="#80EF80"/>
<path d="M69.2221 77.7139L68.4248 77.1311C69.4823 75.6979 69.6547 70.2297 69.6321 68.2447L70.6217 68.2334C70.6302 68.9965 70.6669 75.757 69.2221 77.7139Z" fill="#80EF80"/>
<path d="M61.2432 59.2624C63.9405 59.0005 66.6379 58.8288 69.3324 58.6711C70.6782 58.581 72.0297 58.5247 73.3671 58.4233L73.8619 58.3811C74.0372 58.3698 74.1588 58.3473 74.3369 58.3304C74.5518 58.2938 74.7865 58.3726 74.9194 58.474C75.0579 58.5726 75.1427 58.6767 75.2134 58.7753C75.3463 58.9724 75.4255 59.1554 75.4933 59.3384C75.6234 59.7017 75.6997 60.0536 75.7563 60.4084C75.7845 60.5858 75.8043 60.766 75.8185 60.9462L75.8524 61.453C75.8976 62.1175 75.9542 62.8243 75.8637 63.5592C75.8156 63.9252 75.7336 64.311 75.5301 64.6939C75.4283 64.8826 75.2869 65.0684 75.1031 65.2205C74.9222 65.3725 74.6988 65.4852 74.4783 65.5415C74.2379 65.5978 74.0853 65.6062 73.91 65.6288L73.3982 65.6794L72.3803 65.7583C71.7018 65.809 71.026 65.8427 70.3474 65.8653C68.9931 65.9188 67.6359 65.93 66.2788 65.8991C65.6002 65.8737 64.9216 65.8456 64.243 65.7836C63.5673 65.7217 62.8859 65.64 62.2328 65.4626C62.5692 65.5049 62.9057 65.5133 63.2421 65.5161C63.5786 65.5218 63.9151 65.5189 64.2515 65.5077C64.9245 65.488 65.5974 65.457 66.2703 65.4119C67.6133 65.3303 68.9563 65.2148 70.2965 65.0966L72.304 64.8967L73.3021 64.784L73.7969 64.7193C73.9552 64.6968 74.139 64.6686 74.2266 64.6433C74.433 64.5785 74.5744 64.4574 74.6903 64.2406C74.8034 64.0266 74.8713 63.7422 74.9052 63.4438C74.9731 62.8412 74.9194 62.1936 74.8685 61.5206L74.843 61.0194C74.8317 60.8646 74.8147 60.7069 74.7949 60.552C74.7497 60.2451 74.6847 59.9354 74.5885 59.6622C74.5405 59.5271 74.4839 59.4004 74.4274 59.3187C74.4019 59.2793 74.3737 59.254 74.3737 59.254C74.3708 59.2568 74.433 59.2821 74.4783 59.2709C74.3171 59.2849 74.1051 59.3159 73.9439 59.3215L73.4293 59.3497C72.0665 59.4004 70.7178 59.4342 69.3635 59.4342C66.6548 59.4482 63.949 59.4088 61.2432 59.2624Z" fill="#80EF80"/>
<path d="M61.0308 61.6249C63.4086 61.5517 65.7836 61.4475 68.1558 61.3039C69.3405 61.2336 70.5252 61.1491 71.7043 61.0421C72.8833 60.9351 74.0651 60.8168 75.2103 60.6226L75.346 61.5996C74.1358 61.7179 72.9427 61.7545 71.7467 61.7798C70.5535 61.8023 69.3603 61.8051 68.17 61.7967C65.7865 61.777 63.4058 61.7179 61.0308 61.6249Z" fill="#80EF80"/>
<path d="M19.0467 60.0718C19.0637 60.0718 19.0807 60.0747 19.1005 60.0775C19.1089 60.0662 19.1174 60.0606 19.1202 60.0549C19.1061 60.0606 19.0778 60.0718 19.0467 60.0718ZM19.0467 60.0718C19.0637 60.0718 19.0807 60.0747 19.1005 60.0775C19.1089 60.0662 19.1174 60.0606 19.1202 60.0549C19.1061 60.0606 19.0778 60.0718 19.0467 60.0718ZM19.0467 60.0718C19.0637 60.0718 19.0807 60.0747 19.1005 60.0775C19.1089 60.0662 19.1174 60.0606 19.1202 60.0549C19.1061 60.0606 19.0778 60.0718 19.0467 60.0718ZM19.0467 60.0718C19.0637 60.0718 19.0807 60.0747 19.1005 60.0775C19.1089 60.0662 19.1174 60.0606 19.1202 60.0549C19.1061 60.0606 19.0778 60.0718 19.0467 60.0718ZM47.2106 23.9829V21.7782C46.6819 21.7613 46.3652 21.75 46.3652 21.75C46.3652 21.75 38.0809 22.0485 36.2007 22.1329C34.3204 22.2174 33.3167 22.1639 32.7851 22.1329C32.3554 22.1048 30.0086 22.3469 29.0671 23.1579C28.1284 23.966 27.2236 25.9398 25.7279 29.3074C24.6196 31.8049 23.4179 34.7699 22.8185 36.4283C22.6291 36.9492 22.499 37.3406 22.4509 37.5546C22.4481 37.5771 22.417 37.5799 22.4085 37.5602C22.3548 37.4138 22.2417 36.9746 22.2898 35.8511C22.3548 34.3785 22.4396 33.3367 22.3972 33.0579C22.3548 32.782 22.0127 32.3314 21.4557 32.3765C20.9015 32.4187 18.3597 32.782 18.3597 32.782C18.3597 32.782 17.5708 33.0579 17.2711 33.6971C16.9714 34.339 16.7169 35.1472 16.7169 35.1472C16.7169 35.1472 16.4794 36.6592 17.5906 36.8084C18.7018 36.9577 20.1325 36.9999 20.8365 36.9577C20.8365 36.9577 20.9015 38.1543 20.9863 38.7062C20.9863 38.7062 17.7716 39.7508 16.9714 41.3474C16.1713 42.9467 15.8518 44.898 15.6906 45.4414C15.5294 45.9848 14.2486 52.0273 15.5945 61.8767C15.5945 61.8767 15.586 63.1579 15.6029 64.9853C15.6058 65.295 15.6086 65.6216 15.6143 65.9595C15.6623 69.2623 15.8037 73.7111 16.2024 75.8623C16.2024 75.8623 16.3748 78.5063 17.6132 78.5063C18.8516 78.5063 23.678 78.5063 23.678 78.5063C23.678 78.5063 23.8222 78.4781 24.023 78.3937C24.2096 78.3092 24.4414 78.1797 24.6478 77.9601C24.71 77.8981 24.7666 77.8249 24.8175 77.7489C25.0267 77.456 25.1737 77.0562 25.1737 76.5015V68.6119C25.1737 68.6091 25.1737 68.6091 25.1737 68.6091C25.1737 68.6091 25.1992 68.6091 25.2501 68.6091C25.2897 68.6091 25.3095 68.6091 25.3095 68.6091C25.8382 68.6119 27.857 68.626 30.4695 68.6429C30.8681 68.6429 31.281 68.6457 31.7079 68.6485C37.2581 68.6851 44.6405 68.7189 46.6904 68.6964C46.8374 68.6992 47.0099 68.6992 47.2106 68.702V65.0556C47.0607 65.0556 41.618 65.0923 37.5182 65.0923C35.4203 65.0923 33.6729 65.0838 33.1697 65.0556C33.5712 64.3039 33.8652 63.5492 33.8652 62.9636V61.3699C34.0151 61.4262 35.5419 61.4459 37.5182 61.4459C41.4116 61.4459 47.0353 61.3727 47.2106 61.3699V54.3925H46.1729C46.0825 54.3925 46.0316 54.3925 46.0316 54.3925H36.0197C35.9405 54.3925 35.867 54.3841 35.7963 54.3728C35.7454 54.3644 35.7002 54.3503 35.655 54.3362C35.5843 54.3109 35.5192 54.2771 35.4599 54.2377C35.4486 54.2321 35.4344 54.2236 35.4231 54.2123C35.3948 54.1954 35.3694 54.1757 35.3439 54.1532C35.2931 54.1082 35.2478 54.0603 35.2054 54.0096C35.1884 53.9899 35.1715 53.9646 35.1573 53.9448C35.1121 53.8857 35.0725 53.8238 35.0386 53.7534C35.0188 53.7168 34.999 53.6774 34.982 53.6379C34.9651 53.5985 34.9481 53.5591 34.934 53.5197C34.9198 53.4774 34.9057 53.438 34.8944 53.3986C34.8803 53.3592 34.8689 53.3141 34.8576 53.2719C34.8463 53.2325 34.8378 53.1959 34.8294 53.1565C34.7813 52.9396 34.7587 52.7341 34.7474 52.5764C34.7474 52.5539 34.7445 52.5314 34.7445 52.506C34.7361 52.3709 34.7389 52.2836 34.7389 52.2836C34.7389 52.2836 34.7389 45.2471 34.7389 44.3545C34.7389 43.4591 35.6352 43.6224 35.6352 43.6224L35.7963 43.6196L36.834 43.5943L38.9093 43.5436L39.947 43.5183L40.9846 43.4929L43.06 43.4394L44.0976 43.4141L45.1353 43.3887L46.0316 43.3662V43.3324L46.1729 43.3352L46.6904 43.3493L47.2106 43.3352V35.1781C47.0325 35.1781 46.8685 35.1781 46.7215 35.1809V35.1838C46.7101 35.1838 46.7017 35.1838 46.6904 35.1809C46.6819 35.1838 46.6706 35.1838 46.6593 35.1838V35.1809C42.944 35.1415 29.3611 35.5639 27.1501 35.7525C24.9278 35.9356 25.2812 34.9613 25.2812 34.9613C25.2812 34.9613 29.1745 26.0975 29.6524 25.295C30.1585 24.4503 31.2329 24.4615 31.2329 24.4615C34.0829 24.1518 44.533 24.0026 46.5264 23.9772V23.9744C46.5264 23.9744 46.5829 23.9744 46.6904 23.9772C46.7978 23.9744 46.8572 23.9744 46.8572 23.9744V23.9772C46.9561 23.9772 47.0749 23.98 47.2106 23.9829ZM25.3264 61.7951C24.1333 61.8063 22.9429 61.8035 21.7497 61.7782C20.7093 61.7556 19.6716 61.7275 18.6226 61.6374C18.5746 62.2765 18.5293 62.8932 18.5943 63.4704C18.6255 63.7717 18.6961 64.0589 18.8092 64.2813C18.9252 64.501 19.0665 64.6248 19.2729 64.6896C19.3606 64.7149 19.5444 64.7459 19.7027 64.7684L20.1947 64.8332L21.1956 64.9487L23.203 65.1514C24.5432 65.2725 25.8862 65.3935 27.2293 65.4724C27.9022 65.5202 28.5751 65.5484 29.248 65.5737C29.5845 65.5822 29.921 65.5878 30.2574 65.5794C30.5939 65.5766 30.9304 65.5681 31.2668 65.5231C30.6137 65.7033 29.9323 65.7877 29.2565 65.8497C28.5779 65.9144 27.8994 65.9426 27.2208 65.9651C25.8636 65.9989 24.5065 65.9876 23.1521 65.9342C22.4736 65.9116 21.795 65.8778 21.1192 65.8243L20.1014 65.7427L19.5868 65.692C19.4115 65.6695 19.2588 65.661 19.0185 65.6047C18.7979 65.5456 18.5746 65.433 18.3936 65.2781C18.2098 65.1232 18.0713 64.9346 17.9667 64.7403C17.7631 64.3517 17.6811 63.9603 17.633 63.5858C17.5426 62.8369 17.5991 62.1189 17.6443 61.4431L17.6783 60.9278C17.6924 60.7448 17.7122 60.5646 17.7405 60.3816C17.797 60.0183 17.8734 59.6607 18.0034 59.2919C18.0713 59.1089 18.1476 58.9174 18.2833 58.7203C18.3512 58.6217 18.436 58.5147 18.5746 58.4134C18.7103 58.312 18.9421 58.2304 19.157 58.267C19.3323 58.2839 19.4539 58.3092 19.632 58.3205L20.1268 58.3599C21.4613 58.4669 22.8128 58.5204 24.1587 58.6133C26.8561 58.7738 29.5534 58.9484 32.2508 59.2159C29.5449 59.3623 26.8391 59.4045 24.1361 59.3904C22.7817 59.3904 21.4302 59.3566 20.0703 59.306L19.5557 59.2778C19.42 59.2722 19.2475 59.2468 19.1005 59.2328C19.092 59.2412 18.9591 59.4862 18.911 59.6241C18.8177 59.8973 18.7527 60.2126 18.7074 60.5252C18.7018 60.5758 18.6933 60.6237 18.6905 60.6716C19.7084 60.8293 20.7488 60.9306 21.7893 61.0264C22.9684 61.1334 24.153 61.2235 25.3377 61.2939C27.7099 61.4403 30.085 61.5473 32.4628 61.6205C30.085 61.7134 27.7071 61.7753 25.3264 61.7951ZM30.2348 42.8031C30.2405 42.8031 30.2489 42.8031 30.2546 42.8059C30.5995 42.8115 30.8795 43.0509 30.9219 43.3719C30.9247 43.3803 30.9247 43.3859 30.9247 43.3944C30.9275 43.4028 30.9275 43.4113 30.9275 43.4197C30.9388 43.6027 30.9501 43.8111 30.9586 44.0335C30.9869 44.7572 30.9897 45.6357 30.8851 46.2016C30.6815 47.2998 30.4893 47.601 29.0812 47.601C27.6703 47.601 19.9826 47.2435 19.9826 47.2435C19.9826 47.2435 18.5746 47.0632 18.4445 45.8018C18.4275 45.6413 18.4077 45.4752 18.3879 45.3034L18.3823 45.4498C18.3286 46.4719 18.2466 47.4715 18.1957 48.4767C19.256 48.6598 20.3615 48.7696 21.4642 48.8597C22.6206 48.9582 23.7827 49.0342 24.9447 49.1018C27.2689 49.2285 29.5986 49.3243 31.9284 49.389C29.5986 49.4932 27.2689 49.5636 24.9334 49.603C23.7657 49.6227 22.598 49.6255 21.4274 49.6115C20.3417 49.5974 19.2588 49.5692 18.1533 49.4651C18.1278 50.276 18.1278 51.0841 18.2042 51.8725C19.2333 52.1146 20.3587 52.2413 21.4613 52.3624C22.6178 52.4807 23.777 52.5736 24.9419 52.6609C27.266 52.8214 29.5958 52.9453 31.9284 53.0354C29.5958 53.1114 27.2604 53.1564 24.9249 53.1621C23.7544 53.1593 22.5838 53.1508 21.4133 53.1114C20.4039 53.072 19.4086 53.0382 18.3795 52.8974C18.419 53.0776 18.4671 53.2522 18.5208 53.4183C18.6028 53.652 18.7046 53.8576 18.8545 53.973C19.0043 54.0941 19.2362 54.1588 19.4906 54.2067L20.2767 54.3503C20.5283 54.3954 20.7969 54.4263 21.057 54.4573C21.5886 54.5164 22.1201 54.5671 22.6517 54.6206L25.8495 54.9022C27.9389 55.0739 29.7372 55.2147 32.2508 55.4006C30.1104 55.3245 27.9729 55.2429 25.8325 55.15L22.6234 54.9951C22.089 54.9641 21.5547 54.9332 21.0174 54.8909C20.7488 54.8684 20.4831 54.8515 20.2031 54.8149L19.4058 54.6995C19.14 54.6544 18.829 54.6037 18.5435 54.3982C18.2551 54.1926 18.108 53.8857 18.0006 53.621C17.797 53.0635 17.6867 52.5426 17.5963 51.9767C17.4436 50.8673 17.4351 49.7691 17.4436 48.6767C17.4549 47.5842 17.5058 46.4945 17.5199 45.4245V45.0247C17.5228 44.9571 17.5199 44.9008 17.5199 44.8191L17.5369 44.5573C17.5793 44.2025 17.7518 43.8308 18.0176 43.5718C18.2805 43.3155 18.6311 43.1241 18.9223 43.0002C19.0326 42.9523 19.5161 42.8509 19.7932 42.8228C19.8101 42.82 19.8243 42.82 19.8356 42.82C19.8441 42.82 19.8497 42.82 19.8497 42.82C19.9119 42.8115 19.9798 42.8087 20.0476 42.8059C21.8119 42.7552 28.1736 42.7862 30.2348 42.8031ZM19.0467 60.0718C19.0637 60.0718 19.0807 60.0747 19.1005 60.0775C19.1089 60.0662 19.1174 60.0606 19.1202 60.0549C19.1061 60.0606 19.0778 60.0718 19.0467 60.0718ZM19.0467 60.0718C19.0637 60.0718 19.0807 60.0747 19.1005 60.0775C19.1089 60.0662 19.1174 60.0606 19.1202 60.0549C19.1061 60.0606 19.0778 60.0718 19.0467 60.0718ZM19.0467 60.0718C19.0637 60.0718 19.0807 60.0747 19.1005 60.0775C19.1089 60.0662 19.1174 60.0606 19.1202 60.0549C19.1061 60.0606 19.0778 60.0718 19.0467 60.0718ZM19.0467 60.0718C19.0637 60.0718 19.0807 60.0747 19.1005 60.0775C19.1089 60.0662 19.1174 60.0606 19.1202 60.0549C19.1061 60.0606 19.0778 60.0718 19.0467 60.0718Z" fill="white"/>
<path d="M45.7036 54.6755H44.0977V43.1395L45.7036 43.1001V54.6755ZM44.6631 54.1124H45.1381V43.6801L44.6631 43.6914V54.1124Z" fill="white"/>
<path d="M44.6631 54.6756H43.0571V43.1649L44.6631 43.1255V54.6756ZM43.6198 54.1124H44.0948V43.7055L43.6198 43.7168V54.1124Z" fill="white"/>
<path d="M43.62 54.6757H40.9707V43.2186L43.62 43.1538V54.6757ZM41.539 54.1126H43.0545V43.731L41.539 43.7676V54.1126Z" fill="white"/>
<path d="M41.5386 54.6758H39.9326V43.244L41.5386 43.2046V54.6758ZM40.4981 54.1127H40.9731V43.7818L40.4981 43.7931V54.1127Z" fill="white"/>
<path d="M40.4985 54.6759H38.8926V43.2694L40.4985 43.23V54.6759ZM39.4581 54.1127H39.9331V43.8072L39.4581 43.8185V54.1127Z" fill="white"/>
<path d="M39.458 54.6759H37.8521V43.2948L39.458 43.2554V54.6759ZM38.4175 54.1128H38.8925V43.8354L38.4175 43.8467V54.1128Z" fill="white"/>
<path d="M38.4175 54.6755H36.8115V43.3197L38.4175 43.2803V54.6755ZM37.377 54.1123H37.852V43.8603L37.377 43.8716V54.1123Z" fill="white"/>
<path d="M37.377 54.6756H36.2771C36.1923 54.6756 36.1075 54.6672 36.0085 54.6531L35.771 54.6137V43.348L37.377 43.3086V54.6756ZM36.3336 54.1125H36.8086V43.8858L36.3336 43.8971V54.1125Z" fill="white"/>
<path d="M36.3335 54.7178L35.9942 54.6502C34.6568 54.3856 34.702 52.3611 34.7049 52.2766V44.356C34.7049 43.9224 34.883 43.6802 35.0357 43.5563C35.3552 43.2916 35.7821 43.3254 35.9065 43.3423L36.3306 43.3339V54.7178H36.3335ZM35.734 43.8942C35.6323 43.8942 35.4909 43.9139 35.4004 43.9899C35.3184 44.0603 35.276 44.1814 35.276 44.356V52.285C35.276 52.3047 35.259 53.4648 35.7708 53.9266V43.8942C35.7567 43.8942 35.7454 43.8942 35.734 43.8942Z" fill="white"/>
<path d="M42.5791 43.5591H42.0137V54.394H42.5791V43.5591Z" fill="white"/>
<path d="M38.0159 61.4219H37.0234V65.1668H38.0159V61.4219Z" fill="white"/>
<path d="M75.8877 18.3418C79.2523 18.3418 81.9779 21.1519 81.9779 24.6152V75.6612C81.9779 79.1274 79.2523 81.9346 75.8877 81.9346H54.569C51.2043 81.9346 48.4787 79.1245 48.4787 75.6612V24.6152C48.4787 21.149 51.2043 18.3418 54.569 18.3418H75.8877ZM75.8877 15.2051H54.569C49.522 15.2051 45.4336 19.4174 45.4336 24.6152V75.6612C45.4336 80.859 49.5249 85.0713 54.569 85.0713H75.8877C80.9346 85.0713 85.0231 80.859 85.0231 75.6612V24.6152C85.0231 19.4174 80.9318 15.2051 75.8877 15.2051Z" fill="white"/>
<path d="M67.9938 71.4485C67.2869 70.7445 66.3086 70.3081 65.2286 70.3081C63.0656 70.3081 61.3154 72.0538 61.3154 74.205C61.3154 76.3563 63.0656 78.102 65.2286 78.102C67.3887 78.102 69.1389 76.3563 69.1389 74.205C69.1389 73.1294 68.7006 72.1552 67.9938 71.4485ZM67.7817 75.3707C67.7817 75.8156 67.417 76.1789 66.9703 76.1789H63.4841C63.0373 76.1789 62.6726 75.8156 62.6726 75.3707V73.2871C62.6726 72.8394 63.0373 72.479 63.4841 72.479H64.2701V72.1355C64.2701 71.9553 64.4171 71.8117 64.5981 71.8117H65.8591C66.0372 71.8117 66.1842 71.9553 66.1842 72.1355V72.479H66.9703C67.417 72.479 67.7817 72.8394 67.7817 73.2871V75.3707ZM65.2286 72.9239C64.4567 72.9239 63.8318 73.5462 63.8318 74.3149C63.8318 75.0835 64.4567 75.7058 65.2286 75.7058C66.0004 75.7058 66.6253 75.0835 66.6253 74.3149C66.6253 73.5462 66.0004 72.9239 65.2286 72.9239ZM65.2286 75.306C64.6772 75.306 64.2333 74.8639 64.2333 74.3149C64.2333 73.7686 64.6772 73.3237 65.2286 73.3237C65.7771 73.3237 66.2238 73.7686 66.2238 74.3149C66.2238 74.8639 65.7771 75.306 65.2286 75.306Z" fill="white"/>
</g>
<defs>
<linearGradient id="paint0_linear_338_355" x1="50" y1="100" x2="50" y2="0" gradientUnits="userSpaceOnUse">
<stop stop-color="#0052D4"/>
<stop offset="0.5279" stop-color="#4364F7"/>
<stop offset="1" stop-color="#6FB1FC"/>
</linearGradient>
<clipPath id="clip0_338_355">
<rect width="100" height="100" fill="white"/>
</clipPath>
</defs>
</svg>
