<svg width="34" height="17" viewBox="0 0 34 17" fill="none" xmlns="http://www.w3.org/2000/svg">
<path fill-rule="evenodd" clip-rule="evenodd" d="M14.3097 0.00519786C14.0292 0.00519786 13.7973 0.225694 13.7973 0.492518V1.40621V1.41297V2.27253V5.98825C13.7973 6.11994 13.6835 6.23536 13.5341 6.2319H12.8581H1.49429C1.21375 6.2319 0.981942 6.44907 0.981942 6.71243C0.974644 7.66539 0.960623 8.61893 0.960623 9.57535C0.589004 9.56495 0.0145383 9.99617 0 10.5229V11.4908C0 12.4853 0.812078 13.3063 1.83585 13.3791L2.76803 13.3994C2.77895 10.9702 4.85006 9.01359 7.40036 9.01359C9.9579 9.01359 12.0327 10.987 12.0327 13.4197H16.5369H18.0455H23.4819C23.4819 10.9836 25.5496 9.01359 28.1071 9.01359C30.6647 9.01359 32.7394 10.9837 32.7394 13.4129C33.1439 13.3921 34.0353 13.2318 33.9989 12.0051L33.9775 9.87315C33.9594 7.95339 33.6825 6.78724 31.7005 6.4823L29.0891 6.083C28.2621 5.95825 27.6393 5.77815 27.4098 5.50093C24.8267 2.34752 23.7069 0.133412 18.3586 0.00519786C18.0197 -0.00173262 18.1602 -0.00173262 17.8177 0.00519786H14.3097H14.3097ZM19.2694 1.21669C21.0188 1.30295 22.8299 1.92261 25.5241 5.4468C25.6479 5.60967 25.7877 6.2319 25.1683 6.2319C23.5835 6.2319 19.1002 6.23534 17.5118 6.2319C17.3442 6.2319 17.2058 6.10025 17.2058 5.94085V1.5145C17.2058 1.35164 17.3478 1.22695 17.5118 1.22349C18.1111 1.22086 18.6862 1.18797 19.2694 1.21669ZM7.40749 9.85285C5.3308 9.85285 3.6432 11.4479 3.6432 13.4197C3.6432 15.3949 5.3308 17 7.40749 17C9.48411 17 11.1646 15.3949 11.1646 13.4197C11.1646 11.4479 9.48411 9.85285 7.40749 9.85285ZM28.1142 9.85285C26.0412 9.85285 24.3642 11.4479 24.3642 13.4197C24.3642 15.3949 26.0376 17 28.1142 17C30.1908 17 31.8784 15.3949 31.8784 13.4197C31.8784 11.4479 30.1872 9.85285 28.1142 9.85285ZM7.40749 11.6735C8.42396 11.6735 9.24328 12.4631 9.24328 13.4264C9.24328 14.3932 8.42396 15.1726 7.40749 15.1726C6.39101 15.1726 5.56451 14.3932 5.56451 13.4264C5.56451 12.4631 6.39101 11.6735 7.40749 11.6735ZM28.1142 11.6735C29.1307 11.6735 29.9572 12.4631 29.9572 13.4264C29.9572 14.3932 29.1307 15.1726 28.1142 15.1726C27.0977 15.1726 26.2784 14.3932 26.2784 13.4264C26.2784 12.4631 27.0977 11.6735 28.1142 11.6735Z" fill="#2C5DEB"/>
</svg>
