<svg width="100" height="100" viewBox="0 0 100 100" fill="none" xmlns="http://www.w3.org/2000/svg">
<rect width="100" height="100" rx="20" fill="#2C5DEB"/>
<path d="M76 47.6229V50.0149C75.9968 55.6216 74.1813 61.077 70.8243 65.5676C67.4672 70.0582 62.7485 73.3433 57.3719 74.933C51.9953 76.5227 46.2489 76.3318 40.9896 74.3888C35.7304 72.4458 31.2401 68.8547 28.1885 64.1512C25.1369 59.4478 23.6875 53.8838 24.0564 48.2893C24.4253 42.6947 26.5927 37.3693 30.2355 33.1073C33.8783 28.8452 38.8012 25.8749 44.2701 24.6393C49.7389 23.4036 55.4607 23.969 60.582 26.2509M76 29.2147L50 55.2407L42.2 47.4407" stroke="white" stroke-width="3" stroke-linecap="round" stroke-linejoin="round"/>
</svg>
