<svg width="100" height="100" viewBox="0 0 100 100" fill="none" xmlns="http://www.w3.org/2000/svg">
<rect width="100" height="100" rx="20" fill="#2C5DEB"/>
<g clip-path="url(#clip0_102_74)">
<path d="M66 22C67.0609 22 68.0783 22.4214 68.8284 23.1716C69.5786 23.9217 70 24.9391 70 26V74C70 75.0609 69.5786 76.0783 68.8284 76.8284C68.0783 77.5786 67.0609 78 66 78H34C32.9391 78 31.9217 77.5786 31.1716 76.8284C30.4214 76.0783 30 75.0609 30 74V26C30 24.9391 30.4214 23.9217 31.1716 23.1716C31.9217 22.4214 32.9391 22 34 22H66ZM34 18C31.8783 18 29.8434 18.8429 28.3431 20.3431C26.8429 21.8434 26 23.8783 26 26V74C26 76.1217 26.8429 78.1566 28.3431 79.6569C29.8434 81.1571 31.8783 82 34 82H66C68.1217 82 70.1566 81.1571 71.6569 79.6569C73.1571 78.1566 74 76.1217 74 74V26C74 23.8783 73.1571 21.8434 71.6569 20.3431C70.1566 18.8429 68.1217 18 66 18H34Z" fill="white"/>
<path d="M50 74C51.0609 74 52.0783 73.5786 52.8284 72.8284C53.5786 72.0783 54 71.0609 54 70C54 68.9391 53.5786 67.9217 52.8284 67.1716C52.0783 66.4214 51.0609 66 50 66C48.9391 66 47.9217 66.4214 47.1716 67.1716C46.4214 67.9217 46 68.9391 46 70C46 71.0609 46.4214 72.0783 47.1716 72.8284C47.9217 73.5786 48.9391 74 50 74Z" fill="white"/>
</g>
<defs>
<clipPath id="clip0_102_74">
<rect width="64" height="64" fill="white" transform="translate(18 18)"/>
</clipPath>
</defs>
</svg>
