<svg width="100" height="102" viewBox="0 0 100 102" fill="none" xmlns="http://www.w3.org/2000/svg">
<rect y="0.110413" width="100" height="100" rx="20" fill="#2C5DEB"/>
<path d="M30.386 40.7152C30.386 39.7963 31.1057 39.0514 31.9935 39.0514H33.7848C34.6726 39.0514 35.3923 39.7963 35.3923 40.7152V46.2296C35.3923 47.1485 34.6726 47.8934 33.7848 47.8934H31.9935C31.1057 47.8934 30.386 47.1485 30.386 46.2296V40.7152Z" fill="#2C5DEB"/>
<path d="M40.0313 57.3151C40.5386 57.3151 40.9499 57.7408 40.9499 58.2659V61.1181C40.9499 61.6432 40.5386 62.0689 40.0313 62.0689H35.8976C35.3902 62.0689 34.979 61.6432 34.979 61.1181V58.2659C34.979 57.7408 35.3902 57.3151 35.8976 57.3151H40.0313Z" fill="#2C5DEB"/>
<path d="M69.6101 40.7152C69.6101 39.7963 68.8904 39.0514 68.0026 39.0514H66.2113C65.3235 39.0514 64.6038 39.7963 64.6038 40.7152V46.2296C64.6038 47.1485 65.3235 47.8934 66.2113 47.8934H68.0026C68.8904 47.8934 69.6101 47.1485 69.6101 46.2296V40.7152Z" fill="#2C5DEB"/>
<path d="M59.9648 57.3151C59.4575 57.3151 59.0462 57.7408 59.0462 58.2659V61.1181C59.0462 61.6432 59.4575 62.0689 59.9648 62.0689H64.0985C64.6058 62.0689 65.0171 61.6432 65.0171 61.1181V58.2659C65.0171 57.7408 64.6058 57.3151 64.0985 57.3151H59.9648Z" fill="#2C5DEB"/>
<path d="M43.7975 60.1198V56.6021C43.7975 55.5519 44.6201 54.7005 45.6347 54.7005H54.4487C55.4633 54.7005 56.2858 55.5519 56.2858 56.6021V60.1674C56.2858 61.2176 55.4633 62.0689 54.4487 62.0689H49.998L45.6347 62.0214C44.6201 62.0214 43.7975 61.17 43.7975 60.1198Z" fill="#2C5DEB"/>
<path d="M33.7389 38.6783V30.9225C33.7389 29.6098 34.767 28.5456 36.0354 28.5456H63.9607C65.2291 28.5456 66.2572 29.6098 66.2572 30.9225V38.6783M49.998 36.627H40.8751C39.7143 36.627 38.736 37.5235 38.5955 38.7161L37.0949 51.4484H35.622C33.5927 51.4484 31.9476 53.1511 31.9476 55.2514V69.2854C31.9476 70.073 32.5645 70.7115 33.3255 70.7115H37.4638C38.2248 70.7115 38.8417 70.073 38.8417 69.2854V66.4836M31.9935 66.2905H68.0026M38.0195 49.1521H61.8847M33.7389 47.8934V51.9852M49.6306 36.627H58.9857C60.1443 36.627 61.1215 37.5203 61.2646 38.7103L62.7964 51.4484H64.3741C66.4034 51.4484 68.0485 53.1511 68.0485 55.2514V69.2854C68.0485 70.073 67.4316 70.7115 66.6706 70.7115H62.3919C61.631 70.7115 61.014 70.073 61.014 69.2854V66.4836M66.248 47.8957V51.6502M31.9935 47.8934H33.7848C34.6726 47.8934 35.3923 47.1485 35.3923 46.2296V40.7152C35.3923 39.7963 34.6726 39.0514 33.7848 39.0514H31.9935C31.1057 39.0514 30.386 39.7963 30.386 40.7152V46.2296C30.386 47.1485 31.1057 47.8934 31.9935 47.8934ZM34.979 58.2659V61.1181C34.979 61.6432 35.3902 62.0689 35.8976 62.0689H40.0313C40.5386 62.0689 40.9499 61.6432 40.9499 61.1181V58.2659C40.9499 57.7408 40.5386 57.3151 40.0313 57.3151H35.8976C35.3902 57.3151 34.979 57.7408 34.979 58.2659ZM68.0026 47.8934H66.2113C65.3235 47.8934 64.6038 47.1485 64.6038 46.2296V40.7152C64.6038 39.7963 65.3235 39.0514 66.2113 39.0514H68.0026C68.8904 39.0514 69.6101 39.7963 69.6101 40.7152V46.2296C69.6101 47.1485 68.8904 47.8934 68.0026 47.8934ZM65.0171 58.2659V61.1181C65.0171 61.6432 64.6058 62.0689 64.0985 62.0689H59.9648C59.4575 62.0689 59.0462 61.6432 59.0462 61.1181V58.2659C59.0462 57.7408 59.4575 57.3151 59.9648 57.3151H64.0985C64.6058 57.3151 65.0171 57.7408 65.0171 58.2659ZM43.7975 56.6021V60.1198C43.7975 61.17 44.6201 62.0214 45.6347 62.0214L49.998 62.0689H54.4487C55.4633 62.0689 56.2858 61.2176 56.2858 60.1674V56.6021C56.2858 55.5519 55.4633 54.7005 54.4487 54.7005H45.6347C44.6201 54.7005 43.7975 55.5519 43.7975 56.6021Z" stroke="white" stroke-width="2" stroke-linecap="round"/>
<path d="M53.9196 19.7481L62.6887 16.4545L58.7554 7.95313" stroke="white" stroke-width="2.5" stroke-linecap="round" stroke-linejoin="round"/>
<path d="M15.1327 61.4357C13.177 54.8985 13.0664 47.9279 14.8134 41.3085C16.5604 34.6891 20.0955 28.6839 25.0209 23.9689C29.9462 19.254 36.0661 16.0166 42.6915 14.6212C49.3169 13.2258 56.1847 13.7279 62.5218 16.0708" stroke="white" stroke-width="2.5" stroke-linecap="round" stroke-linejoin="round"/>
<path d="M43.8508 80.8112L35.2392 84.497L39.5519 92.8124" stroke="white" stroke-width="2.5" stroke-linecap="round" stroke-linejoin="round"/>
<path d="M84.6417 39.7576C86.6258 46.3896 86.7102 53.4658 84.8853 60.1671C83.0604 66.8684 79.4007 72.9208 74.3299 77.6236C69.2591 82.3264 62.9845 85.4873 56.2324 86.7406C49.4804 87.9938 42.5269 87.288 36.1771 84.705" stroke="white" stroke-width="2.5" stroke-linecap="round" stroke-linejoin="round"/>
</svg>
