<svg width="100" height="100" viewBox="0 0 100 100" fill="none" xmlns="http://www.w3.org/2000/svg">
<rect width="100" height="100" rx="20" fill="#2C5DEB"/>
<path d="M17 24H27.1818L34.0036 57.7938C34.2364 58.9557 34.8739 59.9995 35.8047 60.7423C36.7354 61.4852 37.9 61.8798 39.0945 61.8571H63.8364C65.0309 61.8798 66.1955 61.4852 67.1262 60.7423C68.057 59.9995 68.6945 58.9557 68.9273 57.7938L73 36.619H29.7273M39.9091 74.4762C39.9091 75.8701 38.7695 77 37.3636 77C35.9578 77 34.8182 75.8701 34.8182 74.4762C34.8182 73.0823 35.9578 71.9524 37.3636 71.9524C38.7695 71.9524 39.9091 73.0823 39.9091 74.4762ZM67.9091 74.4762C67.9091 75.8701 66.7695 77 65.3636 77C63.9578 77 62.8182 75.8701 62.8182 74.4762C62.8182 73.0823 63.9578 71.9524 65.3636 71.9524C66.7695 71.9524 67.9091 73.0823 67.9091 74.4762Z" stroke="white" stroke-width="3" stroke-linecap="round" stroke-linejoin="round"/>
</svg>
