<svg width="100" height="100" viewBox="0 0 100 100" fill="none" xmlns="http://www.w3.org/2000/svg">
<rect width="100" height="100" rx="20" fill="#2C5DEB"/>
<path d="M57.0163 35.7753C56.515 36.2868 56.2342 36.9744 56.2342 37.6906C56.2342 38.4068 56.515 39.0944 57.0163 39.6059L61.3941 43.9837C61.9056 44.485 62.5932 44.7658 63.3094 44.7658C64.0256 44.7658 64.7132 44.485 65.2247 43.9837L75.5399 33.6685C76.9157 36.7089 77.3323 40.0963 76.7341 43.3794C76.1359 46.6625 74.5514 49.6854 72.1916 52.0451C69.8319 54.4048 66.8091 55.9894 63.5259 56.5876C60.2428 57.1857 56.8554 56.7692 53.815 55.3934L34.9084 74.3C33.8199 75.3885 32.3436 76 30.8042 76C29.2648 76 27.7885 75.3885 26.7 74.3C25.6115 73.2115 25 71.7352 25 70.1958C25 68.6564 25.6115 67.1801 26.7 66.0916L45.6067 47.185C44.2308 44.1446 43.8143 40.7572 44.4124 37.4741C45.0106 34.1909 46.5952 31.1681 48.9549 28.8084C51.3146 26.4486 54.3375 24.8641 57.6206 24.2659C60.9037 23.6677 64.2911 24.0843 67.3315 25.4601L57.0163 35.7753Z" stroke="white" stroke-width="3" stroke-linecap="round" stroke-linejoin="round"/>
</svg>
