<svg width="100" height="100" viewBox="0 0 100 100" fill="none" xmlns="http://www.w3.org/2000/svg">
<rect width="100" height="100" rx="20" fill="#2C5DEB"/>
<circle cx="50" cy="42" r="12.5" stroke="white" stroke-width="3"/>
<path d="M49.2312 79.1413L49.21 79.1172L49.1877 79.094L49.0338 78.9337C46.2213 76.0061 41.1255 70.7018 36.6974 64.4414C32.1502 58.0125 28.5 50.8375 28.5 44.3547C28.5 31.0637 37.5985 20.5 50 20.5C62.4117 20.5 71.5 30.7934 71.5 44.3547C71.5 50.9806 67.8469 58.1572 63.3048 64.5439C59.0343 70.5487 54.1447 75.6304 51.2737 78.6142C51.1135 78.7807 50.9595 78.9407 50.8123 79.094L50.79 79.1172L50.7687 79.1413C50.6648 79.2593 50.542 79.3495 50.4103 79.4098C50.2787 79.47 50.1392 79.5 50 79.5C49.8608 79.5 49.7213 79.47 49.5897 79.4098C49.458 79.3495 49.3352 79.2593 49.2312 79.1413Z" stroke="white" stroke-width="3"/>
</svg>
