<svg width="79" height="66" viewBox="0 0 79 66" fill="none" xmlns="http://www.w3.org/2000/svg">
<path d="M13.7361 3.30758C14.2772 3.19697 14.6262 2.66867 14.5156 2.12757C14.405 1.58647 13.8767 1.23749 13.3356 1.3481L13.7361 3.30758ZM17.5651 1.15384C17.0161 1.09375 16.5223 1.49009 16.4622 2.03909C16.4021 2.5881 16.7985 3.08187 17.3475 3.14197L17.5651 1.15384ZM27.6979 14.7372C27.6979 21.1823 22.4895 26.4019 16.0709 26.4019V28.4019C23.5997 28.4019 29.6979 22.2812 29.6979 14.7372H27.6979ZM16.0709 26.4019C9.65224 26.4019 4.44385 21.1823 4.44385 14.7372H2.44385C2.44385 22.2812 8.54206 28.4019 16.0709 28.4019V26.4019ZM4.44385 14.7372C4.44385 9.09603 8.43554 4.39107 13.7361 3.30758L13.3356 1.3481C7.1186 2.61891 2.44385 8.1311 2.44385 14.7372H4.44385ZM17.3475 3.14197C23.1654 3.77879 27.6979 8.7257 27.6979 14.7372H29.6979C29.6979 7.69893 24.3909 1.90099 17.5651 1.15384L17.3475 3.14197Z" fill="white"/>
<path d="M20.8838 44.2193C20.5872 44.152 20.2761 44.2233 20.0384 44.4131C19.8008 44.6028 19.6624 44.8904 19.6624 45.1945V54.8826C19.6624 60.0806 15.4784 64.2829 10.3312 64.2829C5.18399 64.2829 1 60.0806 1 54.8826V38.9502C1 33.7522 5.18399 29.5498 10.3312 29.5498C13.9505 29.5498 17.0732 31.67 18.6216 34.7397C18.7532 35.0007 18.9924 35.191 19.2762 35.2606L27.7326 37.335C27.7695 37.3441 27.8069 37.351 27.8446 37.3558C29.6247 37.5825 31.428 37.5825 33.2081 37.3558L49.1423 35.327C51.8115 34.9871 54.0997 36.9815 54.0997 39.4598C54.0997 41.519 52.5065 43.3119 50.3019 43.5926L33.5625 45.7239C31.5631 45.9785 29.5375 45.9805 27.5377 45.7299L20.8838 44.2193Z" stroke="white" stroke-width="2" stroke-linecap="round" stroke-linejoin="round"/>
<path d="M49.8149 31.9614L51.2296 28.9276C51.9258 27.4345 53.7006 26.7885 55.1937 27.4848V27.4848C56.6868 28.181 57.3328 29.9558 56.6365 31.4489L55.5224 33.8381M49.3631 47.0469L44.4644 57.5521C43.7682 59.0452 41.9934 59.6912 40.5003 58.9949V58.9949C39.0072 58.2987 38.3612 56.5239 39.0575 55.0308L42.2666 48.1487" stroke="white" stroke-width="2" stroke-linecap="round" stroke-linejoin="round"/>
<path d="M56.1231 43.5762L75.2946 51.9737C76.8036 52.6347 77.4911 54.3938 76.8301 55.9028V55.9028C76.1691 57.4119 74.41 58.0993 72.9009 57.4383L53.7295 49.0409" stroke="white" stroke-width="2" stroke-linecap="round" stroke-linejoin="round"/>
<path d="M17.2186 13.627V2.72186C17.2186 1.7709 16.4477 1 15.4968 1V1C14.5458 1 13.7749 1.7709 13.7749 2.72186V13.627" stroke="white" stroke-width="2"/>
<circle cx="15.5" cy="16.5" r="3.5" stroke="white" stroke-width="2"/>
<path d="M16.5 19.5C18 23.5 20.9947 25.5 28 25.5" stroke="white" stroke-width="2"/>
<rect x="28" y="24" width="4.88746" height="2.59164" rx="1.29582" stroke="white" stroke-width="2"/>
</svg>
