<svg width="398" height="505" viewBox="0 0 398 505" fill="none" xmlns="http://www.w3.org/2000/svg">
<rect x="158.5" y="329.5" width="133" height="175" rx="14.5" fill="white" stroke="#ECF2FE"/>
<rect x="170" y="380" width="55" height="10" rx="5" fill="#F0F4FA"/>
<rect x="170" y="395" width="65" height="10" rx="5" fill="#F0F4FA"/>
<rect x="170" y="467" width="75" height="10" rx="5" fill="#F0F4FA"/>
<rect x="170" y="410" width="75" height="10" rx="5" fill="#F0F4FA"/>
<rect x="170" y="482" width="50" height="10" rx="5" fill="#F0F4FA"/>
<rect x="255" y="482" width="25" height="10" rx="5" fill="#F0F4FA"/>
<rect x="170" y="425" width="50" height="10" rx="5" fill="#F0F4FA"/>
<rect x="170" y="342" width="88" height="23" rx="5" fill="#D0FFDD"/>
<path d="M182.176 346.8C183.168 346.8 184.027 346.965 184.752 347.296C185.488 347.627 186.053 348.096 186.448 348.704C186.843 349.312 187.04 350.032 187.04 350.864C187.04 351.685 186.843 352.405 186.448 353.024C186.053 353.632 185.488 354.101 184.752 354.432C184.027 354.752 183.168 354.912 182.176 354.912H179.92V358H177.328V346.8H182.176ZM182.032 352.8C182.811 352.8 183.403 352.635 183.808 352.304C184.213 351.963 184.416 351.483 184.416 350.864C184.416 350.235 184.213 349.755 183.808 349.424C183.403 349.083 182.811 348.912 182.032 348.912H179.92V352.8H182.032ZM192.108 349.264C193.442 349.264 194.466 349.584 195.18 350.224C195.895 350.853 196.252 351.808 196.252 353.088V358H193.916V356.928C193.447 357.728 192.572 358.128 191.292 358.128C190.631 358.128 190.055 358.016 189.564 357.792C189.084 357.568 188.716 357.259 188.46 356.864C188.204 356.469 188.076 356.021 188.076 355.52C188.076 354.72 188.375 354.091 188.972 353.632C189.58 353.173 190.514 352.944 191.772 352.944H193.756C193.756 352.4 193.591 351.984 193.26 351.696C192.93 351.397 192.434 351.248 191.772 351.248C191.314 351.248 190.86 351.323 190.412 351.472C189.975 351.611 189.602 351.803 189.292 352.048L188.396 350.304C188.866 349.973 189.426 349.717 190.076 349.536C190.738 349.355 191.415 349.264 192.108 349.264ZM191.916 356.448C192.343 356.448 192.722 356.352 193.052 356.16C193.383 355.957 193.618 355.664 193.756 355.28V354.4H192.044C191.02 354.4 190.508 354.736 190.508 355.408C190.508 355.728 190.631 355.984 190.876 356.176C191.132 356.357 191.479 356.448 191.916 356.448ZM206.899 349.392L203.011 358.528C202.616 359.52 202.126 360.219 201.539 360.624C200.963 361.029 200.264 361.232 199.443 361.232C198.995 361.232 198.552 361.163 198.115 361.024C197.678 360.885 197.32 360.693 197.043 360.448L197.955 358.672C198.147 358.843 198.366 358.976 198.611 359.072C198.867 359.168 199.118 359.216 199.363 359.216C199.704 359.216 199.982 359.131 200.195 358.96C200.408 358.8 200.6 358.528 200.771 358.144L200.803 358.064L197.075 349.392H199.651L202.067 355.232L204.499 349.392H206.899ZM218.942 349.264C220.019 349.264 220.872 349.584 221.502 350.224C222.142 350.853 222.462 351.803 222.462 353.072V358H219.966V353.456C219.966 352.773 219.822 352.267 219.534 351.936C219.256 351.595 218.856 351.424 218.334 351.424C217.747 351.424 217.283 351.616 216.942 352C216.6 352.373 216.43 352.933 216.43 353.68V358H213.934V353.456C213.934 352.101 213.39 351.424 212.302 351.424C211.726 351.424 211.267 351.616 210.926 352C210.584 352.373 210.414 352.933 210.414 353.68V358H207.918V349.392H210.302V350.384C210.622 350.021 211.011 349.744 211.47 349.552C211.939 349.36 212.451 349.264 213.006 349.264C213.614 349.264 214.163 349.387 214.654 349.632C215.144 349.867 215.539 350.213 215.838 350.672C216.19 350.224 216.632 349.877 217.166 349.632C217.71 349.387 218.302 349.264 218.942 349.264ZM233.225 353.728C233.225 353.76 233.209 353.984 233.177 354.4H226.665C226.782 354.933 227.059 355.355 227.497 355.664C227.934 355.973 228.478 356.128 229.129 356.128C229.577 356.128 229.971 356.064 230.313 355.936C230.665 355.797 230.99 355.584 231.289 355.296L232.617 356.736C231.806 357.664 230.622 358.128 229.065 358.128C228.094 358.128 227.235 357.941 226.489 357.568C225.742 357.184 225.166 356.656 224.761 355.984C224.355 355.312 224.153 354.549 224.153 353.696C224.153 352.853 224.35 352.096 224.745 351.424C225.15 350.741 225.699 350.213 226.393 349.84C227.097 349.456 227.881 349.264 228.745 349.264C229.587 349.264 230.35 349.445 231.033 349.808C231.715 350.171 232.249 350.693 232.633 351.376C233.027 352.048 233.225 352.832 233.225 353.728ZM228.761 351.152C228.195 351.152 227.721 351.312 227.337 351.632C226.953 351.952 226.718 352.389 226.633 352.944H230.873C230.787 352.4 230.553 351.968 230.169 351.648C229.785 351.317 229.315 351.152 228.761 351.152ZM240.118 349.264C241.185 349.264 242.044 349.584 242.694 350.224C243.356 350.864 243.686 351.813 243.686 353.072V358H241.19V353.456C241.19 352.773 241.041 352.267 240.742 351.936C240.444 351.595 240.012 351.424 239.446 351.424C238.817 351.424 238.316 351.621 237.942 352.016C237.569 352.4 237.382 352.976 237.382 353.744V358H234.886V349.392H237.27V350.4C237.601 350.037 238.012 349.76 238.502 349.568C238.993 349.365 239.532 349.264 240.118 349.264ZM251.501 357.584C251.256 357.765 250.952 357.904 250.589 358C250.237 358.085 249.864 358.128 249.469 358.128C248.445 358.128 247.65 357.867 247.085 357.344C246.53 356.821 246.253 356.053 246.253 355.04V351.504H244.925V349.584H246.253V347.488H248.749V349.584H250.893V351.504H248.749V355.008C248.749 355.371 248.84 355.653 249.021 355.856C249.213 356.048 249.48 356.144 249.821 356.144C250.216 356.144 250.552 356.037 250.829 355.824L251.501 357.584Z" fill="#00611B"/>
<rect x="0.5" y="329.5" width="133" height="175" rx="14.5" fill="white" stroke="#ECF2FE"/>
<rect x="12" y="380" width="55" height="10" rx="5" fill="#F0F4FA"/>
<rect x="12" y="395" width="65" height="10" rx="5" fill="#F0F4FA"/>
<rect x="12" y="467" width="75" height="10" rx="5" fill="#F0F4FA"/>
<rect x="12" y="410" width="75" height="10" rx="5" fill="#F0F4FA"/>
<rect x="12" y="482" width="50" height="10" rx="5" fill="#F0F4FA"/>
<rect x="97" y="482" width="25" height="10" rx="5" fill="#F0F4FA"/>
<rect x="12" y="425" width="50" height="10" rx="5" fill="#F0F4FA"/>
<rect x="12" y="342" width="73" height="23" rx="5" fill="#D0F4FF"/>
<path d="M19.328 346.8H21.92V358H19.328V346.8ZM29.634 349.264C30.7007 349.264 31.5593 349.584 32.21 350.224C32.8713 350.864 33.202 351.813 33.202 353.072V358H30.706V353.456C30.706 352.773 30.5567 352.267 30.258 351.936C29.9593 351.595 29.5273 351.424 28.962 351.424C28.3327 351.424 27.8313 351.621 27.458 352.016C27.0847 352.4 26.898 352.976 26.898 353.744V358H24.402V349.392H26.786V350.4C27.1167 350.037 27.5273 349.76 28.018 349.568C28.5087 349.365 29.0473 349.264 29.634 349.264ZM43.8523 349.392L40.2203 358H37.6443L34.0282 349.392H36.6043L38.9883 355.248L41.4523 349.392H43.8523ZM48.7324 358.128C47.8257 358.128 47.0097 357.941 46.2844 357.568C45.5697 357.184 45.0097 356.656 44.6044 355.984C44.199 355.312 43.9964 354.549 43.9964 353.696C43.9964 352.843 44.199 352.08 44.6044 351.408C45.0097 350.736 45.5697 350.213 46.2844 349.84C47.0097 349.456 47.8257 349.264 48.7324 349.264C49.639 349.264 50.4497 349.456 51.1644 349.84C51.879 350.213 52.439 350.736 52.8444 351.408C53.2497 352.08 53.4524 352.843 53.4524 353.696C53.4524 354.549 53.2497 355.312 52.8444 355.984C52.439 356.656 51.879 357.184 51.1644 357.568C50.4497 357.941 49.639 358.128 48.7324 358.128ZM48.7324 356.08C49.3724 356.08 49.895 355.867 50.3004 355.44C50.7164 355.003 50.9244 354.421 50.9244 353.696C50.9244 352.971 50.7164 352.395 50.3004 351.968C49.895 351.531 49.3724 351.312 48.7324 351.312C48.0924 351.312 47.5644 351.531 47.1484 351.968C46.7324 352.395 46.5244 352.971 46.5244 353.696C46.5244 354.421 46.7324 355.003 47.1484 355.44C47.5644 355.867 48.0924 356.08 48.7324 356.08ZM55.1208 349.392H57.6168V358H55.1208V349.392ZM56.3688 348.192C55.9101 348.192 55.5368 348.059 55.2488 347.792C54.9608 347.525 54.8168 347.195 54.8168 346.8C54.8168 346.405 54.9608 346.075 55.2488 345.808C55.5368 345.541 55.9101 345.408 56.3688 345.408C56.8274 345.408 57.2008 345.536 57.4888 345.792C57.7768 346.048 57.9208 346.368 57.9208 346.752C57.9208 347.168 57.7768 347.515 57.4888 347.792C57.2008 348.059 56.8274 348.192 56.3688 348.192ZM64.0933 358.128C63.1759 358.128 62.3493 357.941 61.6133 357.568C60.8879 357.184 60.3173 356.656 59.9013 355.984C59.4959 355.312 59.2933 354.549 59.2933 353.696C59.2933 352.843 59.4959 352.08 59.9013 351.408C60.3173 350.736 60.8879 350.213 61.6133 349.84C62.3493 349.456 63.1759 349.264 64.0933 349.264C64.9999 349.264 65.7893 349.456 66.4613 349.84C67.1439 350.213 67.6399 350.752 67.9493 351.456L66.0133 352.496C65.5653 351.707 64.9199 351.312 64.0773 351.312C63.4266 351.312 62.8879 351.525 62.4613 351.952C62.0346 352.379 61.8213 352.96 61.8213 353.696C61.8213 354.432 62.0346 355.013 62.4613 355.44C62.8879 355.867 63.4266 356.08 64.0773 356.08C64.9306 356.08 65.5759 355.685 66.0133 354.896L67.9493 355.952C67.6399 356.635 67.1439 357.168 66.4613 357.552C65.7893 357.936 64.9999 358.128 64.0933 358.128ZM77.709 353.728C77.709 353.76 77.693 353.984 77.661 354.4H71.149C71.2663 354.933 71.5437 355.355 71.981 355.664C72.4183 355.973 72.9623 356.128 73.613 356.128C74.061 356.128 74.4557 356.064 74.797 355.936C75.149 355.797 75.4743 355.584 75.773 355.296L77.101 356.736C76.2903 357.664 75.1063 358.128 73.549 358.128C72.5783 358.128 71.7197 357.941 70.973 357.568C70.2263 357.184 69.6503 356.656 69.245 355.984C68.8397 355.312 68.637 354.549 68.637 353.696C68.637 352.853 68.8343 352.096 69.229 351.424C69.6343 350.741 70.1837 350.213 70.877 349.84C71.581 349.456 72.365 349.264 73.229 349.264C74.0717 349.264 74.8343 349.445 75.517 349.808C76.1997 350.171 76.733 350.693 77.117 351.376C77.5117 352.048 77.709 352.832 77.709 353.728ZM73.245 351.152C72.6797 351.152 72.205 351.312 71.821 351.632C71.437 351.952 71.2023 352.389 71.117 352.944H75.357C75.2717 352.4 75.037 351.968 74.653 351.648C74.269 351.317 73.7997 351.152 73.245 351.152Z" fill="#0072A2"/>
<rect x="158.5" y="129.5" width="133" height="175" rx="14.5" fill="white" stroke="#ECF2FE"/>
<path d="M170.048 285.263C172.496 282.814 173.952 278.951 174.927 275.617C175.29 274.374 175.524 273.002 175.746 271.725C176.087 269.763 174.569 272.348 174.219 272.879C171.123 277.585 170.536 284.448 170.085 289.974C169.999 291.022 169.855 292.487 170.383 290.626C170.938 288.669 172.036 286.421 173.064 284.667C174.011 283.052 173.735 286.381 173.735 286.92C173.735 288.661 173.614 289.305 175.075 287.684C176.085 286.564 176.416 285.548 176.416 287.423C176.416 289.151 176.767 288.019 177.571 288.019C177.743 288.019 177.823 288.399 177.98 288.466C178.79 288.805 180.21 287.929 180.923 287.684C181.651 287.433 184.474 286.105 182.897 287.367C182.313 287.834 181.803 288.41 181.332 288.987C181.217 289.129 180.891 289.502 181.072 289.471C181.856 289.337 182.545 288.87 183.269 288.54C185.516 287.518 188.061 285.824 190.532 285.412C191.043 285.326 190.538 286.16 190.494 286.268" stroke="#F0F4FA" stroke-width="2" stroke-linecap="round" stroke-linejoin="round"/>
<path d="M260.612 278C259.786 282.04 259.035 285.946 258.681 290.053C258.633 290.606 258.707 292.126 258.367 291.688C257.632 290.743 257.239 289.388 256.518 288.385C255.614 287.13 254.599 285.969 253.48 284.902C252.782 284.236 251.443 283.468 251.069 282.524C250.313 280.613 256.016 279.936 256.716 279.849C258.616 279.614 260.532 279.538 262.445 279.503C263.888 279.476 265.843 279.172 267.266 279.552C267.788 279.691 263.742 287.197 263.337 288.187C262.91 289.229 261.801 293.187 261.801 290.004C261.801 288.446 261.433 287.398 262.825 286.602C265.025 285.345 263.321 291.436 264.311 289.69C264.471 289.406 266.111 286.493 266.226 286.866C266.56 287.95 265.649 290.124 266.424 291.011C267.415 292.143 270.967 287.703 271.014 289.657C271.058 291.435 271.083 290.563 272.467 289.558C274.349 288.192 276.441 287.182 278.642 286.454C279.328 286.227 279.72 286.108 280.228 285.727" stroke="#F0F4FA" stroke-width="2" stroke-linecap="round" stroke-linejoin="round"/>
<g clip-path="url(#clip0_1248_48)">
<path d="M235.333 215.009H194.708V250.218H235.333V215.009Z" stroke="#F0F4FA" stroke-width="6" stroke-linecap="round" stroke-linejoin="round"/>
<path d="M235.333 228.551H246.167L254.292 236.676V250.217H235.333V228.551Z" stroke="#F0F4FA" stroke-width="6" stroke-linecap="round" stroke-linejoin="round"/>
<path d="M206.896 263.759C210.635 263.759 213.667 260.728 213.667 256.988C213.667 253.249 210.635 250.217 206.896 250.217C203.156 250.217 200.125 253.249 200.125 256.988C200.125 260.728 203.156 263.759 206.896 263.759Z" stroke="#F0F4FA" stroke-width="6" stroke-linecap="round" stroke-linejoin="round"/>
<path d="M242.104 263.759C245.844 263.759 248.875 260.728 248.875 256.988C248.875 253.249 245.844 250.217 242.104 250.217C238.365 250.217 235.333 253.249 235.333 256.988C235.333 260.728 238.365 263.759 242.104 263.759Z" stroke="#F0F4FA" stroke-width="6" stroke-linecap="round" stroke-linejoin="round"/>
</g>
<rect x="170" y="180" width="55" height="10" rx="5" fill="#F0F4FA"/>
<rect x="170" y="195" width="50" height="10" rx="5" fill="#F0F4FA"/>
<rect x="245" y="195" width="35" height="10" rx="5" fill="#F0F4FA"/>
<rect x="170" y="142" width="59" height="23" rx="5" fill="#E2D0FF"/>
<path d="M185.584 153.728C185.584 153.76 185.568 153.984 185.536 154.4H179.024C179.141 154.933 179.419 155.355 179.856 155.664C180.293 155.973 180.837 156.128 181.488 156.128C181.936 156.128 182.331 156.064 182.672 155.936C183.024 155.797 183.349 155.584 183.648 155.296L184.976 156.736C184.165 157.664 182.981 158.128 181.424 158.128C180.453 158.128 179.595 157.941 178.848 157.568C178.101 157.184 177.525 156.656 177.12 155.984C176.715 155.312 176.512 154.549 176.512 153.696C176.512 152.853 176.709 152.096 177.104 151.424C177.509 150.741 178.059 150.213 178.752 149.84C179.456 149.456 180.24 149.264 181.104 149.264C181.947 149.264 182.709 149.445 183.392 149.808C184.075 150.171 184.608 150.693 184.992 151.376C185.387 152.048 185.584 152.832 185.584 153.728ZM181.12 151.152C180.555 151.152 180.08 151.312 179.696 151.632C179.312 151.952 179.077 152.389 178.992 152.944H183.232C183.147 152.4 182.912 151.968 182.528 151.648C182.144 151.317 181.675 151.152 181.12 151.152ZM195.646 152.176C196.286 152.379 196.787 152.72 197.15 153.2C197.512 153.669 197.694 154.251 197.694 154.944C197.694 155.925 197.31 156.683 196.542 157.216C195.784 157.739 194.675 158 193.214 158H187.422V146.8H192.894C194.259 146.8 195.304 147.061 196.03 147.584C196.766 148.107 197.134 148.816 197.134 149.712C197.134 150.256 197 150.741 196.734 151.168C196.478 151.595 196.115 151.931 195.646 152.176ZM189.998 148.752V151.392H192.574C193.214 151.392 193.699 151.28 194.03 151.056C194.36 150.832 194.526 150.501 194.526 150.064C194.526 149.627 194.36 149.301 194.03 149.088C193.699 148.864 193.214 148.752 192.574 148.752H189.998ZM193.022 156.048C193.704 156.048 194.216 155.936 194.558 155.712C194.91 155.488 195.086 155.141 195.086 154.672C195.086 153.744 194.398 153.28 193.022 153.28H189.998V156.048H193.022ZM205.08 158.192C203.917 158.192 202.867 157.941 201.928 157.44C201 156.939 200.269 156.251 199.736 155.376C199.213 154.491 198.952 153.499 198.952 152.4C198.952 151.301 199.213 150.315 199.736 149.44C200.269 148.555 201 147.861 201.928 147.36C202.867 146.859 203.917 146.608 205.08 146.608C206.243 146.608 207.288 146.859 208.216 147.36C209.144 147.861 209.875 148.555 210.408 149.44C210.941 150.315 211.208 151.301 211.208 152.4C211.208 153.499 210.941 154.491 210.408 155.376C209.875 156.251 209.144 156.939 208.216 157.44C207.288 157.941 206.243 158.192 205.08 158.192ZM205.08 155.984C205.741 155.984 206.339 155.835 206.872 155.536C207.405 155.227 207.821 154.8 208.12 154.256C208.429 153.712 208.584 153.093 208.584 152.4C208.584 151.707 208.429 151.088 208.12 150.544C207.821 150 207.405 149.579 206.872 149.28C206.339 148.971 205.741 148.816 205.08 148.816C204.419 148.816 203.821 148.971 203.288 149.28C202.755 149.579 202.333 150 202.024 150.544C201.725 151.088 201.576 151.707 201.576 152.4C201.576 153.093 201.725 153.712 202.024 154.256C202.333 154.8 202.755 155.227 203.288 155.536C203.821 155.835 204.419 155.984 205.08 155.984ZM213.156 146.8H215.748V155.888H221.364V158H213.156V146.8Z" fill="#480081"/>
<rect x="0.5" y="129.5" width="133" height="175" rx="14.5" fill="white" stroke="#ECF2FE"/>
<rect x="12" y="201" width="65" height="10" rx="5" fill="#F0F4FA"/>
<rect x="12" y="267" width="75" height="10" rx="5" fill="#F0F4FA"/>
<rect x="12" y="216" width="75" height="10" rx="5" fill="#F0F4FA"/>
<rect x="12" y="282" width="50" height="10" rx="5" fill="#F0F4FA"/>
<rect x="97" y="282" width="25" height="10" rx="5" fill="#F0F4FA"/>
<rect x="12" y="231" width="50" height="10" rx="5" fill="#F0F4FA"/>
<path d="M12 165H73V181C73 183.761 70.7614 186 68 186H17C14.2386 186 12 183.761 12 181V165Z" fill="#FFEFD0"/>
<path d="M12 147C12 144.239 14.2386 142 17 142H94C96.7614 142 99 144.239 99 147V160C99 162.761 96.7614 165 94 165H12V147Z" fill="#FFEFD0"/>
<path d="M19.328 146.8H24.416C25.632 146.8 26.704 147.035 27.632 147.504C28.5707 147.963 29.296 148.613 29.808 149.456C30.3307 150.299 30.592 151.28 30.592 152.4C30.592 153.52 30.3307 154.501 29.808 155.344C29.296 156.187 28.5707 156.843 27.632 157.312C26.704 157.771 25.632 158 24.416 158H19.328V146.8ZM24.288 155.872C25.408 155.872 26.2987 155.563 26.96 154.944C27.632 154.315 27.968 153.467 27.968 152.4C27.968 151.333 27.632 150.491 26.96 149.872C26.2987 149.243 25.408 148.928 24.288 148.928H21.92V155.872H24.288ZM32.3708 149.392H34.8668V158H32.3708V149.392ZM33.6188 148.192C33.1601 148.192 32.7868 148.059 32.4988 147.792C32.2108 147.525 32.0668 147.195 32.0668 146.8C32.0668 146.405 32.2108 146.075 32.4988 145.808C32.7868 145.541 33.1601 145.408 33.6188 145.408C34.0774 145.408 34.4508 145.536 34.7388 145.792C35.0268 146.048 35.1708 146.368 35.1708 146.752C35.1708 147.168 35.0268 147.515 34.7388 147.792C34.4508 148.059 34.0774 148.192 33.6188 148.192ZM40.0793 158.128C39.3646 158.128 38.6659 158.043 37.9833 157.872C37.3006 157.691 36.7566 157.467 36.3513 157.2L37.1833 155.408C37.5673 155.653 38.0313 155.856 38.5753 156.016C39.1193 156.165 39.6526 156.24 40.1753 156.24C41.2313 156.24 41.7593 155.979 41.7593 155.456C41.7593 155.211 41.6153 155.035 41.3273 154.928C41.0393 154.821 40.5966 154.731 39.9993 154.656C39.2953 154.549 38.7139 154.427 38.2553 154.288C37.7966 154.149 37.3966 153.904 37.0553 153.552C36.7246 153.2 36.5592 152.699 36.5592 152.048C36.5592 151.504 36.7139 151.024 37.0233 150.608C37.3433 150.181 37.8019 149.851 38.3993 149.616C39.0073 149.381 39.7219 149.264 40.5433 149.264C41.1513 149.264 41.7539 149.333 42.3513 149.472C42.9593 149.6 43.4606 149.781 43.8553 150.016L43.0233 151.792C42.2659 151.365 41.4393 151.152 40.5433 151.152C40.0099 151.152 39.6099 151.227 39.3433 151.376C39.0766 151.525 38.9433 151.717 38.9433 151.952C38.9433 152.219 39.0873 152.405 39.3753 152.512C39.6633 152.619 40.1219 152.72 40.7513 152.816C41.4553 152.933 42.0313 153.061 42.4793 153.2C42.9273 153.328 43.3166 153.568 43.6473 153.92C43.9779 154.272 44.1433 154.763 44.1433 155.392C44.1433 155.925 43.9833 156.4 43.6633 156.816C43.3433 157.232 42.8739 157.557 42.2553 157.792C41.6473 158.016 40.9219 158.128 40.0793 158.128ZM50.7713 149.264C51.5713 149.264 52.2966 149.451 52.9473 149.824C53.6086 150.187 54.1259 150.704 54.4993 151.376C54.8726 152.037 55.0593 152.811 55.0593 153.696C55.0593 154.581 54.8726 155.36 54.4993 156.032C54.1259 156.693 53.6086 157.211 52.9473 157.584C52.2966 157.947 51.5713 158.128 50.7713 158.128C49.6726 158.128 48.8086 157.781 48.1793 157.088V161.104H45.6833V149.392H48.0673V150.384C48.6859 149.637 49.5873 149.264 50.7713 149.264ZM50.3393 156.08C50.9793 156.08 51.5019 155.867 51.9073 155.44C52.3233 155.003 52.5312 154.421 52.5312 153.696C52.5312 152.971 52.3233 152.395 51.9073 151.968C51.5019 151.531 50.9793 151.312 50.3393 151.312C49.6993 151.312 49.1713 151.531 48.7552 151.968C48.3499 152.395 48.1473 152.971 48.1473 153.696C48.1473 154.421 48.3499 155.003 48.7552 155.44C49.1713 155.867 49.6993 156.08 50.3393 156.08ZM60.0615 149.264C61.3948 149.264 62.4188 149.584 63.1335 150.224C63.8482 150.853 64.2055 151.808 64.2055 153.088V158H61.8695V156.928C61.4002 157.728 60.5255 158.128 59.2455 158.128C58.5842 158.128 58.0082 158.016 57.5175 157.792C57.0375 157.568 56.6695 157.259 56.4135 156.864C56.1575 156.469 56.0295 156.021 56.0295 155.52C56.0295 154.72 56.3282 154.091 56.9255 153.632C57.5335 153.173 58.4668 152.944 59.7255 152.944H61.7095C61.7095 152.4 61.5442 151.984 61.2135 151.696C60.8828 151.397 60.3868 151.248 59.7255 151.248C59.2668 151.248 58.8135 151.323 58.3655 151.472C57.9282 151.611 57.5548 151.803 57.2455 152.048L56.3495 150.304C56.8188 149.973 57.3788 149.717 58.0295 149.536C58.6908 149.355 59.3682 149.264 60.0615 149.264ZM59.8695 156.448C60.2962 156.448 60.6748 156.352 61.0055 156.16C61.3362 155.957 61.5708 155.664 61.7095 155.28V154.4H59.9975C58.9735 154.4 58.4615 154.736 58.4615 155.408C58.4615 155.728 58.5842 155.984 58.8295 156.176C59.0855 156.357 59.4322 156.448 59.8695 156.448ZM72.0165 157.584C71.7712 157.765 71.4672 157.904 71.1045 158C70.7525 158.085 70.3792 158.128 69.9845 158.128C68.9605 158.128 68.1658 157.867 67.6005 157.344C67.0458 156.821 66.7685 156.053 66.7685 155.04V151.504H65.4405V149.584H66.7685V147.488H69.2645V149.584H71.4085V151.504H69.2645V155.008C69.2645 155.371 69.3552 155.653 69.5365 155.856C69.7285 156.048 69.9952 156.144 70.3365 156.144C70.7312 156.144 71.0672 156.037 71.3445 155.824L72.0165 157.584ZM77.312 158.128C76.3947 158.128 75.568 157.941 74.832 157.568C74.1067 157.184 73.536 156.656 73.12 155.984C72.7147 155.312 72.512 154.549 72.512 153.696C72.512 152.843 72.7147 152.08 73.12 151.408C73.536 150.736 74.1067 150.213 74.832 149.84C75.568 149.456 76.3947 149.264 77.312 149.264C78.2187 149.264 79.008 149.456 79.68 149.84C80.3627 150.213 80.8587 150.752 81.168 151.456L79.232 152.496C78.784 151.707 78.1387 151.312 77.296 151.312C76.6453 151.312 76.1067 151.525 75.68 151.952C75.2533 152.379 75.04 152.96 75.04 153.696C75.04 154.432 75.2533 155.013 75.68 155.44C76.1067 155.867 76.6453 156.08 77.296 156.08C78.1493 156.08 78.7947 155.685 79.232 154.896L81.168 155.952C80.8587 156.635 80.3627 157.168 79.68 157.552C79.008 157.936 78.2187 158.128 77.312 158.128ZM87.7746 149.264C88.8413 149.264 89.7 149.584 90.3506 150.224C91.012 150.864 91.3426 151.813 91.3426 153.072V158H88.8466V153.456C88.8466 152.773 88.6973 152.267 88.3986 151.936C88.1 151.595 87.668 151.424 87.1026 151.424C86.4733 151.424 85.972 151.621 85.5986 152.016C85.2253 152.4 85.0386 152.976 85.0386 153.744V158H82.5426V146.128H85.0386V150.288C85.3693 149.957 85.7693 149.707 86.2386 149.536C86.708 149.355 87.22 149.264 87.7746 149.264ZM23.008 179.192C22.1227 179.192 21.264 179.075 20.432 178.84C19.6107 178.595 18.9493 178.28 18.448 177.896L19.328 175.944C19.808 176.296 20.3787 176.579 21.04 176.792C21.7013 177.005 22.3627 177.112 23.024 177.112C23.76 177.112 24.304 177.005 24.656 176.792C25.008 176.568 25.184 176.275 25.184 175.912C25.184 175.645 25.0773 175.427 24.864 175.256C24.6613 175.075 24.3947 174.931 24.064 174.824C23.744 174.717 23.3067 174.6 22.752 174.472C21.8987 174.269 21.2 174.067 20.656 173.864C20.112 173.661 19.6427 173.336 19.248 172.888C18.864 172.44 18.672 171.843 18.672 171.096C18.672 170.445 18.848 169.859 19.2 169.336C19.552 168.803 20.08 168.381 20.784 168.072C21.4987 167.763 22.368 167.608 23.392 167.608C24.1067 167.608 24.8053 167.693 25.488 167.864C26.1707 168.035 26.768 168.28 27.28 168.6L26.48 170.568C25.4453 169.981 24.4107 169.688 23.376 169.688C22.6507 169.688 22.112 169.805 21.76 170.04C21.4187 170.275 21.248 170.584 21.248 170.968C21.248 171.352 21.4453 171.64 21.84 171.832C22.2453 172.013 22.8587 172.195 23.68 172.376C24.5333 172.579 25.232 172.781 25.776 172.984C26.32 173.187 26.784 173.507 27.168 173.944C27.5627 174.381 27.76 174.973 27.76 175.72C27.76 176.36 27.5787 176.947 27.216 177.48C26.864 178.003 26.3307 178.419 25.616 178.728C24.9013 179.037 24.032 179.192 23.008 179.192ZM34.5871 170.264C35.6538 170.264 36.5125 170.584 37.1631 171.224C37.8245 171.864 38.1551 172.813 38.1551 174.072V179H35.6591V174.456C35.6591 173.773 35.5098 173.267 35.2111 172.936C34.9125 172.595 34.4805 172.424 33.9151 172.424C33.2858 172.424 32.7845 172.621 32.4111 173.016C32.0378 173.4 31.8511 173.976 31.8511 174.744V179H29.3551V167.128H31.8511V171.288C32.1818 170.957 32.5818 170.707 33.0511 170.536C33.5205 170.355 34.0325 170.264 34.5871 170.264ZM48.9434 174.728C48.9434 174.76 48.9274 174.984 48.8954 175.4H42.3834C42.5007 175.933 42.778 176.355 43.2154 176.664C43.6527 176.973 44.1967 177.128 44.8474 177.128C45.2954 177.128 45.69 177.064 46.0314 176.936C46.3834 176.797 46.7087 176.584 47.0074 176.296L48.3354 177.736C47.5247 178.664 46.3407 179.128 44.7834 179.128C43.8127 179.128 42.954 178.941 42.2074 178.568C41.4607 178.184 40.8847 177.656 40.4794 176.984C40.074 176.312 39.8714 175.549 39.8714 174.696C39.8714 173.853 40.0687 173.096 40.4634 172.424C40.8687 171.741 41.418 171.213 42.1114 170.84C42.8154 170.456 43.5994 170.264 44.4634 170.264C45.306 170.264 46.0687 170.445 46.7514 170.808C47.434 171.171 47.9674 171.693 48.3514 172.376C48.746 173.048 48.9434 173.832 48.9434 174.728ZM44.4794 172.152C43.914 172.152 43.4394 172.312 43.0554 172.632C42.6714 172.952 42.4367 173.389 42.3514 173.944H46.5914C46.506 173.4 46.2714 172.968 45.8874 172.648C45.5034 172.317 45.034 172.152 44.4794 172.152ZM59.0371 174.728C59.0371 174.76 59.0211 174.984 58.9891 175.4H52.4771C52.5945 175.933 52.8718 176.355 53.3091 176.664C53.7465 176.973 54.2905 177.128 54.9411 177.128C55.3891 177.128 55.7838 177.064 56.1251 176.936C56.4771 176.797 56.8025 176.584 57.1011 176.296L58.4291 177.736C57.6185 178.664 56.4345 179.128 54.8771 179.128C53.9065 179.128 53.0478 178.941 52.3011 178.568C51.5545 178.184 50.9785 177.656 50.5731 176.984C50.1678 176.312 49.9651 175.549 49.9651 174.696C49.9651 173.853 50.1625 173.096 50.5571 172.424C50.9625 171.741 51.5118 171.213 52.2051 170.84C52.9091 170.456 53.6931 170.264 54.5571 170.264C55.3998 170.264 56.1625 170.445 56.8451 170.808C57.5278 171.171 58.0611 171.693 58.4451 172.376C58.8398 173.048 59.0371 173.832 59.0371 174.728ZM54.5731 172.152C54.0078 172.152 53.5331 172.312 53.1491 172.632C52.7651 172.952 52.5305 173.389 52.4451 173.944H56.6851C56.5998 173.4 56.3651 172.968 55.9811 172.648C55.5971 172.317 55.1278 172.152 54.5731 172.152ZM66.2509 178.584C66.0055 178.765 65.7015 178.904 65.3389 179C64.9869 179.085 64.6135 179.128 64.2189 179.128C63.1949 179.128 62.4002 178.867 61.8349 178.344C61.2802 177.821 61.0029 177.053 61.0029 176.04V172.504H59.6749V170.584H61.0029V168.488H63.4989V170.584H65.6429V172.504H63.4989V176.008C63.4989 176.371 63.5895 176.653 63.7709 176.856C63.9629 177.048 64.2295 177.144 64.5709 177.144C64.9655 177.144 65.3015 177.037 65.5789 176.824L66.2509 178.584Z" fill="#966C33"/>
<path d="M22.5 33.32V38H2.988V12.8H22.032V17.48H8.784V22.952H20.484V27.488H8.784V33.32H22.5ZM26.7443 11.288H32.3603V38H26.7443V11.288ZM37.5725 18.632H43.1885V38H37.5725V18.632ZM40.3805 15.932C39.3485 15.932 38.5085 15.632 37.8605 15.032C37.2125 14.432 36.8885 13.688 36.8885 12.8C36.8885 11.912 37.2125 11.168 37.8605 10.568C38.5085 9.968 39.3485 9.668 40.3805 9.668C41.4125 9.668 42.2525 9.956 42.9005 10.532C43.5485 11.108 43.8725 11.828 43.8725 12.692C43.8725 13.628 43.5485 14.408 42.9005 15.032C42.2525 15.632 41.4125 15.932 40.3805 15.932ZM73.2046 18.344C75.6286 18.344 77.5486 19.064 78.9646 20.504C80.4046 21.92 81.1246 24.056 81.1246 26.912V38H75.5086V27.776C75.5086 26.24 75.1846 25.1 74.5366 24.356C73.9126 23.588 73.0126 23.204 71.8366 23.204C70.5166 23.204 69.4726 23.636 68.7046 24.5C67.9366 25.34 67.5526 26.6 67.5526 28.28V38H61.9366V27.776C61.9366 24.728 60.7126 23.204 58.2646 23.204C56.9686 23.204 55.9366 23.636 55.1686 24.5C54.4006 25.34 54.0166 26.6 54.0166 28.28V38H48.4006V18.632H53.7646V20.864C54.4846 20.048 55.3606 19.424 56.3926 18.992C57.4486 18.56 58.6006 18.344 59.8486 18.344C61.2166 18.344 62.4526 18.62 63.5566 19.172C64.6606 19.7 65.5486 20.48 66.2206 21.512C67.0126 20.504 68.0086 19.724 69.2086 19.172C70.4326 18.62 71.7646 18.344 73.2046 18.344ZM86.1584 18.632H91.7744V38H86.1584V18.632ZM88.9664 15.932C87.9344 15.932 87.0944 15.632 86.4464 15.032C85.7984 14.432 85.4744 13.688 85.4744 12.8C85.4744 11.912 85.7984 11.168 86.4464 10.568C87.0944 9.968 87.9344 9.668 88.9664 9.668C89.9984 9.668 90.8384 9.956 91.4864 10.532C92.1344 11.108 92.4584 11.828 92.4584 12.692C92.4584 13.628 92.1344 14.408 91.4864 15.032C90.8384 15.632 89.9984 15.932 88.9664 15.932ZM108.759 18.344C111.159 18.344 113.091 19.064 114.555 20.504C116.043 21.944 116.787 24.08 116.787 26.912V38H111.171V27.776C111.171 26.24 110.835 25.1 110.163 24.356C109.491 23.588 108.519 23.204 107.247 23.204C105.831 23.204 104.703 23.648 103.863 24.536C103.023 25.4 102.603 26.696 102.603 28.424V38H96.9865V18.632H102.351V20.9C103.095 20.084 104.019 19.46 105.123 19.028C106.227 18.572 107.439 18.344 108.759 18.344ZM129.689 18.344C132.689 18.344 134.993 19.064 136.601 20.504C138.209 21.92 139.013 24.068 139.013 26.948V38H133.757V35.588C132.701 37.388 130.733 38.288 127.853 38.288C126.365 38.288 125.069 38.036 123.965 37.532C122.885 37.028 122.057 36.332 121.481 35.444C120.905 34.556 120.617 33.548 120.617 32.42C120.617 30.62 121.289 29.204 122.633 28.172C124.001 27.14 126.101 26.624 128.933 26.624H133.397C133.397 25.4 133.025 24.464 132.281 23.816C131.537 23.144 130.421 22.808 128.933 22.808C127.901 22.808 126.881 22.976 125.873 23.312C124.889 23.624 124.049 24.056 123.353 24.608L121.337 20.684C122.393 19.94 123.653 19.364 125.117 18.956C126.605 18.548 128.129 18.344 129.689 18.344ZM129.257 34.508C130.217 34.508 131.069 34.292 131.813 33.86C132.557 33.404 133.085 32.744 133.397 31.88V29.9H129.545C127.241 29.9 126.089 30.656 126.089 32.168C126.089 32.888 126.365 33.464 126.917 33.896C127.493 34.304 128.273 34.508 129.257 34.508ZM156.588 37.064C156.036 37.472 155.352 37.784 154.536 38C153.744 38.192 152.904 38.288 152.016 38.288C149.712 38.288 147.924 37.7 146.652 36.524C145.404 35.348 144.78 33.62 144.78 31.34V23.384H141.792V19.064H144.78V14.348H150.396V19.064H155.22V23.384H150.396V31.268C150.396 32.084 150.6 32.72 151.008 33.176C151.44 33.608 152.04 33.824 152.808 33.824C153.696 33.824 154.452 33.584 155.076 33.104L156.588 37.064ZM178.115 28.388C178.115 28.46 178.079 28.964 178.007 29.9H163.355C163.619 31.1 164.243 32.048 165.227 32.744C166.211 33.44 167.435 33.788 168.899 33.788C169.907 33.788 170.795 33.644 171.563 33.356C172.355 33.044 173.087 32.564 173.759 31.916L176.747 35.156C174.923 37.244 172.259 38.288 168.755 38.288C166.571 38.288 164.639 37.868 162.959 37.028C161.279 36.164 159.983 34.976 159.071 33.464C158.159 31.952 157.703 30.236 157.703 28.316C157.703 26.42 158.147 24.716 159.035 23.204C159.947 21.668 161.183 20.48 162.743 19.64C164.327 18.776 166.091 18.344 168.035 18.344C169.931 18.344 171.647 18.752 173.183 19.568C174.719 20.384 175.919 21.56 176.783 23.096C177.671 24.608 178.115 26.372 178.115 28.388ZM168.071 22.592C166.799 22.592 165.731 22.952 164.867 23.672C164.003 24.392 163.475 25.376 163.283 26.624H172.823C172.631 25.4 172.103 24.428 171.239 23.708C170.375 22.964 169.319 22.592 168.071 22.592ZM203.353 12.8C205.585 12.8 207.517 13.172 209.149 13.916C210.805 14.66 212.077 15.716 212.965 17.084C213.853 18.452 214.297 20.072 214.297 21.944C214.297 23.792 213.853 25.412 212.965 26.804C212.077 28.172 210.805 29.228 209.149 29.972C207.517 30.692 205.585 31.052 203.353 31.052H198.277V38H192.445V12.8H203.353ZM203.029 26.3C204.781 26.3 206.113 25.928 207.025 25.184C207.937 24.416 208.393 23.336 208.393 21.944C208.393 20.528 207.937 19.448 207.025 18.704C206.113 17.936 204.781 17.552 203.029 17.552H198.277V26.3H203.029ZM225.701 18.344C228.701 18.344 231.005 19.064 232.613 20.504C234.221 21.92 235.025 24.068 235.025 26.948V38H229.769V35.588C228.713 37.388 226.745 38.288 223.865 38.288C222.377 38.288 221.081 38.036 219.977 37.532C218.897 37.028 218.069 36.332 217.493 35.444C216.917 34.556 216.629 33.548 216.629 32.42C216.629 30.62 217.301 29.204 218.645 28.172C220.013 27.14 222.113 26.624 224.945 26.624H229.409C229.409 25.4 229.037 24.464 228.293 23.816C227.549 23.144 226.433 22.808 224.945 22.808C223.913 22.808 222.893 22.976 221.885 23.312C220.901 23.624 220.061 24.056 219.365 24.608L217.349 20.684C218.405 19.94 219.665 19.364 221.129 18.956C222.617 18.548 224.141 18.344 225.701 18.344ZM225.269 34.508C226.229 34.508 227.081 34.292 227.825 33.86C228.569 33.404 229.097 32.744 229.409 31.88V29.9H225.557C223.253 29.9 222.101 30.656 222.101 32.168C222.101 32.888 222.377 33.464 222.929 33.896C223.505 34.304 224.285 34.508 225.269 34.508ZM251.556 18.344C253.356 18.344 254.988 18.764 256.452 19.604C257.94 20.42 259.104 21.584 259.944 23.096C260.784 24.584 261.204 26.324 261.204 28.316C261.204 30.308 260.784 32.06 259.944 33.572C259.104 35.06 257.94 36.224 256.452 37.064C254.988 37.88 253.356 38.288 251.556 38.288C249.084 38.288 247.14 37.508 245.724 35.948V44.984H240.108V18.632H245.472V20.864C246.864 19.184 248.892 18.344 251.556 18.344ZM250.584 33.68C252.024 33.68 253.2 33.2 254.112 32.24C255.048 31.256 255.516 29.948 255.516 28.316C255.516 26.684 255.048 25.388 254.112 24.428C253.2 23.444 252.024 22.952 250.584 22.952C249.144 22.952 247.956 23.444 247.02 24.428C246.108 25.388 245.652 26.684 245.652 28.316C245.652 29.948 246.108 31.256 247.02 32.24C247.956 33.2 249.144 33.68 250.584 33.68ZM283.935 28.388C283.935 28.46 283.899 28.964 283.827 29.9H269.175C269.439 31.1 270.063 32.048 271.047 32.744C272.031 33.44 273.255 33.788 274.719 33.788C275.727 33.788 276.615 33.644 277.383 33.356C278.175 33.044 278.907 32.564 279.579 31.916L282.567 35.156C280.743 37.244 278.079 38.288 274.575 38.288C272.391 38.288 270.459 37.868 268.779 37.028C267.099 36.164 265.803 34.976 264.891 33.464C263.979 31.952 263.523 30.236 263.523 28.316C263.523 26.42 263.967 24.716 264.855 23.204C265.767 21.668 267.003 20.48 268.563 19.64C270.147 18.776 271.911 18.344 273.855 18.344C275.751 18.344 277.467 18.752 279.003 19.568C280.539 20.384 281.739 21.56 282.603 23.096C283.491 24.608 283.935 26.372 283.935 28.388ZM273.891 22.592C272.619 22.592 271.551 22.952 270.687 23.672C269.823 24.392 269.295 25.376 269.103 26.624H278.643C278.451 25.4 277.923 24.428 277.059 23.708C276.195 22.964 275.139 22.592 273.891 22.592ZM293.038 21.188C293.71 20.252 294.61 19.544 295.738 19.064C296.89 18.584 298.21 18.344 299.698 18.344V23.528C299.074 23.48 298.654 23.456 298.438 23.456C296.83 23.456 295.57 23.912 294.658 24.824C293.746 25.712 293.29 27.056 293.29 28.856V38H287.674V18.632H293.038V21.188ZM334.809 18.632L327.789 38H322.389L318.033 25.976L313.533 38H308.133L301.149 18.632H306.441L311.013 31.736L315.765 18.632H320.517L325.125 31.736L329.841 18.632H334.809ZM346.109 38.288C344.069 38.288 342.233 37.868 340.601 37.028C338.993 36.164 337.733 34.976 336.821 33.464C335.909 31.952 335.453 30.236 335.453 28.316C335.453 26.396 335.909 24.68 336.821 23.168C337.733 21.656 338.993 20.48 340.601 19.64C342.233 18.776 344.069 18.344 346.109 18.344C348.149 18.344 349.973 18.776 351.581 19.64C353.189 20.48 354.449 21.656 355.361 23.168C356.273 24.68 356.729 26.396 356.729 28.316C356.729 30.236 356.273 31.952 355.361 33.464C354.449 34.976 353.189 36.164 351.581 37.028C349.973 37.868 348.149 38.288 346.109 38.288ZM346.109 33.68C347.549 33.68 348.725 33.2 349.637 32.24C350.573 31.256 351.041 29.948 351.041 28.316C351.041 26.684 350.573 25.388 349.637 24.428C348.725 23.444 347.549 22.952 346.109 22.952C344.669 22.952 343.481 23.444 342.545 24.428C341.609 25.388 341.141 26.684 341.141 28.316C341.141 29.948 341.609 31.256 342.545 32.24C343.481 33.2 344.669 33.68 346.109 33.68ZM365.847 21.188C366.519 20.252 367.419 19.544 368.547 19.064C369.699 18.584 371.019 18.344 372.507 18.344V23.528C371.883 23.48 371.463 23.456 371.247 23.456C369.639 23.456 368.379 23.912 367.467 24.824C366.555 25.712 366.099 27.056 366.099 28.856V38H360.483V18.632H365.847V21.188ZM384.162 30.404L381.462 33.068V38H375.846V11.288H381.462V26.408L389.67 18.632H396.366L388.302 26.84L397.086 38H390.282L384.162 30.404Z" fill="#08112B"/>
<defs>
<clipPath id="clip0_1248_48">
<rect width="65" height="65" fill="white" transform="translate(192 205)"/>
</clipPath>
</defs>
</svg>
