<svg width="86" height="55" viewBox="0 0 86 55" fill="none" xmlns="http://www.w3.org/2000/svg">
<path d="M0.5 41.3208V53.6981H5.3V50.6792H14V22H2.9L1.7 23.5094V39.2075L0.5 41.3208Z" fill="#2C5DEB"/>
<path d="M27.4998 41.3208V53.6981H22.6998V50.6792H13.9998V22H25.0998L26.2998 23.5094V39.2075L27.4998 41.3208Z" fill="#2C5DEB"/>
<path d="M1 31.2356C1 30.5383 1.55047 29.9729 2.22951 29.9729H3.59953C4.27857 29.9729 4.82904 30.5383 4.82904 31.2356V35.4205C4.82904 36.1179 4.27857 36.6832 3.59953 36.6832H2.22951C1.55047 36.6832 1 36.1179 1 35.4205V31.2356Z" fill="#2C5DEB"/>
<path d="M8.37705 43.8334C8.76507 43.8334 9.07963 44.1564 9.07963 44.5549V46.7195C9.07963 47.118 8.76507 47.441 8.37705 47.441H5.21546C4.82743 47.441 4.51288 47.118 4.51288 46.7195V44.5549C4.51288 44.1564 4.82743 43.8334 5.21546 43.8334H8.37705Z" fill="#2C5DEB"/>
<path d="M31 31.2356C31 30.5383 30.4495 29.9729 29.7705 29.9729H28.4005C27.7214 29.9729 27.171 30.5383 27.171 31.2356V35.4205C27.171 36.1179 27.7214 36.6832 28.4005 36.6832H29.7705C30.4495 36.6832 31 36.1179 31 35.4205V31.2356Z" fill="#2C5DEB"/>
<path d="M23.623 43.8334C23.2349 43.8334 22.9204 44.1564 22.9204 44.5549V46.7195C22.9204 47.118 23.2349 47.441 23.623 47.441H26.7845C27.1726 47.441 27.4871 47.118 27.4871 46.7195V44.5549C27.4871 44.1564 27.1726 43.8334 26.7845 43.8334H23.623Z" fill="#2C5DEB"/>
<path d="M11.2576 45.9619V43.2922C11.2576 42.4952 11.8867 41.8492 12.6628 41.8492H19.404C20.18 41.8492 20.8091 42.4952 20.8091 43.2922V45.998C20.8091 46.795 20.18 47.441 19.404 47.441H16L12.6628 47.405C11.8867 47.405 11.2576 46.7589 11.2576 45.9619Z" fill="#2C5DEB"/>
<path d="M3.5644 29.6898V23.8038C3.5644 22.8076 4.35079 22 5.32084 22H26.6792C27.6492 22 28.4356 22.8076 28.4356 23.8038V29.6898M16 28.133H9.02244C8.13464 28.133 7.38642 28.8134 7.27892 29.7184L6.13121 39.3811H5.00468C3.4526 39.3811 2.19438 40.6733 2.19438 42.2672V52.9177C2.19438 53.5154 2.66621 54 3.24824 54H6.41337C6.9954 54 7.46724 53.5154 7.46724 52.9177V50.7914M2.22951 50.6449H29.7705M6.83841 37.6384H25.0913M3.5644 36.6832V39.7884M15.719 28.133H22.8741C23.7602 28.133 24.5076 28.811 24.617 29.7141L25.7887 39.3811H26.9953C28.5474 39.3811 29.8056 40.6733 29.8056 42.2672V52.9177C29.8056 53.5154 29.3338 54 28.7518 54H25.4793C24.8973 54 24.4254 53.5154 24.4254 52.9177V50.7914M28.4286 36.6849V39.5342M2.22951 36.6832H3.59953C4.27857 36.6832 4.82904 36.1179 4.82904 35.4205V31.2356C4.82904 30.5383 4.27857 29.9729 3.59953 29.9729H2.22951C1.55047 29.9729 1 30.5383 1 31.2356V35.4205C1 36.1179 1.55047 36.6832 2.22951 36.6832ZM4.51288 44.5549V46.7195C4.51288 47.118 4.82743 47.441 5.21546 47.441H8.37705C8.76507 47.441 9.07963 47.118 9.07963 46.7195V44.5549C9.07963 44.1564 8.76507 43.8334 8.37705 43.8334H5.21546C4.82743 43.8334 4.51288 44.1564 4.51288 44.5549ZM29.7705 36.6832H28.4005C27.7214 36.6832 27.171 36.1179 27.171 35.4205V31.2356C27.171 30.5383 27.7214 29.9729 28.4005 29.9729H29.7705C30.4495 29.9729 31 30.5383 31 31.2356V35.4205C31 36.1179 30.4495 36.6832 29.7705 36.6832ZM27.4871 44.5549V46.7195C27.4871 47.118 27.1726 47.441 26.7845 47.441H23.623C23.2349 47.441 22.9204 47.118 22.9204 46.7195V44.5549C22.9204 44.1564 23.2349 43.8334 23.623 43.8334H26.7845C27.1726 43.8334 27.4871 44.1564 27.4871 44.5549ZM11.2576 43.2922V45.9619C11.2576 46.7589 11.8867 47.405 12.6628 47.405L16 47.441H19.404C20.18 47.441 20.8091 46.795 20.8091 45.998V43.2922C20.8091 42.4952 20.18 41.8492 19.404 41.8492H12.6628C11.8867 41.8492 11.2576 42.4952 11.2576 43.2922Z" stroke="white" stroke-linecap="round"/>
<path d="M57.5095 41.3208V53.6981H62.3397V50.6792H71.0944V22H59.9246L58.7171 23.5094V39.2075L57.5095 41.3208Z" fill="#2C5DEB"/>
<path d="M84.6792 41.3208V53.6981H79.849V50.6792H71.0943V22H82.2641L83.4717 23.5094V39.2075L84.6792 41.3208Z" fill="#2C5DEB"/>
<path d="M55 31.2356C55 30.5383 55.5505 29.9729 56.2295 29.9729H57.5995C58.2786 29.9729 58.829 30.5383 58.829 31.2356V35.4205C58.829 36.1179 58.2786 36.6832 57.5995 36.6832H56.2295C55.5505 36.6832 55 36.1179 55 35.4205V31.2356Z" fill="#2C5DEB"/>
<path d="M62.377 43.8334C62.7651 43.8334 63.0796 44.1564 63.0796 44.5549V46.7195C63.0796 47.118 62.7651 47.441 62.377 47.441H59.2155C58.8274 47.441 58.5129 47.118 58.5129 46.7195V44.5549C58.5129 44.1564 58.8274 43.8334 59.2155 43.8334H62.377Z" fill="#2C5DEB"/>
<path d="M85 31.2356C85 30.5383 84.4495 29.9729 83.7705 29.9729H82.4005C81.7214 29.9729 81.171 30.5383 81.171 31.2356V35.4205C81.171 36.1179 81.7214 36.6832 82.4005 36.6832H83.7705C84.4495 36.6832 85 36.1179 85 35.4205V31.2356Z" fill="#2C5DEB"/>
<path d="M77.623 43.8334C77.2349 43.8334 76.9204 44.1564 76.9204 44.5549V46.7195C76.9204 47.118 77.2349 47.441 77.623 47.441H80.7845C81.1726 47.441 81.4871 47.118 81.4871 46.7195V44.5549C81.4871 44.1564 81.1726 43.8334 80.7845 43.8334H77.623Z" fill="#2C5DEB"/>
<path d="M65.2576 45.9619V43.2922C65.2576 42.4952 65.8867 41.8492 66.6628 41.8492H73.404C74.18 41.8492 74.8091 42.4952 74.8091 43.2922V45.998C74.8091 46.795 74.18 47.441 73.404 47.441H70L66.6628 47.405C65.8867 47.405 65.2576 46.7589 65.2576 45.9619Z" fill="#2C5DEB"/>
<path d="M57.5644 29.6898V23.8038C57.5644 22.8076 58.3508 22 59.3208 22H80.6792C81.6492 22 82.4356 22.8076 82.4356 23.8038V29.6898M70 28.133H63.0224C62.1346 28.133 61.3864 28.8134 61.2789 29.7184L60.1312 39.3811H59.0047C57.4526 39.3811 56.1944 40.6733 56.1944 42.2672V52.9177C56.1944 53.5154 56.6662 54 57.2482 54H60.4134C60.9954 54 61.4672 53.5154 61.4672 52.9177V50.7914M56.2295 50.6449H83.7705M60.8384 37.6384H79.0913M57.5644 36.6832V39.7884M69.719 28.133H76.8741C77.7602 28.133 78.5076 28.811 78.617 29.7141L79.7887 39.3811H80.9953C82.5474 39.3811 83.8056 40.6733 83.8056 42.2672V52.9177C83.8056 53.5154 83.3338 54 82.7518 54H79.4793C78.8973 54 78.4254 53.5154 78.4254 52.9177V50.7914M82.4286 36.6849V39.5342M56.2295 36.6832H57.5995C58.2786 36.6832 58.829 36.1179 58.829 35.4205V31.2356C58.829 30.5383 58.2786 29.9729 57.5995 29.9729H56.2295C55.5505 29.9729 55 30.5383 55 31.2356V35.4205C55 36.1179 55.5505 36.6832 56.2295 36.6832ZM58.5129 44.5549V46.7195C58.5129 47.118 58.8274 47.441 59.2155 47.441H62.377C62.7651 47.441 63.0796 47.118 63.0796 46.7195V44.5549C63.0796 44.1564 62.7651 43.8334 62.377 43.8334H59.2155C58.8274 43.8334 58.5129 44.1564 58.5129 44.5549ZM83.7705 36.6832H82.4005C81.7214 36.6832 81.171 36.1179 81.171 35.4205V31.2356C81.171 30.5383 81.7214 29.9729 82.4005 29.9729H83.7705C84.4495 29.9729 85 30.5383 85 31.2356V35.4205C85 36.1179 84.4495 36.6832 83.7705 36.6832ZM81.4871 44.5549V46.7195C81.4871 47.118 81.1726 47.441 80.7845 47.441H77.623C77.2349 47.441 76.9204 47.118 76.9204 46.7195V44.5549C76.9204 44.1564 77.2349 43.8334 77.623 43.8334H80.7845C81.1726 43.8334 81.4871 44.1564 81.4871 44.5549ZM65.2576 43.2922V45.9619C65.2576 46.7589 65.8867 47.405 66.6628 47.405L70 47.441H73.404C74.18 47.441 74.8091 46.795 74.8091 45.998V43.2922C74.8091 42.4952 74.18 41.8492 73.404 41.8492H66.6628C65.8867 41.8492 65.2576 42.4952 65.2576 43.2922Z" stroke="white" stroke-linecap="round"/>
<path d="M20.5 33V53.5H28.5V48.5H43V1H24.5L22.5 3.5V29.5L20.5 33Z" fill="#2C5DEB"/>
<path d="M65.5 33V53.5H57.5V48.5H43V1H61.5L63.5 3.5V29.5L65.5 33Z" fill="#2C5DEB"/>
<path d="M18 16.2965C18 15.1415 18.9174 14.2052 20.0492 14.2052H22.3326C23.4643 14.2052 24.3817 15.1415 24.3817 16.2965V23.2277C24.3817 24.3827 23.4643 25.3191 22.3326 25.3191H20.0492C18.9174 25.3191 18 24.3827 18 23.2277V16.2965Z" fill="#2C5DEB"/>
<path d="M30.2951 37.1615C30.9418 37.1615 31.466 37.6966 31.466 38.3566V41.9417C31.466 42.6017 30.9418 43.1367 30.2951 43.1367H25.0258C24.3791 43.1367 23.8548 42.6017 23.8548 41.9417V38.3566C23.8548 37.6966 24.3791 37.1615 25.0258 37.1615H30.2951Z" fill="#2C5DEB"/>
<path d="M68 16.2965C68 15.1415 67.0826 14.2052 65.9508 14.2052H63.6674C62.5357 14.2052 61.6183 15.1415 61.6183 16.2965V23.2277C61.6183 24.3827 62.5357 25.3191 63.6674 25.3191H65.9508C67.0826 25.3191 68 24.3827 68 23.2277V16.2965Z" fill="#2C5DEB"/>
<path d="M55.7049 37.1615C55.0582 37.1615 54.534 37.6966 54.534 38.3566V41.9417C54.534 42.6017 55.0582 43.1367 55.7049 43.1367H60.9742C61.6209 43.1367 62.1452 42.6017 62.1452 41.9417V38.3566C62.1452 37.6966 61.6209 37.1615 60.9742 37.1615H55.7049Z" fill="#2C5DEB"/>
<path d="M35.096 40.6869V36.2653C35.096 34.9453 36.1445 33.8752 37.4379 33.8752H48.6733C49.9667 33.8752 51.0152 34.9453 51.0152 36.2653V40.7467C51.0152 42.0667 49.9667 43.1367 48.6733 43.1367H43L37.4379 43.077C36.1445 43.077 35.096 42.0069 35.096 40.6869Z" fill="#2C5DEB"/>
<path d="M22.274 13.7362V3.9876C22.274 2.33759 23.5846 1 25.2014 1H60.7986C62.4154 1 63.726 2.33759 63.726 3.9876V13.7362M43 11.1578H31.3707C29.8911 11.1578 28.644 12.2847 28.4649 13.7837L26.552 29.7875H24.6745C22.0877 29.7875 19.9906 31.9276 19.9906 34.5676V52.2074C19.9906 53.1974 20.777 54 21.7471 54H27.0223C27.9923 54 28.7787 53.1974 28.7787 52.2074V48.6858M20.0492 48.4431H65.9508M27.7307 26.9011H58.1522M22.274 25.3191V30.4621M42.5316 11.1578H54.4568C55.9337 11.1578 57.1793 12.2807 57.3617 13.7764L59.3144 29.7875H61.3255C63.9123 29.7875 66.0094 31.9276 66.0094 34.5676V52.2074C66.0094 53.1974 65.223 54 64.2529 54H58.7988C57.8288 54 57.0424 53.1974 57.0424 52.2074V48.6858M63.7143 25.3219V30.0411M20.0492 25.3191H22.3326C23.4643 25.3191 24.3817 24.3827 24.3817 23.2277V16.2965C24.3817 15.1415 23.4643 14.2052 22.3326 14.2052H20.0492C18.9174 14.2052 18 15.1415 18 16.2965V23.2277C18 24.3827 18.9174 25.3191 20.0492 25.3191ZM23.8548 38.3566V41.9417C23.8548 42.6017 24.3791 43.1367 25.0258 43.1367H30.2951C30.9418 43.1367 31.466 42.6017 31.466 41.9417V38.3566C31.466 37.6966 30.9418 37.1615 30.2951 37.1615H25.0258C24.3791 37.1615 23.8548 37.6966 23.8548 38.3566ZM65.9508 25.3191H63.6674C62.5357 25.3191 61.6183 24.3827 61.6183 23.2277V16.2965C61.6183 15.1415 62.5357 14.2052 63.6674 14.2052H65.9508C67.0826 14.2052 68 15.1415 68 16.2965V23.2277C68 24.3827 67.0826 25.3191 65.9508 25.3191ZM62.1452 38.3566V41.9417C62.1452 42.6017 61.6209 43.1367 60.9742 43.1367H55.7049C55.0582 43.1367 54.534 42.6017 54.534 41.9417V38.3566C54.534 37.6966 55.0582 37.1615 55.7049 37.1615H60.9742C61.6209 37.1615 62.1452 37.6966 62.1452 38.3566ZM35.096 36.2653V40.6869C35.096 42.0069 36.1445 43.077 37.4379 43.077L43 43.1367H48.6733C49.9667 43.1367 51.0152 42.0667 51.0152 40.7467V36.2653C51.0152 34.9453 49.9667 33.8752 48.6733 33.8752H37.4379C36.1445 33.8752 35.096 34.9453 35.096 36.2653Z" stroke="white" stroke-width="2" stroke-linecap="round"/>
</svg>
