<svg width="1920" height="365" viewBox="0 0 1920 365" fill="none" xmlns="http://www.w3.org/2000/svg">
<mask id="mask0_970_51" style="mask-type:alpha" maskUnits="userSpaceOnUse" x="0" y="-1" width="1920" height="366">
<rect y="-0.00012207" width="1920" height="365" rx="55" fill="#2C5DEB"/>
</mask>
<g mask="url(#mask0_970_51)">
<path d="M1841.41 652.572L1851.09 656H1841.87L1840.41 655.488L1840.26 656H1837.01L1837.52 654.465L1675.14 596.838C1671.28 614.879 1666.9 634.6 1661.98 656H1646.08C1666.79 564.789 1678.11 507.955 1679.64 470.969C1663.05 465.793 1645.82 462.91 1628.45 462.4L1615.65 506.804C1615.55 507.124 1615.35 507.405 1615.09 507.607C1614.82 507.809 1614.5 507.922 1614.16 507.929C1613.9 507.921 1613.65 507.86 1613.42 507.75L1576.66 487.646C1576.33 487.466 1576.07 487.172 1575.95 486.818C1575.82 486.464 1575.83 486.076 1575.97 485.728L1592.32 444.956L1571.18 434.265L1548.14 423.113L1525.48 441.912L1618.33 656H1614.95L1574.25 562.206L1518.93 584.203L1515.37 615.561L1567.34 623.618C1567.68 623.679 1568 623.853 1568.24 624.112C1568.47 624.371 1568.62 624.701 1568.64 625.051L1570.72 656H1567.62L1565.65 626.483L1545.81 623.414L1544.04 656H1520.34L1523.21 619.91L1513.5 618.4L1476.51 613.566L1468.24 656H1465.09L1473.39 613.157L1452.55 610.42L1447.84 631.394L1463.2 656H1459.54L1446.74 635.666L1442.16 656H1435.83L1441.64 630.141L1383.2 606.276L1368.53 645.948C1368.4 646.297 1368.15 646.588 1367.82 646.766C1367.49 646.945 1367.11 646.999 1366.74 646.92L1349.31 642.802L1345.44 656H1342.22L1346.87 640.653C1346.99 640.274 1347.24 639.952 1347.58 639.752C1347.93 639.553 1348.33 639.491 1348.72 639.579L1366.23 643.723L1380.46 605.356L1258.38 555.504L1174.15 542.715L1162.25 568.881C1162.16 569.085 1162.03 569.268 1161.87 569.419L1128.97 598.015L1086.55 646.434L1078.16 656H1074.03L1083.33 645.411L1064.31 623.414L1046.13 651.319C1046 651.537 1045.81 651.718 1045.58 651.843C1045.36 651.968 1045.11 652.035 1044.85 652.035C1044.55 652.029 1044.26 651.941 1044.01 651.78C1043.66 651.555 1043.42 651.203 1043.33 650.8C1043.25 650.398 1043.32 649.978 1043.54 649.631L1062.82 620.037L1077.77 595.559L1047.05 566.989L1031.31 584.893L1031.69 616.84C1031.7 617.044 1031.66 617.246 1031.58 617.435C1031.51 617.624 1031.39 617.797 1031.25 617.942C1031.11 618.087 1030.94 618.202 1030.75 618.281C1030.56 618.36 1030.36 618.4 1030.16 618.4C1029.96 618.404 1029.76 618.367 1029.57 618.293C1029.38 618.219 1029.21 618.108 1029.07 617.968C1028.93 617.827 1028.81 617.66 1028.74 617.475C1028.66 617.29 1028.62 617.092 1028.62 616.891L1028.21 584.279C1028.21 583.902 1028.34 583.537 1028.59 583.256L1044.77 564.891L1029.41 550.747L989.401 572.437C989.173 572.559 988.918 572.621 988.659 572.616C988.433 572.618 988.209 572.568 988.005 572.471C987.801 572.373 987.622 572.23 987.481 572.053L978.265 561.003L973.581 572.59C973.493 572.813 973.356 573.012 973.178 573.172C973 573.332 972.787 573.448 972.557 573.511L950.72 579.573L943.45 601.698C943.377 601.919 943.255 602.12 943.091 602.286L891.124 656H882.983L816.655 592.848L779.612 557.576L708.778 596.403L696.541 626.304L719.094 656H715.229L676.65 605.151C676.373 605.372 676.032 605.498 675.677 605.509C675.445 605.508 675.217 605.455 675.008 605.353C674.8 605.251 674.617 605.103 674.474 604.921C674.345 604.764 674.248 604.582 674.19 604.387C674.132 604.192 674.113 603.988 674.134 603.785C674.156 603.583 674.217 603.387 674.315 603.209C674.413 603.03 674.545 602.873 674.705 602.747L654.225 575.608L629.598 594.92C636.425 603.446 643.174 611.972 649.847 620.498C654.02 625.613 658.167 630.959 662.289 636.203L678.109 656H650.257C645.521 643.211 641.271 634.412 637.739 629.936L636.177 627.967L609.63 646.664C609.381 646.856 609.074 646.955 608.76 646.945C608.517 646.949 608.277 646.896 608.059 646.789C607.841 646.682 607.651 646.526 607.505 646.332L597.624 633.236C597.376 632.896 597.273 632.473 597.338 632.058C597.403 631.643 597.63 631.271 597.97 631.023C598.309 630.775 598.733 630.673 599.148 630.738C599.564 630.802 599.936 631.029 600.184 631.368L609.093 643.211L634.257 625.485C618.309 605.356 598.085 579.906 575.992 552.281L519.315 580.698L560.812 656H557.305L548.626 640.295L519.852 656H513.427L547.141 637.584L512.659 575.123L490.976 536.551C490.902 536.397 490.85 536.233 490.822 536.065L484.218 497.417L350.434 507.648L370.913 526.627C371.174 526.877 371.342 527.208 371.388 527.566C371.435 527.925 371.358 528.288 371.169 528.596L352.584 557.985L412.692 656H409.083L350.485 560.441L247.011 655.284L247.446 656H238.512L242.352 654.44L193.482 601.826L124.568 633.517C127.256 640.832 130.046 648.378 132.837 656H116.325C113.227 647.508 110.155 639.17 107.186 631.113C101.887 639.86 96.7155 648.301 91.8259 656H73.6503C78.0278 649.017 82.9172 641.114 88.1396 632.596L45.7979 649.299L29.9517 656H22.0413L43.2378 647.048L12.7998 572.872L0 577.987V574.662L11.6991 569.93L0.0256348 541.488V533.226L2.40637 539.006L29.6957 526.218L21.7085 509.413L0.0256348 517.572V514.273L20.5054 506.599L13.8239 492.531C13.6985 492.267 13.651 491.973 13.6873 491.683C13.7236 491.393 13.8419 491.119 14.0286 490.894L0.12793 496.624V493.273L42.7771 475.727L36.2491 461.249L0.0256348 476.519V473.169L34.8923 458.589C30.2588 448.358 25.574 437.692 21.0685 427.512L0.0256348 436.03V419.378L14.8223 413.393C9.24158 400.604 4.19824 389.196 0.281494 380.142L0.0256348 380.27V336.787C15.5646 365.639 37.0682 393.519 87.3461 408.405C89.906 408.789 92.4659 409.224 95.0259 409.735C117.579 414.237 175.562 413.521 224.458 411.244L208.228 357.531L167.268 301.822L115.48 338.936C115.224 339.135 114.909 339.243 114.584 339.243C114.336 339.243 114.093 339.183 113.874 339.067C113.655 338.951 113.468 338.783 113.33 338.578C113.097 338.243 113.005 337.832 113.072 337.43C113.139 337.029 113.36 336.67 113.688 336.429L165.399 299.443L137.624 261.665L0.0256348 318.55V315.225L137.317 258.467L175.716 222.147L110.616 142.267L0.0256348 197.259V180.045L102.271 129.094L0.0256348 -72.2556V-100.084L29.03 -93.7666L20.2494 -124.972C13.6666 -121.688 6.91602 -118.751 0.0256348 -116.173V-132.747C6.86951 -135.538 13.5452 -138.723 20.0189 -142.288C30.95 -155.665 124.978 -270.434 141.566 -285.985C158.155 -301.536 217.623 -328.086 232.112 -334.404C272.508 -408.58 332.412 -519.716 335.868 -529.794C337.071 -535.702 341.909 -580.259 346.389 -622.898H361.902C361.006 -614.227 360.008 -604.789 358.984 -595.274L368.661 -622.898H385.019L379.899 -608.242L451.808 -613.715L450.452 -622.898H453.575L454.906 -613.971L518.393 -618.805L518.854 -622.898H525.049L524.588 -618.524L556.588 -613.408L559.148 -623H562.348L559.788 -612.769L608.683 -604.789L610.603 -622.898H613.726L611.729 -604.277L675.319 -593.892L680.081 -622.898H683.229L678.417 -593.381L740.752 -583.15C741.033 -596.911 741.264 -609.904 741.443 -621.21L731.715 -622.898H776.028L820.52 -621.133V-622.898H823.618L825.743 -582.485H845.966C846.299 -582.485 846.622 -582.377 846.888 -582.178C847.118 -581.999 865.217 -568.724 879.323 -558.595L882.625 -580.003L859.227 -590.235C858.985 -590.348 858.774 -590.52 858.613 -590.734C858.453 -590.948 858.347 -591.198 858.305 -591.462L854.593 -620.161C854.547 -620.552 854.651 -620.946 854.884 -621.264C855.117 -621.582 855.461 -621.8 855.848 -621.875L861.454 -622.898H878.299L857.819 -619.061L861.249 -592.665L884.929 -582.433C885.242 -582.293 885.501 -582.055 885.667 -581.755C885.833 -581.456 885.897 -581.11 885.851 -580.771L882.087 -556.651C885.62 -554.093 888.743 -551.893 891.124 -550.256C902.593 -542.327 948.416 -527.236 952.41 -526.06L984.46 -527.876L1041.93 -592L1049.61 -616.094L1039.37 -622.898H1044.93L1050.58 -619.163L1051.74 -622.898H1054.96L1044.72 -590.772C1044.67 -590.562 1044.56 -590.369 1044.41 -590.209L987.788 -526.98L1108.11 -482.705C1110.92 -483.319 1128.59 -487.667 1131.99 -498.308C1133.27 -502.349 1142.54 -523.067 1154.62 -550.026L1095.74 -578.827L1080.2 -542.276C1080.12 -542.078 1079.99 -541.9 1079.83 -541.754C1079.67 -541.609 1079.49 -541.499 1079.28 -541.432C1079.11 -541.394 1078.94 -541.394 1078.77 -541.432C1078.51 -541.436 1078.25 -541.506 1078.03 -541.637L1042.42 -561.434C1042.24 -561.534 1042.08 -561.671 1041.95 -561.835C1041.82 -561.999 1041.73 -562.187 1041.68 -562.388C1041.62 -562.589 1041.61 -562.798 1041.64 -563.003C1041.67 -563.209 1041.75 -563.406 1041.85 -563.582L1071.24 -610.953C1071.42 -611.236 1071.69 -611.453 1072 -611.573C1072.32 -611.693 1072.66 -611.709 1072.98 -611.618L1102.65 -603.254L1111.05 -622.898H1114.4L1096.89 -581.692L1155.77 -552.814L1157.31 -556.242C1166.4 -576.371 1177.07 -600.159 1187.08 -622.898H1190.41C1180.45 -600.236 1169.67 -576.218 1160.13 -554.988C1146.74 -525.139 1136.16 -501.556 1134.83 -497.387C1131.27 -486.311 1115.79 -481.452 1110.21 -480.045C1113.97 -473.036 1128.13 -447.049 1134.45 -440.732C1139.57 -435.616 1160.05 -423.287 1172.13 -416.151L1220.18 -464.11L1293.06 -622.898H1310.04L1279.06 -555.423L1392.54 -565.654C1381.46 -582.408 1368.07 -602.614 1354.61 -622.898H1373.14C1384.71 -605.454 1396.72 -587.319 1406.93 -571.742L1397.41 -622.898H1400.53L1407.29 -586.705L1468.06 -602.435L1463.87 -622.898H1466.89L1478.35 -566.805L1546.24 -584.531L1543.43 -622.898H1546.53L1549.42 -583.559L1553.87 -481.247C1553.89 -480.894 1553.79 -480.546 1553.58 -480.262C1553.37 -479.978 1553.06 -479.775 1552.72 -479.687L1524.15 -472.397L1584.64 -432.137L1631.29 -569.184C1619.3 -585.422 1610.19 -603.588 1604.33 -622.898H1620.48C1625.89 -606.87 1633.74 -591.771 1643.75 -578.136L1653.99 -596.041C1654.1 -596.244 1654.25 -596.42 1654.44 -596.553C1654.63 -596.686 1654.84 -596.774 1655.07 -596.808C1655.29 -596.844 1655.52 -596.831 1655.74 -596.769C1655.95 -596.707 1656.15 -596.598 1656.32 -596.45L1677.44 -578.546L1734.15 -622.898H1739.27L1679.95 -576.499L1737.91 -527.313L1740.14 -570.795C1740.15 -571.122 1740.27 -571.434 1740.48 -571.688C1740.69 -571.941 1740.97 -572.121 1741.29 -572.202L1758.93 -576.857C1759.23 -576.947 1759.55 -576.947 1759.85 -576.857L1795.3 -563.506L1851.44 -568.621L1839.8 -612.308H1817.99C1817.64 -612.303 1817.3 -612.414 1817.03 -612.623C1816.76 -612.831 1816.56 -613.126 1816.47 -613.459L1814.02 -622.898H1817.22L1819.16 -615.378H1840.82L1858.3 -619.035L1857.56 -622.898H1860.71L1861.33 -619.675L1876.71 -622.898H1891.84L1861.91 -616.657L1870.95 -569.67L1901.31 -555.014L1920 -558.671V-555.525L1902.82 -552.175L1906.05 -526.162L1920 -529.794V-526.622L1916.08 -525.599L1920 -484.035V-451.116L1917.44 -479.252L1863.42 -468.739L1868.14 -415.946L1920 -417.686V-414.591L1866.78 -412.8L1810.46 -413.67L1801.14 -353.766C1843.2 -357.373 1888.82 -370.111 1920 -380.368V-364.074C1912.7 -361.721 1904.64 -359.291 1896.27 -356.861C1850.88 -343.868 1811.79 -337.32 1779.51 -337.32C1774.67 -337.32 1769.99 -337.473 1765.48 -337.755C1753.39 -338.653 1741.39 -340.605 1729.64 -343.586L1680.05 -331.642L1685.48 -298.544C1705.96 -302.892 1730.41 -309.389 1730.79 -309.491H1731.07L1774.98 -312.56C1775.2 -312.624 1775.43 -312.624 1775.64 -312.56L1887.33 -269.078L1920 -304.503V-299.95L1889.28 -266.699L1890.64 -234.113C1890.69 -233.903 1890.69 -233.683 1890.64 -233.473L1871.31 -185.771L1873.87 -173.647L1920 -273.477V-236.671L1872.23 -133.336L1887.44 -124.128L1920 -146.739V-127.964L1897.34 -112.234L1908.94 -85.4793C1911.93 -92.4372 1915.63 -99.0637 1920 -105.251V-70.6953C1919.15 -67.9371 1918.44 -65.1369 1917.88 -62.3057C1917.84 -61.8359 1917.74 -61.3723 1917.59 -60.9245C1915.09 -47.2283 1915.92 -33.132 1920 -19.8208V5.75718L1908.61 -7.44106C1908.1 -8.0237 1907.69 -8.67898 1907.38 -9.38497C1900.86 -26.2408 1899.03 -44.5454 1902.08 -62.3569L1881.6 -109.625L1865.68 -119.242L1819.09 -18.414L1855.13 -4.95998C1855.39 -4.86275 1855.61 -4.70089 1855.79 -4.4902C1855.96 -4.27956 1856.08 -4.02724 1856.13 -3.75784L1859.87 21.2063L1878.4 63.1798L1909.12 78.9358C1909.46 79.1166 1909.73 79.4184 1909.86 79.7824C1909.99 80.1465 1909.98 80.5467 1909.84 80.9053L1833.04 263.455L1820.16 294.507L1839.85 303.485L1920 116.561V124.388L1842.71 304.789L1854.06 309.905L1920 154.519V162.345L1856.85 311.184C1865.32 315.046 1873.33 318.857 1880.91 322.233L1903.95 262.279C1904.02 262.089 1904.13 261.915 1904.27 261.767C1904.41 261.62 1904.58 261.501 1904.76 261.418C1904.95 261.335 1905.15 261.289 1905.35 261.283C1905.55 261.277 1905.76 261.311 1905.95 261.383C1906.14 261.456 1906.31 261.564 1906.46 261.704C1906.61 261.843 1906.72 262.01 1906.81 262.195C1906.89 262.381 1906.94 262.581 1906.94 262.783C1906.95 262.986 1906.91 263.189 1906.84 263.378L1883.7 323.487L1920 340.342V357.326L1878.14 338.015L1858.18 389.631L1917.7 415.567L1920 408.738V419.916L1919.56 419.736L1876.2 548.905L1920 567.091V570.416L1875.23 551.821L1841.41 652.572ZM1540.95 656L1542.74 622.979L1526.23 620.421L1523.51 655.079L1540.95 656ZM1101.45 -600.389L1073.29 -608.344L1045.26 -563.224L1077.95 -545.064L1101.45 -600.389ZM1675.8 593.794L1838.49 651.524L1872.36 550.644L1822.93 530.182C1822.55 530.034 1822.25 529.744 1822.09 529.375C1821.92 529.007 1821.91 528.589 1822.06 528.213L1832.45 501.458C1832.48 501.384 1832.53 501.315 1832.58 501.253L1700.38 453.934L1694.93 451.965C1696.98 483.067 1689.99 527.394 1675.8 593.794ZM711.389 -465.926C711.362 -466.199 711.409 -466.474 711.526 -466.722C711.644 -466.969 711.826 -467.181 712.055 -467.333C712.292 -467.47 712.561 -467.542 712.835 -467.542C713.109 -467.542 713.379 -467.47 713.616 -467.333L736.784 -455.874C737.782 -473.957 738.653 -499.356 739.344 -526.187L667.025 -524.397L666.385 -520.484C666.538 -518.821 667.588 -507.541 667.741 -491.401V-491.12C667.741 -482.833 667.741 -473.216 667.05 -462.984C667.05 -462.984 667.05 -462.856 667.05 -462.805C666.2 -447.252 664.076 -431.794 660.702 -416.586C656.887 -400.011 647.031 -364.714 635.691 -325.375L724.291 -309.747L724.829 -317.42L711.389 -465.926ZM726.186 -336.425C729.257 -378.347 732.611 -419.681 734.761 -432.035C735.427 -435.769 736.041 -442.957 736.605 -452.497L714.717 -463.317L726.186 -336.425ZM510.15 -486.363L505.44 -443.213L538.873 -453.444V-489.739L510.15 -486.363ZM538.873 -492.732V-536.674L515.116 -531.891L510.483 -489.637L538.873 -492.732ZM576.914 -357.654L584.978 -381.186L499.193 -386.302L497.837 -373.845L576.914 -357.654ZM497.555 -370.776L496.07 -357.271L566.879 -328.291L575.941 -354.713L497.555 -370.776ZM586.079 -384.204L589.919 -395.407C590.054 -395.794 590.338 -396.111 590.708 -396.288C591.078 -396.466 591.503 -396.489 591.89 -396.354C592.277 -396.218 592.594 -395.934 592.772 -395.565C592.949 -395.196 592.973 -394.771 592.837 -394.384L569.26 -325.759C569.194 -325.557 569.088 -325.371 568.947 -325.212C568.806 -325.054 568.633 -324.926 568.44 -324.838C568.229 -324.799 568.012 -324.799 567.8 -324.838C567.606 -324.802 567.406 -324.802 567.212 -324.838L495.737 -354.099V-353.741C504.057 -323.405 515.603 -290.64 523.615 -277.237L611.857 -254.575C630.187 -316.806 651.665 -391.059 657.783 -417.481C660.991 -432.022 663.054 -446.792 663.953 -461.654H621.56C621.152 -461.654 620.762 -461.816 620.474 -462.104C620.186 -462.392 620.024 -462.782 620.024 -463.189V-475.518L591.378 -466.719L605.509 -424.106C605.631 -423.719 605.598 -423.3 605.417 -422.937C605.235 -422.574 604.919 -422.296 604.536 -422.162H604.05C603.72 -422.162 603.399 -422.266 603.133 -422.458C602.866 -422.651 602.667 -422.924 602.565 -423.236L588.434 -465.875L573.074 -461.092V-420.167C573.074 -419.753 572.909 -419.356 572.617 -419.064C572.324 -418.771 571.927 -418.607 571.512 -418.607H502.726L499.526 -389.371L586.079 -384.204ZM431.636 -232.143L439.751 -250.918C439.91 -251.283 440.202 -251.574 440.569 -251.731C440.935 -251.888 441.348 -251.899 441.722 -251.762L456.57 -245.955C456.843 -245.855 457.082 -245.679 457.258 -245.448C457.435 -245.217 457.543 -244.941 457.568 -244.651L459.693 -217.538L502.445 -205.977C502.82 -205.864 503.141 -205.616 503.344 -205.28C503.547 -204.945 503.619 -204.546 503.545 -204.161L497.785 -176.025C497.715 -175.675 497.527 -175.36 497.252 -175.132C496.977 -174.904 496.632 -174.777 496.275 -174.772H495.968L424.289 -189.377C423.879 -177.407 423.546 -167.61 423.367 -162.264C458.387 -162.904 499.629 -164.234 506.412 -167.943C515.603 -173.058 566.495 -214.981 598.571 -241.94L427.745 -285.985C427.335 -274.884 426.593 -254.396 425.799 -232.962L431.636 -232.143ZM425.825 -229.867C425.364 -216.95 424.878 -203.905 424.468 -192.497L495.123 -178.123L500.243 -203.368L457.799 -214.853C457.488 -214.936 457.21 -215.114 457.004 -215.361C456.797 -215.608 456.673 -215.913 456.647 -216.234L454.496 -243.449L441.953 -248.334L433.965 -229.816C433.829 -229.507 433.594 -229.253 433.298 -229.091C433.002 -228.929 432.661 -228.869 432.327 -228.921L425.825 -229.867ZM303.919 337.478C303.945 337.578 303.945 337.684 303.919 337.785C303.629 350.417 304.056 363.056 305.199 375.64C308.553 374.668 316.693 372.289 327.599 368.939C327.585 368.82 327.585 368.699 327.599 368.58L332.719 325.584C332.77 325.177 332.98 324.807 333.304 324.555C333.629 324.303 334.039 324.19 334.447 324.241C334.854 324.292 335.225 324.502 335.477 324.826C335.729 325.15 335.842 325.561 335.791 325.968L330.671 367.967C350.664 361.751 378.44 352.62 402.862 343.028C391.368 330.393 382.92 322.003 378.875 319.573C367.073 312.488 339.503 302.231 309.935 292.256C305.788 305.07 304.226 322.054 303.868 337.478H303.919ZM307.094 291.258C277.807 281.436 247.011 271.998 227.863 266.243L300.95 334.229C301.436 319.369 303.1 303.485 307.042 291.258H307.094ZM732.841 364.948C732.955 364.577 733.207 364.264 733.545 364.073C733.884 363.882 734.282 363.83 734.659 363.925L759.158 369.731C759.539 369.818 759.872 370.045 760.091 370.368C760.31 370.692 760.397 371.086 760.335 371.471L757.033 391.677L777.922 398.276L790.594 358.375L714.794 339.55L709.29 374.642L727.389 382.316L732.841 364.948ZM730.281 383.237L754.038 390.757L757.033 372.392L735.325 367.276L730.281 383.237ZM760.54 452.962L768.22 429.021L701.38 411.117L694.698 435.978L760.54 452.962ZM693.828 438.894L684.996 471.839L753.859 487.006L759.798 456.083L693.828 438.894ZM763.075 455.111L756.828 487.748L812.354 509.336L851.035 464.575L786.652 380.909L780.38 400.655L771.625 428.356L763.075 455.111ZM814.991 510.999L857.23 546.808L888.334 513.096L852.929 467.056L814.991 510.999ZM787.804 377.328L890.51 510.794L951.437 444.982L820.059 318.652L800.015 340.291L842.254 389.222C842.385 389.376 842.485 389.555 842.547 389.748C842.609 389.941 842.632 390.144 842.615 390.346C842.599 390.548 842.542 390.745 842.45 390.925C842.357 391.105 842.23 391.265 842.075 391.396C841.921 391.527 841.742 391.626 841.549 391.688C841.355 391.75 841.152 391.773 840.95 391.757C840.748 391.74 840.551 391.684 840.371 391.591C840.191 391.499 840.03 391.371 839.899 391.217L798.53 343.361L787.804 377.328ZM955.661 444.803L967.693 456.492L1000.2 418.662L952.154 371.113L918.541 409.198L953.587 442.91C953.869 442.783 954.182 442.744 954.486 442.797C954.79 442.85 955.071 442.994 955.292 443.21C955.514 443.425 955.664 443.702 955.726 444.004C955.787 444.307 955.755 444.621 955.635 444.905L955.661 444.803ZM1198.73 428.356C1198.91 428.265 1199.1 428.21 1199.31 428.195C1199.51 428.181 1199.71 428.206 1199.9 428.27C1200.09 428.335 1200.27 428.437 1200.42 428.57C1200.57 428.703 1200.69 428.865 1200.78 429.047L1214.58 457.182L1230.68 459.178L1243.71 438.715L1225.07 415.925H1196.58C1196.36 415.954 1196.14 415.935 1195.92 415.87C1195.71 415.805 1195.52 415.696 1195.35 415.55C1195.18 415.403 1195.05 415.223 1194.96 415.021C1194.87 414.819 1194.82 414.6 1194.82 414.378C1194.82 414.156 1194.87 413.937 1194.96 413.735C1195.05 413.533 1195.18 413.353 1195.35 413.206C1195.52 413.06 1195.71 412.951 1195.92 412.886C1196.14 412.821 1196.36 412.802 1196.58 412.83H1224.25V390.757L1199.63 394.286H1199.4C1199.2 394.288 1199 394.251 1198.81 394.176C1198.63 394.102 1198.46 393.991 1198.32 393.852C1198.15 393.687 1198.01 393.481 1197.94 393.254C1197.86 393.026 1197.84 392.783 1197.88 392.547L1202.6 357.991C1202.63 357.721 1202.74 357.465 1202.9 357.249C1203.07 357.033 1203.29 356.866 1203.54 356.764L1224.02 348.758L1209.74 288.521L1196.94 291.872C1196.56 291.965 1196.17 291.918 1195.83 291.738C1195.49 291.559 1195.23 291.261 1195.09 290.9L1177.17 242.635L1174.18 246.164H1174.05L1041.5 358.068L1076 390.731L1157.92 320.11C1158.08 319.977 1158.25 319.875 1158.45 319.81C1158.64 319.746 1158.84 319.72 1159.04 319.734C1159.25 319.748 1159.44 319.802 1159.62 319.893C1159.81 319.984 1159.97 320.11 1160.1 320.264L1174.23 336.276C1174.37 336.427 1174.47 336.603 1174.53 336.794C1174.6 336.985 1174.63 337.187 1174.62 337.389C1174.61 337.591 1174.55 337.788 1174.47 337.97C1174.38 338.152 1174.25 338.315 1174.1 338.45C1173.95 338.584 1173.78 338.687 1173.58 338.754C1173.39 338.82 1173.19 338.848 1172.99 338.836C1172.79 338.824 1172.59 338.773 1172.41 338.684C1172.22 338.596 1172.06 338.473 1171.93 338.322L1158.79 323.435L1123.29 354.129L1140.21 370.345C1140.35 370.488 1140.47 370.657 1140.54 370.844C1140.62 371.03 1140.66 371.23 1140.66 371.432C1140.66 371.634 1140.62 371.834 1140.54 372.021C1140.47 372.207 1140.35 372.377 1140.21 372.52L1100.66 414.16L1119.83 432.321L1157.8 468.283L1174.77 448.512C1174.9 448.358 1175.06 448.232 1175.24 448.141C1175.42 448.05 1175.62 447.996 1175.82 447.982C1176.03 447.968 1176.23 447.994 1176.42 448.058C1176.61 448.123 1176.79 448.225 1176.94 448.358C1177.25 448.625 1177.44 449.002 1177.48 449.409C1177.51 449.815 1177.38 450.218 1177.12 450.532L1160.05 470.406L1180.53 489.769L1211.71 458.231L1198.04 430.351C1197.87 429.994 1197.85 429.586 1197.98 429.213C1198.11 428.84 1198.38 428.532 1198.73 428.356ZM1509.1 359.296L1499.63 401.474L1511.76 406.078L1526.51 364.283L1509.1 359.296ZM1528.94 361.853L1586.21 377.737L1599.54 331.697C1599.62 331.418 1599.77 331.166 1599.98 330.971C1600.2 330.776 1600.46 330.646 1600.75 330.597L1619.43 327.298C1619.72 324.484 1620.13 321.773 1620.64 319.215C1620.81 318.328 1621.09 317.203 1621.48 315.839L1525.77 285.12L1509.77 356.15L1528.94 361.853ZM1520.49 280.72C1520.58 280.302 1520.77 279.908 1521.02 279.564C1521.28 279.221 1521.6 278.935 1521.98 278.725C1522.23 278.594 1522.49 278.499 1522.77 278.444L1528.84 258.135L1450.22 231.406L1425.39 306.273L1443.31 313.409C1443.66 313.547 1443.94 313.808 1444.11 314.142C1444.28 314.477 1444.33 314.862 1444.23 315.225L1423.98 391.396L1493.82 399.376L1520.49 280.72ZM1410.57 230.357L1388.27 221.61L1359.52 280.004L1387.53 291.105L1410.57 230.357ZM1390.42 292.256L1422.55 305.045L1443.03 243.018L1413.33 231.38L1390.42 292.256ZM1444.18 240.179L1447.89 228.976L1453.42 212.325L1401.66 194.599L1389.7 218.822L1444.18 240.179ZM1440.8 315.813L1358.14 282.562L1324.4 351.008L1321.84 370.217L1367.58 378.249H1367.92L1389.29 387.431L1420.78 391.012L1440.8 315.813ZM1355.27 281.539L1282.16 252.226L1282.03 254.247L1305.35 367.455L1318.69 369.808L1321.25 350.471C1321.28 350.314 1321.32 350.16 1321.38 350.011L1355.27 281.539ZM1304.07 370.371L1288.05 372.929L1281.65 383.16L1303.36 394.644L1342.19 416.207L1364.67 380.781L1304.07 370.371ZM1341.78 419.762L1303.05 398.225L1282.57 429.175L1335.46 455.06L1352.94 430.914L1341.78 419.762ZM1300.41 396.742L1279.93 385.922L1253.18 429.124L1279.62 428.356L1300.41 396.742ZM1277.37 384.49L1265.75 378.326C1265.52 378.203 1265.33 378.027 1265.19 377.813C1265.05 377.599 1264.96 377.354 1264.93 377.098L1262.09 345.432L1240.33 336.071C1239.95 335.908 1239.65 335.601 1239.5 335.217C1239.34 334.833 1239.35 334.405 1239.51 334.025C1239.68 333.656 1239.98 333.367 1240.36 333.219C1240.74 333.071 1241.16 333.076 1241.53 333.232L1264.16 342.977C1264.42 343.081 1264.65 343.256 1264.82 343.482C1264.99 343.708 1265.09 343.976 1265.11 344.256L1267.85 376.024L1278.93 381.881L1285.82 370.755C1285.93 370.567 1286.09 370.406 1286.27 370.283C1286.45 370.159 1286.65 370.076 1286.87 370.038L1302.23 367.481L1278.98 254.631C1278.97 254.495 1278.97 254.358 1278.98 254.222L1279.21 250.589C1279.11 250.382 1279.06 250.155 1279.06 249.924C1279.06 249.694 1279.11 249.466 1279.21 249.259C1279.21 249.259 1279.37 249.055 1279.42 248.952L1281.01 222.428C1281.01 222.204 1281.08 221.984 1281.19 221.789L1300.36 187.028L1216.73 176.183L1207.66 206.877C1207.59 207.077 1207.48 207.266 1207.36 207.439L1179.66 239.847L1197.58 288.445L1210.45 285.12C1210.86 285.024 1211.28 285.089 1211.63 285.299C1211.81 285.404 1211.97 285.544 1212.09 285.711C1212.21 285.878 1212.3 286.069 1212.35 286.271L1227.3 349.371C1227.31 349.482 1227.31 349.593 1227.3 349.704V413.649L1245.42 436.03L1277.37 384.49ZM998.873 14.1979C998.741 14.4361 998.549 14.6351 998.315 14.7744C998.081 14.9137 997.814 14.9884 997.542 14.9908C997.273 14.99 997.008 14.9195 996.774 14.7862L996.108 14.4026C993.753 17.5742 991.398 20.7459 989.171 23.7896C989.513 23.7778 989.848 23.8865 990.118 24.0966L1026.85 52.5137L1045.67 25.4011C1031.54 8.31504 1019.48 -6.57137 1015.59 -11.38C1010.24 -4.39724 1004.04 3.76212 997.977 11.8959L998.31 12.1005C998.658 12.3086 998.911 12.6438 999.017 13.0353C999.122 13.4267 999.07 13.8437 998.873 14.1979ZM988.172 26.5265C987.928 26.3281 987.75 26.0606 987.66 25.7592C978.137 38.8039 970.509 49.7002 969.433 52.5393C971.993 55.3529 988.403 68.7301 1005.79 82.7469L1025.04 55.0459L988.172 26.5265ZM1008.19 84.6908C1015.87 90.9319 1023.78 97.224 1030.62 102.595C1030.86 102.799 1031.04 103.073 1031.13 103.38C1031.21 103.688 1031.2 104.014 1031.09 104.316C1030.99 104.617 1030.79 104.878 1030.53 105.064C1030.27 105.251 1029.96 105.353 1029.64 105.358C1029.3 105.36 1028.96 105.243 1028.7 105.025C1014.49 93.6943 967.974 56.5551 966.438 53.6648C966.003 52.8207 964.954 50.8 993.318 12.74L957.222 -7.9526L953.51 2.1251C953.442 2.3151 953.336 2.48966 953.2 2.63889C953.064 2.78806 952.899 2.90885 952.716 2.99442C952.533 3.07999 952.335 3.12852 952.133 3.13737C951.931 3.14622 951.729 3.11515 951.539 3.04594C951.158 2.89664 950.848 2.60557 950.677 2.23368C950.505 1.86179 950.484 1.43797 950.618 1.05088L954.944 -10.715C955.02 -10.9254 955.14 -11.1168 955.297 -11.2759C955.455 -11.4349 955.645 -11.5578 955.854 -11.6357C956.064 -11.7136 956.288 -11.7449 956.511 -11.7273C956.734 -11.7096 956.951 -11.6435 957.146 -11.5335L977.625 0.257973L983.052 -9.58956L955.558 -27.6732C955.39 -27.7857 955.246 -27.9302 955.134 -28.0984C955.022 -28.2667 954.944 -28.4553 954.905 -28.6536C954.865 -28.852 954.866 -29.0561 954.905 -29.2543C954.945 -29.4525 955.023 -29.641 955.136 -29.8089C955.249 -29.9769 955.393 -30.1211 955.562 -30.2332C955.73 -30.3452 955.919 -30.4231 956.117 -30.4623C956.316 -30.5015 956.52 -30.5012 956.719 -30.4616C956.917 -30.4218 957.106 -30.3435 957.274 -30.231L985.945 -11.4056C986.265 -11.1911 986.494 -10.8662 986.589 -10.4932C986.683 -10.1203 986.636 -9.72555 986.457 -9.38497L980.416 1.86936L995.212 10.3357C1000.46 3.32731 1006.66 -4.83205 1013.95 -14.3471L1009.55 -73.1764L940.429 -125.56L901.134 -47.2659L882.83 33.6884L898.062 36.3996C898.329 36.4498 898.578 36.5738 898.778 36.7577L1030.92 147.74L1141.28 190.635L1150.5 153.419C1150.57 153.119 1150.73 152.849 1150.96 152.643C1151.19 152.437 1151.47 152.306 1151.78 152.268L1211.43 143.878L1206.64 84.1537C1183.19 89.2692 1149.66 95.4335 1126.59 95.4335C1115.76 95.4335 1107.26 94.0779 1103.17 90.5737C1093.44 82.1842 1068.66 53.102 1047.72 27.8565L1008.19 84.6908ZM1040.68 -69.0072L1078.9 -99.4961C1056.93 -114.28 1020.91 -138.579 991.424 -158.735L962.906 -128.041L1040.68 -69.0072ZM534.137 250.206L533.599 289.059H533.753C610.552 223.681 656.631 184.522 677.111 167.231L650.846 132.624L578.987 169.891C578.764 170.001 578.52 170.062 578.271 170.07C577.921 170.075 577.58 169.961 577.305 169.746C577.029 169.531 576.835 169.229 576.754 168.889C576.673 168.549 576.711 168.192 576.862 167.877C577.012 167.561 577.265 167.306 577.579 167.154L686.941 110.422L702.301 40.3642L673.809 8.69865L564.14 44.2265L578.527 90.983C578.586 91.1761 578.606 91.379 578.587 91.5801C578.568 91.7811 578.509 91.9764 578.413 92.1546C578.318 92.3328 578.189 92.4905 578.033 92.6186C577.876 92.7467 577.696 92.8429 577.503 92.9013H577.042C576.714 92.8944 576.396 92.7844 576.135 92.587C575.873 92.3896 575.68 92.1147 575.583 91.8015L560.965 44.6869H525.356L536.185 106.202L534.137 250.206ZM1038.14 357.019L1058.03 340.215L966.822 257.674C966.665 257.532 966.538 257.358 966.45 257.165C966.362 256.971 966.314 256.762 966.31 256.549V217.773L906.561 181.478C906.379 181.376 906.222 181.237 906.1 181.069L886.311 153.265L857.921 146.794L829.224 155.03L826.229 167.487L811.765 227.672L928.525 343.258L1003.35 417.306L1039.09 447.54L1049.61 413.853C1049.7 413.586 1049.86 413.347 1050.07 413.163L1073.52 392.931L1038.07 359.296C1037.76 358.982 1037.58 358.56 1037.58 358.119C1037.6 357.908 1037.66 357.702 1037.75 357.513C1037.85 357.324 1037.98 357.157 1038.14 357.019ZM854.081 -34.7839L842.254 -2.53005L885.927 5.14329L892.891 -25.7293L854.081 -34.7839ZM893.71 -28.7219L897.78 -46.6264L862.427 -57.625L855.157 -37.623L893.71 -28.7219ZM841.307 0.411415L823.925 48.2678L872.564 58.0897C872.883 58.1499 873.173 58.3125 873.39 58.5526C873.607 58.7927 873.74 59.0973 873.768 59.4198L885.364 8.26383L841.307 0.411415ZM827.611 125.616L864.808 92.3642L812.252 80.496L799.938 114.438L827.611 125.616ZM798.812 117.175L783.708 154.365L823.592 165.21L826.383 153.598V128.455L798.812 117.175ZM866.907 89.7552L873.537 60.4429C873.401 60.6581 873.212 60.8346 872.988 60.9555C872.763 61.0765 872.512 61.1377 872.257 61.1335H871.95L822.85 51.2092L813.327 77.4778L866.907 89.7552ZM871.361 84.1537L903.873 100.063L909.735 92.9781C909.864 92.8219 910.023 92.6927 910.203 92.5979C910.382 92.503 910.579 92.4445 910.781 92.4255C910.983 92.4065 911.187 92.4274 911.38 92.4871C911.574 92.5468 911.755 92.6441 911.911 92.7734C912.067 92.9027 912.197 93.0616 912.292 93.2408C912.386 93.4201 912.445 93.6162 912.464 93.8182C912.483 94.02 912.462 94.2237 912.402 94.4175C912.343 94.6112 912.245 94.7914 912.116 94.9475L905.486 102.953C905.345 103.131 905.166 103.274 904.962 103.371C904.758 103.469 904.534 103.518 904.308 103.516C904.069 103.514 903.834 103.462 903.617 103.363L870.644 87.2486L869.697 91.4178L882.062 116.305L953.229 154.519L968.589 128.122L958.195 122.29C958.01 122.189 957.849 122.05 957.721 121.883C957.593 121.716 957.502 121.523 957.453 121.318C957.398 121.121 957.386 120.914 957.417 120.711C957.448 120.508 957.521 120.314 957.632 120.142L969.408 101.291C969.556 101.082 969.748 100.907 969.971 100.779L896.986 39.3923L882.036 36.8344L871.361 84.1537ZM961.165 120.27L971.533 126.076C971.885 126.282 972.149 126.609 972.275 126.997C972.38 127.402 972.325 127.833 972.121 128.199L955.968 155.874L987.814 172.986C987.688 172.759 987.623 172.504 987.623 172.244C987.623 171.985 987.688 171.729 987.814 171.502L1009.5 135.105C1009.69 134.812 1009.96 134.587 1010.29 134.465L972.173 102.467C972.187 102.578 972.187 102.69 972.173 102.8L961.165 120.27ZM990.502 173.063C990.375 173.265 990.203 173.436 989.998 173.56C989.794 173.684 989.563 173.759 989.324 173.779L1151.81 261.051L1171.34 244.553L1164.48 202.938L1029.57 150.503C1029.4 150.459 1029.25 150.37 1029.13 150.247L1012.36 136.179C1012.32 136.353 1012.26 136.524 1012.18 136.691L990.502 173.063ZM880.167 118.658C879.888 118.512 879.663 118.278 879.527 117.993L867.598 94.1035L829.455 128.097V151.731L857.435 143.725C857.687 143.661 857.951 143.661 858.203 143.725L887.54 150.426C887.913 150.509 888.242 150.728 888.462 151.04L908.404 179.022L968.64 215.599C968.867 215.739 969.055 215.934 969.185 216.167C969.315 216.4 969.383 216.662 969.382 216.929V255.884L1060.39 338.245L1149.25 263.225L880.167 118.658ZM904.385 323.717L889.025 341.749L909.991 360.933L925.351 344.435L904.385 323.717ZM927.424 346.737L910.99 364.283C910.849 364.443 910.675 364.572 910.481 364.66C910.287 364.748 910.076 364.794 909.863 364.795C909.483 364.788 909.119 364.642 908.839 364.386L886.798 344.205L870.568 363.132L916.263 407.101L949.901 368.964L927.424 346.737ZM902.081 321.671L857.845 277.881L832.885 304.84L822.082 316.504L868.315 361.009L902.081 321.671ZM855.643 275.63L810.511 230.997L795.535 269.185L831.63 301.566L855.643 275.63ZM822.773 168.203L782.556 157.23L762.895 205.828L808.975 226.137L822.773 168.203ZM795.842 116.075L767.452 106.074L734.736 193.346L760.028 204.472L795.842 116.075ZM764.457 104.974L748.918 99.4749L715.638 184.982L731.766 192.093L764.457 104.974ZM746 98.4262L728.259 92.1596L701.891 165.108C701.438 166.39 700.652 167.529 699.613 168.407L692.189 174.648L712.874 183.754L746 98.4262ZM689.68 176.848C670.609 192.937 623.736 232.582 543.762 300.697C540.409 303.561 537.03 306.349 533.676 309.086L534.982 356.405L702.224 204.651L711.696 186.568L689.68 176.848ZM561.861 41.6687L673.706 5.45029C673.991 5.36576 674.294 5.36417 674.58 5.44572C674.865 5.52732 675.122 5.68858 675.319 5.91068L705.015 38.8807C705.184 39.0584 705.305 39.2757 705.368 39.5126C705.43 39.7495 705.432 39.9985 705.373 40.2364L689.808 111.855C689.751 112.076 689.649 112.284 689.508 112.464C689.367 112.645 689.191 112.794 688.989 112.903L653.79 131.166L679.645 165.21L688.196 157.997L743.03 6.31992C743.144 5.97471 743.29 5.64072 743.465 5.32236L759.875 -25.6013L696.336 -69.8001H642.116C641.709 -69.8001 641.318 -69.9618 641.03 -70.2495C640.742 -70.5374 640.58 -70.9278 640.58 -71.3347V-143.592L585.618 -156.381L564.933 -99.1892C564.872 -98.9895 564.767 -98.8061 564.626 -98.652L533.906 -65.2472L529.939 1.76707C529.919 1.98948 529.851 2.20506 529.741 2.39921C529.63 2.59336 529.48 2.76157 529.299 2.89249L516.857 12.2029L512.275 41.6687H561.861ZM757.366 11.9471L729.411 89.2437L747.331 95.5614L812.815 -73.1252L801.039 -76.7829C794.404 -59.8525 786.797 -43.3187 778.255 -27.2639L757.366 11.9471ZM750.096 96.5846L765.609 102.084L829.327 -67.8562L815.656 -72.0765L750.096 96.5846ZM768.502 103.107L797.02 113.338L859.432 -58.4946L832.245 -66.9353L768.502 103.107ZM860.533 -61.5128L897.55 -157.379C889.28 -162.778 880.292 -166.989 870.849 -169.887L833.371 -69.8256L860.533 -61.5128ZM863.477 -60.592L898.778 -49.6447L937.92 -127.53L903.694 -153.491L900.186 -155.819L863.477 -60.592ZM1153.24 155.158L1144.18 191.76L1166.42 200.38C1166.67 200.48 1166.89 200.644 1167.06 200.855C1167.22 201.066 1167.33 201.316 1167.37 201.582L1174 241.637L1204.72 205.828L1213.96 174.393L1211.76 147.024L1153.24 155.158ZM1224.25 351.98L1205.51 359.296L1201.21 390.936L1224.25 387.636V351.98ZM1078.21 393.059L1098.25 412.14L1136.65 371.624L1120.65 356.278L1078.21 393.059ZM1158.03 472.836L1143.54 489.718C1143.26 490.019 1142.89 490.21 1142.49 490.255L1130.79 491.201C1130.41 491.171 1130.05 491.002 1129.79 490.728C1129.52 490.453 1129.37 490.091 1129.35 489.71C1129.34 489.33 1129.46 488.956 1129.7 488.661C1129.94 488.365 1130.28 488.168 1130.66 488.106L1141.72 487.211L1155.9 470.713L1118.73 435.723L1099.48 455.878C1099.34 456.03 1099.17 456.152 1098.98 456.235C1098.79 456.319 1098.59 456.363 1098.38 456.364C1097.98 456.357 1097.6 456.202 1097.3 455.929C1097.16 455.787 1097.05 455.617 1096.97 455.431C1096.89 455.244 1096.85 455.044 1096.85 454.842C1096.85 454.64 1096.89 454.44 1096.97 454.254C1097.05 454.067 1097.16 453.898 1097.3 453.755L1116.53 433.6L1075.85 395.105L1052.5 415.235L1041.62 449.714L1140.8 533.686L1178.38 492.122L1158.03 472.836ZM1085.45 490.741L1055.22 523.429L1070.94 535.042L1078.49 525.987C1078.63 525.81 1078.81 525.667 1079.01 525.57C1079.22 525.472 1079.44 525.422 1079.67 525.425C1079.89 525.426 1080.11 525.475 1080.31 525.568C1080.51 525.66 1080.7 525.795 1080.84 525.962L1104.06 553.049L1124.75 523.992L1085.45 490.741ZM1083.1 488.746L1040.63 452.783L1025.27 501.381L1052.66 521.639L1083.1 488.746ZM1038.07 450.634L1002.53 420.683L969.971 458.589L978.777 467.056L1022.71 499.54L1038.07 450.634ZM818.907 315.276L829.659 303.664L794.434 272.331L777.794 314.688L798.018 338.066L818.907 315.276ZM792.335 269.006L808.053 229.002L761.769 208.539L731.049 300.978L775.081 312.923L792.335 269.006ZM759.056 207.286L733.609 196.083L687.888 289.263L728.157 300.185L759.056 207.286ZM730.896 194.83L714.717 187.719L705.066 206.212C704.969 206.367 704.858 206.513 704.733 206.647L573.176 326.044L593.656 352.518L650.436 307.654C650.755 307.399 651.162 307.282 651.568 307.328C651.974 307.373 652.345 307.578 652.599 307.897C652.854 308.216 652.971 308.622 652.926 309.028C652.88 309.433 652.675 309.804 652.356 310.058L538.335 400.22L576.735 407.485L674.909 314.995L684.202 289.903L730.896 194.83ZM536.492 402.804L538.642 480.893L550.828 495.984L569.285 481.635L575.506 410.452L536.492 402.804ZM591.455 354.206L570.975 327.886L535.135 360.319L536.159 397.765L591.455 354.206ZM532.319 363.056L480.71 409.915C497.606 430.377 516.038 452.911 535.443 476.903L532.319 363.056ZM532.319 358.989L530.988 311.363C504.439 332.89 476.041 352.037 446.125 368.58C456.135 380.321 467.117 393.391 478.842 407.536L532.319 358.989ZM450.58 319.062C469.395 304.636 495.123 281.999 512.48 266.371C512.342 266.323 512.212 266.254 512.096 266.166L501.6 257.726L465.095 266.32L443.54 303.74L450.58 319.062ZM440.903 305.403L395.848 313.793C401.531 319.164 408.98 326.965 417.889 336.813C428.441 332.543 438.536 327.221 448.02 320.929L440.903 305.403ZM450.912 322.694C441.292 329.295 430.994 334.851 420.193 339.268C424.903 344.537 430.023 350.343 435.553 356.61C469.382 338.252 501.249 316.492 530.655 291.668L531.193 253.71C520.159 263.711 477.818 302.359 450.964 322.694H450.912ZM431.841 376.177C395.478 395.196 356.736 409.278 316.642 418.048L320.917 433.395L449.735 397.074C443.488 389.836 437.549 382.802 431.892 376.177H431.841ZM451.808 399.786L414.74 410.247L419.297 426.054L463.149 413.265L451.808 399.786ZM411.745 411.091L321.634 436.49C323.145 442.015 324.681 447.54 326.165 452.911L416.302 426.898L411.745 411.091ZM318.255 435.85C316.668 430.019 315.055 424.213 313.519 418.637L311.215 419.097C288.867 424.34 273.609 428.51 263.113 432.628L334.024 492.813L318.255 435.85ZM312.341 402.983C317.035 401.874 322.001 400.741 327.24 399.581C359.781 391.114 391.314 379.168 421.294 363.951C415.406 357.173 409.953 350.983 405.038 345.509C364.693 361.547 315.004 376.024 305.66 378.76C306.684 382.086 309.193 391.191 312.341 402.983ZM386.862 306.349C389.068 307.772 391.142 309.39 393.057 311.184L440.877 302.282L462.791 264.197C462.892 264.012 463.031 263.851 463.198 263.723C463.366 263.595 463.558 263.504 463.764 263.455L501.779 254.554C502.01 254.501 502.249 254.501 502.48 254.554C502.71 254.607 502.926 254.712 503.11 254.861L514.195 263.762C514.426 263.967 514.595 264.233 514.681 264.529C523.334 256.728 529.555 250.999 531.219 249.464L533.215 106.534L522.259 44.6869H510.483L378.005 46.4262C370.325 79.9588 361.774 118.044 351.97 161.194C345.979 187.616 342.011 205.061 341.525 207.363C339.58 216.238 324.092 260.718 317.845 278.546C347.183 288.624 374.472 298.932 386.862 306.349ZM416.762 -155.998L394.875 -155.691C379.848 -155.512 367.995 -155.358 363.541 -155.051H362.645C344.904 -155.051 242.966 -182.522 213.86 -190.451L182.142 -52.3303L181.988 -51.9211C181.988 -51.9211 181.988 -51.7165 181.988 -51.6397L135.55 88.3996L350.152 141.525C371.835 45.6076 412.513 -133.745 416.762 -155.998ZM278.524 -179.632C316.924 -169.784 355.323 -160.627 363.003 -161.19C367.637 -161.523 379.566 -161.676 394.696 -161.855L417.121 -162.162C417.71 -181.652 420.679 -262.556 421.601 -287.494L327.701 -311.793L301.692 -302.329L278.652 -231.632L278.524 -179.632ZM378.645 43.408L509.203 41.6943L513.939 11.0007C514.004 10.6001 514.224 10.2414 514.553 10.0032L526.943 0.743935L531.014 -65.989C531.021 -66.3408 531.158 -66.6778 531.398 -66.9353L562.373 -100.519L583.365 -158.658C583.698 -159.732 594.322 -195.055 607.531 -239.766L606.098 -240.149C586.258 -223.421 520.774 -168.736 509.459 -162.495C501.779 -158.274 466.195 -156.842 423.086 -156.075C420.935 -144.59 407.649 -84.7376 378.645 43.408ZM515.475 -279.309C505.465 -298.288 495.533 -331.232 490.848 -347.935L435.732 -299.874L515.475 -279.309ZM614.776 -253.731L626.731 -250.636L719.581 -239.97C720.4 -252.478 722.141 -278.081 724.061 -306.78L634.897 -322.485C628.318 -299.848 621.329 -276.01 614.776 -253.706V-253.731ZM663.415 -520.918L663.978 -524.448L602.181 -522.913L554.463 -497.336L572.792 -464.238L587.589 -468.816L583.339 -481.605C583.21 -481.992 583.24 -482.414 583.423 -482.778C583.605 -483.143 583.925 -483.42 584.312 -483.549C584.699 -483.678 585.122 -483.648 585.487 -483.466C585.851 -483.283 586.129 -482.964 586.258 -482.577L590.533 -469.788L664.772 -492.808C664.567 -509.332 663.441 -520.458 663.415 -520.688C663.386 -520.755 663.36 -520.823 663.338 -520.893L663.415 -520.918ZM569.772 -463.24L551.852 -495.801L542.15 -490.685V-454.62L549.266 -456.82L569.772 -463.24ZM549.65 -421.727H570.13V-460.094L551.289 -454.262L549.65 -421.727ZM623.121 -476.515V-464.672H664.081C664.593 -473.574 664.746 -481.963 664.721 -489.406L623.121 -476.515ZM525.843 -421.727V-446.41L505.235 -440.041L503.238 -421.753L525.843 -421.727ZM528.863 -447.305C528.875 -447.186 528.875 -447.066 528.863 -446.947V-421.702H546.578L547.858 -453.265L528.863 -447.305ZM542.124 -494.062L600.235 -525.395L602.411 -545.652L544.838 -554.144L541.945 -542.685L542.124 -494.062ZM602.718 -548.722L604.946 -569.517L551.852 -581.973L545.605 -557.214L602.718 -548.722ZM603.41 -525.983L664.414 -527.518L668.868 -554.656L607.966 -568.8L603.41 -525.983ZM667.562 -527.594L739.472 -529.385C739.625 -535.421 739.779 -541.509 739.932 -547.596L671.889 -553.965L667.562 -527.594ZM624.427 -235.341C624.082 -235.375 623.74 -235.435 623.403 -235.52L610.398 -238.87C598.622 -199.02 588.895 -166.613 586.667 -159.195L642.577 -146.406C642.916 -146.322 643.217 -146.128 643.435 -145.855C643.652 -145.583 643.774 -145.246 643.78 -144.897V-72.9718H696.9C697.22 -72.9721 697.533 -72.8738 697.796 -72.6904L761.334 -28.5172L764.559 -34.6048C781.325 -66.1649 794.341 -99.5747 803.343 -134.154C812.2 -173.109 812.764 -197.357 805.058 -208.33C801.679 -213.088 796.252 -215.748 788.034 -216.694L624.427 -235.341ZM802.037 -79.6476L830.402 -70.8488L867.854 -170.807C860.623 -172.747 852.979 -172.497 845.89 -170.091C830.146 -164.183 822.21 -145.178 818.344 -130.292C813.865 -113.126 808.421 -96.2264 802.037 -79.6732V-79.6476ZM825.538 -175.284C829.872 -179.279 834.929 -182.412 840.437 -184.517C846.359 -186.676 852.647 -187.649 858.945 -187.382L826.331 -212.09L820.162 -212.806C824.77 -203.905 826.562 -191.705 825.538 -175.284ZM960.474 -129.806L988.889 -160.5C963.52 -177.841 943.552 -191.73 942.81 -193.009C941.658 -195.03 937.69 -207.051 935.13 -215.134C912.551 -213.881 882.318 -213.574 857.333 -213.574H849.934L960.474 -129.806ZM945.37 -194.723C946.778 -193.188 965.849 -180.015 991.04 -162.776L1040.52 -216.208L1043.83 -234.701C1012.85 -227.386 974.272 -218.92 952.999 -216.541C948.749 -216.08 943.783 -215.671 938.279 -215.339C941.274 -205.977 944.653 -196.13 945.37 -194.748V-194.723ZM1043.47 -215.185C1043.42 -214.897 1043.29 -214.629 1043.08 -214.418L1032.38 -202.857L1063.23 -190.63L1085.12 -244.728C1077.59 -242.835 1063.59 -239.356 1047.1 -235.443L1043.47 -215.185ZM1066.1 -189.607L1128.74 -164.822L1131.86 -169.784L1117.4 -230.43L1088.63 -245.316L1066.1 -189.607ZM1030.13 -200.529L993.6 -161.139C1020.74 -142.621 1054.45 -119.805 1081.46 -101.619L1103.68 -119.831V-122.158C1103.6 -123.736 1104.01 -125.299 1104.86 -126.634L1127.18 -162.162L1030.13 -200.529ZM1103.88 -115.892L1082.53 -98.3963L1043.31 -67.0888L1108.75 -17.4676L1103.88 -115.892ZM1012.85 -70.7721L1017.07 -14.5005C1022.19 -8.23397 1088.19 73.5644 1105.19 88.195C1116.22 97.6844 1167.7 89.525 1207.28 80.8797C1207.47 80.77 1207.68 80.7004 1207.89 80.6751H1208.1L1216.32 78.8335L1207.18 75.8664C1206.35 75.6041 1205.57 75.2065 1204.87 74.6899L1012.85 -70.7721ZM1209.69 83.4887L1212.25 115.921L1296.32 125.718L1301.87 107.123C1266.42 95.2545 1238.05 85.9441 1221.9 80.7006C1218.42 81.5191 1214.29 82.4656 1209.69 83.4887ZM1298.93 127.866C1298.83 128.184 1298.63 128.462 1298.36 128.659C1298.1 128.857 1297.77 128.965 1297.44 128.966H1297.26L1212.53 119.068L1216.88 173.165L1301.77 184.163L1337.61 119.195L1304.87 108.146L1298.93 127.866ZM1283.87 222.991L1282.34 248.952L1356.58 278.725L1421.04 147.996C1392.88 138.123 1365.64 128.736 1340.5 120.193L1283.87 222.991ZM1402.89 191.811L1454.24 209.409L1469.04 164.903C1453.93 159.481 1438.88 154.135 1424.03 148.917L1402.89 191.811ZM1456.65 211.864L1451.12 228.49L1529.73 254.938L1547.93 194.037C1523.21 184.675 1497.61 175.262 1472.01 166.054L1456.65 211.864ZM1525.77 278.674L1623.22 309.623C1627.93 295.248 1638.07 268.699 1651.18 235.447C1621.69 222.658 1587.18 209.051 1550.72 195.239L1525.77 278.674ZM1738.73 340.547C1718.81 331.748 1702.89 324.612 1690.09 318.831L1675.83 362.57L1723.24 384.541L1738.73 340.547ZM1716.33 413.393L1733.12 419.353L1742.39 396.972L1725.06 388.761L1716.33 413.393ZM1726.03 385.846L1744.98 394.798C1745.33 394.97 1745.61 395.273 1745.75 395.643C1745.9 396.014 1745.89 396.425 1745.74 396.793L1735.38 421.885C1735.26 422.168 1735.06 422.411 1734.8 422.584C1734.55 422.756 1734.25 422.851 1733.94 422.857C1733.77 422.881 1733.6 422.881 1733.43 422.857L1715.2 416.309L1702.76 451.607L1752.45 469.281L1777.74 400.476L1791.26 363.644C1772.49 355.408 1756.01 348.144 1741.54 341.749L1726.03 385.846ZM1722.19 387.457L1674.86 365.537L1665.72 393.545C1666.92 394.568 1668.1 395.565 1669.35 396.563C1684.36 408.584 1692.39 424.417 1694.67 448.691L1699.95 450.558L1722.19 387.457ZM1672.02 364.232L1635.84 347.479C1639.09 363.03 1648.31 377.84 1663.24 391.319L1672.02 364.232ZM1672.99 361.265L1687.22 317.552C1662.34 306.324 1650.08 300.492 1644.01 297.32C1640.86 305.384 1638.14 313.606 1635.84 321.952C1634.41 329.139 1634.22 336.519 1635.28 343.77L1672.99 361.265ZM1645.03 294.558C1652.13 298.164 1667.56 305.301 1688.2 314.611L1706.11 259.721L1666.77 242.098L1665.49 241.535C1657.73 261.153 1650.46 280.004 1645.03 294.558ZM1673.01 228.055C1695.36 238.031 1717.28 247.904 1738.45 257.444L1747.59 232.199C1747.71 231.835 1747.98 231.533 1748.32 231.353C1748.66 231.173 1749.06 231.128 1749.43 231.227L1763.23 234.91L1821.52 97.9913L1768.4 71.0066C1763.18 75.1673 1757.02 80.0186 1749.92 85.5605C1737.32 95.408 1720.37 108.581 1716.38 112.622C1714.82 117.379 1709.88 129.836 1694.26 168.893C1687.48 185.826 1679.24 206.467 1671.22 227.083L1673.01 228.055ZM1708.85 261.051L1690.93 315.941C1705.19 322.336 1721.65 329.728 1739.57 337.657L1758.72 283.534C1742.7 276.219 1726.01 268.699 1708.88 261L1708.85 261.051ZM1742.59 338.833C1758.39 345.842 1775.18 353.234 1792.33 360.779L1811.87 307.628L1761.64 284.787L1742.59 338.833ZM1781.17 400.22L1806.59 409.122L1819.57 376.254L1802.63 368.811L1794.1 365.076L1781.17 400.22ZM1808.92 411.628C1808.81 411.916 1808.61 412.162 1808.36 412.335C1808.1 412.509 1807.8 412.601 1807.49 412.6C1807.32 412.627 1807.15 412.627 1806.98 412.6L1780.12 403.213L1771.52 426.387L1796.58 437.129C1796.92 437.259 1797.2 437.504 1797.38 437.821C1797.55 438.137 1797.61 438.506 1797.54 438.861C1797.47 439.216 1797.28 439.534 1796.99 439.76C1796.71 439.987 1796.36 440.106 1796 440.096C1795.79 440.132 1795.58 440.132 1795.38 440.096L1770.45 429.405L1755.37 470.509L1815.4 491.968C1815.39 491.85 1815.39 491.729 1815.4 491.61L1854.23 391.268L1822.39 377.354L1808.92 411.628ZM1613.26 504.22L1625.35 461.608L1611.88 454.804L1599.08 496.342L1613.26 504.22ZM1579.4 485.728L1596.37 494.859L1608.96 453.934L1609.14 453.576L1594.88 446.261L1579.4 485.728ZM1627.55 459.459C1645.28 459.828 1662.86 462.678 1679.8 467.925C1680.62 436.72 1674.01 420.197 1659.7 408.738C1625.27 381.216 1617.85 352.466 1619.18 330.29L1602.23 333.309L1573.64 432.218L1627.55 459.459ZM1548.34 419.992L1570.69 430.786L1585.21 380.551L1529.35 365.051L1514.5 407.127L1548.34 419.992ZM1522.08 442.219C1521.95 441.909 1521.93 441.567 1522.01 441.242C1522.08 440.917 1522.26 440.624 1522.51 440.403L1544.79 421.936L1498.94 404.518L1474.92 511.152L1511.25 520.053L1547.81 501.432L1522.08 442.219ZM1573.02 559.494L1549.04 504.271L1513.5 522.381L1538.57 573.025L1573.02 559.494ZM1512.3 615.075L1515.96 582.898C1515.99 582.621 1516.1 582.356 1516.26 582.131C1516.43 581.907 1516.65 581.73 1516.91 581.619L1535.8 574.15L1510.41 522.995L1474.28 514.119L1453.24 607.402L1512.3 615.075ZM1259.02 552.179H1259.38L1313.83 574.406C1313.79 574.238 1313.79 574.063 1313.83 573.895L1323.84 548.163C1323.96 547.839 1324.2 547.566 1324.5 547.39C1324.8 547.214 1325.15 547.144 1325.5 547.191L1368.63 553.765L1379.59 478.361L1366.2 468.539C1365.94 468.356 1365.74 468.093 1365.64 467.789C1365.54 467.484 1365.54 467.155 1365.64 466.851L1375.16 436.03C1375.28 435.64 1375.55 435.313 1375.91 435.121C1376.27 434.929 1376.69 434.888 1377.08 435.006C1377.47 435.125 1377.8 435.394 1377.99 435.754C1378.18 436.114 1378.23 436.535 1378.11 436.925L1369.02 466.953L1382.25 476.673C1382.48 476.842 1382.66 477.068 1382.77 477.329C1382.89 477.589 1382.93 477.875 1382.89 478.156L1371.58 555.99C1371.55 556.193 1371.48 556.388 1371.38 556.563C1371.27 556.739 1371.13 556.892 1370.97 557.014C1370.81 557.135 1370.62 557.223 1370.42 557.271C1370.22 557.319 1370.01 557.327 1369.81 557.295L1326.29 550.696L1316.72 575.25C1316.63 575.439 1316.5 575.605 1316.33 575.736L1442.46 627.097L1493.05 402.42L1388.73 390.501C1388.59 390.527 1388.44 390.527 1388.3 390.501L1367.82 381.881L1344.78 418.355L1356.14 429.737C1356.4 429.996 1356.56 430.338 1356.59 430.702C1356.63 431.067 1356.53 431.432 1356.32 431.733L1337.45 458.027C1337.31 458.224 1337.12 458.384 1336.9 458.496C1336.69 458.607 1336.44 458.665 1336.2 458.666C1335.97 458.667 1335.74 458.615 1335.53 458.513L1280.01 431.349L1251.16 432.295L1246.78 439.355L1233.39 460.457L1258.58 478.949L1270.41 463.603C1270.53 463.443 1270.69 463.31 1270.86 463.21C1271.04 463.11 1271.23 463.046 1271.43 463.021C1271.64 462.996 1271.84 463.011 1272.03 463.064C1272.23 463.118 1272.41 463.21 1272.57 463.334C1272.73 463.458 1272.87 463.613 1272.97 463.789C1273.07 463.965 1273.13 464.158 1273.15 464.359C1273.18 464.56 1273.16 464.763 1273.11 464.958C1273.06 465.153 1272.97 465.336 1272.84 465.495L1261.09 480.842L1274.66 490.818C1274.86 490.955 1275.02 491.138 1275.13 491.352C1275.24 491.566 1275.3 491.804 1275.3 492.045V515.961C1275.3 516.329 1275.16 516.685 1274.91 516.958L1245.78 550.21L1259.02 552.179ZM1242.3 549.621L1272.33 515.321V492.813L1230.86 462.349L1214.12 460.252L1181.68 493.068L1144.02 534.709L1242.3 549.621ZM1066 620.6L1085.32 642.981L1126.74 595.764L1159.49 567.219L1170.98 541.846L1140.72 537.242C1140.5 537.202 1140.28 537.105 1140.11 536.96L1127.31 526.141L1105.65 556.527L1066 620.6ZM1079.46 592.797L1102.27 555.734L1079.69 529.389L1072.37 538.162L1049.07 564.584L1079.46 592.797ZM1046.77 562.513L1068.91 537.421L1053.12 525.731L1031.9 548.752L1046.77 562.513ZM1030.28 545.912L1050.64 523.89L1024.34 504.451L1020.02 518.186L1030.28 545.912ZM979.289 557.269L989.094 569.035L1027.8 548.087L1017.23 519.516L978.419 509.413L971.021 518.621L979.289 557.269ZM887.131 655.616L940.634 600.317L948.058 577.757C948.139 577.516 948.277 577.297 948.459 577.119C948.642 576.942 948.864 576.809 949.107 576.734L970.995 570.646L976.115 557.857L967.718 518.57C967.678 518.347 967.685 518.118 967.738 517.898C967.791 517.678 967.889 517.471 968.026 517.291L976.525 506.753C976.707 506.516 976.954 506.34 977.237 506.244C977.519 506.148 977.824 506.138 978.112 506.215L1017.23 516.447L1021.73 502.532L976.781 469.281L953.741 447.079L819.957 591.595L887.131 655.616ZM817.653 589.497L855.054 549.007L812.994 513.428L781.814 555.479L817.653 589.497ZM779.766 553.202L810.485 511.894L755.651 490.511L740.547 507.622L762.87 533.507L779.766 553.202ZM694.391 623.414L706.167 594.613C706.3 594.292 706.533 594.023 706.832 593.846L777.462 555.223L761.385 536.628L679.057 603.13L694.391 623.414ZM677.188 600.752L759.388 534.249L738.192 509.694L656.631 573.639L677.188 600.752ZM654.762 571.183L734.941 508.364L686.839 496.777L628.216 536.167L654.762 571.183ZM627.652 592.413L652.33 573.076L625.656 537.881L598.674 556.016C608.273 568.037 617.95 580.213 627.652 592.413ZM596.728 553.688L685.687 493.836C685.863 493.721 686.06 493.644 686.267 493.609C686.474 493.574 686.686 493.581 686.89 493.631L737.859 505.883L752.195 489.641L682.769 474.294C682.564 474.252 682.37 474.169 682.199 474.05C682.028 473.931 681.882 473.778 681.772 473.601C681.662 473.424 681.589 473.226 681.558 473.02C681.527 472.814 681.538 472.603 681.591 472.401L698.743 408.712C698.856 408.321 699.117 407.988 699.469 407.783C699.822 407.579 700.24 407.517 700.637 407.613L769.091 426.003L777.001 401.141L727.926 385.641L707.139 376.996C706.821 376.862 706.557 376.626 706.39 376.324C706.223 376.022 706.162 375.673 706.218 375.333L712.157 337.375V337.248L715.126 325.379C715.174 325.182 715.261 324.997 715.381 324.833C715.501 324.67 715.652 324.532 715.826 324.427C716 324.323 716.193 324.254 716.393 324.224C716.594 324.194 716.799 324.204 716.995 324.254C717.39 324.357 717.729 324.609 717.939 324.958C718.15 325.307 718.215 325.725 718.122 326.121L715.562 336.352L791.721 355.28L796.175 340.624L775.081 316.222L686.48 292.23L677.546 316.35C677.452 316.566 677.322 316.765 677.162 316.939L578.578 409.787L572.05 482.658C572.001 483.087 571.791 483.48 571.461 483.758L552.492 498.491C566.956 516.344 581.727 534.812 596.728 553.688ZM493.818 535.374L515.372 573.741L517.932 578.217L574.252 550.082C559.762 531.998 544.556 513.045 529.222 494.092L487.52 497.314L493.818 535.374ZM526.636 491.073C505.747 465.24 484.73 439.483 465.197 416.079L418.58 429.533L326.933 455.98C332.54 476.443 337.173 493.478 338.095 496.47L348.053 504.911L526.636 491.073ZM349.615 557.167L367.918 528.11L335.791 498.363L259.913 433.958C254.497 436.01 249.601 439.233 245.578 443.396C236.874 453.423 191.818 502.814 174.359 521.946L276.169 624.258L349.615 557.167ZM245.065 652.956L273.942 626.457L253.667 605.995L224.151 630.422L245.065 652.956ZM222.026 628.145L251.389 603.949L231.83 584.279L196.426 600.572L222.026 628.145ZM229.552 581.824L172.26 524.197C170.289 526.371 168.83 527.982 168.036 528.826C166.372 531.666 160.894 541.027 153.265 553.944L177.662 605.688L229.552 581.824ZM145.944 536.116L155.134 520.437C155.406 519.965 155.732 519.527 156.107 519.132L161.303 513.275L160.868 512.84L140.081 521.281L145.944 536.116ZM137.342 522.432L115.941 531.128V531.256L128.869 564.891C133.989 556.041 139.109 547.498 143.87 539.518L137.342 522.432ZM123.544 630.601L174.897 606.993L151.422 557.192C142.001 573.153 129.765 593.769 117.477 614.18C119.397 619.526 121.445 625.025 123.493 630.601H123.544ZM110.591 595.662C116.094 586.53 121.598 577.297 126.923 568.293L113.151 532.484C113.138 532.442 113.138 532.398 113.151 532.356L90.1108 541.718C95.1796 554.762 102.296 573.562 110.539 595.662H110.591ZM46.105 645.769L90.8275 628.12C93.8995 623.004 97.0739 617.889 100.274 612.517C95.7938 600.394 91.5956 589.139 87.8324 579.036L29.2347 604.614L46.105 645.769ZM28.1852 601.8L86.834 576.222C82.5332 564.738 78.7958 554.941 75.8262 547.345L15.7949 571.695L28.1852 601.8ZM3.58398 541.871L14.6174 568.754L44.3899 556.681C44.2139 556.56 44.0654 556.403 43.9546 556.22L31.1548 529.031L3.58398 541.871ZM33.1772 526.32L46.745 554.89C46.8184 555.15 46.8184 555.424 46.745 555.683L74.5718 544.403C71.6791 537.011 69.6566 532.177 68.7863 530.591C66.8151 527.727 61.9512 517.802 55.5769 504.169L28.5693 516.958L33.1772 526.32ZM15.2574 490.511C15.5287 490.529 15.7902 490.62 16.0151 490.773C16.24 490.925 16.4202 491.135 16.5375 491.38L27.3661 514.196L54.3993 501.407C51.2249 494.526 47.6921 486.802 43.9802 478.617L15.2574 490.511ZM81.4838 521.767C84.3202 527.26 86.7916 532.933 88.8821 538.751L158.59 510.461L71.0134 422.371C59.3834 421.585 47.704 421.953 36.1467 423.471C55.6792 467.542 77.823 516.549 81.4581 521.767H81.4838ZM4.81274 351.366C5.50391 353.183 6.11841 354.717 6.60474 355.843C10.1375 364.283 19.1229 384.874 29.6444 408.815C43.9204 406.534 58.4138 405.925 72.8311 406.999C37.8363 393.621 18.5853 373.287 4.78711 351.366H4.81274ZM91.8516 425.108C86.504 424.038 81.1034 423.253 75.6726 422.755L161.611 509.208L166.986 507.034C186.519 485.625 225.866 442.322 233.853 433.293C236.327 430.478 239.168 428.009 242.301 425.952C190.718 428.893 119.576 430.633 91.9285 425.108H91.8516ZM140.132 259.951L210.711 356.022C210.817 356.158 210.896 356.315 210.941 356.482L227.479 411.321C254.281 410.017 277.987 408.277 291.094 406.666C294.652 406.257 300.898 405.336 309.346 403.673C305.404 389.35 302.537 378.94 302.306 378.095C300.923 364.92 300.401 351.668 300.745 338.424L221.053 264.248L208.688 260.616C207.181 260.181 205.848 259.287 204.874 258.058L177.534 224.551L140.132 259.951ZM215.319 246.471C226.147 249.643 270.23 262.637 311.855 276.628C318.05 259.005 333.512 214.576 335.355 206.109C335.868 203.807 339.836 186.338 345.826 159.916C346.722 155.977 347.669 151.807 348.642 147.459L133.477 94.1802L121.24 131.012L215.319 246.471ZM12.5438 -81.5659L111.103 112.622L164.503 -48.5192L12.5438 -81.5659ZM152.036 -274.731C136.984 -260.637 49.6378 -154.156 33.5356 -134.538L46.105 -90.0322L168.804 -63.3033L226.634 -315.041C201.802 -303.71 162.916 -284.86 152.113 -274.731H152.036ZM215.165 -196.462C230.807 -192.165 252.976 -186.231 275.452 -180.425V-231.862C275.426 -232.023 275.426 -232.187 275.452 -232.348L297.878 -300.974L233.878 -277.595L215.165 -196.462ZM478.432 -612.667L378.901 -604.993L363.541 -561.332L421.729 -557.418C421.839 -557.43 421.951 -557.43 422.062 -557.418L478.381 -540.69L478.432 -612.667ZM478.432 -537.391L421.345 -554.349L362.312 -558.39L357.192 -543.836L478.432 -484.623V-537.391ZM478.432 -481.119L356.142 -540.869L350.741 -525.369V-525.139C348.36 -518.693 335.586 -493.934 319.433 -463.419L447.943 -399.474C448.125 -399.385 448.288 -399.26 448.422 -399.106C448.555 -398.953 448.657 -398.775 448.722 -398.583C448.786 -398.39 448.811 -398.186 448.796 -397.984C448.781 -397.781 448.726 -397.584 448.634 -397.402C448.453 -397.041 448.136 -396.766 447.752 -396.636C447.369 -396.507 446.95 -396.534 446.586 -396.712L317.973 -460.657C292.655 -412.903 259.708 -352.334 245.117 -325.58L238.102 -295.5L324.808 -327.012C326.269 -327.548 327.858 -327.628 329.365 -327.242L428.564 -301.664L489.67 -354.943L495.097 -405.485L461.485 -422.213C461.154 -422.374 460.891 -422.648 460.746 -422.987C460.6 -423.325 460.581 -423.704 460.692 -424.055L478.432 -477.768V-481.119ZM481.504 -612.846V-482.756C481.625 -482.541 481.689 -482.299 481.689 -482.053C481.689 -481.806 481.625 -481.564 481.504 -481.349V-477.615C481.527 -477.454 481.527 -477.29 481.504 -477.129L464.122 -424.413L495.533 -408.81L514.579 -584.275L514.297 -584.147L494.381 -579.697V-561.945L510.201 -563.634C510.403 -563.654 510.607 -563.634 510.801 -563.576C510.995 -563.517 511.175 -563.421 511.332 -563.293C511.489 -563.164 511.619 -563.006 511.715 -562.828C511.811 -562.65 511.871 -562.454 511.891 -562.252C511.911 -562.051 511.891 -561.847 511.833 -561.653C511.774 -561.459 511.678 -561.279 511.55 -561.122C511.421 -560.965 511.263 -560.836 511.085 -560.74C510.906 -560.644 510.71 -560.584 510.508 -560.564L492.998 -558.697H492.819C492.438 -558.7 492.073 -558.846 491.795 -559.106C491.632 -559.245 491.502 -559.418 491.414 -559.612C491.325 -559.807 491.281 -560.018 491.283 -560.232V-580.95C491.286 -581.297 491.407 -581.632 491.626 -581.901C491.844 -582.171 492.147 -582.358 492.486 -582.433L513.683 -587.089C513.896 -587.135 514.116 -587.133 514.329 -587.085C514.541 -587.036 514.74 -586.941 514.911 -586.807L518.06 -615.685L481.504 -612.846ZM515.475 -535.114L538.873 -539.821V-542.89C538.846 -543.008 538.846 -543.13 538.873 -543.248L548.805 -582.587L521.312 -588.981L515.475 -535.114ZM524.255 -615.455L521.696 -592.076L549.599 -585.579L555.845 -610.288L524.255 -615.455ZM558.892 -609.802L552.62 -584.863L605.278 -572.611L608.35 -601.719L558.892 -609.802ZM611.422 -601.208L608.299 -571.921L669.38 -557.7L674.833 -590.951L611.422 -601.208ZM677.981 -590.363L672.503 -557.111L739.856 -550.691C740.112 -560.641 740.317 -570.54 740.496 -580.106L677.981 -590.363ZM742.876 -454.365H792.77L796.175 -478.664L744.08 -480.429C743.721 -470.734 743.312 -461.91 742.876 -454.365ZM746.512 -565.296L751.376 -579.415H746.819C746.716 -574.786 746.614 -570.054 746.512 -565.296ZM747.536 -620.954C747.331 -609.52 747.1 -596.399 746.819 -582.587H752.374L765.455 -620.34L747.536 -620.954ZM820.674 -618.038L768.63 -620.11L755.702 -582.485H822.568L820.674 -618.038ZM889.307 -547.647C877.915 -555.525 849.141 -576.627 845.352 -579.39H754.627L746.281 -555.116C745.718 -530.357 745.027 -504.983 744.208 -483.498L797.967 -481.656C798.186 -481.654 798.402 -481.605 798.601 -481.512C798.8 -481.42 798.976 -481.286 799.119 -481.119C799.254 -480.952 799.354 -480.76 799.411 -480.553C799.468 -480.346 799.482 -480.129 799.452 -479.917L795.612 -452.6C795.557 -452.231 795.372 -451.895 795.09 -451.651C794.808 -451.407 794.449 -451.272 794.076 -451.27H742.646C742.083 -441.908 741.469 -434.874 740.803 -431.089C736.707 -407.583 727.849 -272.736 725.673 -239.254L811.714 -229.355C814.94 -229.355 838.645 -228.946 866.472 -229.048V-295.705C866.445 -295.874 866.445 -296.047 866.472 -296.216L950.131 -523.451C941.555 -526.239 900.545 -539.872 889.307 -547.647ZM1132.32 -438.557C1125.13 -445.745 1109.28 -475.364 1106.85 -479.84L984.87 -524.755L953.229 -522.939L869.62 -295.295V-228.793C899.316 -228.946 932.928 -229.586 951.283 -231.632C984.563 -235.315 1064.74 -255.291 1083.22 -259.947L1123.29 -366.095C1123.67 -367.123 1124.28 -368.056 1125.05 -368.832L1169.93 -413.9C1157.62 -421.139 1137.6 -433.288 1132.32 -438.557ZM1550.65 -482.219L1546.24 -581.461L1477.59 -563.403H1477.18C1476.9 -563.401 1476.62 -563.481 1476.38 -563.634C1476.03 -563.863 1475.77 -564.219 1475.67 -564.631L1468.68 -599.34L1407.85 -583.661L1411.31 -565.168C1421.34 -549.949 1429.08 -538.107 1432.02 -533.426L1520.65 -474.546L1550.65 -482.219ZM1440.88 -508.974C1446.36 -492.45 1455.29 -465.491 1464.79 -438.378L1517.6 -458.048L1440.88 -508.974ZM1520.65 -456.002L1465.68 -435.539C1479.05 -397.505 1493.33 -359.982 1500.47 -351.49C1502.58 -349.072 1504.87 -346.823 1507.33 -344.763L1562.07 -379.293L1566.72 -402.799L1570.59 -422.955L1520.65 -456.002ZM1509.84 -342.691C1530.53 -326.27 1567.67 -309.44 1578.96 -305.885C1582.96 -304.165 1586.85 -302.209 1590.61 -300.027C1602.41 -300.027 1618.18 -298.544 1632.23 -297.214C1617.69 -308.008 1600.13 -336.297 1598.52 -338.931L1563.06 -376.377L1509.84 -342.691ZM1565.34 -379.293L1601.05 -364.56L1606.61 -373.615L1569.28 -399.832L1565.34 -379.293ZM1613.98 -470.837L1632.64 -473.574L1647.13 -523.962L1633.62 -528.438L1613.98 -470.837ZM1655.71 -592.92L1645.8 -575.502C1646.63 -574.49 1647.19 -573.281 1647.43 -571.992C1647.66 -570.702 1647.56 -569.375 1647.13 -568.135L1634.61 -531.38L1647.98 -526.929L1651.54 -539.232C1651.61 -539.531 1651.78 -539.798 1652.01 -539.999C1652.25 -540.201 1652.54 -540.326 1652.84 -540.358L1668.2 -542.097L1685.87 -567.342L1655.71 -592.92ZM1688.37 -565.322L1670.45 -539.744C1670.33 -539.568 1670.17 -539.42 1669.99 -539.31C1669.8 -539.2 1669.59 -539.13 1669.38 -539.104L1654.33 -537.365L1635.49 -471.758C1635.4 -471.469 1635.24 -471.212 1635.01 -471.016C1634.78 -470.821 1634.5 -470.696 1634.21 -470.658L1612.98 -467.537L1597.88 -423.159C1603.72 -419.195 1614.72 -411.956 1629.06 -403.567L1658.4 -408.375C1658.35 -408.611 1658.35 -408.856 1658.4 -409.092L1681.39 -515.47C1681.43 -515.675 1681.51 -515.869 1681.63 -516.04C1681.75 -516.212 1681.9 -516.357 1682.08 -516.468C1682.26 -516.574 1682.46 -516.643 1682.68 -516.669C1682.89 -516.696 1683.1 -516.679 1683.31 -516.621L1719.66 -506.671L1729.31 -530.561L1688.37 -565.322ZM1673.53 -464.621L1661.44 -408.913L1716.51 -417.916L1724.6 -453.111L1673.53 -464.621ZM1725.29 -456.129L1735.25 -499.279L1684.05 -513.296L1674.24 -467.64L1725.29 -456.129ZM1716.3 -414.77L1633.28 -401.162C1656.32 -387.913 1687.04 -372.49 1718.66 -362.795L1716.3 -414.77ZM1759.21 -573.66L1743.16 -569.619L1740.8 -525.497L1784.09 -520.816L1793.28 -560.973L1759.21 -573.66ZM1796.33 -560.488L1787.19 -520.586L1854.21 -513.219L1851.93 -565.475L1796.33 -560.488ZM1858.89 -616.017L1842.89 -612.667L1854.57 -568.826L1867.73 -570.003L1858.89 -616.017ZM1899.67 -552.379L1869.29 -567.035L1855.03 -565.757L1857.28 -513.475L1903.03 -525.395L1899.67 -552.379ZM1917.06 -482.449L1913.06 -524.806L1884.16 -517.286L1889.08 -476.924L1917.06 -482.449ZM1865.04 -415.946L1860.35 -468.509L1819.39 -470.581L1811.02 -416.867L1865.04 -415.946ZM1816.4 -472.474C1816.47 -472.846 1816.67 -473.181 1816.97 -473.42C1817.26 -473.658 1817.63 -473.785 1818.01 -473.778L1861.53 -471.553L1886.03 -476.336L1881.17 -516.519L1856.23 -510.022H1855.95H1855.67L1739.14 -522.632C1738.91 -522.684 1738.69 -522.779 1738.5 -522.913L1732 -528.438L1722.86 -505.904L1737.47 -501.863C1737.86 -501.76 1738.18 -501.514 1738.39 -501.176C1738.59 -500.837 1738.66 -500.433 1738.58 -500.047L1719.71 -418.197L1807.8 -416.867L1816.4 -472.474ZM1766.4 -353.153C1776.88 -352.551 1787.38 -352.662 1797.84 -353.485L1807.36 -413.696L1719.45 -415.026L1721.81 -361.721C1736.31 -357.232 1751.27 -354.359 1766.4 -353.153ZM1723.16 -345.223C1654.05 -364.074 1588.43 -410.754 1584.21 -413.824L1573.23 -421.113L1569.8 -403.209L1609.45 -375.329C1609.77 -375.106 1609.99 -374.771 1610.07 -374.391C1610.15 -374.011 1610.09 -373.615 1609.89 -373.282L1602.9 -361.849C1602.71 -361.53 1602.42 -361.291 1602.07 -361.178C1601.72 -361.064 1601.34 -361.085 1601 -361.235L1569.57 -374.203L1601.03 -340.952L1601.23 -340.696C1601.49 -340.287 1625.68 -300.846 1640.04 -296.497H1640.63L1642.83 -296.293V-324.659C1642.84 -325.008 1642.96 -325.344 1643.18 -325.617C1643.4 -325.89 1643.7 -326.084 1644.04 -326.168L1723.16 -345.223ZM1676.93 -330.925L1646.08 -323.431V-295.884C1652.02 -295.321 1657.01 -294.86 1660.01 -294.733C1667.59 -295.084 1675.11 -296.154 1682.49 -297.93L1676.93 -330.925ZM1871.49 -168.889L1867.9 -185.464C1867.83 -185.766 1867.83 -186.082 1867.9 -186.384L1887.54 -234.113L1886.23 -266.085L1774.82 -309.414L1731.43 -306.371C1727.52 -305.322 1673.3 -291.024 1659.75 -291.535C1655.84 -291.714 1648.67 -292.431 1640.37 -293.224C1627.45 -294.502 1610.3 -296.191 1596.68 -296.677C1646.77 -268.72 1788.11 -183.852 1858.87 -141.239L1871.49 -168.889ZM1852.26 -127.248C1736.5 -196.974 1585.46 -287.11 1574.51 -291.126C1560.89 -295.321 1507.46 -319.262 1488.65 -341.566C1475.85 -356.682 1449.63 -432.905 1425.64 -505.469C1422.6 -514.677 1419.96 -522.658 1419.25 -524.55C1417.61 -527.287 1407.85 -542.174 1394.34 -562.662L1277.45 -552.2L1233.49 -456.436C1233.11 -455.603 1232.58 -454.841 1231.93 -454.186L1136.98 -359.317L1098.58 -257.389L1127.54 -242.4C1128.53 -241.888 1129.4 -241.164 1130.09 -240.281C1130.77 -239.397 1131.26 -238.375 1131.5 -237.285L1147.63 -170.168C1148.1 -168.147 1147.75 -166.023 1146.66 -164.259L1119.11 -120.444L1124.82 -5.34365L1213.17 61.5938C1234.16 68.372 1507.95 156.821 1656.94 220.945C1664.03 203.04 1671.79 183.524 1679.98 163.189C1690.22 137.381 1700.05 112.903 1701.74 107.941C1701.97 103.823 1704.81 101.24 1740.44 73.3597C1755.01 61.9776 1773.16 47.7818 1776.28 44.252C1780.3 39.648 1790.06 14.3258 1797.17 -7.49215C1797.17 -7.77352 1797.38 -8.05489 1797.51 -8.33627L1852.26 -127.248ZM1906.59 81.0331L1876.53 65.6864C1876.22 65.5163 1875.98 65.2458 1875.84 64.919L1856.97 22.255C1856.95 22.1281 1856.95 21.9981 1856.97 21.8713L1853.34 -2.40218L1817.91 -15.6004L1811.74 -2.22311C1808.85 6.62687 1795.89 45.3519 1787.91 54.4577C1782.65 59.6352 1777.05 64.4627 1771.16 68.9092L1824.21 95.8428C1824.56 96.0144 1824.83 96.3156 1824.96 96.6829C1825.1 97.0503 1825.08 97.4551 1824.92 97.8122L1780.92 201.122L1845.56 226.29L1906.59 81.0331ZM1844.38 229.078L1779.71 204.012L1766.15 235.831L1830.99 260.923L1844.38 229.078ZM1829.79 263.762L1763.64 238.184L1749.99 234.552L1741.26 258.672C1768.22 270.847 1793.84 282.485 1817.4 293.228L1829.79 263.762ZM1875.33 336.71C1857.41 328.551 1837.11 319.164 1814.68 308.933L1795.15 362.033L1855.34 388.403L1875.33 336.71ZM1916.72 418.56L1857.05 392.547L1818.34 492.608C1818.34 492.608 1818.34 492.761 1818.16 492.864L1883.88 516.344L1916.72 418.56ZM1882.91 519.311L1835.37 502.302C1835.38 502.413 1835.38 502.524 1835.37 502.635L1825.54 527.88L1873.41 547.754L1882.91 519.311Z" fill="#2C5DEB"/>
</g>
</svg>
