<svg width="1920" height="365" viewBox="0 0 1920 365" fill="none" xmlns="http://www.w3.org/2000/svg">
<mask id="mask0_163_5" style="mask-type:alpha" maskUnits="userSpaceOnUse" x="0" y="0" width="1920" height="365">
<rect y="-3.05176e-05" width="1920" height="365" rx="55" fill="#2C5DEB"/>
</mask>
<g mask="url(#mask0_163_5)">
<path d="M78.591 466.573L68.9143 470H78.1302L79.5893 469.488L79.7429 470H82.9941L82.4821 468.465L244.861 410.838C248.718 428.879 253.104 448.6 258.019 470H273.916C253.206 378.789 241.891 321.955 240.355 284.969C256.951 279.793 274.177 276.91 291.555 276.4L304.354 320.804C304.451 321.124 304.647 321.405 304.914 321.607C305.181 321.809 305.504 321.922 305.839 321.929C306.096 321.921 306.349 321.86 306.582 321.75L343.343 301.646C343.673 301.466 343.926 301.172 344.053 300.818C344.181 300.464 344.174 300.076 344.034 299.728L327.676 258.956L348.821 248.265L371.861 237.113L394.516 255.912L301.666 470H305.046L345.749 376.206L401.07 398.203L404.628 429.561L352.661 437.618C352.315 437.679 352 437.853 351.764 438.112C351.528 438.371 351.384 438.701 351.355 439.051L349.282 470H352.379L354.35 440.483L374.19 437.414L375.957 470H399.662L396.795 433.91L406.497 432.4L443.488 427.566L451.757 470H454.906L446.612 427.157L467.45 424.42L472.16 445.394L456.8 470H460.461L473.261 449.666L477.843 470H484.166L478.355 444.141L536.799 420.276L551.468 459.948C551.6 460.297 551.854 460.588 552.183 460.766C552.512 460.945 552.894 460.999 553.26 460.92L570.693 456.802L574.559 470H577.784L573.125 454.653C573.012 454.274 572.758 453.952 572.416 453.752C572.074 453.553 571.668 453.491 571.282 453.579L553.772 457.723L539.538 419.356L661.623 369.504L745.846 356.715L757.75 382.881C757.839 383.085 757.97 383.268 758.134 383.419L791.029 412.015L833.448 460.434L841.845 470H845.966L836.674 459.411L855.694 437.414L873.87 465.319C874.005 465.537 874.193 465.718 874.417 465.843C874.641 465.968 874.893 466.035 875.15 466.035C875.45 466.029 875.742 465.941 875.995 465.78C876.34 465.555 876.582 465.203 876.668 464.8C876.754 464.398 876.678 463.978 876.456 463.631L857.179 434.037L842.229 409.559L872.948 380.989L888.692 398.893L888.308 430.84C888.305 431.044 888.342 431.246 888.418 431.435C888.493 431.624 888.606 431.797 888.749 431.942C888.892 432.087 889.062 432.202 889.25 432.281C889.438 432.36 889.64 432.4 889.844 432.4C890.045 432.404 890.244 432.367 890.43 432.293C890.616 432.219 890.786 432.108 890.929 431.968C891.072 431.827 891.185 431.66 891.263 431.475C891.34 431.29 891.38 431.092 891.38 430.891L891.79 398.279C891.794 397.902 891.657 397.537 891.406 397.256L875.227 378.891L890.587 364.747L930.599 386.437C930.827 386.559 931.082 386.621 931.341 386.616C931.567 386.618 931.791 386.568 931.995 386.471C932.199 386.373 932.378 386.23 932.519 386.053L941.735 375.003L946.419 386.59C946.507 386.813 946.644 387.012 946.822 387.172C947 387.332 947.213 387.448 947.443 387.511L969.28 393.573L976.55 415.698C976.623 415.919 976.745 416.12 976.909 416.286L1028.88 470H1037.02L1103.35 406.848L1140.39 371.576L1211.22 410.403L1223.46 440.304L1200.91 470H1204.77L1243.35 419.151C1243.63 419.372 1243.97 419.498 1244.32 419.509C1244.55 419.508 1244.78 419.455 1244.99 419.353C1245.2 419.251 1245.38 419.103 1245.53 418.921C1245.66 418.764 1245.75 418.582 1245.81 418.387C1245.87 418.192 1245.89 417.988 1245.87 417.786C1245.84 417.583 1245.78 417.387 1245.69 417.209C1245.59 417.031 1245.45 416.873 1245.3 416.747L1265.78 389.609L1290.4 408.92C1283.58 417.446 1276.83 425.972 1270.15 434.498C1265.98 439.613 1261.83 444.959 1257.71 450.203L1241.89 470H1269.74C1274.48 457.211 1278.73 448.412 1282.26 443.936L1283.82 441.967L1310.37 460.664C1310.62 460.856 1310.93 460.955 1311.24 460.945C1311.48 460.949 1311.72 460.896 1311.94 460.789C1312.16 460.682 1312.35 460.526 1312.49 460.332L1322.38 447.236C1322.62 446.896 1322.73 446.473 1322.66 446.058C1322.6 445.643 1322.37 445.271 1322.03 445.023C1321.69 444.776 1321.27 444.673 1320.85 444.738C1320.44 444.802 1320.06 445.029 1319.82 445.368L1310.91 457.211L1285.74 439.485C1301.69 419.356 1321.92 393.906 1344.01 366.281L1400.69 394.698L1359.19 470H1362.7L1371.37 454.295L1400.15 470H1406.57L1372.86 451.584L1407.34 389.123L1429.02 350.551C1429.1 350.397 1429.15 350.233 1429.18 350.065L1435.78 311.417L1569.57 321.648L1549.09 340.627C1548.83 340.877 1548.66 341.208 1548.61 341.566C1548.57 341.925 1548.64 342.288 1548.83 342.596L1567.42 371.985L1507.31 470H1510.92L1569.52 374.441L1672.99 469.284L1672.55 470H1681.49L1677.65 468.44L1726.52 415.826L1795.43 447.517C1792.74 454.832 1789.95 462.378 1787.16 470H1803.68C1806.77 461.508 1809.84 453.17 1812.81 445.113C1818.11 453.86 1823.28 462.301 1828.17 470H1846.35C1841.97 463.017 1837.08 455.114 1831.86 446.596L1874.2 463.299L1890.05 470H1897.96L1876.76 461.048L1907.2 386.872L1920 391.987V388.662L1908.3 383.93L1919.97 355.488V347.226L1917.59 353.006L1890.3 340.218L1898.29 323.413L1919.97 331.572V328.273L1899.49 320.599L1906.18 306.531C1906.3 306.267 1906.35 305.973 1906.31 305.683C1906.28 305.393 1906.16 305.119 1905.97 304.894L1919.87 310.624V307.273L1877.22 289.727L1883.75 275.249L1919.97 290.519V287.169L1885.11 272.589C1889.74 262.358 1894.43 251.692 1898.93 241.512L1919.97 250.03V233.378L1905.18 227.393C1910.76 214.604 1915.8 203.196 1919.72 194.142L1919.97 194.27V150.787C1904.44 179.639 1882.93 207.519 1832.65 222.405C1830.09 222.789 1827.53 223.224 1824.97 223.735C1802.42 228.237 1744.44 227.521 1695.54 225.245L1711.77 171.531L1752.73 115.822L1804.52 152.936C1804.78 153.135 1805.09 153.243 1805.42 153.243C1805.66 153.243 1805.91 153.183 1806.13 153.067C1806.34 152.951 1806.53 152.783 1806.67 152.578C1806.9 152.243 1807 151.832 1806.93 151.43C1806.86 151.029 1806.64 150.67 1806.31 150.429L1754.6 113.443L1782.38 75.6647L1919.97 132.55V129.225L1782.68 72.4674L1744.28 36.1467L1809.38 -43.7332L1919.97 11.2594V-5.95453L1817.73 -56.9058L1919.97 -258.256V-286.084L1890.97 -279.767L1899.75 -310.972C1906.33 -307.688 1913.08 -304.751 1919.97 -302.173V-318.747C1913.13 -321.538 1906.45 -324.723 1899.98 -328.288C1889.05 -341.665 1795.02 -456.434 1778.43 -471.985C1761.85 -487.536 1702.38 -514.086 1687.89 -520.404C1647.49 -594.58 1587.59 -705.716 1584.13 -715.794C1582.93 -721.702 1578.09 -766.259 1573.61 -808.898H1558.1C1558.99 -800.227 1559.99 -790.788 1561.02 -781.273L1551.34 -808.898H1534.98L1540.1 -794.242L1468.19 -799.715L1469.55 -808.898H1466.43L1465.09 -799.971L1401.61 -804.805L1401.15 -808.898H1394.95L1395.41 -804.524L1363.41 -799.408L1360.85 -809H1357.65L1360.21 -798.769L1311.32 -790.788L1309.4 -808.898H1306.27L1308.27 -790.277L1244.68 -779.892L1239.92 -808.898H1236.77L1241.58 -779.381L1179.25 -769.15C1178.97 -782.91 1178.74 -795.904 1178.56 -807.21L1188.28 -808.898H1143.97L1099.48 -807.133V-808.898H1096.38L1094.26 -768.485H1074.03C1073.7 -768.485 1073.38 -768.377 1073.11 -768.178C1072.88 -767.999 1054.78 -754.724 1040.68 -744.595L1037.38 -766.003L1060.77 -776.235C1061.02 -776.348 1061.23 -776.52 1061.39 -776.734C1061.55 -776.948 1061.65 -777.198 1061.69 -777.462L1065.41 -806.161C1065.45 -806.552 1065.35 -806.946 1065.12 -807.264C1064.88 -807.582 1064.54 -807.8 1064.15 -807.875L1058.55 -808.898H1041.7L1062.18 -805.061L1058.75 -778.665L1035.07 -768.433C1034.76 -768.293 1034.5 -768.055 1034.33 -767.755C1034.17 -767.456 1034.1 -767.11 1034.15 -766.771L1037.91 -742.651C1034.38 -740.093 1031.26 -737.893 1028.88 -736.256C1017.41 -728.327 971.584 -713.236 967.59 -712.06L935.54 -713.876L878.068 -778L870.388 -802.094L880.628 -808.898H875.073L869.416 -805.163L868.264 -808.898H865.038L875.278 -776.772C875.333 -776.562 875.438 -776.369 875.585 -776.209L932.212 -712.98L811.893 -668.705C809.077 -669.319 791.413 -673.667 788.009 -684.307C786.729 -688.349 777.462 -709.067 765.379 -736.026L824.258 -764.827L839.797 -728.276C839.881 -728.078 840.007 -727.9 840.166 -727.754C840.325 -727.609 840.513 -727.499 840.718 -727.432C840.887 -727.394 841.062 -727.394 841.23 -727.432C841.491 -727.436 841.747 -727.506 841.973 -727.637L877.582 -747.434C877.764 -747.534 877.923 -747.671 878.051 -747.835C878.178 -747.999 878.271 -748.187 878.324 -748.388C878.376 -748.589 878.388 -748.798 878.357 -749.003C878.326 -749.209 878.254 -749.406 878.145 -749.582L848.757 -796.953C848.577 -797.236 848.31 -797.453 847.997 -797.573C847.683 -797.693 847.339 -797.709 847.016 -797.618L817.346 -789.254L808.949 -808.898H805.596L823.106 -767.692L764.227 -738.814L762.691 -742.242C753.603 -762.371 742.928 -786.159 732.918 -808.898H729.59C739.549 -786.236 750.326 -762.218 759.875 -740.988C773.263 -711.139 783.836 -687.556 785.167 -683.387C788.725 -672.311 804.213 -667.452 809.794 -666.045C806.031 -659.036 791.874 -633.049 785.551 -626.732C780.431 -621.616 759.951 -609.287 747.868 -602.151L699.818 -650.11L626.936 -808.898H609.963L640.939 -741.423L527.455 -751.654C538.54 -768.408 551.929 -788.614 565.394 -808.898H546.86C535.289 -791.454 523.283 -773.319 513.068 -757.742L522.591 -808.898H519.468L512.71 -772.705L451.936 -788.435L456.135 -808.898H453.114L441.645 -752.805L373.755 -770.531L376.571 -808.898H373.473L370.581 -769.559L366.126 -667.247C366.109 -666.894 366.215 -666.546 366.424 -666.262C366.634 -665.978 366.936 -665.775 367.278 -665.687L395.848 -658.397L335.356 -618.137L288.713 -755.184C300.698 -771.422 309.815 -789.588 315.669 -808.898H299.516C294.111 -792.87 286.262 -777.771 276.246 -764.136L266.006 -782.041C265.9 -782.244 265.747 -782.42 265.56 -782.553C265.374 -782.686 265.158 -782.774 264.931 -782.808C264.708 -782.844 264.481 -782.831 264.264 -782.769C264.047 -782.707 263.846 -782.598 263.676 -782.45L242.557 -764.546L185.854 -808.898H180.734L240.048 -762.499L182.09 -713.313L179.863 -756.795C179.846 -757.122 179.725 -757.434 179.518 -757.688C179.311 -757.941 179.028 -758.121 178.711 -758.202L161.073 -762.857C160.772 -762.947 160.452 -762.947 160.151 -762.857L124.696 -749.506L68.5559 -754.621L80.2037 -798.308H102.015C102.359 -798.303 102.695 -798.414 102.969 -798.623C103.243 -798.831 103.439 -799.126 103.525 -799.459L105.983 -808.898H102.783L100.837 -801.378H79.1797L61.6952 -805.035L62.4376 -808.898H59.2888L58.6744 -805.675L43.289 -808.898H28.1596L58.0856 -802.657L49.0489 -755.67L18.6878 -741.014L0 -744.671V-741.525L17.1774 -738.175L13.9518 -712.162L0 -715.794V-712.622L3.91675 -711.599L0 -670.035V-637.116L2.55997 -665.252L56.5752 -654.739L51.8649 -601.946L0 -603.686V-600.591L53.2217 -598.8L109.541 -599.67L118.859 -539.766C76.799 -543.373 31.1804 -556.111 0 -566.368V-550.074C7.2959 -547.721 15.3598 -545.291 23.7309 -542.861C69.1191 -529.868 108.21 -523.32 140.491 -523.32C145.329 -523.32 150.014 -523.473 154.52 -523.755C166.613 -524.653 178.605 -526.605 190.359 -529.586L239.946 -517.642L234.518 -484.544C214.039 -488.892 189.591 -495.389 189.207 -495.491H188.925L145.022 -498.56C144.805 -498.624 144.574 -498.624 144.356 -498.56L32.6652 -455.078L0 -490.503V-485.95L30.7196 -452.699L29.3628 -420.113C29.3097 -419.903 29.3097 -419.683 29.3628 -419.473L48.6906 -371.771L46.1306 -359.647L0 -459.477V-422.671L47.769 -319.336L32.5628 -310.128L0 -332.739V-313.964L22.6557 -298.234L11.0591 -271.479C8.07266 -278.437 4.36615 -285.064 0 -291.251L0 -256.695C0.852019 -253.937 1.56122 -251.137 2.12477 -248.306C2.1641 -247.836 2.25861 -247.372 2.40637 -246.924C4.90883 -233.228 4.08358 -219.132 0 -205.821L0 -180.243L11.3918 -193.441C11.8968 -194.024 12.3111 -194.679 12.6206 -195.385C19.1395 -212.241 20.9706 -230.545 17.9198 -248.357L38.3995 -295.625L54.3225 -305.242L100.914 -204.414L64.8695 -190.96C64.6134 -190.863 64.3869 -190.701 64.2119 -190.49C64.037 -190.28 63.9196 -190.027 63.8712 -189.758L60.1336 -164.794L41.5994 -122.82L10.8799 -107.064C10.537 -106.883 10.2737 -106.582 10.1413 -106.218C10.0088 -105.854 10.0165 -105.453 10.1631 -105.095L86.962 77.4551L99.8387 108.507L80.1525 117.485L0 -69.439V-61.6122L77.2854 118.789L65.9447 123.905L0 -31.4814V-23.6545L63.1544 125.184C54.6809 129.046 46.6682 132.857 39.0907 136.233L16.051 76.2786C15.9787 76.0888 15.8697 75.915 15.7303 75.7674C15.5908 75.6197 15.4236 75.5009 15.2382 75.4177C15.0527 75.3346 14.8528 75.2888 14.6496 75.2828C14.4465 75.277 14.2442 75.3111 14.0542 75.3833C13.8643 75.4556 13.6904 75.5644 13.5426 75.7037C13.3948 75.8431 13.2759 76.0102 13.1927 76.1954C13.1095 76.3807 13.0636 76.5806 13.0577 76.7835C13.0518 76.9865 13.0859 77.1886 13.1582 77.3784L36.3003 137.487L0 154.342V171.326L41.8554 152.015L61.8232 203.631L2.30397 229.567L0 222.738V233.916L0.435194 233.736L43.801 362.905L0 381.091V384.416L44.7738 365.821L78.591 466.573ZM379.054 470L377.262 436.979L393.774 434.421L396.488 469.079L379.054 470ZM818.549 -786.389L846.709 -794.344L874.74 -749.224L842.05 -731.064L818.549 -786.389ZM244.195 407.794L81.5093 465.524L47.641 364.644L97.0739 344.182C97.4486 344.034 97.7499 343.744 97.9127 343.375C98.0756 343.007 98.0869 342.589 97.9443 342.213L87.5508 315.458C87.5176 315.384 87.4745 315.315 87.4228 315.253L219.619 267.934L225.072 265.965C223.024 297.068 230.013 341.394 244.195 407.794ZM1208.61 -651.926C1208.64 -652.199 1208.59 -652.474 1208.47 -652.721C1208.36 -652.969 1208.17 -653.181 1207.95 -653.333C1207.71 -653.47 1207.44 -653.542 1207.16 -653.542C1206.89 -653.542 1206.62 -653.47 1206.38 -653.333L1183.22 -641.874C1182.22 -659.957 1181.35 -685.356 1180.66 -712.187L1252.98 -710.397L1253.62 -706.484C1253.46 -704.821 1252.41 -693.541 1252.26 -677.401V-677.12C1252.26 -668.833 1252.26 -659.215 1252.95 -648.984C1252.95 -648.984 1252.95 -648.856 1252.95 -648.805C1253.8 -633.252 1255.92 -617.794 1259.3 -602.586C1263.11 -586.011 1272.97 -550.714 1284.31 -511.375L1195.71 -495.747L1195.17 -503.42L1208.61 -651.926ZM1193.81 -522.425C1190.74 -564.347 1187.39 -605.681 1185.24 -618.035C1184.57 -621.769 1183.96 -628.957 1183.4 -638.497L1205.28 -649.317L1193.81 -522.425ZM1409.85 -672.363L1414.56 -629.213L1381.13 -639.444V-675.739L1409.85 -672.363ZM1381.13 -678.731V-722.674L1404.88 -717.891L1409.52 -675.637L1381.13 -678.731ZM1343.09 -543.654L1335.02 -567.186L1420.81 -572.302L1422.16 -559.845L1343.09 -543.654ZM1422.45 -556.776L1423.93 -543.271L1353.12 -514.291L1344.06 -540.713L1422.45 -556.776ZM1333.92 -570.204L1330.08 -581.407C1329.95 -581.794 1329.66 -582.111 1329.29 -582.288C1328.92 -582.466 1328.5 -582.489 1328.11 -582.354C1327.72 -582.218 1327.41 -581.934 1327.23 -581.565C1327.05 -581.196 1327.03 -580.771 1327.16 -580.384L1350.74 -511.759C1350.81 -511.557 1350.91 -511.371 1351.05 -511.212C1351.19 -511.054 1351.37 -510.926 1351.56 -510.838C1351.77 -510.799 1351.99 -510.799 1352.2 -510.838C1352.39 -510.802 1352.59 -510.802 1352.79 -510.838L1424.26 -540.099V-539.741C1415.94 -509.405 1404.4 -476.64 1396.38 -463.237L1308.14 -440.575C1289.81 -502.806 1268.34 -577.059 1262.22 -603.481C1259.01 -618.022 1256.95 -632.792 1256.05 -647.654H1298.44C1298.85 -647.654 1299.24 -647.816 1299.53 -648.104C1299.81 -648.392 1299.98 -648.782 1299.98 -649.189V-661.518L1328.62 -652.719L1314.49 -610.106C1314.37 -609.719 1314.4 -609.3 1314.58 -608.937C1314.76 -608.574 1315.08 -608.296 1315.46 -608.162H1315.95C1316.28 -608.162 1316.6 -608.266 1316.87 -608.458C1317.13 -608.651 1317.33 -608.924 1317.44 -609.236L1331.57 -651.875L1346.93 -647.092V-606.167C1346.93 -605.753 1347.09 -605.356 1347.38 -605.064C1347.68 -604.771 1348.07 -604.607 1348.49 -604.607H1417.27L1420.47 -575.371L1333.92 -570.204ZM1488.36 -418.143L1480.25 -436.918C1480.09 -437.283 1479.8 -437.574 1479.43 -437.731C1479.06 -437.888 1478.65 -437.899 1478.28 -437.762L1463.43 -431.955C1463.16 -431.855 1462.92 -431.679 1462.74 -431.448C1462.56 -431.217 1462.46 -430.941 1462.43 -430.651L1460.31 -403.538L1417.56 -391.977C1417.18 -391.864 1416.86 -391.616 1416.66 -391.28C1416.45 -390.945 1416.38 -390.546 1416.45 -390.161L1422.21 -362.025C1422.28 -361.675 1422.47 -361.36 1422.75 -361.132C1423.02 -360.904 1423.37 -360.777 1423.73 -360.772H1424.03L1495.71 -375.377C1496.12 -363.406 1496.45 -353.61 1496.63 -348.264C1461.61 -348.904 1420.37 -350.234 1413.59 -353.943C1404.4 -359.058 1353.51 -400.98 1321.43 -427.94L1492.26 -471.985C1492.66 -460.884 1493.41 -440.396 1494.2 -418.962L1488.36 -418.143ZM1494.18 -415.867C1494.64 -402.95 1495.12 -389.905 1495.53 -378.497L1424.88 -364.123L1419.76 -389.368L1462.2 -400.853C1462.51 -400.936 1462.79 -401.113 1463 -401.361C1463.2 -401.608 1463.33 -401.913 1463.35 -402.234L1465.5 -429.449L1478.05 -434.334L1486.03 -415.816C1486.17 -415.507 1486.41 -415.253 1486.7 -415.091C1487 -414.929 1487.34 -414.869 1487.67 -414.921L1494.18 -415.867ZM1616.08 151.478C1616.05 151.578 1616.05 151.684 1616.08 151.785C1616.37 164.417 1615.94 177.056 1614.8 189.64C1611.45 188.668 1603.31 186.289 1592.4 182.939C1592.42 182.82 1592.42 182.699 1592.4 182.581L1587.28 139.584C1587.23 139.177 1587.02 138.807 1586.7 138.555C1586.37 138.303 1585.96 138.19 1585.55 138.241C1585.15 138.292 1584.78 138.503 1584.52 138.826C1584.27 139.15 1584.16 139.561 1584.21 139.968L1589.33 181.967C1569.34 175.751 1541.56 166.62 1517.14 157.028C1528.63 144.393 1537.08 136.003 1541.13 133.573C1552.93 126.488 1580.5 116.231 1610.06 106.256C1614.21 119.07 1615.77 136.054 1616.13 151.478H1616.08ZM1612.91 105.258C1642.19 95.4364 1672.99 85.9982 1692.14 80.2431L1619.05 148.229C1618.56 133.369 1616.9 117.485 1612.96 105.258H1612.91ZM1187.16 178.948C1187.05 178.577 1186.79 178.264 1186.45 178.073C1186.12 177.882 1185.72 177.83 1185.34 177.925L1160.84 183.732C1160.46 183.818 1160.13 184.045 1159.91 184.368C1159.69 184.692 1159.6 185.086 1159.66 185.471L1162.97 205.677L1142.08 212.276L1129.41 172.375L1205.21 153.55L1210.71 188.643L1192.61 196.316L1187.16 178.948ZM1189.72 197.237L1165.96 204.757L1162.97 186.392L1184.68 181.276L1189.72 197.237ZM1159.46 266.962L1151.78 243.021L1218.62 225.117L1225.3 249.978L1159.46 266.962ZM1226.17 252.894L1235 285.839L1166.14 301.006L1160.2 270.083L1226.17 252.894ZM1156.93 269.111L1163.17 301.748L1107.65 323.336L1068.96 278.575L1133.35 194.909L1139.62 214.655L1148.38 242.356L1156.93 269.111ZM1105.01 324.999L1062.77 360.808L1031.67 327.096L1067.07 281.056L1105.01 324.999ZM1132.2 191.328L1029.49 324.794L968.563 258.982L1099.94 132.652L1119.99 154.291L1077.75 203.222C1077.61 203.376 1077.52 203.555 1077.45 203.748C1077.39 203.941 1077.37 204.144 1077.38 204.346C1077.4 204.548 1077.46 204.745 1077.55 204.925C1077.64 205.105 1077.77 205.265 1077.92 205.396C1078.08 205.527 1078.26 205.626 1078.45 205.688C1078.64 205.75 1078.85 205.773 1079.05 205.757C1079.25 205.74 1079.45 205.684 1079.63 205.591C1079.81 205.499 1079.97 205.372 1080.1 205.217L1121.47 157.361L1132.2 191.328ZM964.339 258.803L952.307 270.492L919.796 232.662L967.846 185.113L1001.46 223.198L966.413 256.91C966.131 256.783 965.818 256.744 965.514 256.797C965.21 256.85 964.929 256.994 964.708 257.21C964.486 257.425 964.336 257.702 964.274 258.005C964.213 258.307 964.245 258.621 964.365 258.905L964.339 258.803ZM721.27 242.356C721.091 242.265 720.895 242.21 720.694 242.195C720.493 242.181 720.292 242.206 720.101 242.271C719.91 242.335 719.734 242.437 719.583 242.57C719.432 242.703 719.31 242.865 719.222 243.047L705.424 271.182L689.322 273.178L676.292 252.715L694.928 229.925H723.421C723.641 229.954 723.864 229.935 724.077 229.87C724.289 229.805 724.485 229.696 724.651 229.55C724.818 229.403 724.952 229.223 725.043 229.021C725.135 228.819 725.182 228.6 725.182 228.378C725.182 228.156 725.135 227.937 725.043 227.735C724.952 227.533 724.818 227.353 724.651 227.206C724.485 227.06 724.289 226.951 724.077 226.886C723.864 226.821 723.641 226.802 723.421 226.83H695.747V204.757L720.374 208.286H720.605C720.804 208.288 721.001 208.251 721.186 208.176C721.37 208.102 721.538 207.991 721.68 207.852C721.854 207.687 721.985 207.481 722.061 207.254C722.137 207.026 722.156 206.784 722.115 206.547L717.405 171.991C717.37 171.721 717.264 171.465 717.098 171.249C716.931 171.033 716.71 170.866 716.458 170.764L695.978 162.758L710.263 102.521L723.062 105.872C723.435 105.965 723.83 105.918 724.17 105.738C724.51 105.559 724.772 105.261 724.906 104.9L742.825 56.6347L745.82 60.1644H745.948L878.504 172.068L843.995 204.731L762.076 134.11C761.924 133.977 761.746 133.875 761.554 133.81C761.362 133.746 761.159 133.72 760.956 133.734C760.754 133.748 760.557 133.802 760.375 133.893C760.194 133.984 760.033 134.11 759.9 134.264L745.769 150.276C745.635 150.427 745.531 150.603 745.465 150.794C745.399 150.985 745.371 151.187 745.383 151.389C745.394 151.591 745.446 151.789 745.534 151.971C745.623 152.152 745.746 152.315 745.897 152.45C746.049 152.584 746.225 152.687 746.416 152.754C746.607 152.82 746.81 152.848 747.012 152.836C747.214 152.824 747.412 152.773 747.594 152.684C747.776 152.596 747.939 152.473 748.073 152.322L761.206 137.435L796.713 168.129L779.791 184.345C779.648 184.488 779.534 184.657 779.457 184.844C779.379 185.031 779.339 185.23 779.339 185.432C779.339 185.634 779.379 185.834 779.457 186.021C779.534 186.208 779.648 186.377 779.791 186.52L819.343 228.161L800.169 246.321L762.204 282.283L745.232 262.512C745.099 262.358 744.938 262.232 744.757 262.141C744.575 262.05 744.378 261.996 744.176 261.982C743.973 261.968 743.77 261.994 743.578 262.058C743.386 262.123 743.208 262.225 743.056 262.358C742.747 262.625 742.556 263.002 742.523 263.409C742.489 263.815 742.616 264.218 742.877 264.532L759.951 284.406L739.472 303.769L708.291 272.231L721.962 244.351C722.13 243.995 722.152 243.586 722.023 243.213C721.894 242.84 721.624 242.532 721.27 242.356ZM410.9 173.296L420.372 215.474L408.238 220.078L393.492 178.283L410.9 173.296ZM391.06 175.854L333.794 191.737L320.457 145.697C320.382 145.418 320.23 145.166 320.016 144.971C319.803 144.776 319.538 144.646 319.253 144.597L300.566 141.298C300.284 138.484 299.874 135.773 299.362 133.215C299.192 132.328 298.91 131.203 298.518 129.839L394.235 99.1197L410.235 170.15L391.06 175.854ZM399.508 94.7203C399.415 94.302 399.235 93.9081 398.979 93.5644C398.723 93.2206 398.398 92.9346 398.023 92.7252C397.774 92.5939 397.507 92.4991 397.23 92.4438L391.163 72.1349L469.779 45.4059L494.611 120.273L476.691 127.409C476.342 127.547 476.055 127.808 475.886 128.142C475.716 128.477 475.675 128.862 475.77 129.225L496.019 205.396L426.183 213.376L399.508 94.7203ZM509.433 44.3572L531.731 35.6096L560.479 94.0041L532.473 105.105L509.433 44.3572ZM529.58 106.256L497.453 119.045L476.973 57.0184L506.668 45.3804L529.58 106.256ZM475.821 54.1792L472.109 42.976L466.579 26.3248L518.342 8.59924L530.297 32.8216L475.821 54.1792ZM479.2 129.813L561.861 96.5619L595.602 165.008L598.162 184.217L552.415 192.249H552.082L530.707 201.431L499.219 205.012L479.2 129.813ZM564.728 95.5388L637.841 66.2264L637.969 68.2471L614.648 181.455L601.31 183.808L598.75 164.471C598.722 164.314 598.679 164.16 598.622 164.011L564.728 95.5388ZM615.928 184.371L631.953 186.929L638.353 197.16L616.645 208.644L577.81 230.207L555.333 194.781L615.928 184.371ZM578.219 233.762L616.952 212.225L637.432 243.175L584.543 269.06L567.058 244.914L578.219 233.762ZM619.589 210.742L640.068 199.922L666.82 243.124L640.375 242.356L619.589 210.742ZM642.628 198.49L654.25 192.326C654.476 192.203 654.669 192.027 654.812 191.813C654.954 191.599 655.043 191.354 655.07 191.098L657.911 159.432L679.671 150.071C680.051 149.908 680.35 149.601 680.504 149.217C680.658 148.833 680.653 148.405 680.49 148.025C680.322 147.656 680.017 147.367 679.64 147.219C679.262 147.071 678.842 147.076 678.468 147.232L655.838 156.977C655.576 157.081 655.349 157.256 655.182 157.482C655.014 157.708 654.914 157.976 654.891 158.256L652.151 190.024L641.067 195.881L634.18 184.755C634.067 184.567 633.914 184.406 633.733 184.283C633.552 184.159 633.347 184.076 633.131 184.039L617.771 181.481L641.015 68.6307C641.028 68.4946 641.028 68.3577 641.015 68.2216L640.785 64.5894C640.887 64.3824 640.94 64.1549 640.94 63.9244C640.94 63.6938 640.887 63.4664 640.785 63.2594C640.785 63.2594 640.631 63.0547 640.58 62.9524L638.993 36.4281C638.985 36.2037 638.924 35.9844 638.814 35.7886L619.64 1.0282L703.274 -9.81683L712.336 20.8767C712.413 21.0771 712.516 21.2664 712.643 21.4395L740.342 53.8467L722.422 102.445L709.546 99.1197C709.145 99.0244 708.723 99.0886 708.368 99.2987C708.189 99.4039 708.033 99.5443 707.91 99.7114C707.787 99.8784 707.699 100.069 707.651 100.271L692.701 163.371C692.689 163.482 692.689 163.594 692.701 163.704V227.649L674.577 250.03L642.628 198.49ZM921.127 -171.802C921.259 -171.564 921.451 -171.365 921.685 -171.226C921.919 -171.086 922.186 -171.012 922.458 -171.009C922.727 -171.01 922.992 -171.081 923.226 -171.214L923.892 -171.597C926.247 -168.426 928.602 -165.254 930.829 -162.21C930.487 -162.222 930.152 -162.114 929.882 -161.903L893.147 -133.486L874.331 -160.599C888.462 -177.685 900.519 -192.571 904.41 -197.38C909.761 -190.397 915.956 -182.238 922.023 -174.104L921.69 -173.899C921.342 -173.691 921.089 -173.356 920.983 -172.965C920.878 -172.573 920.93 -172.156 921.127 -171.802ZM931.828 -159.474C932.072 -159.672 932.25 -159.939 932.34 -160.241C941.863 -147.196 949.491 -136.3 950.567 -133.461C948.007 -130.647 931.597 -117.27 914.215 -103.253L894.964 -130.954L931.828 -159.474ZM911.809 -101.309C904.129 -95.0681 896.219 -88.7759 889.383 -83.4046C889.137 -83.2011 888.959 -82.9271 888.874 -82.6196C888.788 -82.312 888.799 -81.9855 888.905 -81.6844C889.012 -81.3833 889.207 -81.1219 889.467 -80.9355C889.726 -80.7491 890.037 -80.6468 890.356 -80.6422C890.701 -80.6398 891.036 -80.7573 891.303 -80.9747C905.511 -92.3057 952.026 -129.445 953.562 -132.335C953.997 -133.179 955.046 -135.2 926.682 -173.26L962.778 -193.953L966.49 -183.875C966.558 -183.685 966.664 -183.51 966.8 -183.361C966.936 -183.212 967.101 -183.091 967.284 -183.006C967.467 -182.92 967.665 -182.871 967.867 -182.863C968.069 -182.854 968.271 -182.885 968.461 -182.954C968.842 -183.103 969.152 -183.394 969.323 -183.766C969.495 -184.138 969.516 -184.562 969.382 -184.949L965.056 -196.715C964.98 -196.925 964.86 -197.117 964.703 -197.276C964.545 -197.435 964.355 -197.558 964.146 -197.636C963.936 -197.714 963.712 -197.745 963.489 -197.727C963.266 -197.71 963.049 -197.643 962.854 -197.533L942.375 -185.742L936.948 -195.59L964.442 -213.673C964.61 -213.786 964.754 -213.93 964.866 -214.098C964.978 -214.267 965.056 -214.455 965.095 -214.654C965.135 -214.852 965.134 -215.056 965.095 -215.254C965.055 -215.453 964.977 -215.641 964.864 -215.809C964.751 -215.977 964.607 -216.121 964.438 -216.233C964.27 -216.345 964.081 -216.423 963.883 -216.462C963.684 -216.501 963.48 -216.501 963.281 -216.462C963.083 -216.422 962.894 -216.343 962.726 -216.231L934.055 -197.406C933.735 -197.191 933.506 -196.866 933.411 -196.493C933.317 -196.12 933.364 -195.726 933.543 -195.385L939.584 -184.131L924.788 -175.664C919.54 -182.673 913.345 -190.832 906.049 -200.347L910.452 -259.176L979.571 -311.56L1018.87 -233.266L1037.17 -152.312L1021.94 -149.6C1021.67 -149.55 1021.42 -149.426 1021.22 -149.242L889.076 -38.2595L778.716 4.6347L769.5 -32.5812C769.43 -32.8805 769.269 -33.1511 769.04 -33.3569C768.812 -33.5626 768.525 -33.6935 768.22 -33.7322L708.573 -42.1218L713.36 -101.846C736.809 -96.7308 770.345 -90.5665 793.41 -90.5665C804.239 -90.5665 812.738 -91.9221 816.834 -95.4263C826.562 -103.816 851.342 -132.898 872.283 -158.143L911.809 -101.309ZM879.323 -255.007L841.102 -285.496C863.067 -300.28 899.086 -324.579 928.576 -344.735L957.094 -314.041L879.323 -255.007ZM1385.86 64.2057L1386.4 103.059H1386.25C1309.45 37.6815 1263.37 -1.47839 1242.89 -18.7691L1269.15 -53.3761L1341.01 -16.109C1341.24 -15.9987 1341.48 -15.9377 1341.73 -15.93C1342.08 -15.925 1342.42 -16.0392 1342.7 -16.254C1342.97 -16.4686 1343.17 -16.7709 1343.25 -17.1108C1343.33 -17.4507 1343.29 -17.8079 1343.14 -18.1234C1342.99 -18.4388 1342.74 -18.6937 1342.42 -18.8458L1233.06 -75.5777L1217.7 -145.636L1246.19 -177.301L1355.86 -141.773L1341.47 -95.017C1341.41 -94.8239 1341.39 -94.621 1341.41 -94.4199C1341.43 -94.2189 1341.49 -94.0236 1341.59 -93.8454C1341.68 -93.6672 1341.81 -93.5095 1341.97 -93.3813C1342.12 -93.2532 1342.3 -93.1571 1342.5 -93.0986H1342.96C1343.29 -93.1056 1343.6 -93.2156 1343.87 -93.413C1344.13 -93.6104 1344.32 -93.8853 1344.42 -94.1985L1359.03 -141.313H1394.64L1383.82 -79.7982L1385.86 64.2057ZM881.857 171.019L861.966 154.215L953.178 71.6745C953.335 71.5316 953.462 71.3582 953.55 71.1646C953.638 70.9711 953.686 70.7616 953.69 70.5491V31.7729L1013.44 -4.52216C1013.62 -4.6236 1013.78 -4.76324 1013.9 -4.93146L1033.69 -32.7347L1062.08 -39.2059L1090.78 -30.9698L1093.77 -18.5133L1108.23 41.6716L991.475 157.258L916.647 231.307L880.91 261.54L870.388 227.854C870.3 227.586 870.141 227.347 869.928 227.163L846.478 206.931L881.934 173.296C882.243 172.982 882.418 172.56 882.42 172.119C882.403 171.908 882.345 171.702 882.248 171.513C882.152 171.324 882.019 171.157 881.857 171.019ZM1065.92 -220.784L1077.75 -188.53L1034.07 -180.857L1027.11 -211.729L1065.92 -220.784ZM1026.29 -214.722L1022.22 -232.626L1057.57 -243.625L1064.84 -223.623L1026.29 -214.722ZM1078.69 -185.589L1096.07 -137.732L1047.44 -127.91C1047.12 -127.85 1046.83 -127.688 1046.61 -127.447C1046.39 -127.207 1046.26 -126.903 1046.23 -126.58L1034.64 -177.736L1078.69 -185.589ZM1092.39 -60.3844L1055.19 -93.6357L1107.75 -105.504L1120.06 -71.5621L1092.39 -60.3844ZM1121.19 -68.8252L1136.29 -31.6348L1096.41 -20.7898L1093.62 -32.4022V-57.5453L1121.19 -68.8252ZM1053.09 -96.2448L1046.46 -125.557C1046.6 -125.342 1046.79 -125.165 1047.01 -125.044C1047.24 -124.924 1047.49 -124.862 1047.74 -124.867H1048.05L1097.15 -134.791L1106.67 -108.522L1053.09 -96.2448ZM1048.64 -101.846L1016.13 -85.9368L1010.26 -93.0219C1010.14 -93.1781 1009.98 -93.3073 1009.8 -93.4021C1009.62 -93.4969 1009.42 -93.5555 1009.22 -93.5745C1009.02 -93.5935 1008.81 -93.5726 1008.62 -93.5129C1008.43 -93.4532 1008.25 -93.3559 1008.09 -93.2266C1007.93 -93.0972 1007.8 -92.9384 1007.71 -92.7592C1007.61 -92.5799 1007.55 -92.3837 1007.54 -92.1818C1007.52 -91.98 1007.54 -91.7763 1007.6 -91.5825C1007.66 -91.3887 1007.75 -91.2086 1007.88 -91.0524L1014.51 -83.0465C1014.65 -82.8693 1014.83 -82.7264 1015.04 -82.6289C1015.24 -82.5314 1015.47 -82.4818 1015.69 -82.4838C1015.93 -82.4856 1016.17 -82.5379 1016.38 -82.6373L1049.36 -98.7513L1050.3 -94.5822L1037.94 -69.6948L966.771 -31.4814L951.411 -57.8778L961.805 -63.7096C961.99 -63.8109 962.151 -63.9496 962.279 -64.1171C962.407 -64.2844 962.498 -64.4768 962.547 -64.6816C962.602 -64.8793 962.614 -65.0862 962.583 -65.2889C962.552 -65.4917 962.479 -65.6857 962.368 -65.8582L950.592 -84.709C950.444 -84.9185 950.252 -85.0931 950.029 -85.2206L1023.01 -146.608L1037.96 -149.166L1048.64 -101.846ZM958.835 -65.7303L948.467 -59.924C948.115 -59.7184 947.851 -59.3907 947.725 -59.0032C947.62 -58.5977 947.675 -58.1674 947.879 -57.8011L964.032 -30.1257L932.186 -13.0141C932.312 -13.2412 932.377 -13.4964 932.377 -13.7559C932.377 -14.0153 932.312 -14.2705 932.186 -14.4976L910.503 -50.895C910.315 -51.1883 910.036 -51.4127 909.709 -51.5345L947.827 -83.5325C947.813 -83.4221 947.813 -83.3104 947.827 -83.2L958.835 -65.7303ZM929.498 -12.9373C929.625 -12.7346 929.797 -12.5642 930.002 -12.4399C930.206 -12.3156 930.437 -12.2406 930.676 -12.2212L768.195 75.0508L748.662 58.553L755.523 16.9377L890.433 -35.4971C890.598 -35.5414 890.749 -35.6299 890.868 -35.7529L907.636 -49.8208C907.684 -49.6465 907.744 -49.4755 907.815 -49.3092L929.498 -12.9373ZM1039.83 -67.3416C1040.11 -67.4882 1040.34 -67.7216 1040.47 -68.0067L1052.4 -91.8965L1090.55 -57.9034V-34.2693L1062.57 -42.2753C1062.31 -42.3391 1062.05 -42.3391 1061.8 -42.2753L1032.46 -35.5739C1032.09 -35.4908 1031.76 -35.272 1031.54 -34.96L1011.6 -6.97772L951.36 29.5988C951.133 29.7386 950.945 29.9343 950.815 30.1671C950.685 30.4 950.617 30.6622 950.618 30.9288V69.8841L859.611 152.245L770.754 77.2249L1039.83 -67.3416ZM1015.62 137.717L1030.98 155.749L1010.01 174.933L994.649 158.435L1015.62 137.717ZM992.576 160.737L1009.01 178.283C1009.15 178.443 1009.32 178.572 1009.52 178.66C1009.71 178.748 1009.92 178.794 1010.14 178.795C1010.52 178.788 1010.88 178.642 1011.16 178.386L1033.2 158.205L1049.43 177.132L1003.74 221.101L970.099 182.964L992.576 160.737ZM1017.92 135.671L1062.16 91.8811L1087.12 118.84L1097.92 130.504L1051.69 175.009L1017.92 135.671ZM1064.36 89.6302L1109.49 44.9967L1124.46 83.1846L1088.37 115.566L1064.36 89.6302ZM1097.23 -17.7971L1137.44 -28.7701L1157.1 19.828L1111.03 40.1369L1097.23 -17.7971ZM1124.16 -69.925L1152.55 -79.926L1185.26 7.34595L1159.97 18.4724L1124.16 -69.925ZM1155.54 -81.0258L1171.08 -86.5251L1204.36 -1.01801L1188.23 6.09265L1155.54 -81.0258ZM1174 -87.5738L1191.74 -93.8404L1218.11 -20.8922C1218.56 -19.61 1219.35 -18.4713 1220.39 -17.5925L1227.81 -11.3515L1207.13 -2.24579L1174 -87.5738ZM1230.32 -9.15179C1249.39 6.93677 1296.26 46.5825 1376.24 114.697C1379.59 117.561 1382.97 120.349 1386.32 123.086L1385.02 170.405L1217.78 18.6514L1208.3 0.56781L1230.32 -9.15179ZM1358.14 -144.331L1246.29 -180.55C1246.01 -180.634 1245.71 -180.636 1245.42 -180.554C1245.13 -180.473 1244.88 -180.311 1244.68 -180.089L1214.99 -147.119C1214.82 -146.942 1214.7 -146.724 1214.63 -146.487C1214.57 -146.25 1214.57 -146.001 1214.63 -145.764L1230.19 -74.1454C1230.25 -73.9236 1230.35 -73.7161 1230.49 -73.5356C1230.63 -73.3551 1230.81 -73.2057 1231.01 -73.0967L1266.21 -54.834L1240.35 -20.7898L1231.8 -28.0028L1176.97 -179.68C1176.86 -180.025 1176.71 -180.359 1176.53 -180.678L1160.13 -211.601L1223.66 -255.8H1277.88C1278.29 -255.8 1278.68 -255.962 1278.97 -256.25C1279.26 -256.537 1279.42 -256.928 1279.42 -257.335V-329.592L1334.38 -342.381L1355.07 -285.189C1355.13 -284.99 1355.23 -284.806 1355.37 -284.652L1386.09 -251.247L1390.06 -184.233C1390.08 -184.01 1390.15 -183.795 1390.26 -183.601C1390.37 -183.407 1390.52 -183.238 1390.7 -183.107L1403.14 -173.797L1407.73 -144.331H1358.14ZM1162.63 -174.053L1190.59 -96.7563L1172.67 -90.4385L1107.19 -259.125L1118.96 -262.783C1125.6 -245.852 1133.2 -229.319 1141.74 -213.264L1162.63 -174.053ZM1169.9 -89.4154L1154.39 -83.9161L1090.67 -253.856L1104.34 -258.076L1169.9 -89.4154ZM1151.5 -82.8931L1122.98 -72.6619L1060.57 -244.495L1087.76 -252.935L1151.5 -82.8931ZM1059.47 -247.513L1022.45 -343.379C1030.72 -348.778 1039.71 -352.989 1049.15 -355.887L1086.63 -255.826L1059.47 -247.513ZM1056.52 -246.592L1021.22 -235.645L982.08 -313.53L1016.31 -339.491L1019.81 -341.819L1056.52 -246.592ZM766.761 -30.8419L775.823 5.76013L753.577 14.3799C753.328 14.48 753.109 14.6437 752.943 14.8546C752.777 15.0656 752.669 15.3164 752.63 15.582L746 55.6371L715.28 19.828L706.039 -11.6073L708.24 -38.9757L766.761 -30.8419ZM695.747 165.98L714.487 173.296L718.787 204.936L695.747 201.636V165.98ZM841.794 207.059L821.749 226.14L783.35 185.624L799.349 170.278L841.794 207.059ZM761.974 286.836L776.463 303.718C776.736 304.019 777.109 304.21 777.513 304.255L789.212 305.201C789.592 305.171 789.948 305.002 790.212 304.728C790.477 304.453 790.632 304.091 790.647 303.71C790.663 303.33 790.539 302.956 790.298 302.661C790.057 302.365 789.716 302.168 789.34 302.106L778.281 301.211L764.099 284.713L801.269 249.723L820.52 269.878C820.661 270.03 820.831 270.152 821.02 270.235C821.21 270.319 821.414 270.363 821.621 270.364C822.021 270.357 822.404 270.202 822.696 269.929C822.839 269.787 822.953 269.617 823.031 269.431C823.108 269.244 823.148 269.044 823.148 268.842C823.148 268.64 823.108 268.44 823.031 268.254C822.953 268.067 822.839 267.898 822.696 267.755L803.471 247.6L844.149 209.105L867.496 229.235L878.375 263.714L779.202 347.686L741.622 306.122L761.974 286.836ZM834.549 304.741L864.782 337.429L849.064 349.042L841.512 339.987C841.372 339.81 841.193 339.667 840.988 339.57C840.784 339.472 840.561 339.422 840.334 339.425C840.111 339.426 839.891 339.475 839.688 339.568C839.485 339.66 839.304 339.795 839.157 339.962L815.938 367.049L795.253 337.992L834.549 304.741ZM836.904 302.746L879.374 266.783L894.734 315.381L867.342 335.639L836.904 302.746ZM881.934 264.635L917.466 234.683L950.029 272.589L941.223 281.056L897.294 313.54L881.934 264.635ZM1101.09 129.276L1090.34 117.664L1125.57 86.3307L1142.21 128.688L1121.98 152.066L1101.09 129.276ZM1127.66 83.0056L1111.95 43.0016L1158.23 22.5392L1188.95 114.978L1144.92 126.923L1127.66 83.0056ZM1160.94 21.2859L1186.39 10.0828L1232.11 103.263L1191.84 114.185L1160.94 21.2859ZM1189.1 8.82953L1205.28 1.71887L1214.93 20.2117C1215.03 20.3672 1215.14 20.5128 1215.27 20.6465L1346.82 140.044L1326.34 166.518L1269.56 121.654C1269.24 121.399 1268.84 121.282 1268.43 121.328C1268.03 121.373 1267.66 121.578 1267.4 121.897C1267.15 122.216 1267.03 122.622 1267.07 123.028C1267.12 123.433 1267.32 123.804 1267.64 124.058L1381.66 214.22L1343.27 221.485L1245.09 128.995L1235.8 103.903L1189.1 8.82953ZM1383.51 216.804L1381.36 294.893L1369.17 309.984L1350.71 295.635L1344.49 224.452L1383.51 216.804ZM1328.55 168.206L1349.03 141.886L1384.86 174.319L1383.84 211.765L1328.55 168.206ZM1387.68 177.056L1439.29 223.915C1422.39 244.377 1403.96 266.911 1384.56 290.903L1387.68 177.056ZM1387.68 172.989L1389.01 125.363C1415.56 146.891 1443.96 166.037 1473.87 182.581C1463.87 194.321 1452.88 207.391 1441.16 221.536L1387.68 172.989ZM1469.42 133.062C1450.6 118.636 1424.88 95.9992 1407.52 80.371C1407.66 80.3231 1407.79 80.2541 1407.9 80.1664L1418.4 71.7257L1454.91 80.3198L1476.46 117.74L1469.42 133.062ZM1479.1 119.403L1524.15 127.793C1518.47 133.164 1511.02 140.965 1502.11 150.813C1491.56 146.543 1481.46 141.221 1471.98 134.929L1479.1 119.403ZM1469.09 136.694C1478.71 143.295 1489.01 148.851 1499.81 153.268C1495.1 158.537 1489.98 164.343 1484.45 170.61C1450.62 152.252 1418.75 130.492 1389.34 105.668L1388.81 67.71C1399.84 77.7109 1442.18 116.359 1469.04 136.694H1469.09ZM1488.16 190.177C1524.52 209.196 1563.26 223.278 1603.36 232.048L1599.08 247.395L1470.27 211.074C1476.51 203.836 1482.45 196.802 1488.11 190.177H1488.16ZM1468.19 213.786L1505.26 224.247L1500.7 240.054L1456.85 227.265L1468.19 213.786ZM1508.26 225.091L1598.37 250.49C1596.86 256.015 1595.32 261.54 1593.83 266.911L1503.7 240.898L1508.26 225.091ZM1601.74 249.85C1603.33 244.019 1604.94 238.213 1606.48 232.637L1608.78 233.097C1631.13 238.34 1646.39 242.51 1656.89 246.628L1585.98 306.813L1601.74 249.85ZM1607.66 216.983C1602.97 215.875 1598 214.741 1592.76 213.581C1560.22 205.114 1528.69 193.168 1498.71 177.951C1504.59 171.173 1510.05 164.983 1514.96 159.509C1555.31 175.547 1605 190.024 1614.34 192.76C1613.32 196.086 1610.81 205.191 1607.66 216.983ZM1533.14 120.349C1530.93 121.772 1528.86 123.39 1526.94 125.184L1479.12 116.282L1457.21 78.1969C1457.11 78.0123 1456.97 77.851 1456.8 77.7232C1456.63 77.5955 1456.44 77.5041 1456.24 77.4551L1418.22 68.554C1417.99 68.501 1417.75 68.5011 1417.52 68.5543C1417.29 68.6075 1417.07 68.7123 1416.89 68.861L1405.81 77.762C1405.57 77.9669 1405.41 78.2329 1405.32 78.5294C1396.67 70.7281 1390.45 64.9987 1388.78 63.464L1386.78 -79.4656L1397.74 -141.313H1409.52L1542 -139.574C1549.68 -106.041 1558.23 -67.9556 1568.03 -24.8055C1574.02 1.61646 1577.99 19.0607 1578.47 21.3627C1580.42 30.2382 1595.91 74.7183 1602.15 92.5461C1572.82 102.624 1545.53 112.932 1533.14 120.349ZM1503.24 -341.998L1525.13 -341.691C1540.15 -341.512 1552 -341.358 1556.46 -341.051H1557.36C1575.1 -341.051 1677.03 -368.522 1706.14 -376.451L1737.86 -238.33L1738.01 -237.921C1738.01 -237.921 1738.01 -237.716 1738.01 -237.64L1784.45 -97.6004L1569.85 -44.475C1548.16 -140.392 1507.49 -319.745 1503.24 -341.998ZM1641.48 -365.632C1603.08 -355.784 1564.68 -346.627 1557 -347.19C1552.36 -347.523 1540.43 -347.676 1525.3 -347.855L1502.88 -348.162C1502.29 -367.652 1499.32 -448.555 1498.4 -473.494L1592.3 -497.793L1618.31 -488.329L1641.35 -417.632L1641.48 -365.632ZM1541.36 -142.592L1410.8 -144.306L1406.06 -174.999C1406 -175.4 1405.78 -175.759 1405.45 -175.997L1393.06 -185.256L1388.99 -251.989C1388.98 -252.341 1388.84 -252.678 1388.6 -252.935L1357.63 -286.519L1336.64 -344.658C1336.3 -345.732 1325.68 -381.055 1312.47 -425.766L1313.9 -426.149C1333.74 -409.421 1399.23 -354.736 1410.54 -348.495C1418.22 -344.274 1453.8 -342.842 1496.91 -342.074C1499.06 -330.59 1512.35 -270.738 1541.36 -142.592ZM1404.53 -465.309C1414.53 -484.288 1424.47 -517.232 1429.15 -533.935L1484.27 -485.874L1404.53 -465.309ZM1305.22 -439.731L1293.27 -436.636L1200.42 -425.97C1199.6 -438.478 1197.86 -464.081 1195.94 -492.78L1285.1 -508.485C1291.68 -485.848 1298.67 -462.01 1305.22 -439.706V-439.731ZM1256.58 -706.918L1256.02 -710.448L1317.82 -708.913L1365.54 -683.336L1347.21 -650.238L1332.41 -654.816L1336.66 -667.605C1336.79 -667.992 1336.76 -668.414 1336.58 -668.778C1336.39 -669.143 1336.07 -669.42 1335.69 -669.549C1335.3 -669.678 1334.88 -669.648 1334.51 -669.466C1334.15 -669.283 1333.87 -668.964 1333.74 -668.577L1329.47 -655.788L1255.23 -678.808C1255.43 -695.332 1256.56 -706.458 1256.58 -706.688C1256.61 -706.755 1256.64 -706.823 1256.66 -706.893L1256.58 -706.918ZM1350.23 -649.24L1368.15 -681.801L1377.85 -676.685V-640.62L1370.73 -642.82L1350.23 -649.24ZM1370.35 -607.727H1349.87V-646.094L1368.71 -640.262L1370.35 -607.727ZM1296.88 -662.515V-650.672H1255.92C1255.41 -659.574 1255.25 -667.963 1255.28 -675.406L1296.88 -662.515ZM1394.16 -607.727V-632.41L1414.77 -626.041L1416.76 -607.753L1394.16 -607.727ZM1391.14 -633.305C1391.12 -633.186 1391.12 -633.066 1391.14 -632.947V-607.701H1373.42L1372.14 -639.265L1391.14 -633.305ZM1377.88 -680.062L1319.76 -711.395L1317.59 -731.652L1375.16 -740.144L1378.06 -728.685L1377.88 -680.062ZM1317.28 -734.722L1315.05 -755.516L1368.15 -767.973L1374.39 -743.214L1317.28 -734.722ZM1316.59 -711.983L1255.59 -713.517L1251.13 -740.656L1312.03 -754.8L1316.59 -711.983ZM1252.44 -713.594L1180.53 -715.385C1180.37 -721.421 1180.22 -727.509 1180.07 -733.596L1248.11 -739.965L1252.44 -713.594ZM1295.57 -421.341C1295.92 -421.375 1296.26 -421.435 1296.6 -421.52L1309.6 -424.87C1321.38 -385.02 1331.11 -352.613 1333.33 -345.195L1277.42 -332.406C1277.08 -332.322 1276.78 -332.128 1276.57 -331.855C1276.35 -331.583 1276.23 -331.246 1276.22 -330.897V-258.972H1223.1C1222.78 -258.972 1222.47 -258.874 1222.2 -258.69L1158.67 -214.517L1155.44 -220.605C1138.68 -252.165 1125.66 -285.575 1116.66 -320.154C1107.8 -359.109 1107.24 -383.357 1114.94 -394.33C1118.32 -399.088 1123.75 -401.748 1131.97 -402.694L1295.57 -421.341ZM1117.96 -265.648L1089.6 -256.849L1052.15 -356.807C1059.38 -358.747 1067.02 -358.497 1074.11 -356.091C1089.85 -350.183 1097.79 -331.178 1101.66 -316.292C1106.13 -299.126 1111.58 -282.226 1117.96 -265.673V-265.648ZM1094.46 -361.284C1090.13 -365.279 1085.07 -368.412 1079.56 -370.517C1073.64 -372.676 1067.35 -373.649 1061.05 -373.382L1093.67 -398.09L1099.84 -398.806C1095.23 -389.905 1093.44 -377.705 1094.46 -361.284ZM959.526 -315.806L931.111 -346.499C956.48 -363.841 976.448 -377.73 977.19 -379.009C978.342 -381.03 982.31 -393.051 984.87 -401.134C1007.45 -399.881 1037.68 -399.574 1062.67 -399.574H1070.07L959.526 -315.806ZM974.63 -380.723C973.222 -379.188 954.151 -366.015 928.96 -348.776L879.476 -402.208L876.174 -420.701C907.15 -413.386 945.728 -404.92 967.001 -402.541C971.251 -402.08 976.217 -401.671 981.721 -401.339C978.726 -391.977 975.347 -382.13 974.63 -380.748V-380.723ZM876.532 -401.185C876.58 -400.897 876.714 -400.629 876.916 -400.418L887.617 -388.857L856.769 -376.63L834.882 -430.728C842.408 -428.835 856.411 -425.356 872.897 -421.443L876.532 -401.185ZM853.902 -375.607L791.26 -350.822L788.137 -355.784L802.6 -416.43L831.375 -431.316L853.902 -375.607ZM889.87 -386.529L926.4 -347.139C899.265 -328.62 865.55 -305.805 838.542 -287.619L816.322 -305.831V-308.158C816.4 -309.736 815.989 -311.299 815.144 -312.634L792.821 -348.162L889.87 -386.529ZM816.117 -301.892L837.467 -284.396L876.686 -253.089L811.253 -203.468L816.117 -301.892ZM907.149 -256.772L902.926 -200.5C897.806 -194.234 831.81 -112.436 814.812 -97.805C803.778 -88.3156 752.297 -96.475 712.72 -105.12C712.532 -105.23 712.322 -105.3 712.106 -105.325H711.901L703.683 -107.167L712.823 -110.134C713.65 -110.396 714.429 -110.793 715.126 -111.31L907.149 -256.772ZM710.314 -102.511L707.754 -70.0785L623.685 -60.2822L618.129 -78.8773C653.585 -90.7455 681.949 -100.056 698.103 -105.299C701.584 -104.481 705.706 -103.534 710.314 -102.511ZM621.073 -58.1336C621.171 -57.8163 621.368 -57.5385 621.635 -57.3406C621.902 -57.1428 622.226 -57.0353 622.558 -57.0337H622.737L707.472 -66.9324L703.12 -12.835L618.232 -1.83655L582.392 -66.8045L615.134 -77.8542L621.073 -58.1336ZM636.126 36.9908L637.662 62.9524L563.423 92.7252L498.963 -38.0037C527.123 -47.8768 554.361 -57.264 579.499 -65.807L636.126 36.9908ZM517.113 5.81128L465.76 23.4089L450.964 -21.0967C466.067 -26.5192 481.12 -31.8651 495.968 -37.0829L517.113 5.81128ZM463.354 25.8644L468.883 42.4901L390.267 68.9377L372.065 8.03662C396.795 -1.32495 422.394 -10.7376 447.994 -19.9457L463.354 25.8644ZM394.235 92.6741L296.777 123.623C292.066 109.248 281.929 82.6986 268.822 49.4473C298.313 36.6583 332.821 23.0508 369.275 9.23871L394.235 92.6741ZM181.271 154.547C201.188 145.748 217.111 138.612 229.911 132.831L244.17 176.57L196.759 198.541L181.271 154.547ZM203.671 227.393L186.878 233.353L177.61 210.972L194.941 202.761L203.671 227.393ZM193.969 199.846L175.025 208.798C174.667 208.97 174.388 209.273 174.245 209.643C174.103 210.014 174.107 210.425 174.257 210.793L184.625 235.885C184.744 236.168 184.943 236.411 185.197 236.584C185.452 236.756 185.751 236.851 186.058 236.857C186.228 236.881 186.4 236.881 186.57 236.857L204.797 230.309L217.239 265.607L167.55 283.281L142.257 214.476L128.741 177.644C147.505 169.408 163.991 162.144 178.455 155.749L193.969 199.846ZM197.809 201.457L245.142 179.537L254.281 207.545C253.078 208.568 251.901 209.565 250.646 210.563C235.645 222.584 227.607 238.417 225.328 262.691L220.055 264.558L197.809 201.457ZM247.984 178.232L284.156 161.479C280.905 177.03 271.689 191.84 256.765 205.319L247.984 178.232ZM247.011 175.265L232.778 131.552C257.661 120.324 269.923 114.492 275.99 111.32C279.136 119.384 281.862 127.606 284.156 135.952C285.594 143.139 285.784 150.519 284.719 157.77L247.011 175.265ZM274.966 108.558C267.875 112.164 252.438 119.301 231.805 128.611L213.885 73.7208L253.232 56.0975L254.512 55.5348C262.268 75.1531 269.539 94.0041 274.966 108.558ZM246.986 42.0552C224.637 52.0306 202.724 61.9037 181.553 71.4443L172.414 46.1989C172.285 45.835 172.024 45.5328 171.682 45.3527C171.341 45.1726 170.944 45.1277 170.571 45.2269L156.772 48.9102L98.4819 -88.0087L151.601 -114.993C156.824 -110.833 162.984 -105.981 170.084 -100.44C182.679 -90.592 199.626 -77.4194 203.62 -73.3781C205.181 -68.6205 210.122 -56.1641 225.738 -17.1066C232.522 -0.17395 240.765 20.4675 248.777 41.0833L246.986 42.0552ZM211.146 75.0508L229.066 129.941C214.807 136.336 198.346 143.728 180.426 151.657L161.278 97.5338C177.303 90.2186 193.994 82.6986 211.12 74.9997L211.146 75.0508ZM177.406 152.833C161.611 159.842 144.817 167.234 127.665 174.779L108.133 121.628L158.359 98.7871L177.406 152.833ZM138.827 214.22L113.406 223.122L100.427 190.254L117.374 182.811L125.899 179.076L138.827 214.22ZM111.077 225.628C111.19 225.916 111.388 226.162 111.643 226.335C111.899 226.509 112.201 226.601 112.51 226.6C112.68 226.627 112.853 226.627 113.022 226.6L139.877 217.213L148.478 240.387L123.416 251.129C123.078 251.259 122.796 251.504 122.621 251.821C122.446 252.137 122.389 252.506 122.459 252.861C122.53 253.216 122.724 253.534 123.006 253.76C123.289 253.987 123.643 254.106 124.005 254.096C124.208 254.132 124.416 254.132 124.619 254.096L149.553 243.405L164.631 284.509L104.6 305.969C104.615 305.85 104.615 305.729 104.6 305.61L65.7655 205.268L97.6115 191.354L111.077 225.628ZM306.735 318.22L294.652 275.608L308.117 268.804L320.917 310.342L306.735 318.22ZM340.603 299.728L323.631 308.859L311.036 267.934L310.857 267.576L325.116 260.261L340.603 299.728ZM292.451 273.459C274.724 273.828 257.136 276.678 240.202 281.925C239.382 250.72 245.987 234.197 260.297 222.738C294.729 195.216 302.153 166.466 300.822 144.29L317.769 147.309L346.363 246.219L292.451 273.459ZM371.656 233.992L349.307 244.786L334.792 194.551L390.651 179.051L405.499 221.127L371.656 233.992ZM397.921 256.219C398.046 255.909 398.072 255.568 397.994 255.242C397.916 254.917 397.738 254.624 397.486 254.403L375.214 235.936L421.063 218.518L445.076 325.152L408.75 334.053L372.193 315.432L397.921 256.219ZM346.978 373.494L370.965 318.271L406.497 336.381L381.435 387.025L346.978 373.494ZM407.7 429.075L404.039 396.898C404.008 396.621 403.904 396.356 403.738 396.131C403.572 395.907 403.349 395.73 403.092 395.619L384.2 388.151L409.595 336.995L445.716 328.119L466.759 421.402L407.7 429.075ZM660.983 366.179H660.625L606.174 388.406C606.213 388.238 606.213 388.063 606.174 387.895L596.165 362.163C596.036 361.839 595.802 361.566 595.501 361.39C595.199 361.214 594.847 361.144 594.501 361.191L551.365 367.765L540.409 292.361L553.797 282.539C554.061 282.356 554.259 282.093 554.36 281.789C554.462 281.484 554.462 281.155 554.361 280.851L544.838 250.03C544.719 249.64 544.45 249.313 544.09 249.121C543.73 248.929 543.308 248.888 542.918 249.006C542.527 249.125 542.2 249.394 542.008 249.754C541.816 250.114 541.775 250.535 541.894 250.925L550.981 280.953L537.746 290.673C537.518 290.842 537.339 291.068 537.227 291.329C537.115 291.589 537.073 291.875 537.106 292.156L548.421 369.99C548.45 370.193 548.518 370.388 548.622 370.563C548.727 370.739 548.865 370.892 549.03 371.014C549.195 371.135 549.382 371.223 549.581 371.271C549.779 371.319 549.986 371.327 550.188 371.295L593.707 364.696L603.282 389.25C603.372 389.439 603.503 389.605 603.666 389.736L477.536 441.097L426.951 216.42L531.27 204.501C531.414 204.527 531.561 204.527 531.705 204.501L552.185 195.881L575.224 232.355L563.858 243.737C563.599 243.996 563.438 244.338 563.406 244.703C563.373 245.067 563.47 245.432 563.679 245.733L582.546 272.027C582.69 272.224 582.879 272.385 583.097 272.496C583.315 272.607 583.556 272.665 583.8 272.666C584.031 272.667 584.259 272.615 584.466 272.513L639.991 245.349L668.842 246.295L673.22 253.355L686.608 274.457L661.418 292.949L649.591 277.603C649.467 277.443 649.312 277.31 649.136 277.21C648.96 277.11 648.766 277.046 648.565 277.021C648.365 276.996 648.161 277.011 647.966 277.064C647.771 277.118 647.588 277.21 647.428 277.334C647.268 277.458 647.135 277.613 647.035 277.789C646.935 277.965 646.871 278.158 646.846 278.359C646.821 278.56 646.836 278.763 646.889 278.958C646.943 279.153 647.035 279.336 647.159 279.495L658.91 294.842L645.342 304.818C645.143 304.955 644.981 305.138 644.87 305.352C644.758 305.566 644.701 305.804 644.702 306.045V329.961C644.701 330.329 644.838 330.685 645.086 330.958L674.218 364.21L660.983 366.179ZM677.7 363.621L647.671 329.321V306.813L689.143 276.349L705.885 274.252L738.32 307.068L775.977 348.709L677.7 363.621ZM854.005 434.6L834.677 456.981L793.257 409.764L760.515 381.219L749.02 355.846L779.279 351.242C779.505 351.202 779.716 351.105 779.894 350.96L792.693 340.141L814.351 370.527L854.005 434.6ZM840.539 406.797L817.73 369.734L840.309 343.389L847.63 352.162L870.926 378.584L840.539 406.797ZM873.23 376.513L851.086 351.421L866.881 339.731L888.103 362.752L873.23 376.513ZM889.716 359.912L869.364 337.89L895.655 318.451L899.982 332.186L889.716 359.912ZM940.711 371.269L930.906 383.035L892.199 362.087L902.772 333.516L941.581 323.413L948.979 332.621L940.711 371.269ZM1032.87 469.616L979.366 414.317L971.942 391.757C971.861 391.516 971.723 391.297 971.541 391.119C971.358 390.942 971.136 390.809 970.893 390.734L949.005 384.646L943.885 371.857L952.282 332.57C952.322 332.347 952.315 332.118 952.262 331.898C952.209 331.678 952.111 331.471 951.974 331.291L943.475 320.753C943.293 320.516 943.046 320.34 942.763 320.244C942.481 320.148 942.176 320.138 941.888 320.215L902.772 330.447L898.266 316.532L943.219 283.281L966.259 261.079L1100.04 405.595L1032.87 469.616ZM1102.35 403.497L1064.95 363.007L1107.01 327.428L1138.19 369.479L1102.35 403.497ZM1140.23 367.202L1109.51 325.894L1164.35 304.511L1179.45 321.622L1157.13 347.507L1140.23 367.202ZM1225.61 437.414L1213.83 408.613C1213.7 408.292 1213.47 408.023 1213.17 407.846L1142.54 369.223L1158.61 350.628L1240.94 417.13L1225.61 437.414ZM1242.81 414.752L1160.61 348.249L1181.81 323.694L1263.37 387.639L1242.81 414.752ZM1265.24 385.183L1185.06 322.364L1233.16 310.777L1291.78 350.167L1265.24 385.183ZM1292.35 406.413L1267.67 387.076L1294.34 351.881L1321.33 370.016C1311.73 382.037 1302.05 394.213 1292.35 406.413ZM1323.27 367.688L1234.31 307.836C1234.14 307.721 1233.94 307.644 1233.73 307.609C1233.53 307.574 1233.31 307.581 1233.11 307.631L1182.14 319.883L1167.81 303.641L1237.23 288.294C1237.44 288.252 1237.63 288.169 1237.8 288.05C1237.97 287.931 1238.12 287.778 1238.23 287.601C1238.34 287.424 1238.41 287.226 1238.44 287.02C1238.47 286.814 1238.46 286.603 1238.41 286.401L1221.26 222.712C1221.14 222.321 1220.88 221.988 1220.53 221.783C1220.18 221.579 1219.76 221.517 1219.36 221.613L1150.91 240.003L1143 215.141L1192.07 199.641L1212.86 190.996C1213.18 190.862 1213.44 190.626 1213.61 190.324C1213.78 190.022 1213.84 189.673 1213.78 189.333L1207.84 151.375V151.248L1204.87 139.379C1204.83 139.182 1204.74 138.997 1204.62 138.833C1204.5 138.67 1204.35 138.532 1204.17 138.427C1204 138.323 1203.81 138.254 1203.61 138.224C1203.41 138.194 1203.2 138.204 1203 138.254C1202.61 138.357 1202.27 138.609 1202.06 138.958C1201.85 139.307 1201.78 139.725 1201.88 140.121L1204.44 150.352L1128.28 169.28L1123.82 154.624L1144.92 130.222L1233.52 106.23L1242.45 130.35C1242.55 130.566 1242.68 130.765 1242.84 130.939L1341.42 223.787L1347.95 296.658C1348 297.087 1348.21 297.48 1348.54 297.758L1367.51 312.491C1353.04 330.344 1338.27 348.812 1323.27 367.688ZM1426.18 349.374L1404.63 387.741L1402.07 392.217L1345.75 364.082C1360.24 345.998 1375.44 327.045 1390.78 308.092L1432.48 311.314L1426.18 349.374ZM1393.36 305.073C1414.25 279.24 1435.27 253.483 1454.8 230.079L1501.42 243.533L1593.07 269.98C1587.46 290.443 1582.83 307.478 1581.91 310.47L1571.95 318.911L1393.36 305.073ZM1570.39 371.167L1552.08 342.11L1584.21 312.363L1660.09 247.958C1665.5 250.01 1670.4 253.233 1674.42 257.396C1683.13 267.423 1728.18 316.814 1745.64 335.946L1643.83 438.258L1570.39 371.167ZM1674.93 466.956L1646.06 440.458L1666.33 419.995L1695.85 444.422L1674.93 466.956ZM1697.97 442.146L1668.61 417.949L1688.17 398.279L1723.57 414.573L1697.97 442.146ZM1690.45 395.824L1747.74 338.197C1749.71 340.371 1751.17 341.982 1751.96 342.826C1753.63 345.666 1759.11 355.027 1766.73 367.944L1742.34 419.688L1690.45 395.824ZM1774.06 350.116L1764.87 334.437C1764.59 333.965 1764.27 333.527 1763.89 333.132L1758.7 327.275L1759.13 326.84L1779.92 335.281L1774.06 350.116ZM1782.66 336.432L1804.06 345.128V345.256L1791.13 378.891C1786.01 370.041 1780.89 361.498 1776.13 353.518L1782.66 336.432ZM1796.46 444.601L1745.1 420.993L1768.58 371.192C1778 387.153 1790.24 407.769 1802.52 428.18C1800.6 433.526 1798.56 439.025 1796.51 444.601H1796.46ZM1809.41 409.662C1803.91 400.53 1798.4 391.297 1793.08 382.293L1806.85 346.484C1806.86 346.442 1806.86 346.398 1806.85 346.356L1829.89 355.718C1824.82 368.762 1817.7 387.562 1809.46 409.662H1809.41ZM1873.9 459.769L1829.17 442.12C1826.1 437.004 1822.93 431.889 1819.73 426.517C1824.21 414.394 1828.4 403.139 1832.17 393.036L1890.77 418.614L1873.9 459.769ZM1891.81 415.8L1833.17 390.222C1837.47 378.738 1841.2 368.941 1844.17 361.345L1904.21 385.695L1891.81 415.8ZM1916.42 355.871L1905.38 382.754L1875.61 370.681C1875.79 370.56 1875.93 370.403 1876.05 370.22L1888.85 343.031L1916.42 355.871ZM1886.82 340.32L1873.26 368.89C1873.18 369.15 1873.18 369.424 1873.26 369.683L1845.43 358.403C1848.32 351.011 1850.34 346.177 1851.21 344.591C1853.18 341.727 1858.05 331.802 1864.42 318.169L1891.43 330.958L1886.82 340.32ZM1904.74 304.511C1904.47 304.529 1904.21 304.62 1903.98 304.773C1903.76 304.925 1903.58 305.135 1903.46 305.38L1892.63 328.196L1865.6 315.407C1868.78 308.526 1872.31 300.802 1876.02 292.617L1904.74 304.511ZM1838.52 335.767C1835.68 341.26 1833.21 346.933 1831.12 352.751L1761.41 324.461L1848.99 236.371C1860.62 235.585 1872.3 235.953 1883.85 237.471C1864.32 281.542 1842.18 330.549 1838.54 335.767H1838.52ZM1915.19 165.367C1914.5 167.183 1913.88 168.717 1913.4 169.843C1909.86 178.283 1900.88 198.874 1890.36 222.815C1876.08 220.534 1861.59 219.925 1847.17 220.999C1882.16 207.621 1901.41 187.287 1915.21 165.367H1915.19ZM1828.15 239.108C1833.5 238.038 1838.9 237.253 1844.33 236.755L1758.39 323.208L1753.01 321.034C1733.48 299.625 1694.13 256.322 1686.15 247.293C1683.67 244.478 1680.83 242.009 1677.7 239.952C1729.28 242.893 1800.42 244.633 1828.07 239.108H1828.15ZM1779.87 73.951L1709.29 170.022C1709.18 170.158 1709.1 170.315 1709.06 170.482L1692.52 225.321C1665.72 224.017 1642.01 222.277 1628.91 220.666C1625.35 220.257 1619.1 219.336 1610.65 217.673C1614.6 203.35 1617.46 192.94 1617.69 192.096C1619.08 178.92 1619.6 165.668 1619.26 152.424L1698.95 78.248L1711.31 74.616C1712.82 74.1814 1714.15 73.2872 1715.13 72.0582L1742.47 38.5511L1779.87 73.951ZM1704.68 60.4714C1693.85 63.6431 1649.77 76.6366 1608.14 90.6277C1601.95 73.0046 1586.49 28.5756 1584.64 20.1093C1584.13 17.8073 1580.16 0.337585 1574.17 -26.0845C1573.28 -30.0234 1572.33 -34.1926 1571.36 -38.5409L1786.52 -91.8198L1798.76 -54.9875L1704.68 60.4714ZM1907.46 -267.566L1808.9 -73.3781L1755.5 -234.519L1907.46 -267.566ZM1767.96 -460.731C1783.02 -446.637 1870.36 -340.156 1886.46 -320.538L1873.9 -276.032L1751.2 -249.303L1693.37 -501.041C1718.2 -489.71 1757.08 -470.859 1767.89 -460.731H1767.96ZM1704.83 -382.462C1689.19 -378.165 1667.02 -372.231 1644.55 -366.425V-417.862C1644.57 -418.023 1644.57 -418.187 1644.55 -418.348L1622.12 -486.974L1686.12 -463.595L1704.83 -382.462ZM1441.57 -798.667L1541.1 -790.993L1556.46 -747.332L1498.27 -743.418C1498.16 -743.43 1498.05 -743.43 1497.94 -743.418L1441.62 -726.69L1441.57 -798.667ZM1441.57 -723.391L1498.66 -740.349L1557.69 -744.39L1562.81 -729.836L1441.57 -670.623V-723.391ZM1441.57 -667.119L1563.86 -726.869L1569.26 -711.369V-711.139C1571.64 -704.693 1584.41 -679.934 1600.57 -649.419L1472.06 -585.474C1471.87 -585.385 1471.71 -585.26 1471.58 -585.106C1471.44 -584.953 1471.34 -584.775 1471.28 -584.583C1471.21 -584.39 1471.19 -584.186 1471.2 -583.984C1471.22 -583.781 1471.27 -583.584 1471.37 -583.402C1471.55 -583.041 1471.86 -582.766 1472.25 -582.636C1472.63 -582.507 1473.05 -582.534 1473.41 -582.712L1602.03 -646.657C1627.34 -598.903 1660.29 -538.334 1674.88 -511.58L1681.9 -481.5L1595.19 -513.012C1593.73 -513.548 1592.14 -513.628 1590.63 -513.242L1491.44 -487.664L1430.33 -540.943L1424.9 -591.485L1458.51 -608.213C1458.85 -608.374 1459.11 -608.648 1459.25 -608.986C1459.4 -609.325 1459.42 -609.704 1459.31 -610.055L1441.57 -663.768V-667.119ZM1438.5 -798.846V-668.756C1438.37 -668.541 1438.31 -668.299 1438.31 -668.053C1438.31 -667.806 1438.37 -667.564 1438.5 -667.349V-663.615C1438.47 -663.454 1438.47 -663.29 1438.5 -663.129L1455.88 -610.413L1424.47 -594.81L1405.42 -770.275L1405.7 -770.147L1425.62 -765.697V-747.945L1409.8 -749.634C1409.6 -749.654 1409.39 -749.634 1409.2 -749.575C1409.01 -749.517 1408.82 -749.421 1408.67 -749.293C1408.51 -749.164 1408.38 -749.006 1408.28 -748.828C1408.19 -748.649 1408.13 -748.454 1408.11 -748.252C1408.09 -748.051 1408.11 -747.847 1408.17 -747.653C1408.23 -747.459 1408.32 -747.279 1408.45 -747.122C1408.58 -746.965 1408.74 -746.836 1408.92 -746.74C1409.09 -746.644 1409.29 -746.584 1409.49 -746.564L1427 -744.697H1427.18C1427.56 -744.7 1427.93 -744.846 1428.2 -745.106C1428.37 -745.245 1428.5 -745.418 1428.59 -745.612C1428.67 -745.807 1428.72 -746.018 1428.72 -746.232V-766.95C1428.71 -767.297 1428.59 -767.632 1428.37 -767.901C1428.16 -768.171 1427.85 -768.358 1427.51 -768.433L1406.32 -773.089C1406.1 -773.135 1405.88 -773.133 1405.67 -773.085C1405.46 -773.036 1405.26 -772.941 1405.09 -772.807L1401.94 -801.685L1438.5 -798.846ZM1404.53 -721.114L1381.13 -725.82V-728.89C1381.15 -729.008 1381.15 -729.13 1381.13 -729.248L1371.19 -768.587L1398.69 -774.981L1404.53 -721.114ZM1395.74 -801.455L1398.3 -778.076L1370.4 -771.579L1364.15 -796.288L1395.74 -801.455ZM1361.11 -795.802L1367.38 -770.863L1314.72 -758.611L1311.65 -787.719L1361.11 -795.802ZM1308.58 -787.208L1311.7 -757.921L1250.62 -743.699L1245.17 -776.951L1308.58 -787.208ZM1242.02 -776.363L1247.5 -743.111L1180.14 -736.691C1179.89 -746.641 1179.68 -756.54 1179.5 -766.106L1242.02 -776.363ZM1177.12 -640.365H1127.23L1123.82 -664.664L1175.92 -666.428C1176.28 -656.734 1176.69 -647.91 1177.12 -640.365ZM1173.49 -751.296L1168.62 -765.415H1173.18C1173.28 -760.786 1173.39 -756.054 1173.49 -751.296ZM1172.46 -806.954C1172.67 -795.52 1172.9 -782.399 1173.18 -768.587H1167.63L1154.54 -806.34L1172.46 -806.954ZM1099.33 -804.038L1151.37 -806.11L1164.3 -768.485H1097.43L1099.33 -804.038ZM1030.69 -733.647C1042.09 -741.525 1070.86 -762.627 1074.65 -765.39H1165.37L1173.72 -741.116C1174.28 -716.357 1174.97 -690.983 1175.79 -669.498L1122.03 -667.656C1121.81 -667.654 1121.6 -667.605 1121.4 -667.512C1121.2 -667.42 1121.02 -667.286 1120.88 -667.119C1120.75 -666.952 1120.65 -666.76 1120.59 -666.553C1120.53 -666.346 1120.52 -666.129 1120.55 -665.917L1124.39 -638.6C1124.44 -638.231 1124.63 -637.895 1124.91 -637.651C1125.19 -637.407 1125.55 -637.272 1125.92 -637.27H1177.35C1177.92 -627.908 1178.53 -620.874 1179.2 -617.089C1183.29 -593.582 1192.15 -458.736 1194.33 -425.254L1108.29 -415.355C1105.06 -415.355 1081.36 -414.946 1053.53 -415.048V-481.705C1053.55 -481.874 1053.55 -482.047 1053.53 -482.216L969.869 -709.451C978.445 -712.239 1019.46 -725.872 1030.69 -733.647ZM787.676 -624.557C794.869 -631.745 810.716 -661.364 813.148 -665.84L935.13 -710.755L966.771 -708.939L1050.38 -481.295V-414.793C1020.68 -414.946 987.072 -415.586 968.717 -417.632C935.437 -421.315 855.259 -441.291 836.776 -445.947L796.713 -552.095C796.327 -553.123 795.724 -554.056 794.946 -554.832L750.07 -599.9C762.383 -607.139 782.402 -619.288 787.676 -624.557ZM369.352 -668.219L373.755 -767.461L442.413 -749.403H442.823C443.104 -749.401 443.38 -749.481 443.616 -749.634C443.974 -749.863 444.231 -750.219 444.333 -750.631L451.322 -785.34L512.147 -769.661L508.691 -751.168C498.656 -735.949 490.925 -724.107 487.981 -719.426L399.355 -660.546L369.352 -668.219ZM479.123 -694.973C473.645 -678.45 464.711 -651.491 455.213 -624.378L402.401 -644.048L479.123 -694.973ZM399.355 -642.002L454.317 -621.539C440.954 -583.505 426.67 -545.982 419.527 -537.49C417.42 -535.072 415.126 -532.823 412.666 -530.763L357.934 -565.293L353.275 -588.799L349.41 -608.955L399.355 -642.002ZM410.158 -528.691C389.473 -512.27 352.328 -495.44 341.039 -491.885C337.043 -490.165 333.154 -488.209 329.391 -486.027C317.589 -486.027 301.82 -484.544 287.766 -483.214C302.306 -494.008 319.868 -522.297 321.481 -524.931L356.936 -562.377L410.158 -528.691ZM354.658 -565.293L318.946 -550.56L313.391 -559.615L350.715 -585.832L354.658 -565.293ZM306.018 -656.837L287.356 -659.574L272.867 -709.962L286.383 -714.438L306.018 -656.837ZM264.291 -778.92L274.198 -761.502C273.365 -760.49 272.805 -759.281 272.572 -757.992C272.339 -756.702 272.441 -755.375 272.867 -754.135L285.385 -717.38L272.022 -712.929L268.464 -725.232C268.387 -725.53 268.221 -725.798 267.987 -725.999C267.754 -726.201 267.465 -726.326 267.158 -726.358L251.798 -728.097L234.134 -753.342L264.291 -778.92ZM231.626 -751.322L249.545 -725.744C249.67 -725.568 249.83 -725.42 250.015 -725.31C250.2 -725.2 250.407 -725.13 250.621 -725.104L265.673 -723.365L284.515 -657.758C284.597 -657.469 284.762 -657.212 284.99 -657.016C285.217 -656.821 285.497 -656.696 285.795 -656.658L307.017 -653.537L322.121 -609.159C316.284 -605.195 305.276 -597.956 290.94 -589.567L261.603 -594.375C261.654 -594.611 261.654 -594.856 261.603 -595.092L238.614 -701.47C238.573 -701.675 238.491 -701.869 238.372 -702.04C238.253 -702.212 238.1 -702.357 237.923 -702.468C237.739 -702.574 237.536 -702.643 237.324 -702.669C237.113 -702.696 236.899 -702.679 236.694 -702.621L200.343 -692.671L190.692 -716.561L231.626 -751.322ZM246.474 -650.621L258.557 -594.913L203.492 -603.916L195.402 -639.111L246.474 -650.621ZM194.711 -642.129L184.753 -685.279L235.952 -699.296L245.757 -653.64L194.711 -642.129ZM203.696 -600.77L286.716 -587.162C263.676 -573.913 232.957 -558.49 201.341 -548.795L203.696 -600.77ZM160.791 -759.66L176.842 -755.619L179.198 -711.497L135.909 -706.816L126.718 -746.973L160.791 -759.66ZM123.672 -746.487L132.811 -706.586L65.7911 -699.219L68.0695 -751.475L123.672 -746.487ZM61.1064 -802.017L77.1062 -798.667L65.4327 -754.826L52.2745 -756.002L61.1064 -802.017ZM20.3261 -738.379L50.7129 -753.035L64.9719 -751.757L62.7192 -699.475L16.9726 -711.395L20.3261 -738.379ZM2.94396 -668.449L6.93751 -710.806L35.8395 -703.286L30.9244 -662.924L2.94396 -668.449ZM54.9625 -601.946L59.6472 -654.509L100.607 -656.581L108.978 -602.867L54.9625 -601.946ZM103.602 -658.474C103.53 -658.846 103.328 -659.181 103.033 -659.42C102.738 -659.658 102.369 -659.785 101.989 -659.778L58.4696 -657.553L33.9707 -662.336L38.8347 -702.519L63.7687 -696.022H64.0503H64.3319L180.862 -708.632C181.091 -708.684 181.308 -708.779 181.502 -708.913L188.004 -714.438L197.143 -691.904L182.526 -687.863C182.143 -687.76 181.815 -687.514 181.61 -687.176C181.405 -686.837 181.339 -686.433 181.425 -686.047L200.292 -604.197L112.203 -602.867L103.602 -658.474ZM153.598 -539.153C143.124 -538.551 132.621 -538.662 122.162 -539.485L112.638 -599.696L200.548 -601.026L198.193 -547.721C183.689 -543.232 168.733 -540.359 153.598 -539.153ZM196.836 -531.223C265.955 -550.074 331.567 -596.754 335.791 -599.824L346.773 -607.113L350.203 -589.209L310.549 -561.329C310.231 -561.106 310.01 -560.771 309.929 -560.391C309.848 -560.011 309.914 -559.615 310.114 -559.282L317.103 -547.849C317.286 -547.53 317.582 -547.291 317.932 -547.178C318.282 -547.064 318.662 -547.085 318.997 -547.235L350.434 -560.203L318.972 -526.952L318.767 -526.696C318.511 -526.287 294.319 -486.846 279.958 -482.497H279.369L277.167 -482.293V-510.659C277.161 -511.008 277.04 -511.344 276.822 -511.617C276.605 -511.89 276.303 -512.084 275.964 -512.168L196.836 -531.223ZM243.069 -516.925L273.916 -509.431V-481.884C267.977 -481.321 262.985 -480.86 259.99 -480.733C252.413 -481.084 244.887 -482.154 237.514 -483.93L243.069 -516.925ZM48.5114 -354.889L52.0953 -371.464C52.1722 -371.766 52.1722 -372.082 52.0953 -372.384L32.4604 -420.113L33.7659 -452.085L145.176 -495.414L188.567 -492.371C192.484 -491.322 246.704 -477.024 260.246 -477.535C264.163 -477.714 271.331 -478.431 279.625 -479.223C292.553 -480.502 309.705 -482.19 323.324 -482.676C273.225 -454.72 131.889 -369.852 61.132 -327.239L48.5114 -354.889ZM67.7367 -313.248C183.498 -382.974 334.536 -473.11 345.493 -477.126C359.112 -481.321 412.538 -505.262 431.354 -527.566C444.154 -542.682 470.368 -618.905 494.355 -691.469C497.401 -700.677 500.038 -708.658 500.755 -710.55C502.393 -713.287 512.147 -728.174 525.663 -748.662L642.551 -738.2L686.506 -642.436C686.894 -641.603 687.422 -640.841 688.068 -640.186L783.017 -545.317L821.416 -443.389L792.463 -428.4C791.469 -427.888 790.598 -427.164 789.913 -426.281C789.227 -425.397 788.744 -424.375 788.495 -423.285L772.367 -356.168C771.898 -354.147 772.247 -352.023 773.34 -350.259L800.885 -306.444L795.177 -191.344L706.832 -124.406C685.84 -117.628 412.052 -29.1793 263.062 34.9446C255.971 17.04 248.214 -2.47601 240.022 -22.8105C229.783 -48.6187 219.952 -73.0967 218.263 -78.0588C218.032 -82.1768 215.191 -84.7603 179.556 -112.64C164.99 -124.022 146.84 -138.218 143.716 -141.748C139.697 -146.352 129.944 -171.674 122.827 -193.492C122.827 -193.773 122.622 -194.055 122.494 -194.336L67.7367 -313.248ZM13.4142 -104.967L43.4682 -120.314C43.7791 -120.484 44.0228 -120.754 44.1594 -121.081L63.0264 -163.745C63.0494 -163.872 63.0494 -164.002 63.0264 -164.129L66.6615 -188.402L102.091 -201.6L108.261 -188.223C111.154 -179.373 124.107 -140.648 132.094 -131.542C137.353 -126.365 142.946 -121.537 148.836 -117.091L95.7939 -90.1572C95.4424 -89.9856 95.1713 -89.6844 95.0376 -89.3171C94.9039 -88.9497 94.9181 -88.5449 95.0771 -88.1877L139.083 15.1216L74.4438 40.2903L13.4142 -104.967ZM75.6214 43.0784L140.286 18.012L153.854 49.831L89.01 74.9229L75.6214 43.0784ZM90.2132 77.762L156.363 52.1841L170.007 48.5521L178.737 72.6721C151.78 84.8472 126.155 96.4852 102.603 107.228L90.2132 77.762ZM44.6714 150.71C62.5912 142.551 82.8917 133.164 105.317 122.933L124.85 176.033L64.6647 202.403L44.6714 150.71ZM3.27676 232.56L62.9496 206.547L101.656 306.608C101.656 306.608 101.656 306.761 101.835 306.864L36.1211 330.344L3.27676 232.56ZM37.0939 333.311L84.6325 316.302C84.622 316.413 84.622 316.524 84.6325 316.635L94.4627 341.88L46.5914 361.754L37.0939 333.311Z" fill="#2C5DEB"/>
</g>
</svg>
