<svg width="220" height="44" viewBox="0 0 220 44" fill="none" xmlns="http://www.w3.org/2000/svg">
<path d="M59.472 29V15.368H54.096V12.2H68.736V15.368H63.36V29H59.472ZM70.2827 29V16.088H73.8587V19.736L73.3547 18.68C73.7387 17.768 74.3547 17.08 75.2027 16.616C76.0507 16.136 77.0827 15.896 78.2987 15.896V19.352C78.1387 19.336 77.9947 19.328 77.8667 19.328C77.7387 19.312 77.6027 19.304 77.4587 19.304C76.4347 19.304 75.6027 19.6 74.9627 20.192C74.3387 20.768 74.0267 21.672 74.0267 22.904V29H70.2827ZM86.0666 29.192C84.9946 29.192 84.0346 28.984 83.1866 28.568C82.3546 28.152 81.7066 27.52 81.2426 26.672C80.7786 25.808 80.5466 24.712 80.5466 23.384V16.088H84.2906V22.832C84.2906 23.904 84.5146 24.696 84.9626 25.208C85.4266 25.704 86.0746 25.952 86.9066 25.952C87.4826 25.952 87.9946 25.832 88.4426 25.592C88.8906 25.336 89.2426 24.952 89.4986 24.44C89.7546 23.912 89.8826 23.256 89.8826 22.472V16.088H93.6266V29H90.0746V25.448L90.7226 26.48C90.2906 27.376 89.6506 28.056 88.8026 28.52C87.9706 28.968 87.0586 29.192 86.0666 29.192ZM103.335 29.192C101.943 29.192 100.703 28.912 99.6152 28.352C98.5272 27.776 97.6712 26.984 97.0472 25.976C96.4392 24.968 96.1352 23.824 96.1352 22.544C96.1352 21.248 96.4392 20.104 97.0472 19.112C97.6712 18.104 98.5272 17.32 99.6152 16.76C100.703 16.184 101.943 15.896 103.335 15.896C104.695 15.896 105.879 16.184 106.887 16.76C107.895 17.32 108.639 18.128 109.119 19.184L106.215 20.744C105.879 20.136 105.455 19.688 104.943 19.4C104.447 19.112 103.903 18.968 103.311 18.968C102.671 18.968 102.095 19.112 101.583 19.4C101.071 19.688 100.663 20.096 100.359 20.624C100.071 21.152 99.9272 21.792 99.9272 22.544C99.9272 23.296 100.071 23.936 100.359 24.464C100.663 24.992 101.071 25.4 101.583 25.688C102.095 25.976 102.671 26.12 103.311 26.12C103.903 26.12 104.447 25.984 104.943 25.712C105.455 25.424 105.879 24.968 106.215 24.344L109.119 25.928C108.639 26.968 107.895 27.776 106.887 28.352C105.879 28.912 104.695 29.192 103.335 29.192ZM114.301 26.36L114.397 21.8L120.421 16.088H124.885L119.101 21.968L117.157 23.552L114.301 26.36ZM111.205 29V11.192H114.949V29H111.205ZM120.829 29L116.461 23.576L118.813 20.672L125.365 29H120.829ZM135.472 29.288C134.144 29.288 132.912 29.072 131.776 28.64C130.656 28.208 129.68 27.6 128.848 26.816C128.032 26.032 127.392 25.112 126.928 24.056C126.48 23 126.256 21.848 126.256 20.6C126.256 19.352 126.48 18.2 126.928 17.144C127.392 16.088 128.04 15.168 128.872 14.384C129.704 13.6 130.68 12.992 131.8 12.56C132.92 12.128 134.136 11.912 135.448 11.912C136.776 11.912 137.992 12.128 139.096 12.56C140.216 12.992 141.184 13.6 142 14.384C142.832 15.168 143.48 16.088 143.944 17.144C144.408 18.184 144.64 19.336 144.64 20.6C144.64 21.848 144.408 23.008 143.944 24.08C143.48 25.136 142.832 26.056 142 26.84C141.184 27.608 140.216 28.208 139.096 28.64C137.992 29.072 136.784 29.288 135.472 29.288ZM135.448 25.976C136.2 25.976 136.888 25.848 137.512 25.592C138.152 25.336 138.712 24.968 139.192 24.488C139.672 24.008 140.04 23.44 140.296 22.784C140.568 22.128 140.704 21.4 140.704 20.6C140.704 19.8 140.568 19.072 140.296 18.416C140.04 17.76 139.672 17.192 139.192 16.712C138.728 16.232 138.176 15.864 137.536 15.608C136.896 15.352 136.2 15.224 135.448 15.224C134.696 15.224 134 15.352 133.36 15.608C132.736 15.864 132.184 16.232 131.704 16.712C131.224 17.192 130.848 17.76 130.576 18.416C130.32 19.072 130.192 19.8 130.192 20.6C130.192 21.384 130.32 22.112 130.576 22.784C130.848 23.44 131.216 24.008 131.68 24.488C132.16 24.968 132.72 25.336 133.36 25.592C134 25.848 134.696 25.976 135.448 25.976ZM155.146 15.896C156.17 15.896 157.082 16.104 157.882 16.52C158.698 16.92 159.338 17.544 159.802 18.392C160.266 19.224 160.498 20.296 160.498 21.608V29H156.754V22.184C156.754 21.144 156.522 20.376 156.058 19.88C155.61 19.384 154.97 19.136 154.138 19.136C153.546 19.136 153.01 19.264 152.53 19.52C152.066 19.76 151.698 20.136 151.426 20.648C151.17 21.16 151.042 21.816 151.042 22.616V29H147.298V16.088H150.874V19.664L150.202 18.584C150.666 17.72 151.33 17.056 152.194 16.592C153.058 16.128 154.042 15.896 155.146 15.896ZM164.156 29V12.2H167.372L177.284 24.296H175.724V12.2H179.564V29H176.372L166.436 16.904H167.996V29H164.156ZM189.419 29.192C188.043 29.192 186.819 28.904 185.747 28.328C184.691 27.752 183.851 26.968 183.227 25.976C182.619 24.968 182.315 23.824 182.315 22.544C182.315 21.248 182.619 20.104 183.227 19.112C183.851 18.104 184.691 17.32 185.747 16.76C186.819 16.184 188.043 15.896 189.419 15.896C190.779 15.896 191.995 16.184 193.067 16.76C194.139 17.32 194.979 18.096 195.587 19.088C196.195 20.08 196.499 21.232 196.499 22.544C196.499 23.824 196.195 24.968 195.587 25.976C194.979 26.968 194.139 27.752 193.067 28.328C191.995 28.904 190.779 29.192 189.419 29.192ZM189.419 26.12C190.043 26.12 190.603 25.976 191.099 25.688C191.595 25.4 191.987 24.992 192.275 24.464C192.563 23.92 192.707 23.28 192.707 22.544C192.707 21.792 192.563 21.152 192.275 20.624C191.987 20.096 191.595 19.688 191.099 19.4C190.603 19.112 190.043 18.968 189.419 18.968C188.795 18.968 188.235 19.112 187.739 19.4C187.243 19.688 186.843 20.096 186.539 20.624C186.251 21.152 186.107 21.792 186.107 22.544C186.107 23.28 186.251 23.92 186.539 24.464C186.843 24.992 187.243 25.4 187.739 25.688C188.235 25.976 188.795 26.12 189.419 26.12ZM201.602 29L196.946 16.088H200.474L204.338 27.2H202.658L206.69 16.088H209.858L213.77 27.2H212.09L216.074 16.088H219.386L214.706 29H211.082L207.65 19.472H208.754L205.202 29H201.602Z" fill="#08112B"/>
<g clip-path="url(#clip0_173_683)">
<path d="M28.7208 31.7146C28.3808 31.715 28.0486 31.8157 27.766 32.0041C27.4835 32.1924 27.2634 32.4599 27.1335 32.7728C27.0035 33.0856 26.9697 33.4298 27.0361 33.7619C27.1025 34.0939 27.2662 34.3989 27.5066 34.6383C27.747 34.8778 28.0533 35.0408 28.3867 35.107C28.7202 35.1731 29.0658 35.1394 29.38 35.01C29.6941 34.8806 29.9628 34.6614 30.1519 34.38C30.341 34.0987 30.4421 33.7678 30.4425 33.4292C30.4428 33.204 30.3984 32.9809 30.312 32.7728C30.2256 32.5646 30.0987 32.3755 29.9388 32.2162C29.7789 32.057 29.589 31.9307 29.38 31.8446C29.171 31.7585 28.9469 31.7143 28.7208 31.7146Z" fill="white"/>
<path d="M44 9.52917V34.4686C44 39.5171 40.0589 43.6478 35.0738 43.9786C34.8612 43.9922 34.6439 43.9996 34.4293 43.9996H9.57032C4.28466 43.9996 0 39.7327 0 34.4686V9.52917C0 4.26656 4.28466 -0.00035224 9.57071 -0.00035224H34.4297C36.8622 -0.00450649 39.2043 0.91796 40.9759 2.57801C41.1115 2.70413 41.2436 2.83414 41.3703 2.96726C41.8834 3.50493 42.3319 4.10035 42.7066 4.74144C42.7488 4.81346 42.7899 4.88508 42.8298 4.95825C43.6003 6.35936 44.0029 7.93168 44 9.52917Z" fill="url(#paint0_linear_173_683)"/>
<g opacity="0.4">
<path opacity="0.4" d="M27.8496 32.5577L29.972 30.4441V32.5577H27.8496Z" fill="#D4DFFF"/>
<path opacity="0.4" d="M29.9727 30.4441L32.0947 32.5577H29.9727V30.4441Z" fill="#E9F0FF"/>
<path opacity="0.4" d="M32.0947 32.5577L29.9727 34.6713V32.5577H32.0947Z" fill="#AAD0FF"/>
<path opacity="0.4" d="M29.972 34.6713L27.8496 32.5577H29.972V34.6713Z" fill="#7FB8FF"/>
<path opacity="0.4" d="M32.0947 28.3309L34.2171 30.4441H32.0947V28.3309Z" fill="#D4DFFF"/>
<path opacity="0.4" d="M34.2171 30.4441L32.0947 32.5577V30.4441H34.2171Z" fill="#E9F0FF"/>
<path opacity="0.4" d="M32.0947 32.5577L29.9727 30.4441H32.0947V32.5577Z" fill="#AAD0FF"/>
<path opacity="0.4" d="M29.9727 30.4441L32.0947 28.3309V30.4441H29.9727Z" fill="#7FB8FF"/>
<path opacity="0.4" d="M27.8499 36.7849L25.7275 34.6713H27.8499V36.7849Z" fill="#D4DFFF"/>
<path opacity="0.4" d="M25.7275 34.6713L27.8499 32.5577V34.6713H25.7275Z" fill="#E9F0FF"/>
<path opacity="0.4" d="M27.8496 32.5577L29.972 34.6713H27.8496V32.5577Z" fill="#AAD0FF"/>
<path opacity="0.4" d="M29.972 34.6713L27.8496 36.7849V34.6713H29.972Z" fill="#7FB8FF"/>
<path opacity="0.4" d="M27.8499 36.7849L25.7275 38.8982V36.7849H27.8499Z" fill="#D4DFFF"/>
<path opacity="0.4" d="M25.7278 38.8982L23.6055 36.7849H25.7278V38.8982Z" fill="#E9F0FF"/>
<path opacity="0.4" d="M23.6055 36.7849L25.7278 34.6713V36.7849H23.6055Z" fill="#AAD0FF"/>
<path opacity="0.4" d="M25.7275 34.6713L27.8499 36.7849H25.7275V34.6713Z" fill="#7FB8FF"/>
<path opacity="0.4" d="M32.0947 28.3309L34.2171 26.2173V28.3309H32.0947Z" fill="#D4DFFF"/>
<path opacity="0.4" d="M34.2168 26.2173L36.3392 28.3309H34.2168V26.2173Z" fill="#E9F0FF"/>
<path opacity="0.4" d="M36.3392 28.3309L34.2168 30.4441V28.3309H36.3392Z" fill="#AAD0FF"/>
<path opacity="0.4" d="M34.2171 30.4441L32.0947 28.3309H34.2171V30.4441Z" fill="#7FB8FF"/>
<path opacity="0.4" d="M36.3392 28.3309L34.2168 26.2173H36.3392V28.3309Z" fill="#D4DFFF"/>
<path opacity="0.4" d="M34.2168 26.2173L36.3392 24.1037V26.2173H34.2168Z" fill="#E9F0FF"/>
<path opacity="0.4" d="M36.3389 24.1037L38.4613 26.2173H36.3389V24.1037Z" fill="#AAD0FF"/>
<path opacity="0.4" d="M38.4613 26.2173L36.3389 28.3309V26.2173H38.4613Z" fill="#7FB8FF"/>
<path opacity="0.4" d="M23.6055 36.7849L25.7278 38.8982H23.6055V36.7849Z" fill="#D4DFFF"/>
<path opacity="0.4" d="M25.7278 38.8982L23.6055 41.0118V38.8982H25.7278Z" fill="#E9F0FF"/>
<path opacity="0.4" d="M23.6054 41.0118L21.4834 38.8982H23.6054V41.0118Z" fill="#AAD0FF"/>
<path opacity="0.4" d="M21.4834 38.8982L23.6054 36.7849V38.8982H21.4834Z" fill="#7FB8FF"/>
<path opacity="0.4" d="M18.116 44H17.2373V43.1254L18.116 44Z" fill="#D4DFFF"/>
<path opacity="0.4" d="M17.2376 43.1254V44H16.3594L17.2376 43.1254Z" fill="#7FB8FF"/>
<path opacity="0.4" d="M17.2383 43.1254L19.3607 41.0117V43.1254H17.2383Z" fill="#D4DFFF"/>
<path opacity="0.4" d="M19.3604 41.0117L21.4827 43.1254H19.3604V41.0117Z" fill="#E9F0FF"/>
<path opacity="0.4" d="M21.4827 43.1254L20.6045 44H19.3604V43.1254H21.4827Z" fill="#AAD0FF"/>
<path opacity="0.4" d="M19.3597 43.1254V44H18.116L17.2373 43.1254H19.3597Z" fill="#7FB8FF"/>
<path opacity="0.4" d="M21.4827 43.1254L19.3604 41.0117H21.4827V43.1254Z" fill="#D4DFFF"/>
<path opacity="0.4" d="M19.3604 41.0118L21.4827 38.8982V41.0118H19.3604Z" fill="#E9F0FF"/>
<path opacity="0.4" d="M21.4834 38.8982L23.6054 41.0118H21.4834V38.8982Z" fill="#AAD0FF"/>
<path opacity="0.4" d="M23.6054 41.0117L21.4834 43.1254V41.0117H23.6054Z" fill="#7FB8FF"/>
<path opacity="0.4" d="M36.3398 7.19561L38.4618 5.082V7.19561H36.3398Z" fill="#D4DFFF"/>
<path opacity="0.4" d="M38.4619 5.082L40.5843 7.19561H38.4619V5.082Z" fill="#E9F0FF"/>
<path opacity="0.4" d="M40.5843 7.19562L38.4619 9.30922V7.19562H40.5843Z" fill="#AAD0FF"/>
<path opacity="0.4" d="M38.4618 9.30922L36.3398 7.19562H38.4618V9.30922Z" fill="#7FB8FF"/>
<path opacity="0.4" d="M40.584 2.96838L42.7064 5.08199H40.584V2.96838Z" fill="#D4DFFF"/>
<path opacity="0.4" d="M42.7064 5.082L40.584 7.19561V5.082H42.7064Z" fill="#E9F0FF"/>
<path opacity="0.4" d="M40.5843 7.19561L38.4619 5.082H40.5843V7.19561Z" fill="#AAD0FF"/>
<path opacity="0.4" d="M38.4619 5.08199L40.5843 2.96838V5.08199H38.4619Z" fill="#7FB8FF"/>
<path opacity="0.4" d="M36.3402 11.4224L34.2178 9.3092H36.3402V11.4224Z" fill="#D4DFFF"/>
<path opacity="0.4" d="M34.2178 9.30922L36.3402 7.19562V9.30922H34.2178Z" fill="#E9F0FF"/>
<path opacity="0.4" d="M36.3398 7.19562L38.4618 9.30922H36.3398V7.19562Z" fill="#AAD0FF"/>
<path opacity="0.4" d="M38.4618 9.3092L36.3398 11.4224V9.3092H38.4618Z" fill="#7FB8FF"/>
<path opacity="0.4" d="M36.3402 11.4224L34.2178 13.536V11.4224H36.3402Z" fill="#D4DFFF"/>
<path opacity="0.4" d="M34.2171 13.536L32.0947 11.4224H34.2171V13.536Z" fill="#E9F0FF"/>
<path opacity="0.4" d="M32.0947 11.4224L34.2171 9.3092V11.4224H32.0947Z" fill="#AAD0FF"/>
<path opacity="0.4" d="M34.2178 9.3092L36.3402 11.4224H34.2178V9.3092Z" fill="#7FB8FF"/>
<path opacity="0.4" d="M41.37 2.96838H40.584L40.9748 2.57913C41.1113 2.70447 41.2434 2.83448 41.37 2.96838Z" fill="#D4DFFF"/>
<path opacity="0.4" d="M42.8292 4.95939L42.7061 5.08201V4.74258C42.7483 4.81459 42.7893 4.88622 42.8292 4.95939Z" fill="#AAD0FF"/>
<path opacity="0.4" d="M42.7064 4.74257V5.08199L40.584 2.96838H41.37C41.8832 3.50606 42.3317 4.10147 42.7064 4.74257Z" fill="#7FB8FF"/>
<path opacity="0.4" d="M32.0947 11.4224L34.2171 13.536H32.0947V11.4224Z" fill="#D4DFFF"/>
<path opacity="0.4" d="M34.2171 13.536L32.0947 15.6496V13.536H34.2171Z" fill="#E9F0FF"/>
<path opacity="0.4" d="M32.0951 15.6496L29.9727 13.536H32.0951V15.6496Z" fill="#AAD0FF"/>
<path opacity="0.4" d="M29.9727 13.536L32.0951 11.4224V13.536H29.9727Z" fill="#7FB8FF"/>
<path opacity="0.4" d="M27.8509 15.6496L25.7285 13.536H27.8509V15.6496Z" fill="#D4DFFF"/>
<path opacity="0.4" d="M25.7285 13.536L27.8509 11.4224V13.536H25.7285Z" fill="#E9F0FF"/>
<path opacity="0.4" d="M27.8506 11.4224L29.9726 13.536H27.8506V11.4224Z" fill="#AAD0FF"/>
<path opacity="0.4" d="M29.9726 13.536L27.8506 15.6496V13.536H29.9726Z" fill="#7FB8FF"/>
<path opacity="0.4" d="M23.6055 11.4224L25.7279 9.3092V11.4224H23.6055Z" fill="#D4DFFF"/>
<path opacity="0.4" d="M25.7285 9.3092L27.8509 11.4224H25.7285V9.3092Z" fill="#E9F0FF"/>
<path opacity="0.4" d="M27.8509 11.4224L25.7285 13.536V11.4224H27.8509Z" fill="#AAD0FF"/>
<path opacity="0.4" d="M25.7279 13.536L23.6055 11.4224H25.7279V13.536Z" fill="#7FB8FF"/>
<path opacity="0.4" d="M32.0951 15.6496L29.9727 17.7632V15.6496H32.0951Z" fill="#D4DFFF"/>
<path opacity="0.4" d="M29.9726 17.7632L27.8506 15.6496H29.9726V17.7632Z" fill="#E9F0FF"/>
<path opacity="0.4" d="M27.8506 15.6496L29.9726 13.536V15.6496H27.8506Z" fill="#AAD0FF"/>
<path opacity="0.4" d="M29.9727 13.536L32.0951 15.6496H29.9727V13.536Z" fill="#7FB8FF"/>
<path opacity="0.4" d="M32.0947 15.6496L34.2171 17.7632H32.0947V15.6496Z" fill="#D4DFFF"/>
<path opacity="0.4" d="M34.2171 17.7632L32.0947 19.8765V17.7632H34.2171Z" fill="#E9F0FF"/>
<path opacity="0.4" d="M32.0951 19.8765L29.9727 17.7632H32.0951V19.8765Z" fill="#AAD0FF"/>
<path opacity="0.4" d="M29.9727 17.7632L32.0951 15.6496V17.7632H29.9727Z" fill="#7FB8FF"/>
<path opacity="0.4" d="M23.6058 11.4224L21.4834 9.3092H23.6058V11.4224Z" fill="#D4DFFF"/>
<path opacity="0.4" d="M21.4834 9.30922L23.6058 7.19562V9.30922H21.4834Z" fill="#E9F0FF"/>
<path opacity="0.4" d="M23.6055 7.19562L25.7279 9.30922H23.6055V7.19562Z" fill="#AAD0FF"/>
<path opacity="0.4" d="M25.7279 9.3092L23.6055 11.4224V9.3092H25.7279Z" fill="#7FB8FF"/>
<path opacity="0.4" d="M23.6058 7.19562L21.4834 9.30922V7.19562H23.6058Z" fill="#D4DFFF"/>
<path opacity="0.4" d="M21.4833 9.30922L19.3613 7.19562H21.4833V9.30922Z" fill="#E9F0FF"/>
<path opacity="0.4" d="M19.3613 7.19561L21.4833 5.082V7.19561H19.3613Z" fill="#AAD0FF"/>
<path opacity="0.4" d="M21.4834 5.082L23.6058 7.19561H21.4834V5.082Z" fill="#7FB8FF"/>
<path opacity="0.4" d="M32.0947 19.8765L34.2171 17.7632V19.8765H32.0947Z" fill="#D4DFFF"/>
<path opacity="0.4" d="M34.2178 17.7632L36.3402 19.8765H34.2178V17.7632Z" fill="#E9F0FF"/>
<path opacity="0.4" d="M36.3402 19.8765L34.2178 21.9901V19.8765H36.3402Z" fill="#AAD0FF"/>
<path opacity="0.4" d="M34.2171 21.9901L32.0947 19.8765H34.2171V21.9901Z" fill="#7FB8FF"/>
<path opacity="0.4" d="M42.7064 30.4441L40.584 28.3305H42.7064V30.4441Z" fill="#D4DFFF"/>
<path opacity="0.4" d="M40.584 28.3305L42.7064 26.2173V28.3305H40.584Z" fill="#E9F0FF"/>
<path opacity="0.4" d="M43.9998 27.5049V28.3301H42.7061V26.2165L43.9998 27.5049Z" fill="#AAD0FF"/>
<path opacity="0.4" d="M43.9998 28.3301V29.1553L42.7061 30.4437V28.3301H43.9998Z" fill="#7FB8FF"/>
<path opacity="0.4" d="M38.4619 26.2173L40.5843 24.1037V26.2173H38.4619Z" fill="#D4DFFF"/>
<path opacity="0.4" d="M40.584 24.1037L42.7064 26.2173H40.584V24.1037Z" fill="#E9F0FF"/>
<path opacity="0.4" d="M42.7064 26.2173L40.584 28.3305V26.2173H42.7064Z" fill="#AAD0FF"/>
<path opacity="0.4" d="M40.5843 28.3305L38.4619 26.2173H40.5843V28.3305Z" fill="#7FB8FF"/>
<path opacity="0.4" d="M43.9998 30.4437V31.7321L42.7061 30.4437H43.9998Z" fill="#E9F0FF"/>
<path opacity="0.4" d="M43.9998 29.1553V30.4437H42.7061L43.9998 29.1553Z" fill="#AAD0FF"/>
<path opacity="0.4" d="M38.4618 26.2173L36.3398 24.1037H38.4618V26.2173Z" fill="#D4DFFF"/>
<path opacity="0.4" d="M36.3398 24.1037L38.4618 21.9901V24.1037H36.3398Z" fill="#E9F0FF"/>
<path opacity="0.4" d="M38.4619 21.9901L40.5843 24.1037H38.4619V21.9901Z" fill="#AAD0FF"/>
<path opacity="0.4" d="M40.5843 24.1037L38.4619 26.2173V24.1037H40.5843Z" fill="#7FB8FF"/>
<path opacity="0.4" d="M38.4618 21.9901L36.3398 24.1037V21.9901H38.4618Z" fill="#D4DFFF"/>
<path opacity="0.4" d="M36.3402 24.1037L34.2178 21.9901H36.3402V24.1037Z" fill="#E9F0FF"/>
<path opacity="0.4" d="M34.2178 21.9901L36.3402 19.8765V21.9901H34.2178Z" fill="#AAD0FF"/>
<path opacity="0.4" d="M36.3398 19.8765L38.4618 21.9901H36.3398V19.8765Z" fill="#7FB8FF"/>
<path opacity="0.4" d="M15.1156 28.3309L12.9932 26.2173H15.1156V28.3309Z" fill="#D4DFFF"/>
<path opacity="0.4" d="M12.9932 26.2173L15.1156 24.1037V26.2173H12.9932Z" fill="#E9F0FF"/>
<path opacity="0.4" d="M15.1162 24.1037L17.2386 26.2173H15.1162V24.1037Z" fill="#AAD0FF"/>
<path opacity="0.4" d="M17.2386 26.2173L15.1162 28.3309V26.2173H17.2386Z" fill="#7FB8FF"/>
<path opacity="0.4" d="M10.8711 24.1037L12.9931 21.9901V24.1037H10.8711Z" fill="#D4DFFF"/>
<path opacity="0.4" d="M12.9932 21.9901L15.1156 24.1037H12.9932V21.9901Z" fill="#E9F0FF"/>
<path opacity="0.4" d="M15.1156 24.1037L12.9932 26.2173V24.1037H15.1156Z" fill="#AAD0FF"/>
<path opacity="0.4" d="M12.9931 26.2173L10.8711 24.1037H12.9931V26.2173Z" fill="#7FB8FF"/>
<path opacity="0.4" d="M19.3607 28.3309L17.2383 30.4441V28.3309H19.3607Z" fill="#D4DFFF"/>
<path opacity="0.4" d="M17.2386 30.4441L15.1162 28.3309H17.2386V30.4441Z" fill="#E9F0FF"/>
<path opacity="0.4" d="M15.1162 28.3309L17.2386 26.2173V28.3309H15.1162Z" fill="#AAD0FF"/>
<path opacity="0.4" d="M17.2383 26.2173L19.3607 28.3309H17.2383V26.2173Z" fill="#7FB8FF"/>
<path opacity="0.4" d="M19.3604 28.3309L21.4827 30.4441H19.3604V28.3309Z" fill="#D4DFFF"/>
<path opacity="0.4" d="M21.4827 30.4441L19.3604 32.5577V30.4441H21.4827Z" fill="#E9F0FF"/>
<path opacity="0.4" d="M19.3607 32.5577L17.2383 30.4441H19.3607V32.5577Z" fill="#AAD0FF"/>
<path opacity="0.4" d="M17.2383 30.4441L19.3607 28.3309V30.4441H17.2383Z" fill="#7FB8FF"/>
<path opacity="0.4" d="M10.8714 24.1037L8.74902 21.9901H10.8714V24.1037Z" fill="#D4DFFF"/>
<path opacity="0.4" d="M8.74902 21.9901L10.8714 19.8765V21.9901H8.74902Z" fill="#E9F0FF"/>
<path opacity="0.4" d="M10.8711 19.8765L12.9931 21.9901H10.8711V19.8765Z" fill="#AAD0FF"/>
<path opacity="0.4" d="M12.9931 21.9901L10.8711 24.1037V21.9901H12.9931Z" fill="#7FB8FF"/>
<path opacity="0.4" d="M10.8714 19.8765L8.74902 21.9901V19.8765H10.8714Z" fill="#D4DFFF"/>
<path opacity="0.4" d="M8.74934 21.9901L6.62695 19.8765H8.74934V21.9901Z" fill="#E9F0FF"/>
<path opacity="0.4" d="M6.62695 19.8765L8.74934 17.7632V19.8765H6.62695Z" fill="#AAD0FF"/>
<path opacity="0.4" d="M8.74902 17.7632L10.8714 19.8765H8.74902V17.7632Z" fill="#7FB8FF"/>
<path opacity="0.4" d="M19.3604 32.5577L21.4827 30.4441V32.5577H19.3604Z" fill="#D4DFFF"/>
<path opacity="0.4" d="M21.4834 30.4441L23.6054 32.5577H21.4834V30.4441Z" fill="#E9F0FF"/>
<path opacity="0.4" d="M23.6054 32.5577L21.4834 34.6713V32.5577H23.6054Z" fill="#AAD0FF"/>
<path opacity="0.4" d="M21.4827 34.6713L19.3604 32.5577H21.4827V34.6713Z" fill="#7FB8FF"/>
<path opacity="0.4" d="M29.972 43.1254L27.8496 41.0117H29.972V43.1254Z" fill="#D4DFFF"/>
<path opacity="0.4" d="M27.8496 41.0118L29.972 38.8982V41.0118H27.8496Z" fill="#E9F0FF"/>
<path opacity="0.4" d="M29.9727 38.8982L32.0947 41.0118H29.9727V38.8982Z" fill="#AAD0FF"/>
<path opacity="0.4" d="M32.0947 41.0117L29.9727 43.1254V41.0117H32.0947Z" fill="#7FB8FF"/>
<path opacity="0.4" d="M25.7275 38.8982L27.8499 36.7849V38.8982H25.7275Z" fill="#D4DFFF"/>
<path opacity="0.4" d="M27.8496 36.7849L29.972 38.8982H27.8496V36.7849Z" fill="#E9F0FF"/>
<path opacity="0.4" d="M29.972 38.8982L27.8496 41.0118V38.8982H29.972Z" fill="#AAD0FF"/>
<path opacity="0.4" d="M27.8499 41.0118L25.7275 38.8982H27.8499V41.0118Z" fill="#7FB8FF"/>
<path opacity="0.4" d="M34.2171 43.1254L33.3388 44H32.0947V43.1254H34.2171Z" fill="#D4DFFF"/>
<path opacity="0.4" d="M32.0941 43.1254V44H30.85L29.9717 43.1254H32.0941Z" fill="#E9F0FF"/>
<path opacity="0.4" d="M29.9727 43.1254L32.0947 41.0117V43.1254H29.9727Z" fill="#AAD0FF"/>
<path opacity="0.4" d="M32.0947 41.0117L34.2171 43.1254H32.0947V41.0117Z" fill="#7FB8FF"/>
<path opacity="0.4" d="M35.074 43.979C34.8613 43.9926 34.644 44 34.4294 44H34.2168V43.1254L35.074 43.979Z" fill="#D4DFFF"/>
<path opacity="0.4" d="M34.2171 43.1254V44H33.3389L34.2171 43.1254Z" fill="#7FB8FF"/>
<path opacity="0.4" d="M25.7278 38.8982L23.6055 36.7849H25.7278V38.8982Z" fill="#D4DFFF"/>
<path opacity="0.4" d="M23.6055 36.7849L25.7278 34.6713V36.7849H23.6055Z" fill="#E9F0FF"/>
<path opacity="0.4" d="M25.7275 34.6713L27.8499 36.7849H25.7275V34.6713Z" fill="#AAD0FF"/>
<path opacity="0.4" d="M27.8499 36.7849L25.7275 38.8982V36.7849H27.8499Z" fill="#7FB8FF"/>
<path opacity="0.4" d="M25.7278 34.6713L23.6055 36.7849V34.6713H25.7278Z" fill="#D4DFFF"/>
<path opacity="0.4" d="M23.6054 36.7849L21.4834 34.6713H23.6054V36.7849Z" fill="#E9F0FF"/>
<path opacity="0.4" d="M21.4834 34.6713L23.6054 32.5577V34.6713H21.4834Z" fill="#AAD0FF"/>
<path opacity="0.4" d="M23.6055 32.5577L25.7278 34.6713H23.6055V32.5577Z" fill="#7FB8FF"/>
<path opacity="0.4" d="M15.1153 11.422L10.8705 15.6492L10.8447 11.3963L15.1153 11.422Z" fill="#D4DFFF"/>
<path opacity="0.4" d="M10.871 15.6492L6.57422 11.3703L10.8452 11.3963L10.871 15.6492Z" fill="#E9F0FF"/>
<path opacity="0.4" d="M6.57422 11.3703L10.819 7.14304L10.8452 11.3963L6.57422 11.3703Z" fill="#AAD0FF"/>
<path opacity="0.4" d="M10.8184 7.14304L15.1151 11.422L10.8445 11.3963L10.8184 7.14304Z" fill="#7FB8FF"/>
<path opacity="0.4" d="M6.62588 19.8765L2.3291 15.5975L6.60008 15.6236L6.62588 19.8765Z" fill="#D4DFFF"/>
<path opacity="0.4" d="M2.3291 15.5975L6.57389 11.3703L6.60008 15.6236L2.3291 15.5975Z" fill="#E9F0FF"/>
<path opacity="0.4" d="M6.57422 11.3703L10.871 15.6492L6.60041 15.6236L6.57422 11.3703Z" fill="#AAD0FF"/>
<path opacity="0.4" d="M10.8712 15.6493L6.62638 19.8765L6.60059 15.6236L10.8712 15.6493Z" fill="#7FB8FF"/>
<path opacity="0.4" d="M15.0635 2.91623L19.3602 7.19521L15.0893 7.16913L15.0635 2.91623Z" fill="#D4DFFF"/>
<path opacity="0.4" d="M19.3598 7.19521L15.1151 11.422L15.0889 7.16913L19.3598 7.19521Z" fill="#E9F0FF"/>
<path opacity="0.4" d="M15.1151 11.422L10.8184 7.14304L15.0889 7.16912L15.1151 11.422Z" fill="#AAD0FF"/>
<path opacity="0.4" d="M10.8184 7.14305L15.0631 2.91623L15.0889 7.16913L10.8184 7.14305Z" fill="#7FB8FF"/>
<path opacity="0.4" d="M19.3344 2.94231L15.0635 2.91623L17.9918 0H19.3157L19.3344 2.94231Z" fill="#D4DFFF"/>
<path opacity="0.4" d="M23.6048 2.96839L19.3342 2.94231L19.3154 0H20.624L23.6048 2.96839Z" fill="#E9F0FF"/>
<path opacity="0.4" d="M23.6046 2.968L19.3602 7.19522L19.334 2.94193L23.6046 2.968Z" fill="#AAD0FF"/>
<path opacity="0.4" d="M19.3602 7.19521L15.0635 2.91623L19.334 2.94192L19.3602 7.19521Z" fill="#7FB8FF"/>
<path opacity="0.4" d="M6.62606 19.8765L2.38166 24.1037L2.35547 19.8508L6.62606 19.8765Z" fill="#D4DFFF"/>
<path opacity="0.4" d="M2.38115 24.1029L0 21.7332V19.8364L2.35496 19.8512L2.38115 24.1029Z" fill="#E9F0FF"/>
<path opacity="0.4" d="M2.35496 19.8512L0 19.8364V17.917L2.32877 15.5979L2.35496 19.8512Z" fill="#AAD0FF"/>
<path opacity="0.4" d="M2.3291 15.5975L6.62588 19.8765L2.35529 19.8508L2.3291 15.5975Z" fill="#7FB8FF"/>
<path opacity="0.4" d="M2.38115 24.1029L0 24.0893V21.7332L2.38115 24.1029Z" fill="#D4DFFF"/>
<path opacity="0.4" d="M2.38115 24.1029L0 26.4742V24.0893L2.38115 24.1029Z" fill="#E9F0FF"/>
<path opacity="0.4" d="M23.6048 2.96839L20.624 0H23.5864L23.6048 2.96839Z" fill="#D4DFFF"/>
<path opacity="0.4" d="M26.585 0L23.6043 2.96839L23.5859 0H26.585Z" fill="#7FB8FF"/>
</g>
<path d="M21.2977 19.1731H20.8623V23.9554H21.2977V19.1731Z" fill="#80EF80"/>
<path d="M21.1709 24.0784H20.5889V19.0855L20.8808 19.0937L21.1709 19.0855V24.0784ZM20.7163 23.9531H21.0474V19.214L20.8828 19.2187L20.7163 19.214V23.9531Z" fill="white"/>
<path d="M20.7138 24.0784H20.1318V19.112L20.5262 19.1019V19.084L20.7138 19.0878V24.0784ZM20.2573 23.953H20.5884V19.2264L20.2573 19.2346V23.953Z" fill="white"/>
<path d="M33.3462 34.4568L30.6414 34.4541C30.351 34.4051 29.8022 34.1166 29.8022 33.374V30.1798C28.4947 30.1884 21.7566 30.2323 20.5078 30.2152L20.5137 29.7816C21.886 29.8003 29.937 29.7454 30.0183 29.745H30.2376V33.374C30.2376 33.8827 30.6085 34.0018 30.7 34.0232H33.3462C33.5858 34.0232 33.7269 33.4109 33.7491 33.0832L33.7523 33.0571C34.0458 31.511 34.0165 27.0958 34.0161 27.0514V27.0359L34.0185 27.0203C34.6348 22.5864 33.9899 20.031 33.9833 20.008C33.9665 19.9527 33.9442 19.8652 33.9203 19.755C33.8363 19.3934 33.6956 18.7881 33.4337 18.2759C33.1793 17.7761 32.1646 17.3596 31.7948 17.2413L31.6178 17.1848L31.6463 17.0015C31.6819 16.7753 31.7096 16.2728 31.71 16.2678L31.7217 16.0502L31.9402 16.063C32.4035 16.0777 32.8672 16.0559 33.327 15.998C33.3531 15.9965 33.3786 15.9893 33.4017 15.977C33.4248 15.9647 33.4449 15.9476 33.4607 15.9268C33.5389 15.8221 33.5365 15.6239 33.5275 15.5426C33.4626 15.3451 33.3871 15.1512 33.3012 14.9618C33.232 14.8166 33.0491 14.7182 32.9643 14.6839C32.8009 14.6613 31.855 14.5302 31.6396 14.5138C31.6013 14.511 31.563 14.5205 31.5303 14.5408C31.4976 14.561 31.4723 14.5911 31.4579 14.6267C31.4489 14.6843 31.4638 14.9537 31.4778 15.2137C31.4872 15.381 31.4978 15.5749 31.5071 15.7898C31.5243 16.1759 31.5009 16.462 31.4395 16.6177L31.3801 16.7668L31.2101 16.7605C31.1617 16.7569 31.1157 16.7379 31.079 16.7063C31.0423 16.6747 31.0167 16.6321 31.0061 16.585C30.9279 16.2444 30.2521 14.5504 29.5786 13.06C28.9489 11.6665 28.544 10.7965 28.166 10.4765C27.8143 10.1776 26.8457 10.0752 26.6858 10.0873C26.3868 10.1056 25.9432 10.1223 25.1591 10.0873C24.3426 10.0511 20.7247 9.92304 20.6884 9.92187L20.7036 9.48825C20.7404 9.48825 24.3602 9.61787 25.1783 9.65407C25.6706 9.68113 26.1642 9.68087 26.6565 9.65329C26.8488 9.642 27.9624 9.73737 28.4459 10.1469C28.8958 10.5279 29.2991 11.3905 29.973 12.8825C30.3537 13.7248 30.7625 14.6971 31.0514 15.432C31.0479 15.3643 31.0444 15.2993 31.0408 15.2374C31.019 14.8377 31.01 14.6567 31.0256 14.559C31.0596 14.341 31.3039 14.0529 31.6705 14.0814C31.9187 14.1 32.9995 14.2515 33.0468 14.2581L33.0858 14.2678C33.13 14.283 33.5244 14.4274 33.6905 14.7762C33.7877 14.9889 33.8728 15.207 33.9454 15.4293L33.9532 15.4616C33.9602 15.5068 34.0165 15.9081 33.8074 16.1868C33.7567 16.2539 33.6927 16.3101 33.6195 16.3518C33.5462 16.3935 33.4652 16.4198 33.3813 16.4293C32.9664 16.4798 32.5486 16.5041 32.1306 16.5021C32.1228 16.6165 32.1118 16.7598 32.0985 16.887C32.5132 17.0385 33.5056 17.4557 33.8215 18.0785C34.1072 18.639 34.2553 19.2762 34.3437 19.6573C34.3667 19.7562 34.3827 19.8344 34.3995 19.8838C34.5508 20.3899 35.0023 23.0842 34.4511 27.0643C34.4511 27.4014 34.4746 31.5597 34.1818 33.1252C34.1685 33.314 34.054 34.4568 33.3462 34.4568Z" fill="#80EF80"/>
<path d="M29.3779 15.9829C29.2997 15.9829 29.2196 15.9794 29.1321 15.9723C28.1252 15.8898 22.1313 15.7092 20.5416 15.7275L20.5366 15.2939C22.1313 15.2744 28.1549 15.457 29.1676 15.5399C29.6202 15.5788 29.7406 15.494 29.7613 15.4753C29.2775 14.3924 28.0286 11.6217 27.8629 11.3493C27.7101 11.0982 27.3634 11.0939 27.3548 11.0939H27.3419H27.329C25.9672 10.948 20.5303 10.8849 20.4756 10.8841L20.4807 10.4505C20.7042 10.4532 25.9676 10.5143 27.3653 10.6619C27.4631 10.6642 27.9724 10.6969 28.2335 11.1262C28.4457 11.4766 29.9923 14.9354 30.1698 15.3301L30.1753 15.3437C30.1977 15.4098 30.2034 15.4804 30.1919 15.5492C30.1805 15.6181 30.1522 15.683 30.1096 15.7384C29.9841 15.9011 29.7449 15.9829 29.3779 15.9829Z" fill="#80EF80"/>
<path d="M30.591 30.1861C30.3283 30.1861 30.1219 30.1814 30.0137 30.1783L30.0258 29.745C31.105 29.775 32.7528 29.712 33.0397 29.48C33.4916 29.1152 33.9043 28.524 34.0212 28.074L34.4426 28.1814C34.303 28.7198 33.8387 29.392 33.3141 29.8163C32.9182 30.1362 31.4571 30.1861 30.591 30.1861Z" fill="#80EF80"/>
<path d="M28.3003 21.4619C27.5693 21.4619 27.4013 21.2571 27.2922 20.6795C27.2309 20.3502 27.2461 19.815 27.2696 19.4238C27.2856 19.161 27.5166 18.9563 27.7902 18.9524C28.6462 18.9473 31.4979 18.9325 32.2804 18.9543C32.624 18.9641 32.8804 19.0633 33.0422 19.2498C33.3049 19.5522 33.2529 19.9971 33.2107 20.3548C33.2056 20.4004 33.2001 20.4455 33.1955 20.4895C33.1368 21.0559 32.6033 21.2704 32.3297 21.3046H32.3125C32.1749 21.3124 28.9186 21.4619 28.3003 21.4619ZM27.7921 19.386C27.772 19.3841 27.7518 19.3896 27.7354 19.4014C27.719 19.4132 27.7075 19.4306 27.703 19.4502C27.6714 19.9683 27.6772 20.377 27.7191 20.5997C27.7918 20.9889 27.7972 21.0279 28.2987 21.0279C28.8897 21.0279 32.0698 20.8827 32.2808 20.8722C32.3379 20.8628 32.726 20.7873 32.7616 20.444C32.7663 20.3981 32.7718 20.351 32.7776 20.3031C32.8112 20.0158 32.8495 19.6904 32.7123 19.5324C32.6342 19.4417 32.4837 19.3926 32.2675 19.3868C31.4917 19.365 28.6462 19.3798 27.7921 19.3868V19.386Z" fill="#80EF80"/>
<path d="M26.601 24.5856H20.5105V24.1519H26.1656V18.7025C26.1656 18.3786 25.8212 18.3424 25.752 18.3385L25.7274 18.3358C23.1243 17.9014 20.532 17.8415 20.5059 17.8411L20.5152 17.4075C20.5414 17.4075 23.1563 17.4682 25.7872 17.9061C26.0769 17.924 26.601 18.1108 26.601 18.7025V24.5856Z" fill="#80EF80"/>
<path d="M25.2474 23.971H20.2627V23.6596H25.2474C25.2883 23.6611 25.3291 23.654 25.3671 23.6386C25.405 23.6232 25.4392 23.6 25.4674 23.5704C25.6324 23.4015 25.6594 23.034 25.6558 22.9068V19.4759C25.6558 19.4125 25.6418 19.3681 25.6136 19.3444C25.5655 19.3035 25.4721 19.3078 25.4432 19.3125L25.4287 19.3144H25.4131L20.2588 19.1898L20.2662 18.8784L25.4065 19.0046C25.4694 18.9964 25.6644 18.9835 25.8118 19.1062C25.8821 19.1649 25.9681 19.2766 25.9681 19.4759V22.9036C25.9681 22.9589 25.9779 23.4941 25.6926 23.7872C25.635 23.8466 25.5658 23.8936 25.4892 23.9252C25.4126 23.9568 25.3303 23.9724 25.2474 23.971Z" fill="#80EF80"/>
<path d="M27.7046 19.4623L27.2695 19.4491C27.2871 18.8839 27.465 18.4448 27.8093 18.1058C27.9594 17.9586 28.1697 17.8777 28.6301 17.7002C28.9202 17.5889 29.3173 17.4363 29.8668 17.2035C30.894 16.7687 31.0074 16.548 31.0117 16.5387C31.0011 16.5734 31.0036 16.6108 31.0187 16.6438L31.4252 16.4854C31.5448 16.7909 31.091 17.1564 30.038 17.6021C29.4818 17.838 29.0804 17.9913 28.7873 18.1046C28.3964 18.2549 28.201 18.3304 28.1142 18.4141C27.8527 18.6714 27.7186 19.0139 27.7046 19.4623Z" fill="#80EF80"/>
<path d="M26.5936 18.7593L26.1738 18.6449C26.1867 18.5986 26.5057 17.5032 28.1493 16.9758C28.4709 16.8726 28.7528 16.7858 29.0041 16.7088C29.9543 16.4176 30.4315 16.2713 30.9193 15.8801L31.1929 16.2179C30.6403 16.6609 30.1048 16.8252 29.1331 17.1233C28.8833 17.2012 28.6031 17.286 28.2837 17.3884C26.861 17.8442 26.5964 18.7504 26.5936 18.7593Z" fill="#80EF80"/>
<path d="M27.0605 21.7702C28.0862 21.7427 29.1108 21.701 30.1343 21.6452C30.6458 21.6172 31.1563 21.5825 31.6657 21.5413C32.1738 21.4988 32.6851 21.4494 33.1729 21.3626L33.2389 21.7908C32.7109 21.8465 32.1973 21.8589 31.6813 21.8659C31.1654 21.8729 30.6522 21.8698 30.1386 21.8616C29.1114 21.845 28.0854 21.8145 27.0605 21.7702Z" fill="#80EF80"/>
<path d="M32.3574 18.9602C32.4971 18.9628 32.6357 18.9844 32.7694 19.0244C32.9128 19.0652 33.0455 19.137 33.1579 19.2346C33.2796 19.344 33.3607 19.491 33.3882 19.6519C33.4085 19.8204 33.3956 19.9142 33.3999 20.0337C33.4061 20.4977 33.428 20.9699 33.4331 21.4428C33.4382 21.9157 33.4355 22.3918 33.369 22.8729C33.334 23.1152 33.2755 23.3535 33.1943 23.5844C33.1498 23.7168 33.0706 23.835 32.9649 23.9266C32.8402 24.0185 32.7018 24.0434 32.5834 24.0636L32.2316 24.1142C32.1085 24.1306 31.9908 24.1387 31.8724 24.1485C31.6359 24.166 31.3998 24.1796 31.1641 24.1928L29.7488 24.2602L26.9189 24.3688L29.7422 24.152L31.1516 24.0305C31.3861 24.0087 31.6207 23.9858 31.8552 23.9597C31.9724 23.9457 32.0897 23.9324 32.1988 23.9134L32.5455 23.8503C32.6576 23.8285 32.7569 23.7989 32.8218 23.746C32.8899 23.6776 32.9392 23.5931 32.9652 23.5004C33.031 23.2845 33.0761 23.063 33.0997 22.8386C33.1447 22.3856 33.1298 21.9181 33.1075 21.4529C33.0852 20.9878 33.0446 20.5187 33.02 20.0446C33.0133 19.9279 33.0133 19.7874 33.0008 19.7235C32.9859 19.6509 32.9461 19.5857 32.8882 19.539C32.7741 19.4398 32.5501 19.3911 32.3672 19.3938L32.3574 18.9602Z" fill="#80EF80"/>
<path d="M27.0605 23.3458C28.087 23.3071 29.1121 23.2532 30.1359 23.1839C30.6471 23.1473 31.158 23.106 31.6665 23.0554C32.175 23.0048 32.6874 22.9437 33.1572 22.8304L33.2542 23.2532C32.7171 23.3427 32.2063 23.3594 31.6884 23.3801C31.1705 23.4007 30.6577 23.3999 30.1433 23.4003C29.1145 23.398 28.087 23.3798 27.0605 23.3458Z" fill="#80EF80"/>
<path d="M25.4707 19.1556H25.2217V23.816H25.4707V19.1556Z" fill="#80EF80"/>
<path d="M24.9824 19.1439H24.7334V23.8157H24.9824V19.1439Z" fill="#80EF80"/>
<path d="M24.4951 19.1314H24.2461V23.816H24.4951V19.1314Z" fill="#80EF80"/>
<path d="M24.0068 19.1201H23.7578V23.816H24.0068V19.1201Z" fill="#80EF80"/>
<path d="M23.5195 19.1077H23.2705V23.816H23.5195V19.1077Z" fill="#80EF80"/>
<path d="M23.0312 19.0968H22.7822V23.816H23.0312V19.0968Z" fill="#80EF80"/>
<path d="M22.5439 19.1314H22.2949V23.816H22.5439V19.1314Z" fill="#80EF80"/>
<path d="M22.0566 19.0735H21.8076V23.816H22.0566V19.0735Z" fill="#80EF80"/>
<path d="M21.5683 19.0618H21.3193V23.816H21.5683V19.0618Z" fill="#80EF80"/>
<path d="M27.4461 30.1047C27.3152 29.9451 26.166 28.522 26.166 27.6766V24.368H26.6014V27.6766C26.6014 28.2624 27.4547 29.4282 27.783 29.8299L27.4461 30.1047Z" fill="#80EF80"/>
<path d="M24.7811 28.8311C23.0043 28.8311 20.6583 28.8159 20.5098 28.8147L20.5129 28.3811C20.568 28.3811 26.0307 28.4177 26.678 28.3811L26.7026 28.814C26.4763 28.8268 25.7055 28.8311 24.7811 28.8311Z" fill="#80EF80"/>
<path d="M24.5634 27.2262C23.401 27.2262 21.8794 27.211 20.5078 27.1931L20.5133 26.7595C22.624 26.7872 26.0675 26.8128 26.3297 26.7665C26.322 26.7682 26.3145 26.7704 26.3071 26.7731L26.4611 27.1795C26.3677 27.2138 25.6113 27.2262 24.5634 27.2262Z" fill="#80EF80"/>
<path d="M24.995 27.009H24.5596V28.6143H24.995V27.009Z" fill="#80EF80"/>
<path d="M30.4299 34.1369L30.0781 33.88C30.5433 33.2494 30.6195 30.8439 30.6093 29.97L31.0447 29.9653C31.0498 30.3013 31.0651 33.2755 30.4299 34.1369Z" fill="#80EF80"/>
<path d="M26.9189 26.018C28.1056 25.9012 29.2927 25.8269 30.4789 25.7572C31.0711 25.7183 31.6656 25.6934 32.2535 25.6486L32.4716 25.6303C32.5497 25.6256 32.6025 25.6159 32.6799 25.6081C32.7703 25.5961 32.8619 25.6186 32.9363 25.6712C32.9866 25.7076 33.0301 25.7525 33.0649 25.8039C33.1161 25.8808 33.1574 25.9638 33.1876 26.0511C33.2416 26.2041 33.2809 26.362 33.3049 26.5224C33.317 26.6003 33.326 26.6781 33.3326 26.7583L33.3471 26.981C33.3666 27.2737 33.3916 27.5839 33.3522 27.9078C33.3346 28.0816 33.2846 28.2507 33.2048 28.4064C33.1577 28.4952 33.0942 28.5745 33.0176 28.6399C32.9381 28.7068 32.8446 28.7551 32.744 28.7812C32.6616 28.7997 32.578 28.8128 32.4938 28.8202L32.2679 28.842L31.82 28.8774C31.5218 28.8992 31.2235 28.914 30.9253 28.9241C30.3288 28.9482 29.732 28.9531 29.1348 28.9389C28.8361 28.928 28.5375 28.9151 28.2397 28.8883C27.941 28.867 27.6448 28.8198 27.3544 28.7474C27.502 28.764 27.6506 28.772 27.7992 28.7715C27.9469 28.7742 28.0954 28.7715 28.2432 28.768C28.5395 28.759 28.8353 28.7462 29.1312 28.7256C29.7226 28.6898 30.3132 28.6388 30.903 28.5862L31.7868 28.4986L32.2261 28.4488L32.4434 28.42C32.5071 28.4124 32.5702 28.4011 32.6326 28.3861C32.6771 28.3725 32.7183 28.3496 32.7534 28.3191C32.7886 28.2886 32.8169 28.2511 32.8366 28.209C32.8894 28.099 32.9215 27.9803 32.9312 27.8587C32.9613 27.5933 32.9371 27.3091 32.9148 27.0125L32.9031 26.7918C32.898 26.7237 32.8909 26.6548 32.8812 26.5867C32.8633 26.4544 32.8331 26.3241 32.7909 26.1974C32.7734 26.1444 32.7496 26.0935 32.7201 26.046C32.7136 26.0358 32.7059 26.0264 32.6971 26.018C32.7112 26.0254 32.7274 26.028 32.7432 26.0254C32.6725 26.032 32.579 26.0452 32.5087 26.0483L32.282 26.0608C31.6828 26.0826 31.0891 26.0997 30.4934 26.0997C29.2993 26.1005 28.1095 26.0822 26.9189 26.018Z" fill="#80EF80"/>
<path d="M26.8252 27.0581C27.8712 27.0256 28.9162 26.9785 29.9603 26.9168C30.4815 26.8854 31.0026 26.8465 31.5238 26.8C32.0421 26.7529 32.5619 26.7011 33.0661 26.6159L33.1252 27.0441C32.5924 27.0962 32.0671 27.1118 31.5414 27.1219C31.0157 27.132 30.4915 27.1336 29.9678 27.1289C28.9184 27.1232 27.8709 27.0996 26.8252 27.0581Z" fill="#80EF80"/>
<path d="M8.35282 26.3753C8.36081 26.3756 8.36878 26.3763 8.37666 26.3776C8.38018 26.3726 8.38409 26.3702 8.38526 26.3679C8.37499 26.3723 8.36399 26.3748 8.35282 26.3753ZM8.35282 26.3753C8.36081 26.3756 8.36878 26.3763 8.37666 26.3776C8.38018 26.3726 8.38409 26.3702 8.38526 26.3679C8.37499 26.3723 8.36399 26.3748 8.35282 26.3753ZM8.35282 26.3753C8.36081 26.3756 8.36878 26.3763 8.37666 26.3776C8.38018 26.3726 8.38409 26.3702 8.38526 26.3679C8.37499 26.3723 8.36399 26.3748 8.35282 26.3753ZM8.35282 26.3753C8.36081 26.3756 8.36878 26.3763 8.37666 26.3776C8.38018 26.3726 8.38409 26.3702 8.38526 26.3679C8.37499 26.3723 8.36399 26.3748 8.35282 26.3753ZM20.7432 10.4941V9.52601C20.5087 9.51861 20.3711 9.51355 20.3711 9.51355C20.3711 9.51355 16.7259 9.64473 15.8988 9.68209C15.0718 9.71946 14.6297 9.69572 14.396 9.68209C14.2068 9.66964 13.1741 9.77629 12.7598 10.1328C12.3455 10.4894 11.9488 11.357 11.2906 12.8389C10.8031 13.9377 10.2743 15.2425 10.0105 15.9719C9.9483 16.1342 9.89455 16.2996 9.84944 16.4674C9.84922 16.4696 9.84829 16.4716 9.84678 16.4732C9.84527 16.4748 9.84328 16.4758 9.84113 16.4761C9.83897 16.4764 9.83677 16.476 9.83488 16.4749C9.83298 16.4738 9.83151 16.4722 9.83068 16.4702C9.80684 16.4055 9.7572 16.2125 9.7783 15.7181C9.80684 15.07 9.84436 14.6119 9.8256 14.4889C9.8038 14.3979 9.75005 14.3177 9.67408 14.2628C9.5981 14.2078 9.50489 14.1817 9.41128 14.1892C9.16738 14.2079 8.04912 14.3674 8.04912 14.3674C8.04912 14.3674 7.70203 14.4889 7.57031 14.7703C7.47717 14.9783 7.39574 15.1913 7.32641 15.4083C7.32641 15.4083 7.22166 16.0735 7.71063 16.1393C8.18416 16.1994 8.66177 16.2214 9.13885 16.2051C9.13885 16.2051 9.16738 16.7313 9.2049 16.9742C9.2049 16.9742 7.79037 17.4339 7.4382 18.1365C7.08603 18.8391 6.94571 19.6986 6.87457 19.938C6.80343 20.1773 6.24176 22.8355 6.83392 27.1694C6.83392 27.1694 6.8304 27.733 6.83783 28.5372C6.83783 28.6734 6.84017 28.817 6.84252 28.9654C6.86363 30.4184 6.92616 32.3759 7.10127 33.3226C7.10127 33.3226 7.17749 34.486 7.72236 34.486H10.3908C10.5535 34.4488 10.7018 34.3652 10.8176 34.2455C10.8454 34.217 10.8704 34.186 10.8923 34.1528C10.9841 34.024 11.0486 33.8481 11.0486 33.604V30.1315H11.108L13.3786 30.1463C13.5542 30.1463 13.7358 30.1472 13.9234 30.149C16.3655 30.165 19.6136 30.1798 20.5157 30.1701C20.5806 30.1701 20.6565 30.1701 20.7448 30.1724V28.5683C20.6787 28.5683 18.2823 28.5847 16.4801 28.5847C15.5568 28.5847 14.788 28.5808 14.5668 28.5683C14.7435 28.2375 14.8728 27.9066 14.8728 27.6478V26.9471C14.9385 26.9716 15.6104 26.9806 16.4801 26.9806C18.1932 26.9806 20.6674 26.9483 20.7448 26.9471V23.8763H15.8199C15.787 23.876 15.7542 23.8731 15.7218 23.8678C15.7006 23.8638 15.6797 23.8583 15.6593 23.8514C15.6291 23.8405 15.6003 23.826 15.5737 23.8082C15.5677 23.8053 15.5621 23.8015 15.5572 23.7969C15.5449 23.7893 15.5332 23.7806 15.5224 23.7709C15.5006 23.7513 15.4803 23.7302 15.4615 23.7078C15.454 23.6992 15.4466 23.688 15.4404 23.6794C15.4201 23.6531 15.4027 23.6248 15.3884 23.5949C15.3792 23.5785 15.3708 23.5616 15.3634 23.5443C15.3559 23.5268 15.3485 23.5097 15.3423 23.4922C15.336 23.4746 15.3298 23.4563 15.3247 23.4388C15.3196 23.4213 15.3137 23.4019 15.3086 23.3832C15.3036 23.3645 15.3 23.3497 15.2961 23.3326C15.2779 23.2484 15.2659 23.1631 15.2602 23.0772C15.2602 23.0671 15.2602 23.0574 15.2602 23.0461C15.2563 22.9869 15.2574 22.9484 15.2574 22.9484V19.4596C15.2574 19.0657 15.6518 19.1373 15.6518 19.1373H15.723L16.1795 19.1264L17.0925 19.1038L17.5491 19.0929L18.0056 19.0816L18.9187 19.0583L19.3752 19.047L19.8317 19.0357L20.2261 19.0259V19.0112H20.2886L20.5161 19.0174L20.7452 19.0112V15.4219C20.667 15.4219 20.5947 15.4219 20.5298 15.4219C20.5253 15.4227 20.5207 15.4227 20.5161 15.4219C20.5116 15.4227 20.507 15.4227 20.5025 15.4219C18.8679 15.4048 12.8911 15.5905 11.9183 15.6734C10.9454 15.7563 11.0975 15.3254 11.0975 15.3254C11.0975 15.3254 12.8102 11.4251 13.0205 11.0721C13.2433 10.7004 13.7159 10.7054 13.7159 10.7054C14.9702 10.5692 19.5683 10.5034 20.445 10.4925C20.445 10.4925 20.47 10.4925 20.5173 10.4925C20.5646 10.4925 20.5908 10.4925 20.5908 10.4925C20.633 10.4937 20.6854 10.4948 20.7452 10.496L20.7432 10.4941ZM11.1158 27.1336C10.5909 27.1382 10.0672 27.1371 9.54222 27.1258C9.08452 27.116 8.62799 27.1036 8.16638 27.0639C8.14527 27.3453 8.12534 27.6166 8.15387 27.8704C8.16395 27.994 8.19597 28.1149 8.24846 28.2273C8.26782 28.2699 8.29601 28.3079 8.33117 28.3388C8.36634 28.3698 8.40769 28.3929 8.45249 28.4068C8.51487 28.4218 8.57802 28.4335 8.64167 28.4418L8.85821 28.4702L9.29832 28.5208L10.1817 28.6104C10.7715 28.6633 11.3625 28.7166 11.9535 28.7513C12.2493 28.7723 12.5456 28.7847 12.8415 28.796C12.9896 28.7999 13.1378 28.8023 13.2855 28.7984C13.434 28.7995 13.5825 28.7913 13.7299 28.7738C13.4399 28.8476 13.1439 28.8956 12.8454 28.9175C12.5468 28.9459 12.2482 28.9583 11.9496 28.9681C11.3523 28.9834 10.7556 28.9788 10.1594 28.9545C9.86077 28.9447 9.56215 28.9299 9.26471 28.9062L8.81717 28.8704L8.59047 28.8482C8.50649 28.8403 8.42307 28.8273 8.3407 28.8093C8.24007 28.7818 8.14668 28.7328 8.0671 28.6656C7.9901 28.5992 7.92632 28.5189 7.87909 28.429C7.80006 28.2704 7.75041 28.099 7.73252 27.9229C7.69343 27.5933 7.71767 27.2776 7.7376 26.9802L7.75245 26.7533C7.75871 26.6727 7.76731 26.5937 7.77981 26.5131C7.80373 26.3499 7.84299 26.1894 7.89707 26.0335C7.92699 25.9448 7.96837 25.8602 8.02019 25.7821C8.05456 25.7299 8.09797 25.6841 8.1484 25.647C8.22226 25.5936 8.31391 25.5705 8.40441 25.5824C8.48259 25.5902 8.53535 25.6011 8.61353 25.6062L8.83124 25.6233C9.41753 25.6704 10.0132 25.6941 10.6054 25.735C11.792 25.8055 12.9791 25.8825 14.1658 26.0001C12.9752 26.0647 11.7846 26.083 10.5952 26.0779C9.99953 26.0779 9.40464 26.0631 8.80661 26.0409L8.57991 26.0285C8.52011 26.0262 8.44428 26.0149 8.37979 26.0086C8.34769 26.0639 8.31986 26.1216 8.29654 26.1811C8.25469 26.3102 8.22461 26.4428 8.20664 26.5773C8.20429 26.5995 8.20038 26.6205 8.19921 26.6419C8.64714 26.7112 9.10484 26.7556 9.56294 26.7976C10.0816 26.8447 10.603 26.8841 11.124 26.9144C12.1682 26.979 13.2132 27.0269 14.2592 27.058C13.2109 27.098 12.1631 27.1232 11.1158 27.1336ZM13.2758 18.7768C13.2786 18.7763 13.2815 18.7763 13.2844 18.7768C13.3552 18.7761 13.424 18.8009 13.478 18.8466C13.5319 18.8924 13.5674 18.9561 13.5779 19.0259C13.5785 19.0293 13.5785 19.0327 13.5779 19.0361C13.5787 19.0397 13.5787 19.0434 13.5779 19.047C13.5826 19.1275 13.5877 19.2194 13.5916 19.3171C13.6041 19.6355 13.6053 20.022 13.5591 20.2711C13.4696 20.7542 13.3848 20.8869 12.7653 20.8869C12.1458 20.8869 8.76205 20.7312 8.76205 20.7312C8.76205 20.7312 8.14253 20.6534 8.08508 20.0968C8.07765 20.0263 8.06905 19.9531 8.06045 19.8776L8.05772 19.9418C8.03427 20.3914 7.99831 20.8313 7.97564 21.2738C8.44233 21.3544 8.92856 21.4027 9.41402 21.4424C9.92214 21.4856 10.4342 21.5202 10.9454 21.5487C11.9679 21.6042 12.9921 21.6464 14.018 21.6752C12.9932 21.7211 11.9673 21.7525 10.9403 21.7694C10.4267 21.7779 9.9125 21.7791 9.3976 21.7729C8.91996 21.7666 8.4435 21.7546 7.95726 21.7086C7.94211 22.0618 7.94955 22.4156 7.97954 22.7678C8.43217 22.8744 8.92739 22.9301 9.41284 22.9834C9.92097 23.0356 10.4314 23.0764 10.9443 23.1146C11.9668 23.1854 12.9913 23.2404 14.018 23.2796C12.9921 23.3131 11.9649 23.3317 10.9364 23.3353C10.4217 23.3353 9.90651 23.3302 9.39135 23.3131C8.94732 23.2956 8.50956 23.2808 8.05654 23.2189C8.07413 23.2968 8.09563 23.3746 8.11869 23.4482C8.15504 23.5509 8.1996 23.6428 8.26566 23.6922C8.33171 23.7417 8.43373 23.774 8.54552 23.795L8.89143 23.8581C9.00205 23.8779 9.12048 23.8915 9.23461 23.9051C9.46913 23.9312 9.70365 23.9534 9.93621 23.9772L11.3433 24.1009C12.2626 24.1761 13.0541 24.2383 14.1599 24.3201C13.22 24.2864 12.2796 24.25 11.3386 24.2111L9.92761 24.1414C9.69309 24.1278 9.45858 24.1142 9.22093 24.0955C9.10367 24.0858 8.98641 24.0784 8.86251 24.062L8.51073 24.0114C8.39347 23.9916 8.25667 23.9694 8.1312 23.8787C8.00573 23.788 7.93968 23.6533 7.89238 23.5369C7.80919 23.3022 7.74962 23.0598 7.71454 22.8133C7.64731 22.3252 7.6434 21.8402 7.64731 21.3614C7.65122 20.8827 7.67467 20.4012 7.68092 19.9302V19.7542C7.68092 19.7246 7.68092 19.6997 7.68092 19.6639L7.68835 19.5471C7.70875 19.3833 7.78311 19.2308 7.89981 19.1135C8.01664 19.007 8.15149 18.9218 8.2981 18.8621C8.42317 18.8247 8.55137 18.7986 8.68115 18.7842C8.68725 18.7836 8.69341 18.7836 8.69952 18.7842H8.70577C8.73313 18.7807 8.76323 18.7796 8.79293 18.778C9.56958 18.7558 12.369 18.7694 13.2758 18.7768ZM8.35087 26.3753C8.35886 26.3756 8.36682 26.3763 8.37471 26.3776C8.37823 26.3726 8.38214 26.3702 8.38331 26.3679C8.37364 26.3721 8.36333 26.3746 8.35282 26.3753H8.35087ZM8.35087 26.3753C8.35886 26.3756 8.36682 26.3763 8.37471 26.3776C8.37823 26.3726 8.38214 26.3702 8.38331 26.3679C8.37364 26.3721 8.36333 26.3746 8.35282 26.3753H8.35087ZM8.35087 26.3753C8.35886 26.3756 8.36682 26.3763 8.37471 26.3776C8.37823 26.3726 8.38214 26.3702 8.38331 26.3679C8.37364 26.3721 8.36333 26.3746 8.35282 26.3753H8.35087ZM8.35087 26.3753C8.35886 26.3756 8.36682 26.3763 8.37471 26.3776C8.37823 26.3726 8.38214 26.3702 8.38331 26.3679C8.37364 26.3721 8.36333 26.3746 8.35282 26.3753H8.35087Z" fill="white"/>
<path d="M20.0811 24.0005H19.374V18.9248L20.0811 18.9073V24.0005ZM19.623 23.7522H19.8317V19.1618L19.623 19.1669V23.7522Z" fill="white"/>
<path d="M19.6235 24.0005H18.918V18.936L19.625 18.9185L19.6235 24.0005ZM19.1654 23.7522H19.3745V19.1731L19.1654 19.1781V23.7522Z" fill="white"/>
<path d="M19.1652 24.0005H18V18.959L19.1652 18.9298V24.0005ZM18.2494 23.7522H18.9178V19.1844L18.2509 19.2011L18.2494 23.7522Z" fill="white"/>
<path d="M18.2491 24.0005H17.542V18.9703L18.2491 18.9528V24.0005ZM17.791 23.7522H17.9997V19.207L17.791 19.2124V23.7522Z" fill="white"/>
<path d="M17.7911 24.0005H17.084V18.9816L17.7911 18.9641V24.0005ZM17.333 23.7522H17.5421V19.2186L17.333 19.2237V23.7522Z" fill="white"/>
<path d="M17.3331 24.0005H16.626V18.9929L17.3331 18.9753V24.0005ZM16.8753 23.7522H17.0841V19.2287L16.8753 19.2338V23.7522Z" fill="white"/>
<path d="M16.8754 24.0005H16.168V19.0042L16.8754 18.9867V24.0005ZM16.4162 23.7522H16.6249V19.2412L16.4162 19.2463V23.7522Z" fill="white"/>
<path d="M16.4163 24.0005H15.9335C15.8942 24.0002 15.855 23.9967 15.8163 23.99L15.7119 23.9729V19.0155L16.419 18.998L16.4163 24.0005ZM15.9582 23.7522H16.1669V19.2525L15.9582 19.2576V23.7522Z" fill="white"/>
<path d="M15.9592 24.0188L15.8102 23.9893C15.222 23.8725 15.2423 22.9827 15.2435 22.9445V19.4596C15.2435 19.2685 15.3217 19.1626 15.3885 19.1093C15.5292 18.9925 15.7164 19.0077 15.7719 19.0151L15.9592 19.0119V24.0188ZM15.6945 19.2568C15.6422 19.2541 15.5905 19.2689 15.5476 19.2988C15.5108 19.3296 15.4925 19.3837 15.4925 19.4596V22.9484C15.4925 22.9574 15.4854 23.4673 15.7102 23.6701V19.2572L15.6945 19.2568Z" fill="white"/>
<path d="M18.7074 19.1089H18.458V23.8764H18.7074V19.1089Z" fill="white"/>
<path d="M16.6989 26.9689H16.2627V28.6162H16.6989V26.9689Z" fill="white"/>
<path d="M33.39 8.00914C34.8702 8.00914 36.0702 9.24539 36.0702 10.7697V33.2292C36.0702 34.7539 34.8702 35.9897 33.39 35.9897H24.0093C22.5291 35.9897 21.3291 34.7539 21.3291 33.2292V10.7697C21.3291 9.24539 22.5291 8.00914 24.0093 8.00914H33.39ZM33.39 6.62888H24.0093C21.7888 6.62888 19.9893 8.48285 19.9893 10.7697V33.2292C19.9893 35.5164 21.7872 37.37 24.0093 37.37H33.39C35.6102 37.37 37.4101 35.5164 37.4101 33.2292V10.7697C37.4101 8.48285 35.6102 6.62888 33.39 6.62888Z" fill="white"/>
<path d="M29.9168 31.4375C29.6352 31.1567 29.2645 30.9818 28.8679 30.9427C28.4713 30.9036 28.0734 31.0026 27.7419 31.2229C27.4104 31.4433 27.1659 31.7712 27.05 32.151C26.9341 32.5307 26.9541 32.9387 27.1064 33.3055C27.2587 33.6722 27.5341 33.975 27.8855 34.1622C28.2369 34.3495 28.6426 34.4096 29.0335 34.3323C29.4244 34.255 29.7763 34.0452 30.0292 33.7385C30.2822 33.4318 30.4205 33.0472 30.4207 32.6503C30.4211 32.4251 30.3768 32.2019 30.2904 31.9938C30.2039 31.7856 30.077 31.5966 29.9168 31.4375ZM29.8226 33.1638C29.8225 33.258 29.7849 33.3484 29.718 33.4151C29.6511 33.4818 29.5604 33.5193 29.4658 33.5195H27.9328C27.8381 33.5193 27.7474 33.4818 27.6804 33.4151C27.6135 33.3484 27.5758 33.258 27.5756 33.1638V32.2463C27.5757 32.152 27.6133 32.0616 27.6803 31.995C27.7473 31.9284 27.8381 31.8909 27.9328 31.8909H28.2783V31.7395C28.2784 31.7207 28.2822 31.702 28.2895 31.6847C28.2968 31.6673 28.3075 31.6516 28.3209 31.6383C28.3343 31.6251 28.3503 31.6146 28.3678 31.6075C28.3853 31.6005 28.404 31.5969 28.423 31.597H28.9776C29.0155 31.597 29.0519 31.6121 29.0787 31.6388C29.1056 31.6655 29.1206 31.7017 29.1206 31.7395V31.8909H29.4666C29.5612 31.8909 29.652 31.9284 29.7189 31.995C29.7858 32.0617 29.8234 32.1521 29.8234 32.2463L29.8226 33.1638ZM28.6993 32.0871C28.5777 32.0872 28.4588 32.1232 28.3577 32.1905C28.2567 32.2579 28.1779 32.3536 28.1315 32.4655C28.085 32.5775 28.0729 32.7006 28.0968 32.8194C28.1206 32.9381 28.1793 33.0472 28.2653 33.1327C28.3514 33.2183 28.4611 33.2765 28.5804 33.3C28.6997 33.3235 28.8233 33.3113 28.9356 33.2648C29.0479 33.2183 29.1439 33.1397 29.2113 33.0389C29.2787 32.9382 29.3147 32.8197 29.3145 32.6986C29.3146 32.6182 29.2987 32.5386 29.2679 32.4643C29.237 32.39 29.1917 32.3225 29.1347 32.2657C29.0776 32.2088 29.0099 32.1637 28.9353 32.1329C28.8607 32.1022 28.7808 32.0863 28.7001 32.0863L28.6993 32.0871ZM28.6993 33.1353C28.6126 33.1353 28.5279 33.1097 28.4558 33.0618C28.3838 33.0138 28.3276 32.9456 28.2944 32.8659C28.2613 32.7861 28.2526 32.6984 28.2696 32.6137C28.2865 32.5291 28.3283 32.4513 28.3896 32.3903C28.4509 32.3293 28.529 32.2878 28.6141 32.271C28.6991 32.2542 28.7872 32.2629 28.8672 32.296C28.9473 32.3291 29.0157 32.3851 29.0638 32.4569C29.1119 32.5287 29.1375 32.6131 29.1374 32.6994C29.1374 32.7566 29.1261 32.8132 29.1041 32.866C29.0822 32.9188 29.0499 32.9668 29.0093 33.0072C28.9687 33.0477 28.9205 33.0797 28.8674 33.1015C28.8144 33.1234 28.7575 33.1346 28.7001 33.1346L28.6993 33.1353Z" fill="white"/>
</g>
<defs>
<linearGradient id="paint0_linear_173_683" x1="21.9998" y1="43.9996" x2="21.9998" y2="-0.000350475" gradientUnits="userSpaceOnUse">
<stop stop-color="#0052D4"/>
<stop offset="0.53" stop-color="#4364F7"/>
<stop offset="1" stop-color="#6FB1FC"/>
</linearGradient>
<clipPath id="clip0_173_683">
<rect width="44" height="44" fill="white"/>
</clipPath>
</defs>
</svg>
