<svg width="64" height="67" viewBox="0 0 64 67" fill="none" xmlns="http://www.w3.org/2000/svg">
<path d="M32 52.0909H25.103C23.4992 52.0909 22.1991 50.7785 22.1991 49.1597V43.7369C22.1991 42.118 23.4992 40.8057 25.103 40.8057H38.534C40.1378 40.8057 41.4379 42.118 41.4379 43.7369V49.2329C41.4379 50.8518 40.1378 52.1642 38.534 52.1642H32M6.29977 16.6198V4.66404C6.29977 2.64044 7.92496 1 9.92974 1H54.0703C56.075 1 57.7002 2.64044 57.7002 4.66404V16.6198M32 13.4577H17.5797C15.7449 13.4577 14.1986 14.8397 13.9764 16.6781L11.6045 36.3054H9.27635C6.0687 36.3054 3.46838 38.9301 3.46838 42.1678V63.8016C3.46838 65.0157 4.4435 66 5.64637 66H12.1876C13.3905 66 14.3656 65.0157 14.3656 63.8016V59.4826M3.54098 59.1849H60.459M13.066 32.7656H50.7888M6.29977 30.8253V37.1328M31.4192 13.4577H46.2064C48.0378 13.4577 49.5824 14.8348 49.8086 16.6692L52.2299 36.3054H54.7237C57.9313 36.3054 60.5316 38.9301 60.5316 42.1678V63.8016C60.5316 65.0157 59.5565 66 58.3536 66H51.5905C50.3877 66 49.4126 65.0157 49.4126 63.8016V59.4826M57.6857 30.8288V36.6164M3.54098 30.8253H6.37237C7.77571 30.8253 8.91335 29.6769 8.91335 28.2604V19.7599C8.91335 18.3434 7.77571 17.195 6.37237 17.195H3.54098C2.13764 17.195 1 18.3434 1 19.7599V28.2604C1 29.6769 2.13764 30.8253 3.54098 30.8253ZM8.25995 46.8147V51.2115C8.25995 52.021 8.91003 52.6771 9.71194 52.6771H16.2459C17.0478 52.6771 17.6979 52.021 17.6979 51.2115V46.8147C17.6979 46.0052 17.0478 45.3491 16.2459 45.3491H9.71194C8.91003 45.3491 8.25995 46.0052 8.25995 46.8147ZM60.459 30.8253H57.6276C56.2243 30.8253 55.0867 29.6769 55.0867 28.2604V19.7599C55.0867 18.3434 56.2243 17.195 57.6276 17.195H60.459C61.8624 17.195 63 18.3434 63 19.7599V28.2604C63 29.6769 61.8624 30.8253 60.459 30.8253ZM55.74 46.8147V51.2115C55.74 52.021 55.09 52.6771 54.2881 52.6771H47.7541C46.9522 52.6771 46.3021 52.021 46.3021 51.2115V46.8147C46.3021 46.0052 46.9522 45.3491 47.7541 45.3491H54.2881C55.09 45.3491 55.74 46.0052 55.74 46.8147Z" stroke="white" stroke-width="2" stroke-linecap="round"/>
</svg>
