<svg width="74" height="66" viewBox="0 0 74 66" fill="none" xmlns="http://www.w3.org/2000/svg">
<path d="M60.9015 8.37867C60.0931 6.87542 58.6596 6.14111 57.5372 5.78487C56.6219 5.4944 55.7512 6.12958 55.5184 7.06115L54.3457 11.7536C54.1592 12.4999 54.4173 13.287 55.0094 13.778L55.8891 14.5076C56.4714 14.9905 56.7315 15.7606 56.561 16.4976L55.5587 20.8327C55.3768 21.6196 54.7394 22.2198 53.943 22.3542L53.2773 22.4666C52.4996 22.5978 51.8716 23.1739 51.674 23.9374L50.4328 28.7316C50.1981 29.6382 50.6423 30.5871 51.5729 30.692C52.6294 30.8111 54.1325 30.6908 55.7722 29.653C58.8897 27.6799 59.9265 24.025 60.9651 19.7393C62.0086 15.4334 62.3662 11.1024 60.9015 8.37867Z" stroke="white" stroke-width="2"/>
<path d="M1 63V61C1 59.8954 1.89543 59 3 59H71C72.1046 59 73 59.8954 73 61V63C73 64.1046 72.1046 65 71 65H3C1.89543 65 1 64.1046 1 63Z" stroke="white" stroke-width="2"/>
<path d="M19 50C19 40.0589 27.0589 32 37 32C46.9411 32 55 40.0589 55 50V59H19V50Z" stroke="white" stroke-width="2"/>
<path d="M49 13.5C49 20.4395 43.5922 26 37 26C30.4078 26 25 20.4395 25 13.5C25 6.56053 30.4078 1 37 1C43.5922 1 49 6.56053 49 13.5Z" stroke="white" stroke-width="2"/>
</svg>
