<svg width="1920" height="365" viewBox="0 0 1920 365" fill="none" xmlns="http://www.w3.org/2000/svg">
<mask id="mask0_970_58" style="mask-type:alpha" maskUnits="userSpaceOnUse" x="0" y="0" width="1920" height="365">
<rect width="1920" height="365" rx="55" fill="#2C5DEB"/>
</mask>
<g mask="url(#mask0_970_58)">
<path d="M1841.41 1.42749L1851.09 -2H1841.87L1840.41 -1.4884L1840.26 -2H1837.01L1837.52 -0.465332L1675.14 57.1619C1671.28 39.1208 1666.9 19.4003 1661.98 -2H1646.08C1666.79 89.2111 1678.11 146.045 1679.64 183.031C1663.05 188.207 1645.82 191.09 1628.45 191.6L1615.65 147.196C1615.55 146.876 1615.35 146.595 1615.09 146.393C1614.82 146.191 1614.5 146.078 1614.16 146.071C1613.9 146.079 1613.65 146.14 1613.42 146.25L1576.66 166.354C1576.33 166.534 1576.07 166.828 1575.95 167.182C1575.82 167.536 1575.83 167.924 1575.97 168.272L1592.32 209.044L1571.18 219.735L1548.14 230.887L1525.48 212.088L1618.33 -2H1614.95L1574.25 91.7944L1518.93 69.7974L1515.37 38.4387L1567.34 30.3817C1567.68 30.3207 1568 30.147 1568.24 29.8878C1568.47 29.6287 1568.62 29.2987 1568.64 28.9493L1570.72 -2H1567.62L1565.65 27.517L1545.81 30.5863L1544.04 -2H1520.34L1523.21 34.0905L1513.5 35.5996L1476.51 40.4338L1468.24 -2H1465.09L1473.39 40.8431L1452.55 43.58L1447.84 22.606L1463.2 -2H1459.54L1446.74 18.3345L1442.16 -2H1435.83L1441.64 23.8593L1383.2 47.7235L1368.53 8.05212C1368.4 7.70251 1368.15 7.41199 1367.82 7.23364C1367.49 7.05518 1367.11 7.00073 1366.74 7.0802L1349.31 11.1982L1345.44 -2H1342.22L1346.87 13.3468C1346.99 13.7261 1347.24 14.0481 1347.58 14.2476C1347.93 14.447 1348.33 14.509 1348.72 14.4211L1366.23 10.2775L1380.46 48.6443L1258.38 98.4958L1174.15 111.285L1162.25 85.1185C1162.16 84.9146 1162.03 84.7316 1161.87 84.5814L1128.97 55.9852L1086.55 7.56616L1078.16 -2H1074.03L1083.33 8.58936L1064.31 30.5863L1046.13 2.68079C1046 2.46252 1045.81 2.28235 1045.58 2.15698C1045.36 2.03174 1045.11 1.96545 1044.85 1.9646C1044.55 1.97095 1044.26 2.05945 1044.01 2.22034C1043.66 2.44543 1043.42 2.79736 1043.33 3.19983C1043.25 3.60229 1043.32 4.02246 1043.54 4.3689L1062.82 33.9626L1077.77 58.4408L1047.05 87.0112L1031.31 69.1067L1031.69 37.1599C1031.7 36.9562 1031.66 36.7539 1031.58 36.5647C1031.51 36.3756 1031.39 36.2032 1031.25 36.0581C1031.11 35.9128 1030.94 35.7976 1030.75 35.7189C1030.56 35.6401 1030.36 35.5996 1030.16 35.5996C1029.96 35.5962 1029.76 35.6327 1029.57 35.707C1029.38 35.7814 1029.21 35.892 1029.07 36.0325C1028.93 36.173 1028.81 36.3405 1028.74 36.5253C1028.66 36.7101 1028.62 36.9084 1028.62 37.1088L1028.21 69.7206C1028.21 70.0977 1028.34 70.4626 1028.59 70.7438L1044.77 89.1086L1029.41 103.253L989.401 81.5632C989.173 81.441 988.918 81.3793 988.659 81.3842C988.433 81.3821 988.209 81.4318 988.005 81.5293C987.801 81.6268 987.622 81.7697 987.481 81.9469L978.265 92.9966L973.581 81.4097C973.493 81.1871 973.356 80.988 973.178 80.8281C973 80.6683 972.787 80.5521 972.557 80.4889L950.72 74.427L943.45 52.302C943.377 52.0809 943.255 51.8796 943.091 51.7137L891.124 -2H882.983L816.655 61.152L779.612 96.4241L708.778 57.5967L696.541 27.696L719.094 -2H715.229L676.65 48.849C676.373 48.6276 676.032 48.5018 675.677 48.4908C675.445 48.4918 675.217 48.5452 675.008 48.6471C674.8 48.7489 674.617 48.8967 674.474 49.0792C674.345 49.2365 674.248 49.4178 674.19 49.6127C674.132 49.8076 674.113 50.0122 674.134 50.2145C674.156 50.4167 674.217 50.6127 674.315 50.7911C674.413 50.9695 674.545 51.1266 674.705 51.2533L654.225 78.3915L629.598 59.0802C636.425 50.5542 643.174 42.0282 649.847 33.5022C654.02 28.3866 658.167 23.0408 662.289 17.7974L678.109 -2H650.257C645.521 10.7889 641.271 19.5878 637.739 24.064L636.177 26.0334L609.63 7.33594C609.381 7.14429 609.074 7.04492 608.76 7.05469C608.517 7.05066 608.277 7.10413 608.059 7.21082C607.841 7.3175 607.651 7.47437 607.505 7.66846L597.624 20.7644C597.376 21.1035 597.273 21.5272 597.338 21.9421C597.403 22.3572 597.63 22.7294 597.97 22.9769C598.309 23.2245 598.733 23.3273 599.148 23.2625C599.564 23.1978 599.936 22.9708 600.184 22.6316L609.093 10.7889L634.257 28.5145C618.309 48.6444 598.085 74.0944 575.992 101.719L519.315 73.3015L560.812 -2H557.305L548.626 13.705L519.852 -2H513.427L547.141 16.4161L512.659 78.8774L490.976 117.449C490.902 117.603 490.85 117.767 490.822 117.935L484.218 156.583L350.434 146.352L370.913 127.373C371.174 127.123 371.342 126.792 371.388 126.434C371.435 126.075 371.358 125.712 371.169 125.404L352.584 96.0148L412.692 -2H409.083L350.485 93.5592L247.011 -1.28381L247.446 -2H238.512L242.352 -0.439819L193.482 52.1741L124.568 20.483C127.256 13.1677 130.046 5.62219 132.837 -2H116.325C113.227 6.49194 110.155 14.8303 107.186 22.8875C101.887 14.1398 96.7155 5.69897 91.8259 -2H73.6503C78.0278 4.98279 82.9172 12.8864 88.1396 21.4038L45.7979 4.70142L29.9517 -2H22.0413L43.2378 6.95227L12.7998 81.1284L0 76.0128V79.3379L11.6991 84.0698L0.0256348 112.512V120.774L2.40637 114.994L29.6957 127.782L21.7085 144.587L0.0256348 136.428V139.727L20.5054 147.401L13.8239 161.469C13.6985 161.733 13.651 162.027 13.6873 162.317C13.7236 162.607 13.8419 162.881 14.0286 163.106L0.12793 157.376V160.727L42.7771 178.273L36.2491 192.751L0.0256348 177.481V180.831L34.8923 195.411C30.2588 205.642 25.574 216.308 21.0685 226.488L0.0256348 217.97V234.622L14.8223 240.607C9.24158 253.396 4.19824 264.804 0.281494 273.858L0.0256348 273.73V317.213C15.5646 288.361 37.0682 260.481 87.3461 245.595C89.906 245.211 92.4659 244.776 95.0259 244.265C117.579 239.763 175.562 240.479 224.458 242.755L208.228 296.469L167.268 352.178L115.48 315.064C115.224 314.865 114.909 314.757 114.584 314.757C114.336 314.757 114.093 314.817 113.874 314.933C113.655 315.049 113.468 315.217 113.33 315.422C113.097 315.757 113.005 316.168 113.072 316.57C113.139 316.971 113.36 317.33 113.688 317.571L165.399 354.557L137.624 392.335L0.0256348 335.45V338.775L137.317 395.533L175.716 431.853L110.616 511.733L0.0256348 456.741V473.955L102.271 524.906L0.0256348 726.256V754.084L29.03 747.767L20.2494 778.972C13.6666 775.688 6.91602 772.751 0.0256348 770.173V786.747C6.86951 789.538 13.5452 792.723 20.0189 796.288C30.95 809.665 124.978 924.434 141.566 939.985C158.155 955.536 217.623 982.086 232.112 988.404C272.508 1062.58 332.412 1173.72 335.868 1183.79C337.071 1189.7 341.909 1234.26 346.389 1276.9H361.902C361.006 1268.23 360.008 1258.79 358.984 1249.27L368.661 1276.9H385.019L379.899 1262.24L451.808 1267.72L450.452 1276.9H453.575L454.906 1267.97L518.393 1272.81L518.854 1276.9H525.049L524.588 1272.52L556.588 1267.41L559.148 1277H562.348L559.788 1266.77L608.683 1258.79L610.603 1276.9H613.726L611.729 1258.28L675.319 1247.89L680.081 1276.9H683.229L678.417 1247.38L740.752 1237.15C741.033 1250.91 741.264 1263.9 741.443 1275.21L731.715 1276.9H776.028L820.52 1275.13V1276.9H823.618L825.743 1236.48H845.966C846.299 1236.48 846.622 1236.38 846.888 1236.18C847.118 1236 865.217 1222.72 879.323 1212.59L882.625 1234L859.227 1244.23C858.985 1244.35 858.774 1244.52 858.613 1244.73C858.453 1244.95 858.347 1245.2 858.305 1245.46L854.593 1274.16C854.547 1274.55 854.651 1274.95 854.884 1275.26C855.117 1275.58 855.461 1275.8 855.848 1275.87L861.454 1276.9H878.299L857.819 1273.06L861.249 1246.66L884.929 1236.43C885.242 1236.29 885.501 1236.06 885.667 1235.76C885.833 1235.46 885.897 1235.11 885.851 1234.77L882.087 1210.65C885.62 1208.09 888.743 1205.89 891.124 1204.26C902.593 1196.33 948.416 1181.24 952.41 1180.06L984.46 1181.88L1041.93 1246L1049.61 1270.09L1039.37 1276.9H1044.93L1050.58 1273.16L1051.74 1276.9H1054.96L1044.72 1244.77C1044.67 1244.56 1044.56 1244.37 1044.41 1244.21L987.788 1180.98L1108.11 1136.7C1110.92 1137.32 1128.59 1141.67 1131.99 1152.31C1133.27 1156.35 1142.54 1177.07 1154.62 1204.03L1095.74 1232.83L1080.2 1196.28C1080.12 1196.08 1079.99 1195.9 1079.83 1195.75C1079.67 1195.61 1079.49 1195.5 1079.28 1195.43C1079.11 1195.39 1078.94 1195.39 1078.77 1195.43C1078.51 1195.44 1078.25 1195.51 1078.03 1195.64L1042.42 1215.43C1042.24 1215.53 1042.08 1215.67 1041.95 1215.83C1041.82 1216 1041.73 1216.19 1041.68 1216.39C1041.62 1216.59 1041.61 1216.8 1041.64 1217C1041.67 1217.21 1041.75 1217.41 1041.85 1217.58L1071.24 1264.95C1071.42 1265.24 1071.69 1265.45 1072 1265.57C1072.32 1265.69 1072.66 1265.71 1072.98 1265.62L1102.65 1257.25L1111.05 1276.9H1114.4L1096.89 1235.69L1155.77 1206.81L1157.31 1210.24C1166.4 1230.37 1177.07 1254.16 1187.08 1276.9H1190.41C1180.45 1254.24 1169.67 1230.22 1160.13 1208.99C1146.74 1179.14 1136.16 1155.56 1134.83 1151.39C1131.27 1140.31 1115.79 1135.45 1110.21 1134.04C1113.97 1127.04 1128.13 1101.05 1134.45 1094.73C1139.57 1089.62 1160.05 1077.29 1172.13 1070.15L1220.18 1118.11L1293.06 1276.9H1310.04L1279.06 1209.42L1392.54 1219.65C1381.46 1236.41 1368.07 1256.61 1354.61 1276.9H1373.14C1384.71 1259.45 1396.72 1241.32 1406.93 1225.74L1397.41 1276.9H1400.53L1407.29 1240.7L1468.06 1256.44L1463.87 1276.9H1466.89L1478.35 1220.81L1546.24 1238.53L1543.43 1276.9H1546.53L1549.42 1237.56L1553.87 1135.25C1553.89 1134.89 1553.79 1134.55 1553.58 1134.26C1553.37 1133.98 1553.06 1133.77 1552.72 1133.69L1524.15 1126.4L1584.64 1086.14L1631.29 1223.18C1619.3 1239.42 1610.19 1257.59 1604.33 1276.9H1620.48C1625.89 1260.87 1633.74 1245.77 1643.75 1232.14L1653.99 1250.04C1654.1 1250.24 1654.25 1250.42 1654.44 1250.55C1654.63 1250.69 1654.84 1250.77 1655.07 1250.81C1655.29 1250.84 1655.52 1250.83 1655.74 1250.77C1655.95 1250.71 1656.15 1250.6 1656.32 1250.45L1677.44 1232.55L1734.15 1276.9H1739.27L1679.95 1230.5L1737.91 1181.31L1740.14 1224.8C1740.15 1225.12 1740.27 1225.43 1740.48 1225.69C1740.69 1225.94 1740.97 1226.12 1741.29 1226.2L1758.93 1230.86C1759.23 1230.95 1759.55 1230.95 1759.85 1230.86L1795.3 1217.51L1851.44 1222.62L1839.8 1266.31H1817.99C1817.64 1266.3 1817.3 1266.41 1817.03 1266.62C1816.76 1266.83 1816.56 1267.13 1816.47 1267.46L1814.02 1276.9H1817.22L1819.16 1269.38H1840.82L1858.3 1273.04L1857.56 1276.9H1860.71L1861.33 1273.67L1876.71 1276.9H1891.84L1861.91 1270.66L1870.95 1223.67L1901.31 1209.01L1920 1212.67V1209.53L1902.82 1206.17L1906.05 1180.16L1920 1183.79V1180.62L1916.08 1179.6L1920 1138.03V1105.12L1917.44 1133.25L1863.42 1122.74L1868.14 1069.95L1920 1071.69V1068.59L1866.78 1066.8L1810.46 1067.67L1801.14 1007.77C1843.2 1011.37 1888.82 1024.11 1920 1034.37V1018.07C1912.7 1015.72 1904.64 1013.29 1896.27 1010.86C1850.88 997.868 1811.79 991.32 1779.51 991.32C1774.67 991.32 1769.99 991.473 1765.48 991.755C1753.39 992.653 1741.39 994.605 1729.64 997.586L1680.05 985.642L1685.48 952.544C1705.96 956.892 1730.41 963.389 1730.79 963.491H1731.07L1774.98 966.56C1775.2 966.624 1775.43 966.624 1775.64 966.56L1887.33 923.078L1920 958.503V953.95L1889.28 920.699L1890.64 888.113C1890.69 887.903 1890.69 887.683 1890.64 887.473L1871.31 839.771L1873.87 827.647L1920 927.477V890.671L1872.23 787.336L1887.44 778.128L1920 800.739V781.964L1897.34 766.234L1908.94 739.479C1911.93 746.437 1915.63 753.064 1920 759.251V724.695C1919.15 721.937 1918.44 719.137 1917.88 716.306C1917.84 715.836 1917.74 715.372 1917.59 714.924C1915.09 701.228 1915.92 687.132 1920 673.821V648.243L1908.61 661.441C1908.1 662.024 1907.69 662.679 1907.38 663.385C1900.86 680.241 1899.03 698.545 1902.08 716.357L1881.6 763.625L1865.68 773.242L1819.09 672.414L1855.13 658.96C1855.39 658.863 1855.61 658.701 1855.79 658.49C1855.96 658.28 1856.08 658.027 1856.13 657.758L1859.87 632.794L1878.4 590.82L1909.12 575.064C1909.46 574.883 1909.73 574.582 1909.86 574.218C1909.99 573.854 1909.98 573.453 1909.84 573.095L1833.04 390.545L1820.16 359.493L1839.85 350.515L1920 537.439V529.612L1842.71 349.211L1854.06 344.095L1920 499.481V491.655L1856.85 342.816C1865.32 338.954 1873.33 335.143 1880.91 331.767L1903.95 391.721C1904.02 391.911 1904.13 392.085 1904.27 392.233C1904.41 392.38 1904.58 392.499 1904.76 392.582C1904.95 392.665 1905.15 392.711 1905.35 392.717C1905.55 392.723 1905.76 392.689 1905.95 392.617C1906.14 392.544 1906.31 392.436 1906.46 392.296C1906.61 392.157 1906.72 391.99 1906.81 391.805C1906.89 391.619 1906.94 391.419 1906.94 391.216C1906.95 391.013 1906.91 390.811 1906.84 390.622L1883.7 330.513L1920 313.658V296.674L1878.14 315.985L1858.18 264.369L1917.7 238.433L1920 245.262V234.084L1919.56 234.264L1876.2 105.095L1920 86.9091V83.5839L1875.23 102.179L1841.41 1.42749ZM1540.95 -2L1542.74 31.0211L1526.23 33.579L1523.51 -1.07922L1540.95 -2ZM1101.45 1254.39L1073.29 1262.34L1045.26 1217.22L1077.95 1199.06L1101.45 1254.39ZM1675.8 60.2056L1838.49 2.4762L1872.36 103.356L1822.93 123.818C1822.55 123.966 1822.25 124.256 1822.09 124.625C1821.92 124.993 1821.91 125.411 1822.06 125.787L1832.45 152.542C1832.48 152.616 1832.53 152.685 1832.58 152.747L1700.38 200.066L1694.93 202.035C1696.98 170.932 1689.99 126.606 1675.8 60.2056ZM711.389 1119.93C711.362 1120.2 711.409 1120.47 711.526 1120.72C711.644 1120.97 711.826 1121.18 712.055 1121.33C712.292 1121.47 712.561 1121.54 712.835 1121.54C713.109 1121.54 713.379 1121.47 713.616 1121.33L736.784 1109.87C737.782 1127.96 738.653 1153.36 739.344 1180.19L667.025 1178.4L666.385 1174.48C666.538 1172.82 667.588 1161.54 667.741 1145.4V1145.12C667.741 1136.83 667.741 1127.22 667.05 1116.98C667.05 1116.98 667.05 1116.86 667.05 1116.81C666.2 1101.25 664.076 1085.79 660.702 1070.59C656.887 1054.01 647.031 1018.71 635.691 979.375L724.291 963.747L724.829 971.42L711.389 1119.93ZM726.186 990.425C729.257 1032.35 732.611 1073.68 734.761 1086.03C735.427 1089.77 736.041 1096.96 736.605 1106.5L714.717 1117.32L726.186 990.425ZM510.15 1140.36L505.44 1097.21L538.873 1107.44V1143.74L510.15 1140.36ZM538.873 1146.73V1190.67L515.116 1185.89L510.483 1143.64L538.873 1146.73ZM576.914 1011.65L584.978 1035.19L499.193 1040.3L497.837 1027.85L576.914 1011.65ZM497.555 1024.78L496.07 1011.27L566.879 982.291L575.941 1008.71L497.555 1024.78ZM586.079 1038.2L589.919 1049.41C590.054 1049.79 590.338 1050.11 590.708 1050.29C591.078 1050.47 591.503 1050.49 591.89 1050.35C592.277 1050.22 592.594 1049.93 592.772 1049.57C592.949 1049.2 592.973 1048.77 592.837 1048.38L569.26 979.759C569.194 979.557 569.088 979.371 568.947 979.212C568.806 979.054 568.633 978.926 568.44 978.838C568.229 978.799 568.012 978.799 567.8 978.838C567.606 978.802 567.406 978.802 567.212 978.838L495.737 1008.1V1007.74C504.057 977.405 515.603 944.64 523.615 931.237L611.857 908.575C630.187 970.806 651.665 1045.06 657.783 1071.48C660.991 1086.02 663.054 1100.79 663.953 1115.65H621.56C621.152 1115.65 620.762 1115.82 620.474 1116.1C620.186 1116.39 620.024 1116.78 620.024 1117.19V1129.52L591.378 1120.72L605.509 1078.11C605.631 1077.72 605.598 1077.3 605.417 1076.94C605.235 1076.57 604.919 1076.3 604.536 1076.16H604.05C603.72 1076.16 603.399 1076.27 603.133 1076.46C602.866 1076.65 602.667 1076.92 602.565 1077.24L588.434 1119.87L573.074 1115.09V1074.17C573.074 1073.75 572.909 1073.36 572.617 1073.06C572.324 1072.77 571.927 1072.61 571.512 1072.61H502.726L499.526 1043.37L586.079 1038.2ZM431.636 886.143L439.751 904.918C439.91 905.283 440.202 905.574 440.569 905.731C440.935 905.888 441.348 905.899 441.722 905.762L456.57 899.955C456.843 899.855 457.082 899.679 457.258 899.448C457.435 899.217 457.543 898.941 457.568 898.651L459.693 871.538L502.445 859.977C502.82 859.864 503.141 859.616 503.344 859.28C503.547 858.945 503.619 858.546 503.545 858.161L497.785 830.025C497.715 829.675 497.527 829.36 497.252 829.132C496.977 828.904 496.632 828.777 496.275 828.772H495.968L424.289 843.377C423.879 831.406 423.546 821.61 423.367 816.264C458.387 816.904 499.629 818.234 506.412 821.943C515.603 827.058 566.495 868.98 598.571 895.94L427.745 939.985C427.335 928.884 426.593 908.396 425.799 886.962L431.636 886.143ZM425.825 883.867C425.364 870.95 424.878 857.905 424.468 846.497L495.123 832.123L500.243 857.368L457.799 868.853C457.488 868.936 457.21 869.113 457.004 869.361C456.797 869.608 456.673 869.913 456.647 870.234L454.496 897.449L441.953 902.334L433.965 883.816C433.829 883.507 433.594 883.253 433.298 883.091C433.002 882.929 432.661 882.869 432.327 882.921L425.825 883.867ZM303.919 316.522C303.945 316.422 303.945 316.316 303.919 316.215C303.629 303.583 304.056 290.944 305.199 278.36C308.553 279.332 316.693 281.711 327.599 285.061C327.585 285.18 327.585 285.301 327.599 285.419L332.719 328.416C332.77 328.823 332.98 329.193 333.304 329.445C333.629 329.697 334.039 329.81 334.447 329.759C334.854 329.708 335.225 329.497 335.477 329.174C335.729 328.85 335.842 328.439 335.791 328.032L330.671 286.033C350.664 292.249 378.44 301.38 402.862 310.972C391.368 323.607 382.92 331.997 378.875 334.427C367.073 341.512 339.503 351.769 309.935 361.744C305.788 348.93 304.226 331.946 303.868 316.522H303.919ZM307.094 362.742C277.807 372.564 247.011 382.002 227.863 387.757L300.95 319.771C301.436 334.631 303.1 350.515 307.042 362.742H307.094ZM732.841 289.052C732.955 289.423 733.207 289.736 733.545 289.927C733.884 290.118 734.282 290.17 734.659 290.075L759.158 284.268C759.539 284.182 759.872 283.955 760.091 283.632C760.31 283.308 760.397 282.914 760.335 282.529L757.033 262.323L777.922 255.724L790.594 295.625L714.794 314.45L709.29 279.357L727.389 271.684L732.841 289.052ZM730.281 270.763L754.038 263.243L757.033 281.608L735.325 286.724L730.281 270.763ZM760.54 201.038L768.22 224.979L701.38 242.883L694.698 218.022L760.54 201.038ZM693.828 215.106L684.996 182.161L753.859 166.994L759.798 197.917L693.828 215.106ZM763.075 198.889L756.828 166.252L812.354 144.664L851.035 189.425L786.652 273.091L780.38 253.345L771.625 225.644L763.075 198.889ZM814.991 143.001L857.23 107.192L888.334 140.904L852.929 186.944L814.991 143.001ZM787.804 276.672L890.51 143.206L951.437 209.018L820.059 335.348L800.015 313.709L842.254 264.778C842.385 264.624 842.485 264.445 842.547 264.252C842.609 264.059 842.632 263.856 842.615 263.654C842.599 263.452 842.542 263.255 842.45 263.075C842.357 262.895 842.23 262.735 842.075 262.604C841.921 262.473 841.742 262.374 841.549 262.312C841.355 262.25 841.152 262.227 840.95 262.243C840.748 262.26 840.551 262.316 840.371 262.409C840.191 262.501 840.03 262.628 839.899 262.783L798.53 310.639L787.804 276.672ZM955.661 209.197L967.693 197.508L1000.2 235.338L952.154 282.887L918.541 244.802L953.587 211.09C953.869 211.217 954.182 211.256 954.486 211.203C954.79 211.15 955.071 211.006 955.292 210.79C955.514 210.575 955.664 210.298 955.726 209.995C955.787 209.693 955.755 209.379 955.635 209.095L955.661 209.197ZM1198.73 225.644C1198.91 225.735 1199.1 225.79 1199.31 225.805C1199.51 225.819 1199.71 225.794 1199.9 225.729C1200.09 225.665 1200.27 225.563 1200.42 225.43C1200.57 225.297 1200.69 225.135 1200.78 224.953L1214.58 196.818L1230.68 194.822L1243.71 215.285L1225.07 238.075H1196.58C1196.36 238.046 1196.14 238.065 1195.92 238.13C1195.71 238.195 1195.52 238.304 1195.35 238.45C1195.18 238.597 1195.05 238.777 1194.96 238.979C1194.87 239.181 1194.82 239.4 1194.82 239.622C1194.82 239.844 1194.87 240.063 1194.96 240.265C1195.05 240.467 1195.18 240.647 1195.35 240.794C1195.52 240.94 1195.71 241.049 1195.92 241.114C1196.14 241.179 1196.36 241.198 1196.58 241.17H1224.25V263.243L1199.63 259.714H1199.4C1199.2 259.712 1199 259.749 1198.81 259.824C1198.63 259.898 1198.46 260.009 1198.32 260.148C1198.15 260.313 1198.01 260.519 1197.94 260.746C1197.86 260.974 1197.84 261.216 1197.88 261.453L1202.6 296.009C1202.63 296.279 1202.74 296.535 1202.9 296.751C1203.07 296.967 1203.29 297.134 1203.54 297.236L1224.02 305.242L1209.74 365.479L1196.94 362.128C1196.56 362.035 1196.17 362.082 1195.83 362.262C1195.49 362.441 1195.23 362.739 1195.09 363.1L1177.17 411.365L1174.18 407.836H1174.05L1041.5 295.932L1076 263.269L1157.92 333.89C1158.08 334.023 1158.25 334.125 1158.45 334.19C1158.64 334.254 1158.84 334.28 1159.04 334.266C1159.25 334.252 1159.44 334.198 1159.62 334.107C1159.81 334.016 1159.97 333.89 1160.1 333.736L1174.23 317.724C1174.37 317.573 1174.47 317.397 1174.53 317.206C1174.6 317.015 1174.63 316.813 1174.62 316.611C1174.61 316.409 1174.55 316.211 1174.47 316.029C1174.38 315.848 1174.25 315.685 1174.1 315.55C1173.95 315.416 1173.78 315.313 1173.58 315.246C1173.39 315.18 1173.19 315.152 1172.99 315.164C1172.79 315.176 1172.59 315.227 1172.41 315.316C1172.22 315.404 1172.06 315.527 1171.93 315.678L1158.79 330.565L1123.29 299.871L1140.21 283.655C1140.35 283.512 1140.47 283.343 1140.54 283.156C1140.62 282.969 1140.66 282.77 1140.66 282.568C1140.66 282.366 1140.62 282.166 1140.54 281.979C1140.47 281.792 1140.35 281.623 1140.21 281.48L1100.66 239.839L1119.83 221.679L1157.8 185.717L1174.77 205.488C1174.9 205.642 1175.06 205.768 1175.24 205.859C1175.42 205.95 1175.62 206.004 1175.82 206.018C1176.03 206.032 1176.23 206.006 1176.42 205.942C1176.61 205.877 1176.79 205.775 1176.94 205.642C1177.25 205.375 1177.44 204.998 1177.48 204.591C1177.51 204.185 1177.38 203.782 1177.12 203.468L1160.05 183.594L1180.53 164.231L1211.71 195.769L1198.04 223.649C1197.87 224.005 1197.85 224.414 1197.98 224.787C1198.11 225.16 1198.38 225.468 1198.73 225.644ZM1509.1 294.704L1499.63 252.526L1511.76 247.922L1526.51 289.717L1509.1 294.704ZM1528.94 292.146L1586.21 276.263L1599.54 322.303C1599.62 322.582 1599.77 322.834 1599.98 323.029C1600.2 323.224 1600.46 323.354 1600.75 323.403L1619.43 326.702C1619.72 329.516 1620.13 332.227 1620.64 334.785C1620.81 335.672 1621.09 336.797 1621.48 338.161L1525.77 368.88L1509.77 297.85L1528.94 292.146ZM1520.49 373.28C1520.58 373.698 1520.77 374.092 1521.02 374.436C1521.28 374.779 1521.6 375.065 1521.98 375.275C1522.23 375.406 1522.49 375.501 1522.77 375.556L1528.84 395.865L1450.22 422.594L1425.39 347.727L1443.31 340.591C1443.66 340.453 1443.94 340.192 1444.11 339.858C1444.28 339.523 1444.33 339.138 1444.23 338.775L1423.98 262.604L1493.82 254.624L1520.49 373.28ZM1410.57 423.643L1388.27 432.39L1359.52 373.996L1387.53 362.895L1410.57 423.643ZM1390.42 361.744L1422.55 348.955L1443.03 410.982L1413.33 422.62L1390.42 361.744ZM1444.18 413.821L1447.89 425.024L1453.42 441.675L1401.66 459.401L1389.7 435.178L1444.18 413.821ZM1440.8 338.187L1358.14 371.438L1324.4 302.992L1321.84 283.783L1367.58 275.751H1367.92L1389.29 266.569L1420.78 262.988L1440.8 338.187ZM1355.27 372.461L1282.16 401.774L1282.03 399.753L1305.35 286.545L1318.69 284.192L1321.25 303.529C1321.28 303.686 1321.32 303.84 1321.38 303.989L1355.27 372.461ZM1304.07 283.629L1288.05 281.071L1281.65 270.84L1303.36 259.356L1342.19 237.793L1364.67 273.219L1304.07 283.629ZM1341.78 234.238L1303.05 255.775L1282.57 224.825L1335.46 198.94L1352.94 223.086L1341.78 234.238ZM1300.41 257.258L1279.93 268.078L1253.18 224.876L1279.62 225.644L1300.41 257.258ZM1277.37 269.51L1265.75 275.674C1265.52 275.797 1265.33 275.973 1265.19 276.187C1265.05 276.401 1264.96 276.646 1264.93 276.902L1262.09 308.568L1240.33 317.929C1239.95 318.092 1239.65 318.399 1239.5 318.783C1239.34 319.167 1239.35 319.595 1239.51 319.975C1239.68 320.344 1239.98 320.633 1240.36 320.781C1240.74 320.929 1241.16 320.924 1241.53 320.768L1264.16 311.023C1264.42 310.919 1264.65 310.744 1264.82 310.518C1264.99 310.292 1265.09 310.024 1265.11 309.744L1267.85 277.976L1278.93 272.119L1285.82 283.245C1285.93 283.433 1286.09 283.594 1286.27 283.717C1286.45 283.841 1286.65 283.924 1286.87 283.961L1302.23 286.519L1278.98 399.369C1278.97 399.505 1278.97 399.642 1278.98 399.778L1279.21 403.411C1279.11 403.618 1279.06 403.845 1279.06 404.076C1279.06 404.306 1279.11 404.534 1279.21 404.741C1279.21 404.741 1279.37 404.945 1279.42 405.048L1281.01 431.572C1281.01 431.796 1281.08 432.016 1281.19 432.211L1300.36 466.972L1216.73 477.817L1207.66 447.123C1207.59 446.923 1207.48 446.734 1207.36 446.561L1179.66 414.153L1197.58 365.555L1210.45 368.88C1210.86 368.976 1211.28 368.911 1211.63 368.701C1211.81 368.596 1211.97 368.456 1212.09 368.289C1212.21 368.122 1212.3 367.931 1212.35 367.729L1227.3 304.629C1227.31 304.518 1227.31 304.406 1227.3 304.296V240.351L1245.42 217.97L1277.37 269.51ZM998.873 639.802C998.741 639.564 998.549 639.365 998.315 639.226C998.081 639.086 997.814 639.012 997.542 639.009C997.273 639.01 997.008 639.081 996.774 639.214L996.108 639.597C993.753 636.426 991.398 633.254 989.171 630.21C989.513 630.222 989.848 630.114 990.118 629.903L1026.85 601.486L1045.67 628.599C1031.54 645.685 1019.48 660.571 1015.59 665.38C1010.24 658.397 1004.04 650.238 997.977 642.104L998.31 641.899C998.658 641.691 998.911 641.356 999.017 640.965C999.122 640.573 999.07 640.156 998.873 639.802ZM988.172 627.474C987.928 627.672 987.75 627.939 987.66 628.241C978.137 615.196 970.509 604.3 969.433 601.461C971.993 598.647 988.403 585.27 1005.79 571.253L1025.04 598.954L988.172 627.474ZM1008.19 569.309C1015.87 563.068 1023.78 556.776 1030.62 551.405C1030.86 551.201 1031.04 550.927 1031.13 550.62C1031.21 550.312 1031.2 549.986 1031.09 549.684C1030.99 549.383 1030.79 549.122 1030.53 548.936C1030.27 548.749 1029.96 548.647 1029.64 548.642C1029.3 548.64 1028.96 548.757 1028.7 548.975C1014.49 560.306 967.974 597.445 966.438 600.335C966.003 601.179 964.954 603.2 993.318 641.26L957.222 661.953L953.51 651.875C953.442 651.685 953.336 651.51 953.2 651.361C953.064 651.212 952.899 651.091 952.716 651.006C952.533 650.92 952.335 650.871 952.133 650.863C951.931 650.854 951.729 650.885 951.539 650.954C951.158 651.103 950.848 651.394 950.677 651.766C950.505 652.138 950.484 652.562 950.618 652.949L954.944 664.715C955.02 664.925 955.14 665.117 955.297 665.276C955.455 665.435 955.645 665.558 955.854 665.636C956.064 665.714 956.288 665.745 956.511 665.727C956.734 665.71 956.951 665.643 957.146 665.533L977.625 653.742L983.052 663.59L955.558 681.673C955.39 681.786 955.246 681.93 955.134 682.098C955.022 682.267 954.944 682.455 954.905 682.654C954.865 682.852 954.866 683.056 954.905 683.254C954.945 683.453 955.023 683.641 955.136 683.809C955.249 683.977 955.393 684.121 955.562 684.233C955.73 684.345 955.919 684.423 956.117 684.462C956.316 684.501 956.52 684.501 956.719 684.462C956.917 684.422 957.106 684.343 957.274 684.231L985.945 665.406C986.265 665.191 986.494 664.866 986.589 664.493C986.683 664.12 986.636 663.726 986.457 663.385L980.416 652.131L995.212 643.664C1000.46 650.673 1006.66 658.832 1013.95 668.347L1009.55 727.176L940.429 779.56L901.134 701.266L882.83 620.312L898.062 617.6C898.329 617.55 898.578 617.426 898.778 617.242L1030.92 506.26L1141.28 463.365L1150.5 500.581C1150.57 500.88 1150.73 501.151 1150.96 501.357C1151.19 501.563 1151.47 501.694 1151.78 501.732L1211.43 510.122L1206.64 569.846C1183.19 564.731 1149.66 558.566 1126.59 558.566C1115.76 558.566 1107.26 559.922 1103.17 563.426C1093.44 571.816 1068.66 600.898 1047.72 626.143L1008.19 569.309ZM1040.68 723.007L1078.9 753.496C1056.93 768.28 1020.91 792.579 991.424 812.735L962.906 782.041L1040.68 723.007ZM534.137 403.794L533.599 364.941H533.753C610.552 430.319 656.631 469.478 677.111 486.769L650.846 521.376L578.987 484.109C578.764 483.999 578.52 483.938 578.271 483.93C577.921 483.925 577.58 484.039 577.305 484.254C577.029 484.469 576.835 484.771 576.754 485.111C576.673 485.451 576.711 485.808 576.862 486.123C577.012 486.439 577.265 486.694 577.579 486.846L686.941 543.578L702.301 613.636L673.809 645.301L564.14 609.773L578.527 563.017C578.586 562.824 578.606 562.621 578.587 562.42C578.568 562.219 578.509 562.024 578.413 561.845C578.318 561.667 578.189 561.51 578.033 561.381C577.876 561.253 577.696 561.157 577.503 561.099H577.042C576.714 561.106 576.396 561.216 576.135 561.413C575.873 561.61 575.68 561.885 575.583 562.198L560.965 609.313H525.356L536.185 547.798L534.137 403.794ZM1038.14 296.981L1058.03 313.785L966.822 396.326C966.665 396.468 966.538 396.642 966.45 396.835C966.362 397.029 966.314 397.238 966.31 397.451V436.227L906.561 472.522C906.379 472.624 906.222 472.763 906.1 472.931L886.311 500.735L857.921 507.206L829.224 498.97L826.229 486.513L811.765 426.328L928.525 310.742L1003.35 236.693L1039.09 206.46L1049.61 240.146C1049.7 240.414 1049.86 240.653 1050.07 240.837L1073.52 261.069L1038.07 294.704C1037.76 295.018 1037.58 295.44 1037.58 295.881C1037.6 296.092 1037.66 296.298 1037.75 296.487C1037.85 296.676 1037.98 296.843 1038.14 296.981ZM854.081 688.784L842.254 656.53L885.927 648.857L892.891 679.729L854.081 688.784ZM893.71 682.722L897.78 700.626L862.427 711.625L855.157 691.623L893.71 682.722ZM841.307 653.589L823.925 605.732L872.564 595.91C872.883 595.85 873.173 595.688 873.39 595.447C873.607 595.207 873.74 594.903 873.768 594.58L885.364 645.736L841.307 653.589ZM827.611 528.384L864.808 561.636L812.252 573.504L799.938 539.562L827.611 528.384ZM798.812 536.825L783.708 499.635L823.592 488.79L826.383 500.402V525.545L798.812 536.825ZM866.907 564.245L873.537 593.557C873.401 593.342 873.212 593.165 872.988 593.044C872.763 592.924 872.512 592.862 872.257 592.867H871.95L822.85 602.791L813.327 576.522L866.907 564.245ZM871.361 569.846L903.873 553.937L909.735 561.022C909.864 561.178 910.023 561.307 910.203 561.402C910.382 561.497 910.579 561.555 910.781 561.574C910.983 561.594 911.187 561.573 911.38 561.513C911.574 561.453 911.755 561.356 911.911 561.227C912.067 561.097 912.197 560.938 912.292 560.759C912.386 560.58 912.445 560.384 912.464 560.182C912.483 559.98 912.462 559.776 912.402 559.583C912.343 559.389 912.245 559.209 912.116 559.052L905.486 551.047C905.345 550.869 905.166 550.726 904.962 550.629C904.758 550.531 904.534 550.482 904.308 550.484C904.069 550.486 903.834 550.538 903.617 550.637L870.644 566.751L869.697 562.582L882.062 537.695L953.229 499.481L968.589 525.878L958.195 531.71C958.01 531.811 957.849 531.95 957.721 532.117C957.593 532.284 957.502 532.477 957.453 532.682C957.398 532.879 957.386 533.086 957.417 533.289C957.448 533.492 957.521 533.686 957.632 533.858L969.408 552.709C969.556 552.918 969.748 553.093 969.971 553.221L896.986 614.608L882.036 617.166L871.361 569.846ZM961.165 533.73L971.533 527.924C971.885 527.718 972.149 527.391 972.275 527.003C972.38 526.598 972.325 526.167 972.121 525.801L955.968 498.126L987.814 481.014C987.688 481.241 987.623 481.496 987.623 481.756C987.623 482.015 987.688 482.271 987.814 482.498L1009.5 518.895C1009.69 519.188 1009.96 519.413 1010.29 519.534L972.173 551.533C972.187 551.422 972.187 551.31 972.173 551.2L961.165 533.73ZM990.502 480.937C990.375 480.735 990.203 480.564 989.998 480.44C989.794 480.316 989.563 480.241 989.324 480.221L1151.81 392.949L1171.34 409.447L1164.48 451.062L1029.57 503.497C1029.4 503.541 1029.25 503.63 1029.13 503.753L1012.36 517.821C1012.32 517.646 1012.26 517.476 1012.18 517.309L990.502 480.937ZM880.167 535.342C879.888 535.488 879.663 535.722 879.527 536.007L867.598 559.896L829.455 525.903V502.269L857.435 510.275C857.687 510.339 857.951 510.339 858.203 510.275L887.54 503.574C887.913 503.491 888.242 503.272 888.462 502.96L908.404 474.978L968.64 438.401C968.867 438.261 969.055 438.066 969.185 437.833C969.315 437.6 969.383 437.338 969.382 437.071V398.116L1060.39 315.755L1149.25 390.775L880.167 535.342ZM904.385 330.283L889.025 312.251L909.991 293.067L925.351 309.565L904.385 330.283ZM927.424 307.263L910.99 289.717C910.849 289.557 910.675 289.428 910.481 289.34C910.287 289.252 910.076 289.206 909.863 289.205C909.483 289.212 909.119 289.358 908.839 289.614L886.798 309.795L870.568 290.868L916.263 246.899L949.901 285.036L927.424 307.263ZM902.081 332.329L857.845 376.119L832.885 349.16L822.082 337.496L868.315 292.991L902.081 332.329ZM855.643 378.37L810.511 423.003L795.535 384.815L831.63 352.434L855.643 378.37ZM822.773 485.797L782.556 496.77L762.895 448.172L808.975 427.863L822.773 485.797ZM795.842 537.925L767.452 547.926L734.736 460.654L760.028 449.528L795.842 537.925ZM764.457 549.026L748.918 554.525L715.638 469.018L731.766 461.907L764.457 549.026ZM746 555.574L728.259 561.84L701.891 488.892C701.438 487.61 700.652 486.471 699.613 485.593L692.189 479.352L712.874 470.246L746 555.574ZM689.68 477.152C670.609 461.063 623.736 421.417 543.762 353.303C540.409 350.439 537.03 347.651 533.676 344.914L534.982 297.595L702.224 449.349L711.696 467.432L689.68 477.152ZM561.861 612.331L673.706 648.55C673.991 648.634 674.294 648.636 674.58 648.554C674.865 648.473 675.122 648.311 675.319 648.089L705.015 615.119C705.184 614.942 705.305 614.724 705.368 614.487C705.43 614.25 705.432 614.001 705.373 613.764L689.808 542.145C689.751 541.924 689.649 541.716 689.508 541.536C689.367 541.355 689.191 541.206 688.989 541.097L653.79 522.834L679.645 488.79L688.196 496.003L743.03 647.68C743.144 648.025 743.29 648.359 743.465 648.678L759.875 679.601L696.336 723.8H642.116C641.709 723.8 641.318 723.962 641.03 724.25C640.742 724.537 640.58 724.928 640.58 725.335V797.592L585.618 810.381L564.933 753.189C564.872 752.99 564.767 752.806 564.626 752.652L533.906 719.247L529.939 652.233C529.919 652.01 529.851 651.795 529.741 651.601C529.63 651.407 529.48 651.238 529.299 651.107L516.857 641.797L512.275 612.331H561.861ZM757.366 642.053L729.411 564.756L747.331 558.439L812.815 727.125L801.039 730.783C794.404 713.852 786.797 697.319 778.255 681.264L757.366 642.053ZM750.096 557.415L765.609 551.916L829.327 721.856L815.656 726.076L750.096 557.415ZM768.502 550.893L797.02 540.662L859.432 712.495L832.245 720.935L768.502 550.893ZM860.533 715.513L897.55 811.379C889.28 816.778 880.292 820.989 870.849 823.887L833.371 723.826L860.533 715.513ZM863.477 714.592L898.778 703.645L937.92 781.53L903.694 807.491L900.186 809.819L863.477 714.592ZM1153.24 498.842L1144.18 462.24L1166.42 453.62C1166.67 453.52 1166.89 453.356 1167.06 453.145C1167.22 452.934 1167.33 452.684 1167.37 452.418L1174 412.363L1204.72 448.172L1213.96 479.607L1211.76 506.976L1153.24 498.842ZM1224.25 302.02L1205.51 294.704L1201.21 263.064L1224.25 266.364V302.02ZM1078.21 260.941L1098.25 241.86L1136.65 282.376L1120.65 297.722L1078.21 260.941ZM1158.03 181.164L1143.54 164.282C1143.26 163.981 1142.89 163.79 1142.49 163.745L1130.79 162.799C1130.41 162.829 1130.05 162.998 1129.79 163.272C1129.52 163.547 1129.37 163.909 1129.35 164.29C1129.34 164.67 1129.46 165.044 1129.7 165.339C1129.94 165.635 1130.28 165.832 1130.66 165.894L1141.72 166.789L1155.9 183.287L1118.73 218.277L1099.48 198.122C1099.34 197.97 1099.17 197.848 1098.98 197.765C1098.79 197.681 1098.59 197.637 1098.38 197.636C1097.98 197.643 1097.6 197.798 1097.3 198.071C1097.16 198.213 1097.05 198.383 1096.97 198.569C1096.89 198.756 1096.85 198.956 1096.85 199.158C1096.85 199.36 1096.89 199.56 1096.97 199.746C1097.05 199.933 1097.16 200.102 1097.3 200.245L1116.53 220.4L1075.85 258.895L1052.5 238.765L1041.62 204.286L1140.8 120.314L1178.38 161.878L1158.03 181.164ZM1085.45 163.259L1055.22 130.571L1070.94 118.958L1078.49 128.013C1078.63 128.19 1078.81 128.333 1079.01 128.43C1079.22 128.528 1079.44 128.578 1079.67 128.575C1079.89 128.574 1080.11 128.525 1080.31 128.432C1080.51 128.34 1080.7 128.205 1080.84 128.038L1104.06 100.951L1124.75 130.008L1085.45 163.259ZM1083.1 165.254L1040.63 201.217L1025.27 152.619L1052.66 132.361L1083.1 165.254ZM1038.07 203.365L1002.53 233.317L969.971 195.411L978.777 186.944L1022.71 154.46L1038.07 203.365ZM818.907 338.724L829.659 350.336L794.434 381.669L777.794 339.312L798.018 315.934L818.907 338.724ZM792.335 384.994L808.053 424.998L761.769 445.461L731.049 353.022L775.081 341.077L792.335 384.994ZM759.056 446.714L733.609 457.917L687.888 364.737L728.157 353.815L759.056 446.714ZM730.896 459.17L714.717 466.281L705.066 447.788C704.969 447.633 704.858 447.487 704.733 447.353L573.176 327.956L593.656 301.482L650.436 346.346C650.755 346.601 651.162 346.718 651.568 346.672C651.974 346.627 652.345 346.422 652.599 346.103C652.854 345.784 652.971 345.378 652.926 344.972C652.88 344.567 652.675 344.196 652.356 343.942L538.335 253.78L576.735 246.515L674.909 339.005L684.202 364.097L730.896 459.17ZM536.492 251.196L538.642 173.107L550.828 158.016L569.285 172.365L575.506 243.548L536.492 251.196ZM591.455 299.794L570.975 326.114L535.135 293.681L536.159 256.235L591.455 299.794ZM532.319 290.944L480.71 244.085C497.606 223.623 516.038 201.089 535.443 177.097L532.319 290.944ZM532.319 295.011L530.988 342.637C504.439 321.109 476.041 301.963 446.125 285.419C456.135 273.679 467.117 260.609 478.842 246.464L532.319 295.011ZM450.58 334.938C469.395 349.364 495.123 372.001 512.48 387.629C512.342 387.677 512.212 387.746 512.096 387.834L501.6 396.274L465.095 387.68L443.54 350.26L450.58 334.938ZM440.903 348.597L395.848 340.207C401.531 334.836 408.98 327.035 417.889 317.187C428.441 321.457 438.536 326.779 448.02 333.071L440.903 348.597ZM450.912 331.306C441.292 324.705 430.994 319.149 420.193 314.732C424.903 309.463 430.023 303.657 435.553 297.39C469.382 315.748 501.249 337.508 530.655 362.332L531.193 400.29C520.159 390.289 477.818 351.641 450.964 331.306H450.912ZM431.841 277.823C395.478 258.804 356.736 244.722 316.642 235.952L320.917 220.605L449.735 256.926C443.488 264.164 437.549 271.198 431.892 277.823H431.841ZM451.808 254.214L414.74 243.753L419.297 227.946L463.149 240.735L451.808 254.214ZM411.745 242.909L321.634 217.51C323.145 211.985 324.681 206.46 326.165 201.089L416.302 227.102L411.745 242.909ZM318.255 218.15C316.668 223.981 315.055 229.787 313.519 235.363L311.215 234.903C288.867 229.66 273.609 225.49 263.113 221.372L334.024 161.187L318.255 218.15ZM312.341 251.017C317.035 252.125 322.001 253.259 327.24 254.419C359.781 262.886 391.314 274.832 421.294 290.049C415.406 296.827 409.953 303.017 405.038 308.491C364.693 292.453 315.004 277.976 305.66 275.24C306.684 271.914 309.193 262.809 312.341 251.017ZM386.862 347.651C389.068 346.228 391.142 344.61 393.057 342.816L440.877 351.718L462.791 389.803C462.892 389.988 463.031 390.149 463.198 390.277C463.366 390.405 463.558 390.496 463.764 390.545L501.779 399.446C502.01 399.499 502.249 399.499 502.48 399.446C502.71 399.393 502.926 399.288 503.11 399.139L514.195 390.238C514.426 390.033 514.595 389.767 514.681 389.471C523.334 397.272 529.555 403.001 531.219 404.536L533.215 547.466L522.259 609.313H510.483L378.005 607.574C370.325 574.041 361.774 535.956 351.97 492.806C345.979 466.384 342.011 448.939 341.525 446.637C339.58 437.762 324.092 393.282 317.845 375.454C347.183 365.376 374.472 355.068 386.862 347.651ZM416.762 809.998L394.875 809.691C379.848 809.512 367.995 809.358 363.541 809.051H362.645C344.904 809.051 242.966 836.522 213.86 844.451L182.142 706.33L181.988 705.921C181.988 705.921 181.988 705.716 181.988 705.64L135.55 565.6L350.152 512.475C371.835 608.392 412.513 787.745 416.762 809.998ZM278.524 833.632C316.924 823.784 355.323 814.627 363.003 815.19C367.637 815.523 379.566 815.676 394.696 815.855L417.121 816.162C417.71 835.652 420.679 916.555 421.601 941.494L327.701 965.793L301.692 956.329L278.652 885.632L278.524 833.632ZM378.645 610.592L509.203 612.306L513.939 642.999C514.004 643.4 514.224 643.759 514.553 643.997L526.943 653.256L531.014 719.989C531.021 720.341 531.158 720.678 531.398 720.935L562.373 754.519L583.365 812.658C583.698 813.732 594.322 849.055 607.531 893.766L606.098 894.149C586.258 877.421 520.774 822.736 509.459 816.495C501.779 812.274 466.195 810.842 423.086 810.074C420.935 798.59 407.649 738.738 378.645 610.592ZM515.475 933.309C505.465 952.288 495.533 985.232 490.848 1001.93L435.732 953.874L515.475 933.309ZM614.776 907.731L626.731 904.636L719.581 893.97C720.4 906.478 722.141 932.081 724.061 960.78L634.897 976.485C628.318 953.848 621.329 930.01 614.776 907.706V907.731ZM663.415 1174.92L663.978 1178.45L602.181 1176.91L554.463 1151.34L572.792 1118.24L587.589 1122.82L583.339 1135.61C583.21 1135.99 583.24 1136.41 583.423 1136.78C583.605 1137.14 583.925 1137.42 584.312 1137.55C584.699 1137.68 585.122 1137.65 585.487 1137.47C585.851 1137.28 586.129 1136.96 586.258 1136.58L590.533 1123.79L664.772 1146.81C664.567 1163.33 663.441 1174.46 663.415 1174.69C663.386 1174.75 663.36 1174.82 663.338 1174.89L663.415 1174.92ZM569.772 1117.24L551.852 1149.8L542.15 1144.69V1108.62L549.266 1110.82L569.772 1117.24ZM549.65 1075.73H570.13V1114.09L551.289 1108.26L549.65 1075.73ZM623.121 1130.52V1118.67H664.081C664.593 1127.57 664.746 1135.96 664.721 1143.41L623.121 1130.52ZM525.843 1075.73V1100.41L505.235 1094.04L503.238 1075.75L525.843 1075.73ZM528.863 1101.31C528.875 1101.19 528.875 1101.07 528.863 1100.95V1075.7H546.578L547.858 1107.26L528.863 1101.31ZM542.124 1148.06L600.235 1179.39L602.411 1199.65L544.838 1208.14L541.945 1196.69L542.124 1148.06ZM602.718 1202.72L604.946 1223.52L551.852 1235.97L545.605 1211.21L602.718 1202.72ZM603.41 1179.98L664.414 1181.52L668.868 1208.66L607.966 1222.8L603.41 1179.98ZM667.562 1181.59L739.472 1183.38C739.625 1189.42 739.779 1195.51 739.932 1201.6L671.889 1207.97L667.562 1181.59ZM624.427 889.341C624.082 889.375 623.74 889.435 623.403 889.52L610.398 892.87C598.622 853.02 588.895 820.613 586.667 813.195L642.577 800.406C642.916 800.322 643.217 800.128 643.435 799.855C643.652 799.583 643.774 799.246 643.78 798.897V726.972H696.9C697.22 726.972 697.533 726.874 697.796 726.69L761.334 682.517L764.559 688.605C781.325 720.165 794.341 753.575 803.343 788.154C812.2 827.109 812.764 851.357 805.058 862.33C801.679 867.088 796.252 869.748 788.034 870.694L624.427 889.341ZM802.037 733.648L830.402 724.849L867.854 824.807C860.623 826.747 852.979 826.497 845.89 824.091C830.146 818.183 822.21 799.178 818.344 784.292C813.865 767.126 808.421 750.226 802.037 733.673V733.648ZM825.538 829.284C829.872 833.279 834.929 836.412 840.437 838.517C846.359 840.676 852.647 841.649 858.945 841.382L826.331 866.09L820.162 866.806C824.77 857.905 826.562 845.705 825.538 829.284ZM960.474 783.806L988.889 814.499C963.52 831.841 943.552 845.73 942.81 847.009C941.658 849.03 937.69 861.051 935.13 869.134C912.551 867.881 882.318 867.574 857.333 867.574H849.934L960.474 783.806ZM945.37 848.723C946.778 847.188 965.849 834.015 991.04 816.776L1040.52 870.208L1043.83 888.701C1012.85 881.386 974.272 872.92 952.999 870.541C948.749 870.08 943.783 869.671 938.279 869.339C941.274 859.977 944.653 850.13 945.37 848.748V848.723ZM1043.47 869.185C1043.42 868.897 1043.29 868.629 1043.08 868.418L1032.38 856.857L1063.23 844.63L1085.12 898.728C1077.59 896.835 1063.59 893.356 1047.1 889.443L1043.47 869.185ZM1066.1 843.607L1128.74 818.822L1131.86 823.784L1117.4 884.43L1088.63 899.316L1066.1 843.607ZM1030.13 854.529L993.6 815.139C1020.74 796.62 1054.45 773.805 1081.46 755.619L1103.68 773.831V776.158C1103.6 777.736 1104.01 779.299 1104.86 780.634L1127.18 816.162L1030.13 854.529ZM1103.88 769.892L1082.53 752.396L1043.31 721.089L1108.75 671.468L1103.88 769.892ZM1012.85 724.772L1017.07 668.5C1022.19 662.234 1088.19 580.436 1105.19 565.805C1116.22 556.316 1167.7 564.475 1207.28 573.12C1207.47 573.23 1207.68 573.3 1207.89 573.325H1208.1L1216.32 575.167L1207.18 578.134C1206.35 578.396 1205.57 578.793 1204.87 579.31L1012.85 724.772ZM1209.69 570.511L1212.25 538.078L1296.32 528.282L1301.87 546.877C1266.42 558.745 1238.05 568.056 1221.9 573.299C1218.42 572.481 1214.29 571.534 1209.69 570.511ZM1298.93 526.134C1298.83 525.816 1298.63 525.538 1298.36 525.341C1298.1 525.143 1297.77 525.035 1297.44 525.034H1297.26L1212.53 534.932L1216.88 480.835L1301.77 469.837L1337.61 534.805L1304.87 545.854L1298.93 526.134ZM1283.87 431.009L1282.34 405.048L1356.58 375.275L1421.04 506.004C1392.88 515.877 1365.64 525.264 1340.5 533.807L1283.87 431.009ZM1402.89 462.189L1454.24 444.591L1469.04 489.097C1453.93 494.519 1438.88 499.865 1424.03 505.083L1402.89 462.189ZM1456.65 442.136L1451.12 425.51L1529.73 399.062L1547.93 459.963C1523.21 469.325 1497.61 478.738 1472.01 487.946L1456.65 442.136ZM1525.77 375.326L1623.22 344.377C1627.93 358.752 1638.07 385.301 1651.18 418.553C1621.69 431.342 1587.18 444.949 1550.72 458.761L1525.77 375.326ZM1738.73 313.453C1718.81 322.252 1702.89 329.388 1690.09 335.169L1675.83 291.43L1723.24 269.459L1738.73 313.453ZM1716.33 240.607L1733.12 234.647L1742.39 257.028L1725.06 265.239L1716.33 240.607ZM1726.03 268.154L1744.98 259.202C1745.33 259.03 1745.61 258.727 1745.75 258.357C1745.9 257.986 1745.89 257.575 1745.74 257.207L1735.38 232.115C1735.26 231.832 1735.06 231.589 1734.8 231.416C1734.55 231.244 1734.25 231.149 1733.94 231.143C1733.77 231.119 1733.6 231.119 1733.43 231.143L1715.2 237.691L1702.76 202.393L1752.45 184.719L1777.74 253.524L1791.26 290.356C1772.49 298.592 1756.01 305.856 1741.54 312.251L1726.03 268.154ZM1722.19 266.543L1674.86 288.463L1665.72 260.455C1666.92 259.432 1668.1 258.435 1669.35 257.437C1684.36 245.416 1692.39 229.583 1694.67 205.309L1699.95 203.442L1722.19 266.543ZM1672.02 289.768L1635.84 306.521C1639.09 290.97 1648.31 276.16 1663.24 262.681L1672.02 289.768ZM1672.99 292.735L1687.22 336.448C1662.34 347.676 1650.08 353.508 1644.01 356.68C1640.86 348.616 1638.14 340.394 1635.84 332.048C1634.41 324.861 1634.22 317.481 1635.28 310.23L1672.99 292.735ZM1645.03 359.442C1652.13 355.836 1667.56 348.699 1688.2 339.389L1706.11 394.279L1666.77 411.902L1665.49 412.465C1657.73 392.847 1650.46 373.996 1645.03 359.442ZM1673.01 425.945C1695.36 415.969 1717.28 406.096 1738.45 396.556L1747.59 421.801C1747.71 422.165 1747.98 422.467 1748.32 422.647C1748.66 422.827 1749.06 422.872 1749.43 422.773L1763.23 419.09L1821.52 556.009L1768.4 582.993C1763.18 578.833 1757.02 573.981 1749.92 568.44C1737.32 558.592 1720.37 545.419 1716.38 541.378C1714.82 536.621 1709.88 524.164 1694.26 485.107C1687.48 468.174 1679.24 447.533 1671.22 426.917L1673.01 425.945ZM1708.85 392.949L1690.93 338.059C1705.19 331.664 1721.65 324.272 1739.57 316.343L1758.72 370.466C1742.7 377.781 1726.01 385.301 1708.88 393L1708.85 392.949ZM1742.59 315.167C1758.39 308.158 1775.18 300.766 1792.33 293.221L1811.87 346.372L1761.64 369.213L1742.59 315.167ZM1781.17 253.78L1806.59 244.878L1819.57 277.746L1802.63 285.189L1794.1 288.924L1781.17 253.78ZM1808.92 242.372C1808.81 242.084 1808.61 241.838 1808.36 241.665C1808.1 241.491 1807.8 241.399 1807.49 241.4C1807.32 241.373 1807.15 241.373 1806.98 241.4L1780.12 250.787L1771.52 227.613L1796.58 216.871C1796.92 216.741 1797.2 216.496 1797.38 216.179C1797.55 215.863 1797.61 215.494 1797.54 215.139C1797.47 214.784 1797.28 214.466 1796.99 214.24C1796.71 214.013 1796.36 213.894 1796 213.904C1795.79 213.868 1795.58 213.868 1795.38 213.904L1770.45 224.595L1755.37 183.491L1815.4 162.031C1815.39 162.15 1815.39 162.271 1815.4 162.39L1854.23 262.732L1822.39 276.646L1808.92 242.372ZM1613.26 149.78L1625.35 192.392L1611.88 199.196L1599.08 157.658L1613.26 149.78ZM1579.4 168.272L1596.37 159.141L1608.96 200.066L1609.14 200.424L1594.88 207.739L1579.4 168.272ZM1627.55 194.541C1645.28 194.172 1662.86 191.322 1679.8 186.075C1680.62 217.28 1674.01 233.803 1659.7 245.262C1625.27 272.784 1617.85 301.534 1619.18 323.71L1602.23 320.691L1573.64 221.781L1627.55 194.541ZM1548.34 234.008L1570.69 223.214L1585.21 273.449L1529.35 288.949L1514.5 246.873L1548.34 234.008ZM1522.08 211.781C1521.95 212.091 1521.93 212.432 1522.01 212.758C1522.08 213.083 1522.26 213.376 1522.51 213.597L1544.79 232.064L1498.94 249.482L1474.92 142.848L1511.25 133.947L1547.81 152.568L1522.08 211.781ZM1573.02 94.5056L1549.04 149.729L1513.5 131.619L1538.57 80.9749L1573.02 94.5056ZM1512.3 38.9248L1515.96 71.1018C1515.99 71.3794 1516.1 71.6439 1516.26 71.8685C1516.43 72.0931 1516.65 72.2698 1516.91 72.3806L1535.8 79.8495L1510.41 131.005L1474.28 139.881L1453.24 46.5981L1512.3 38.9248ZM1259.02 101.821H1259.38L1313.83 79.5936C1313.79 79.7621 1313.79 79.9369 1313.83 80.1052L1323.84 105.837C1323.96 106.161 1324.2 106.434 1324.5 106.61C1324.8 106.786 1325.15 106.856 1325.5 106.809L1368.63 100.235L1379.59 175.639L1366.2 185.461C1365.94 185.644 1365.74 185.907 1365.64 186.211C1365.54 186.516 1365.54 186.845 1365.64 187.149L1375.16 217.97C1375.28 218.36 1375.55 218.687 1375.91 218.879C1376.27 219.071 1376.69 219.112 1377.08 218.994C1377.47 218.875 1377.8 218.606 1377.99 218.246C1378.18 217.886 1378.23 217.465 1378.11 217.075L1369.02 187.047L1382.25 177.327C1382.48 177.158 1382.66 176.932 1382.77 176.671C1382.89 176.411 1382.93 176.125 1382.89 175.844L1371.58 98.0099C1371.55 97.8074 1371.48 97.6124 1371.38 97.4366C1371.27 97.2609 1371.13 97.1078 1370.97 96.9862C1370.81 96.8647 1370.62 96.7773 1370.42 96.729C1370.22 96.6808 1370.01 96.6727 1369.81 96.7053L1326.29 103.304L1316.72 78.7496C1316.63 78.5612 1316.5 78.3951 1316.33 78.2637L1442.46 26.9031L1493.05 251.58L1388.73 263.499C1388.59 263.473 1388.44 263.473 1388.3 263.499L1367.82 272.119L1344.78 235.645L1356.14 224.263C1356.4 224.004 1356.56 223.662 1356.59 223.297C1356.63 222.933 1356.53 222.568 1356.32 222.267L1337.45 195.973C1337.31 195.776 1337.12 195.615 1336.9 195.504C1336.69 195.393 1336.44 195.335 1336.2 195.334C1335.97 195.333 1335.74 195.385 1335.53 195.487L1280.01 222.651L1251.16 221.705L1246.78 214.645L1233.39 193.543L1258.58 175.051L1270.41 190.397C1270.53 190.557 1270.69 190.69 1270.86 190.79C1271.04 190.89 1271.23 190.954 1271.43 190.979C1271.64 191.004 1271.84 190.989 1272.03 190.936C1272.23 190.882 1272.41 190.79 1272.57 190.666C1272.73 190.542 1272.87 190.387 1272.97 190.211C1273.07 190.035 1273.13 189.842 1273.15 189.641C1273.18 189.44 1273.16 189.237 1273.11 189.042C1273.06 188.847 1272.97 188.664 1272.84 188.505L1261.09 173.158L1274.66 163.182C1274.86 163.045 1275.02 162.862 1275.13 162.648C1275.24 162.434 1275.3 162.196 1275.3 161.955V138.039C1275.3 137.671 1275.16 137.315 1274.91 137.042L1245.78 103.79L1259.02 101.821ZM1242.3 104.379L1272.33 138.679V161.187L1230.86 191.651L1214.12 193.748L1181.68 160.932L1144.02 119.291L1242.3 104.379ZM1066 33.3999L1085.32 11.0192L1126.74 58.2361L1159.49 86.7811L1170.98 112.154L1140.72 116.758C1140.5 116.798 1140.28 116.895 1140.11 117.04L1127.31 127.859L1105.65 97.4728L1066 33.3999ZM1079.46 61.2031L1102.27 98.2656L1079.69 124.611L1072.37 115.838L1049.07 89.4156L1079.46 61.2031ZM1046.77 91.4874L1068.91 116.579L1053.12 128.269L1031.9 105.248L1046.77 91.4874ZM1030.28 108.088L1050.64 130.11L1024.34 149.549L1020.02 135.814L1030.28 108.088ZM979.289 96.731L989.094 84.9651L1027.8 105.913L1017.23 134.484L978.419 144.587L971.021 135.379L979.289 96.731ZM887.131 -1.61633L940.634 53.6832L948.058 76.2429C948.139 76.4843 948.277 76.7028 948.459 76.8806C948.642 77.0585 948.864 77.1906 949.107 77.2661L970.995 83.3536L976.115 96.1426L967.718 135.43C967.678 135.653 967.685 135.882 967.738 136.102C967.791 136.322 967.889 136.529 968.026 136.709L976.525 147.247C976.707 147.484 976.954 147.66 977.237 147.756C977.519 147.852 977.824 147.862 978.112 147.785L1017.23 137.553L1021.73 151.468L976.781 184.719L953.741 206.921L819.957 62.4053L887.131 -1.61633ZM817.653 64.5027L855.054 104.993L812.994 140.572L781.814 98.5214L817.653 64.5027ZM779.766 100.798L810.485 142.106L755.651 163.489L740.547 146.378L762.87 120.493L779.766 100.798ZM694.391 30.5863L706.167 59.3871C706.3 59.7079 706.533 59.9771 706.832 60.1544L777.462 98.7771L761.385 117.372L679.057 50.8696L694.391 30.5863ZM677.188 53.2484L759.388 119.751L738.192 144.306L656.631 80.3611L677.188 53.2484ZM654.762 82.8165L734.941 145.636L686.839 157.223L628.216 117.833L654.762 82.8165ZM627.652 61.5868L652.33 80.9238L625.656 116.119L598.674 97.9843C608.273 85.9626 617.95 73.7875 627.652 61.5868ZM596.728 100.312L685.687 160.164C685.863 160.279 686.06 160.356 686.267 160.391C686.474 160.426 686.686 160.419 686.89 160.369L737.859 148.117L752.195 164.359L682.769 179.706C682.564 179.748 682.37 179.831 682.199 179.95C682.028 180.069 681.882 180.222 681.772 180.399C681.662 180.576 681.589 180.774 681.558 180.98C681.527 181.186 681.538 181.397 681.591 181.599L698.743 245.288C698.856 245.679 699.117 246.012 699.469 246.217C699.822 246.421 700.24 246.483 700.637 246.387L769.091 227.997L777.001 252.859L727.926 268.359L707.139 277.004C706.821 277.138 706.557 277.374 706.39 277.676C706.223 277.978 706.162 278.327 706.218 278.667L712.157 316.625V316.752L715.126 328.621C715.174 328.818 715.261 329.003 715.381 329.167C715.501 329.33 715.652 329.468 715.826 329.573C716 329.677 716.193 329.746 716.393 329.776C716.594 329.806 716.799 329.796 716.995 329.746C717.39 329.643 717.729 329.391 717.939 329.042C718.15 328.693 718.215 328.275 718.122 327.879L715.562 317.648L791.721 298.72L796.175 313.376L775.081 337.778L686.48 361.77L677.546 337.65C677.452 337.434 677.322 337.235 677.162 337.061L578.578 244.213L572.05 171.342C572.001 170.913 571.791 170.52 571.461 170.242L552.492 155.509C566.956 137.656 581.727 119.188 596.728 100.312ZM493.818 118.626L515.372 80.2588L517.932 75.7826L574.252 103.918C559.762 122.002 544.556 140.955 529.222 159.908L487.52 156.686L493.818 118.626ZM526.636 162.927C505.747 188.76 484.73 214.517 465.197 237.921L418.58 224.467L326.933 198.02C332.54 177.557 337.173 160.522 338.095 157.53L348.053 149.089L526.636 162.927ZM349.615 96.8333L367.918 125.89L335.791 155.637L259.913 220.042C254.497 217.99 249.601 214.767 245.578 210.604C236.874 200.577 191.818 151.186 174.359 132.054L276.169 29.7423L349.615 96.8333ZM245.065 1.04382L273.942 27.5425L253.667 48.0049L224.151 23.578L245.065 1.04382ZM222.026 25.8545L251.389 50.0511L231.83 69.7206L196.426 53.4275L222.026 25.8545ZM229.552 72.1761L172.26 129.803C170.289 127.629 168.83 126.018 168.036 125.174C166.372 122.334 160.894 112.973 153.265 100.056L177.662 48.3119L229.552 72.1761ZM145.944 117.884L155.134 133.563C155.406 134.035 155.732 134.473 156.107 134.868L161.303 140.725L160.868 141.16L140.081 132.719L145.944 117.884ZM137.342 131.568L115.941 122.872V122.744L128.869 89.1086C133.989 97.9586 139.109 106.502 143.87 114.482L137.342 131.568ZM123.544 23.3989L174.897 47.0074L151.422 96.8076C142.001 80.847 129.765 60.2312 117.477 39.8199C119.397 34.4742 121.445 28.9749 123.493 23.3989H123.544ZM110.591 58.3384C116.094 67.4697 121.598 76.7034 126.923 85.7068L113.151 121.516C113.138 121.558 113.138 121.602 113.151 121.644L90.1108 112.282C95.1796 99.2375 102.296 80.4377 110.539 58.3384H110.591ZM46.105 8.2312L90.8275 25.88C93.8995 30.9956 97.0739 36.1112 100.274 41.4825C95.7938 53.6064 91.5956 64.8608 87.8324 74.9641L29.2347 49.3861L46.105 8.2312ZM28.1852 52.1997L86.834 77.7777C82.5332 89.2622 78.7958 99.0586 75.8262 106.655L15.7949 82.3049L28.1852 52.1997ZM3.58398 112.129L14.6174 85.2463L44.3899 97.3192C44.2139 97.4402 44.0654 97.5972 43.9546 97.7797L31.1548 124.969L3.58398 112.129ZM33.1772 127.68L46.745 99.1096C46.8184 98.8505 46.8184 98.5759 46.745 98.3168L74.5718 109.597C71.6791 116.989 69.6566 121.823 68.7863 123.409C66.8151 126.273 61.9512 136.198 55.5769 149.831L28.5693 137.042L33.1772 127.68ZM15.2574 163.489C15.5287 163.471 15.7902 163.38 16.0151 163.227C16.24 163.075 16.4202 162.865 16.5375 162.62L27.3661 139.804L54.3993 152.593C51.2249 159.474 47.6921 167.198 43.9802 175.383L15.2574 163.489ZM81.4838 132.233C84.3202 126.74 86.7916 121.067 88.8821 115.249L158.59 143.539L71.0134 231.629C59.3834 232.415 47.704 232.047 36.1467 230.529C55.6792 186.458 77.823 137.451 81.4581 132.233H81.4838ZM4.81274 302.633C5.50391 300.817 6.11841 299.283 6.60474 298.157C10.1375 289.717 19.1229 269.126 29.6444 245.185C43.9204 247.466 58.4138 248.075 72.8311 247.001C37.8363 260.379 18.5853 280.713 4.78711 302.633H4.81274ZM91.8516 228.892C86.504 229.962 81.1034 230.747 75.6726 231.245L161.611 144.792L166.986 146.966C186.519 168.375 225.866 211.678 233.853 220.707C236.327 223.522 239.168 225.991 242.301 228.048C190.718 225.107 119.576 223.367 91.9285 228.892H91.8516ZM140.132 394.049L210.711 297.978C210.817 297.842 210.896 297.685 210.941 297.518L227.479 242.679C254.281 243.983 277.987 245.723 291.094 247.334C294.652 247.743 300.898 248.664 309.346 250.327C305.404 264.65 302.537 275.06 302.306 275.904C300.923 289.08 300.401 302.332 300.745 315.576L221.053 389.752L208.688 393.384C207.181 393.819 205.848 394.713 204.874 395.942L177.534 429.449L140.132 394.049ZM215.319 407.529C226.147 404.357 270.23 391.363 311.855 377.372C318.05 394.995 333.512 439.424 335.355 447.891C335.868 450.193 339.836 467.662 345.826 494.084C346.722 498.023 347.669 502.193 348.642 506.541L133.477 559.82L121.24 522.987L215.319 407.529ZM12.5438 735.566L111.103 541.378L164.503 702.519L12.5438 735.566ZM152.036 928.731C136.984 914.637 49.6378 808.156 33.5356 788.538L46.105 744.032L168.804 717.303L226.634 969.041C201.802 957.71 162.916 938.859 152.113 928.731H152.036ZM215.165 850.462C230.807 846.165 252.976 840.231 275.452 834.425V885.862C275.426 886.023 275.426 886.187 275.452 886.348L297.878 954.974L233.878 931.595L215.165 850.462ZM478.432 1266.67L378.901 1258.99L363.541 1215.33L421.729 1211.42C421.839 1211.43 421.951 1211.43 422.062 1211.42L478.381 1194.69L478.432 1266.67ZM478.432 1191.39L421.345 1208.35L362.312 1212.39L357.192 1197.84L478.432 1138.62V1191.39ZM478.432 1135.12L356.142 1194.87L350.741 1179.37V1179.14C348.36 1172.69 335.586 1147.93 319.433 1117.42L447.943 1053.47C448.125 1053.38 448.288 1053.26 448.422 1053.11C448.555 1052.95 448.657 1052.78 448.722 1052.58C448.786 1052.39 448.811 1052.19 448.796 1051.98C448.781 1051.78 448.726 1051.58 448.634 1051.4C448.453 1051.04 448.136 1050.77 447.752 1050.64C447.369 1050.51 446.95 1050.53 446.586 1050.71L317.973 1114.66C292.655 1066.9 259.708 1006.33 245.117 979.58L238.102 949.5L324.808 981.012C326.269 981.548 327.858 981.628 329.365 981.242L428.564 955.664L489.67 1008.94L495.097 1059.49L461.485 1076.21C461.154 1076.37 460.891 1076.65 460.746 1076.99C460.6 1077.32 460.581 1077.7 460.692 1078.05L478.432 1131.77V1135.12ZM481.504 1266.85V1136.76C481.625 1136.54 481.689 1136.3 481.689 1136.05C481.689 1135.81 481.625 1135.56 481.504 1135.35V1131.61C481.527 1131.45 481.527 1131.29 481.504 1131.13L464.122 1078.41L495.533 1062.81L514.579 1238.27L514.297 1238.15L494.381 1233.7V1215.95L510.201 1217.63C510.403 1217.65 510.607 1217.63 510.801 1217.58C510.995 1217.52 511.175 1217.42 511.332 1217.29C511.489 1217.16 511.619 1217.01 511.715 1216.83C511.811 1216.65 511.871 1216.45 511.891 1216.25C511.911 1216.05 511.891 1215.85 511.833 1215.65C511.774 1215.46 511.678 1215.28 511.55 1215.12C511.421 1214.97 511.263 1214.84 511.085 1214.74C510.906 1214.64 510.71 1214.58 510.508 1214.56L492.998 1212.7H492.819C492.438 1212.7 492.073 1212.85 491.795 1213.11C491.632 1213.24 491.502 1213.42 491.414 1213.61C491.325 1213.81 491.281 1214.02 491.283 1214.23V1234.95C491.286 1235.3 491.407 1235.63 491.626 1235.9C491.844 1236.17 492.147 1236.36 492.486 1236.43L513.683 1241.09C513.896 1241.13 514.116 1241.13 514.329 1241.08C514.541 1241.04 514.74 1240.94 514.911 1240.81L518.06 1269.68L481.504 1266.85ZM515.475 1189.11L538.873 1193.82V1196.89C538.846 1197.01 538.846 1197.13 538.873 1197.25L548.805 1236.59L521.312 1242.98L515.475 1189.11ZM524.255 1269.45L521.696 1246.08L549.599 1239.58L555.845 1264.29L524.255 1269.45ZM558.892 1263.8L552.62 1238.86L605.278 1226.61L608.35 1255.72L558.892 1263.8ZM611.422 1255.21L608.299 1225.92L669.38 1211.7L674.833 1244.95L611.422 1255.21ZM677.981 1244.36L672.503 1211.11L739.856 1204.69C740.112 1214.64 740.317 1224.54 740.496 1234.11L677.981 1244.36ZM742.876 1108.36H792.77L796.175 1132.66L744.08 1134.43C743.721 1124.73 743.312 1115.91 742.876 1108.36ZM746.512 1219.3L751.376 1233.42H746.819C746.716 1228.79 746.614 1224.05 746.512 1219.3ZM747.536 1274.95C747.331 1263.52 747.1 1250.4 746.819 1236.59H752.374L765.455 1274.34L747.536 1274.95ZM820.674 1272.04L768.63 1274.11L755.702 1236.48H822.568L820.674 1272.04ZM889.307 1201.65C877.915 1209.53 849.141 1230.63 845.352 1233.39H754.627L746.281 1209.12C745.718 1184.36 745.027 1158.98 744.208 1137.5L797.967 1135.66C798.186 1135.65 798.402 1135.6 798.601 1135.51C798.8 1135.42 798.976 1135.29 799.119 1135.12C799.254 1134.95 799.354 1134.76 799.411 1134.55C799.468 1134.35 799.482 1134.13 799.452 1133.92L795.612 1106.6C795.557 1106.23 795.372 1105.89 795.09 1105.65C794.808 1105.41 794.449 1105.27 794.076 1105.27H742.646C742.083 1095.91 741.469 1088.87 740.803 1085.09C736.707 1061.58 727.849 926.736 725.673 893.254L811.714 883.355C814.94 883.355 838.645 882.946 866.472 883.048V949.705C866.445 949.874 866.445 950.047 866.472 950.216L950.131 1177.45C941.555 1180.24 900.545 1193.87 889.307 1201.65ZM1132.32 1092.56C1125.13 1099.74 1109.28 1129.36 1106.85 1133.84L984.87 1178.76L953.229 1176.94L869.62 949.295V882.793C899.316 882.946 932.928 883.586 951.283 885.632C984.563 889.315 1064.74 909.291 1083.22 913.947L1123.29 1020.1C1123.67 1021.12 1124.28 1022.06 1125.05 1022.83L1169.93 1067.9C1157.62 1075.14 1137.6 1087.29 1132.32 1092.56ZM1550.65 1136.22L1546.24 1235.46L1477.59 1217.4H1477.18C1476.9 1217.4 1476.62 1217.48 1476.38 1217.63C1476.03 1217.86 1475.77 1218.22 1475.67 1218.63L1468.68 1253.34L1407.85 1237.66L1411.31 1219.17C1421.34 1203.95 1429.08 1192.11 1432.02 1187.43L1520.65 1128.55L1550.65 1136.22ZM1440.88 1162.97C1446.36 1146.45 1455.29 1119.49 1464.79 1092.38L1517.6 1112.05L1440.88 1162.97ZM1520.65 1110L1465.68 1089.54C1479.05 1051.5 1493.33 1013.98 1500.47 1005.49C1502.58 1003.07 1504.87 1000.82 1507.33 998.763L1562.07 1033.29L1566.72 1056.8L1570.59 1076.95L1520.65 1110ZM1509.84 996.691C1530.53 980.27 1567.67 963.44 1578.96 959.885C1582.96 958.165 1586.85 956.209 1590.61 954.027C1602.41 954.027 1618.18 952.544 1632.23 951.214C1617.69 962.008 1600.13 990.297 1598.52 992.931L1563.06 1030.38L1509.84 996.691ZM1565.34 1033.29L1601.05 1018.56L1606.61 1027.61L1569.28 1053.83L1565.34 1033.29ZM1613.98 1124.84L1632.64 1127.57L1647.13 1177.96L1633.62 1182.44L1613.98 1124.84ZM1655.71 1246.92L1645.8 1229.5C1646.63 1228.49 1647.19 1227.28 1647.43 1225.99C1647.66 1224.7 1647.56 1223.37 1647.13 1222.14L1634.61 1185.38L1647.98 1180.93L1651.54 1193.23C1651.61 1193.53 1651.78 1193.8 1652.01 1194C1652.25 1194.2 1652.54 1194.33 1652.84 1194.36L1668.2 1196.1L1685.87 1221.34L1655.71 1246.92ZM1688.37 1219.32L1670.45 1193.74C1670.33 1193.57 1670.17 1193.42 1669.99 1193.31C1669.8 1193.2 1669.59 1193.13 1669.38 1193.1L1654.33 1191.37L1635.49 1125.76C1635.4 1125.47 1635.24 1125.21 1635.01 1125.02C1634.78 1124.82 1634.5 1124.7 1634.21 1124.66L1612.98 1121.54L1597.88 1077.16C1603.72 1073.19 1614.72 1065.96 1629.06 1057.57L1658.4 1062.38C1658.35 1062.61 1658.35 1062.86 1658.4 1063.09L1681.39 1169.47C1681.43 1169.67 1681.51 1169.87 1681.63 1170.04C1681.75 1170.21 1681.9 1170.36 1682.08 1170.47C1682.26 1170.57 1682.46 1170.64 1682.68 1170.67C1682.89 1170.7 1683.1 1170.68 1683.31 1170.62L1719.66 1160.67L1729.31 1184.56L1688.37 1219.32ZM1673.53 1118.62L1661.44 1062.91L1716.51 1071.92L1724.6 1107.11L1673.53 1118.62ZM1725.29 1110.13L1735.25 1153.28L1684.05 1167.3L1674.24 1121.64L1725.29 1110.13ZM1716.3 1068.77L1633.28 1055.16C1656.32 1041.91 1687.04 1026.49 1718.66 1016.8L1716.3 1068.77ZM1759.21 1227.66L1743.16 1223.62L1740.8 1179.5L1784.09 1174.82L1793.28 1214.97L1759.21 1227.66ZM1796.33 1214.49L1787.19 1174.59L1854.21 1167.22L1851.93 1219.48L1796.33 1214.49ZM1858.89 1270.02L1842.89 1266.67L1854.57 1222.83L1867.73 1224L1858.89 1270.02ZM1899.67 1206.38L1869.29 1221.04L1855.03 1219.76L1857.28 1167.48L1903.03 1179.39L1899.67 1206.38ZM1917.06 1136.45L1913.06 1178.81L1884.16 1171.29L1889.08 1130.92L1917.06 1136.45ZM1865.04 1069.95L1860.35 1122.51L1819.39 1124.58L1811.02 1070.87L1865.04 1069.95ZM1816.4 1126.47C1816.47 1126.85 1816.67 1127.18 1816.97 1127.42C1817.26 1127.66 1817.63 1127.79 1818.01 1127.78L1861.53 1125.55L1886.03 1130.34L1881.17 1170.52L1856.23 1164.02H1855.95H1855.67L1739.14 1176.63C1738.91 1176.68 1738.69 1176.78 1738.5 1176.91L1732 1182.44L1722.86 1159.9L1737.47 1155.86C1737.86 1155.76 1738.18 1155.51 1738.39 1155.18C1738.59 1154.84 1738.66 1154.43 1738.58 1154.05L1719.71 1072.2L1807.8 1070.87L1816.4 1126.47ZM1766.4 1007.15C1776.88 1006.55 1787.38 1006.66 1797.84 1007.49L1807.36 1067.7L1719.45 1069.03L1721.81 1015.72C1736.31 1011.23 1751.27 1008.36 1766.4 1007.15ZM1723.16 999.223C1654.05 1018.07 1588.43 1064.75 1584.21 1067.82L1573.23 1075.11L1569.8 1057.21L1609.45 1029.33C1609.77 1029.11 1609.99 1028.77 1610.07 1028.39C1610.15 1028.01 1610.09 1027.62 1609.89 1027.28L1602.9 1015.85C1602.71 1015.53 1602.42 1015.29 1602.07 1015.18C1601.72 1015.06 1601.34 1015.08 1601 1015.24L1569.57 1028.2L1601.03 994.952L1601.23 994.696C1601.49 994.287 1625.68 954.846 1640.04 950.497H1640.63L1642.83 950.293V978.659C1642.84 979.008 1642.96 979.344 1643.18 979.617C1643.4 979.89 1643.7 980.084 1644.04 980.168L1723.16 999.223ZM1676.93 984.925L1646.08 977.431V949.884C1652.02 949.321 1657.01 948.86 1660.01 948.733C1667.59 949.084 1675.11 950.154 1682.49 951.93L1676.93 984.925ZM1871.49 822.889L1867.9 839.464C1867.83 839.766 1867.83 840.082 1867.9 840.384L1887.54 888.113L1886.23 920.085L1774.82 963.414L1731.43 960.371C1727.52 959.322 1673.3 945.024 1659.75 945.535C1655.84 945.714 1648.67 946.431 1640.37 947.223C1627.45 948.502 1610.3 950.19 1596.68 950.676C1646.77 922.72 1788.11 837.852 1858.87 795.239L1871.49 822.889ZM1852.26 781.248C1736.5 850.974 1585.46 941.11 1574.51 945.126C1560.89 949.321 1507.46 973.262 1488.65 995.566C1475.85 1010.68 1449.63 1086.9 1425.64 1159.47C1422.6 1168.68 1419.96 1176.66 1419.25 1178.55C1417.61 1181.29 1407.85 1196.17 1394.34 1216.66L1277.45 1206.2L1233.49 1110.44C1233.11 1109.6 1232.58 1108.84 1231.93 1108.19L1136.98 1013.32L1098.58 911.389L1127.54 896.4C1128.53 895.888 1129.4 895.164 1130.09 894.281C1130.77 893.397 1131.26 892.375 1131.5 891.285L1147.63 824.168C1148.1 822.147 1147.75 820.023 1146.66 818.259L1119.11 774.444L1124.82 659.344L1213.17 592.406C1234.16 585.628 1507.95 497.179 1656.94 433.055C1664.03 450.96 1671.79 470.476 1679.98 490.81C1690.22 516.619 1700.05 541.097 1701.74 546.059C1701.97 550.177 1704.81 552.76 1740.44 580.64C1755.01 592.022 1773.16 606.218 1776.28 609.748C1780.3 614.352 1790.06 639.674 1797.17 661.492C1797.17 661.773 1797.38 662.055 1797.51 662.336L1852.26 781.248ZM1906.59 572.967L1876.53 588.314C1876.22 588.484 1875.98 588.754 1875.84 589.081L1856.97 631.745C1856.95 631.872 1856.95 632.002 1856.97 632.129L1853.34 656.402L1817.91 669.6L1811.74 656.223C1808.85 647.373 1795.89 608.648 1787.91 599.542C1782.65 594.365 1777.05 589.537 1771.16 585.091L1824.21 558.157C1824.56 557.986 1824.83 557.684 1824.96 557.317C1825.1 556.95 1825.08 556.545 1824.92 556.188L1780.92 452.878L1845.56 427.71L1906.59 572.967ZM1844.38 424.922L1779.71 449.988L1766.15 418.169L1830.99 393.077L1844.38 424.922ZM1829.79 390.238L1763.64 415.816L1749.99 419.448L1741.26 395.328C1768.22 383.153 1793.84 371.515 1817.4 360.772L1829.79 390.238ZM1875.33 317.29C1857.41 325.449 1837.11 334.836 1814.68 345.067L1795.15 291.967L1855.34 265.597L1875.33 317.29ZM1916.72 235.44L1857.05 261.453L1818.34 161.392C1818.34 161.392 1818.34 161.239 1818.16 161.136L1883.88 137.656L1916.72 235.44ZM1882.91 134.689L1835.37 151.698C1835.38 151.587 1835.38 151.476 1835.37 151.365L1825.54 126.12L1873.41 106.246L1882.91 134.689Z" fill="#2C5DEB"/>
</g>
</svg>
