<svg width="960" height="560" viewBox="0 0 960 560" fill="none" xmlns="http://www.w3.org/2000/svg">
<mask id="mask0_970_64" style="mask-type:alpha" maskUnits="userSpaceOnUse" x="0" y="0" width="960" height="560">
<rect width="960" height="560" rx="55" fill="#2C5DEB"/>
</mask>
<g mask="url(#mask0_970_64)">
<path d="M1841.41 555.573L1851.09 559H1841.87L1840.41 558.488L1840.26 559H1837.01L1837.52 557.465L1675.14 499.838C1671.28 517.879 1666.9 537.6 1661.98 559H1646.08C1666.79 467.789 1678.11 410.955 1679.64 373.969C1663.05 368.793 1645.82 365.91 1628.45 365.4L1615.65 409.804C1615.55 410.124 1615.35 410.405 1615.09 410.607C1614.82 410.809 1614.5 410.922 1614.16 410.929C1613.9 410.921 1613.65 410.86 1613.42 410.75L1576.66 390.646C1576.33 390.466 1576.07 390.172 1575.95 389.818C1575.82 389.464 1575.83 389.076 1575.97 388.728L1592.32 347.956L1571.18 337.265L1548.14 326.113L1525.48 344.913L1618.33 559H1614.95L1574.25 465.206L1518.93 487.203L1515.37 518.561L1567.34 526.618C1567.68 526.679 1568 526.853 1568.24 527.112C1568.47 527.371 1568.62 527.701 1568.64 528.051L1570.72 559H1567.62L1565.65 529.483L1545.81 526.414L1544.04 559H1520.34L1523.21 522.91L1513.5 521.4L1476.51 516.566L1468.24 559H1465.09L1473.39 516.157L1452.55 513.42L1447.84 534.394L1463.2 559H1459.54L1446.74 538.666L1442.16 559H1435.83L1441.64 533.141L1383.2 509.277L1368.53 548.948C1368.4 549.298 1368.15 549.588 1367.82 549.766C1367.49 549.945 1367.11 549.999 1366.74 549.92L1349.31 545.802L1345.44 559H1342.22L1346.87 543.653C1346.99 543.274 1347.24 542.952 1347.58 542.753C1347.93 542.553 1348.33 542.491 1348.72 542.579L1366.23 546.723L1380.46 508.356L1258.38 458.504L1174.15 445.715L1162.25 471.882C1162.16 472.086 1162.03 472.268 1161.87 472.419L1128.97 501.015L1086.55 549.434L1078.16 559H1074.03L1083.33 548.411L1064.31 526.414L1046.13 554.319C1046 554.538 1045.81 554.718 1045.58 554.843C1045.36 554.968 1045.11 555.035 1044.85 555.035C1044.55 555.029 1044.26 554.941 1044.01 554.78C1043.66 554.555 1043.42 554.203 1043.33 553.8C1043.25 553.398 1043.32 552.978 1043.54 552.631L1062.82 523.037L1077.77 498.559L1047.05 469.989L1031.31 487.893L1031.69 519.84C1031.7 520.044 1031.66 520.246 1031.58 520.435C1031.51 520.624 1031.39 520.797 1031.25 520.942C1031.11 521.087 1030.94 521.202 1030.75 521.281C1030.56 521.36 1030.36 521.4 1030.16 521.4C1029.96 521.404 1029.76 521.367 1029.57 521.293C1029.38 521.219 1029.21 521.108 1029.07 520.968C1028.93 520.827 1028.81 520.66 1028.74 520.475C1028.66 520.29 1028.62 520.092 1028.62 519.891L1028.21 487.279C1028.21 486.902 1028.34 486.537 1028.59 486.256L1044.77 467.891L1029.41 453.747L989.401 475.437C989.173 475.559 988.918 475.621 988.659 475.616C988.433 475.618 988.209 475.568 988.005 475.471C987.801 475.373 987.622 475.23 987.481 475.053L978.265 464.003L973.581 475.59C973.493 475.813 973.356 476.012 973.178 476.172C973 476.332 972.787 476.448 972.557 476.511L950.72 482.573L943.45 504.698C943.377 504.919 943.255 505.12 943.091 505.286L891.124 559H882.983L816.655 495.848L779.612 460.576L708.778 499.403L696.541 529.304L719.094 559H715.229L676.65 508.151C676.373 508.372 676.032 508.498 675.677 508.509C675.445 508.508 675.217 508.455 675.008 508.353C674.8 508.251 674.617 508.103 674.474 507.921C674.345 507.764 674.248 507.582 674.19 507.387C674.132 507.192 674.113 506.988 674.134 506.786C674.156 506.583 674.217 506.387 674.315 506.209C674.413 506.031 674.545 505.873 674.705 505.747L654.225 478.609L629.598 497.92C636.425 506.446 643.174 514.972 649.847 523.498C654.02 528.613 658.167 533.959 662.289 539.203L678.109 559H650.257C645.521 546.211 641.271 537.412 637.739 532.936L636.177 530.967L609.63 549.664C609.381 549.856 609.074 549.955 608.76 549.945C608.517 549.949 608.277 549.896 608.059 549.789C607.841 549.683 607.651 549.526 607.505 549.332L597.624 536.236C597.376 535.897 597.273 535.473 597.338 535.058C597.403 534.643 597.63 534.271 597.97 534.023C598.309 533.776 598.733 533.673 599.148 533.738C599.564 533.802 599.936 534.029 600.184 534.368L609.093 546.211L634.257 528.486C618.309 508.356 598.085 482.906 575.992 455.281L519.315 483.699L560.812 559H557.305L548.626 543.295L519.852 559H513.427L547.141 540.584L512.659 478.123L490.976 439.551C490.902 439.397 490.85 439.233 490.822 439.065L484.218 400.417L350.434 410.648L370.913 429.627C371.174 429.877 371.342 430.208 371.388 430.566C371.435 430.925 371.358 431.288 371.169 431.596L352.584 460.985L412.692 559H409.083L350.485 463.441L247.011 558.284L247.446 559H238.512L242.352 557.44L193.482 504.826L124.568 536.517C127.256 543.832 130.046 551.378 132.837 559H116.325C113.227 550.508 110.155 542.17 107.186 534.113C101.887 542.86 96.7155 551.301 91.8259 559H73.6503C78.0278 552.017 82.9172 544.114 88.1396 535.596L45.7979 552.299L29.9517 559H22.0413L43.2378 550.048L12.7998 475.872L0 480.987V477.662L11.6991 472.93L0.0256348 444.488V436.226L2.40637 442.007L29.6957 429.218L21.7085 412.413L0.0256348 420.572V417.273L20.5054 409.599L13.8239 395.531C13.6985 395.267 13.651 394.973 13.6873 394.683C13.7236 394.393 13.8419 394.119 14.0286 393.894L0.12793 399.624V396.273L42.7771 378.727L36.2491 364.249L0.0256348 379.519V376.169L34.8923 361.589C30.2588 351.358 25.574 340.692 21.0685 330.512L0.0256348 339.03V322.378L14.8223 316.393C9.24158 303.604 4.19824 292.196 0.281494 283.142L0.0256348 283.27V239.787C15.5646 268.639 37.0682 296.519 87.3461 311.405C89.906 311.789 92.4659 312.224 95.0259 312.736C117.579 317.237 175.562 316.521 224.458 314.245L208.228 260.531L167.268 204.822L115.48 241.936C115.224 242.135 114.909 242.243 114.584 242.243C114.336 242.243 114.093 242.183 113.874 242.067C113.655 241.951 113.468 241.783 113.33 241.578C113.097 241.244 113.005 240.832 113.072 240.431C113.139 240.029 113.36 239.67 113.688 239.429L165.399 202.443L137.624 164.665L0.0256348 221.55V218.225L137.317 161.467L175.716 125.147L110.616 45.2668L0.0256348 100.259V83.0455L102.271 32.0942L0.0256348 -169.255V-197.084L29.03 -190.767L20.2494 -221.972C13.6666 -218.688 6.91602 -215.751 0.0256348 -213.173V-229.747C6.86951 -232.538 13.5452 -235.723 20.0189 -239.288C30.95 -252.665 124.978 -367.433 141.566 -382.985C158.155 -398.536 217.623 -425.086 232.112 -431.404C272.508 -505.58 332.412 -616.716 335.868 -626.794C337.071 -632.702 341.909 -677.259 346.389 -719.898H361.902C361.006 -711.227 360.008 -701.788 358.984 -692.273L368.661 -719.898H385.019L379.899 -705.241L451.808 -710.715L450.452 -719.898H453.575L454.906 -710.971L518.393 -715.805L518.854 -719.898H525.049L524.588 -715.524L556.588 -710.408L559.148 -720H562.348L559.788 -709.769L608.683 -701.788L610.603 -719.898H613.726L611.729 -701.277L675.319 -690.892L680.081 -719.898H683.229L678.417 -690.381L740.752 -680.149C741.033 -693.91 741.264 -706.904 741.443 -718.209L731.715 -719.898H776.028L820.52 -718.133V-719.898H823.618L825.743 -679.484H845.966C846.299 -679.484 846.622 -679.377 846.888 -679.178C847.118 -678.998 865.217 -665.724 879.323 -655.595L882.625 -677.003L859.227 -687.235C858.985 -687.348 858.774 -687.52 858.613 -687.734C858.453 -687.948 858.347 -688.198 858.305 -688.462L854.593 -717.161C854.547 -717.552 854.651 -717.946 854.884 -718.264C855.117 -718.582 855.461 -718.8 855.848 -718.875L861.454 -719.898H878.299L857.819 -716.061L861.249 -689.664L884.929 -679.433C885.242 -679.293 885.501 -679.055 885.667 -678.755C885.833 -678.456 885.897 -678.11 885.851 -677.771L882.087 -653.651C885.62 -651.093 888.743 -648.893 891.124 -647.256C902.593 -639.327 948.416 -624.236 952.41 -623.059L984.46 -624.876L1041.93 -688.999L1049.61 -713.094L1039.37 -719.898H1044.93L1050.58 -716.163L1051.74 -719.898H1054.96L1044.72 -687.772C1044.67 -687.562 1044.56 -687.369 1044.41 -687.209L987.788 -623.98L1108.11 -579.705C1110.92 -580.319 1128.59 -584.667 1131.99 -595.307C1133.27 -599.349 1142.54 -620.067 1154.62 -647.026L1095.74 -675.827L1080.2 -639.276C1080.12 -639.078 1079.99 -638.9 1079.83 -638.754C1079.67 -638.609 1079.49 -638.499 1079.28 -638.432C1079.11 -638.393 1078.94 -638.393 1078.77 -638.432C1078.51 -638.436 1078.25 -638.506 1078.03 -638.636L1042.42 -658.434C1042.24 -658.534 1042.08 -658.671 1041.95 -658.835C1041.82 -658.999 1041.73 -659.187 1041.68 -659.388C1041.62 -659.588 1041.61 -659.798 1041.64 -660.003C1041.67 -660.209 1041.75 -660.406 1041.85 -660.582L1071.24 -707.953C1071.42 -708.236 1071.69 -708.453 1072 -708.573C1072.32 -708.693 1072.66 -708.709 1072.98 -708.618L1102.65 -700.254L1111.05 -719.898H1114.4L1096.89 -678.692L1155.77 -649.814L1157.31 -653.241C1166.4 -673.371 1177.07 -697.159 1187.08 -719.898H1190.41C1180.45 -697.236 1169.67 -673.218 1160.13 -651.988C1146.74 -622.139 1136.16 -598.556 1134.83 -594.387C1131.27 -583.311 1115.79 -578.452 1110.21 -577.045C1113.97 -570.036 1128.13 -544.049 1134.45 -537.731C1139.57 -532.616 1160.05 -520.287 1172.13 -513.151L1220.18 -561.11L1293.06 -719.898H1310.04L1279.06 -652.423L1392.54 -662.654C1381.46 -679.408 1368.07 -699.614 1354.61 -719.898H1373.14C1384.71 -702.453 1396.72 -684.319 1406.93 -668.742L1397.41 -719.898H1400.53L1407.29 -683.705L1468.06 -699.435L1463.87 -719.898H1466.89L1478.35 -663.805L1546.24 -681.531L1543.43 -719.898H1546.53L1549.42 -680.559L1553.87 -578.247C1553.89 -577.894 1553.79 -577.546 1553.58 -577.262C1553.37 -576.978 1553.06 -576.775 1552.72 -576.687L1524.15 -569.397L1584.64 -529.137L1631.29 -666.184C1619.3 -682.422 1610.19 -700.588 1604.33 -719.898H1620.48C1625.89 -703.87 1633.74 -688.771 1643.75 -675.136L1653.99 -693.041C1654.1 -693.244 1654.25 -693.42 1654.44 -693.553C1654.63 -693.686 1654.84 -693.774 1655.07 -693.808C1655.29 -693.844 1655.52 -693.831 1655.74 -693.769C1655.95 -693.707 1656.15 -693.598 1656.32 -693.45L1677.44 -675.545L1734.15 -719.898H1739.27L1679.95 -673.499L1737.91 -624.313L1740.14 -667.795C1740.15 -668.122 1740.27 -668.434 1740.48 -668.687C1740.69 -668.941 1740.97 -669.121 1741.29 -669.202L1758.93 -673.857C1759.23 -673.947 1759.55 -673.947 1759.85 -673.857L1795.3 -660.506L1851.44 -665.621L1839.8 -709.308H1817.99C1817.64 -709.303 1817.3 -709.414 1817.03 -709.623C1816.76 -709.831 1816.56 -710.126 1816.47 -710.459L1814.02 -719.898H1817.22L1819.16 -712.378H1840.82L1858.3 -716.035L1857.56 -719.898H1860.71L1861.33 -716.675L1876.71 -719.898H1891.84L1861.91 -713.657L1870.95 -666.67L1901.31 -652.014L1920 -655.671V-652.525L1902.82 -649.175L1906.05 -623.162L1920 -626.794V-623.622L1916.08 -622.599L1920 -581.035V-548.116L1917.44 -576.252L1863.42 -565.739L1868.14 -512.946L1920 -514.686V-511.591L1866.78 -509.8L1810.46 -510.67L1801.14 -450.766C1843.2 -454.373 1888.82 -467.111 1920 -477.367V-461.074C1912.7 -458.721 1904.64 -456.291 1896.27 -453.861C1850.88 -440.868 1811.79 -434.32 1779.51 -434.32C1774.67 -434.32 1769.99 -434.473 1765.48 -434.755C1753.39 -435.653 1741.39 -437.605 1729.64 -440.586L1680.05 -428.641L1685.48 -395.544C1705.96 -399.892 1730.41 -406.389 1730.79 -406.491H1731.07L1774.98 -409.56C1775.2 -409.624 1775.43 -409.624 1775.64 -409.56L1887.33 -366.078L1920 -401.503V-396.95L1889.28 -363.699L1890.64 -331.113C1890.69 -330.903 1890.69 -330.683 1890.64 -330.473L1871.31 -282.77L1873.87 -270.646L1920 -370.477V-333.671L1872.23 -230.336L1887.44 -221.128L1920 -243.738V-224.964L1897.34 -209.234L1908.94 -182.479C1911.93 -189.437 1915.63 -196.064 1920 -202.251V-167.695C1919.15 -164.937 1918.44 -162.137 1917.88 -159.306C1917.84 -158.836 1917.74 -158.372 1917.59 -157.924C1915.09 -144.228 1915.92 -130.132 1920 -116.821V-91.2427L1908.61 -104.441C1908.1 -105.024 1907.69 -105.679 1907.38 -106.385C1900.86 -123.241 1899.03 -141.545 1902.08 -159.357L1881.6 -206.625L1865.68 -216.242L1819.09 -115.414L1855.13 -101.96C1855.39 -101.863 1855.61 -101.701 1855.79 -101.49C1855.96 -101.279 1856.08 -101.027 1856.13 -100.758L1859.87 -75.7936L1878.4 -33.8201L1909.12 -18.0641C1909.46 -17.8833 1909.73 -17.5815 1909.86 -17.2175C1909.99 -16.8535 1909.98 -16.4532 1909.84 -16.0947L1833.04 166.455L1820.16 197.507L1839.85 206.485L1920 19.561V27.3879L1842.71 207.789L1854.06 212.905L1920 57.5187V65.3455L1856.85 214.184C1865.32 218.046 1873.33 221.857 1880.91 225.233L1903.95 165.279C1904.02 165.089 1904.13 164.915 1904.27 164.767C1904.41 164.62 1904.58 164.501 1904.76 164.418C1904.95 164.335 1905.15 164.289 1905.35 164.283C1905.55 164.277 1905.76 164.311 1905.95 164.383C1906.14 164.456 1906.31 164.564 1906.46 164.704C1906.61 164.843 1906.72 165.01 1906.81 165.195C1906.89 165.381 1906.94 165.581 1906.94 165.784C1906.95 165.987 1906.91 166.189 1906.84 166.378L1883.7 226.487L1920 243.343V260.326L1878.14 241.015L1858.18 292.631L1917.7 318.567L1920 311.738V322.916L1919.56 322.737L1876.2 451.905L1920 470.091V473.416L1875.23 454.821L1841.41 555.573ZM1540.95 559L1542.74 525.979L1526.23 523.421L1523.51 558.079L1540.95 559ZM1101.45 -697.389L1073.29 -705.344L1045.26 -660.224L1077.95 -642.064L1101.45 -697.389ZM1675.8 496.794L1838.49 554.524L1872.36 453.644L1822.93 433.182C1822.55 433.034 1822.25 432.744 1822.09 432.375C1821.92 432.007 1821.91 431.589 1822.06 431.213L1832.45 404.458C1832.48 404.384 1832.53 404.315 1832.58 404.253L1700.38 356.934L1694.93 354.965C1696.98 386.068 1689.99 430.394 1675.8 496.794ZM711.389 -562.926C711.362 -563.199 711.409 -563.474 711.526 -563.721C711.644 -563.969 711.826 -564.181 712.055 -564.333C712.292 -564.469 712.561 -564.542 712.835 -564.542C713.109 -564.542 713.379 -564.469 713.616 -564.333L736.784 -552.874C737.782 -570.957 738.653 -596.356 739.344 -623.187L667.025 -621.397L666.385 -617.483C666.538 -615.821 667.588 -604.541 667.741 -588.401V-588.12C667.741 -579.833 667.741 -570.215 667.05 -559.984C667.05 -559.984 667.05 -559.856 667.05 -559.805C666.2 -544.252 664.076 -528.793 660.702 -513.586C656.887 -497.011 647.031 -461.714 635.691 -422.375L724.291 -406.747L724.829 -414.42L711.389 -562.926ZM726.186 -433.425C729.257 -475.347 732.611 -516.681 734.761 -529.035C735.427 -532.769 736.041 -539.957 736.605 -549.497L714.717 -560.317L726.186 -433.425ZM510.15 -583.363L505.44 -540.213L538.873 -550.444V-586.739L510.15 -583.363ZM538.873 -589.731V-633.674L515.116 -628.891L510.483 -586.636L538.873 -589.731ZM576.914 -454.654L584.978 -478.186L499.193 -483.302L497.837 -470.845L576.914 -454.654ZM497.555 -467.776L496.07 -454.271L566.879 -425.291L575.941 -451.713L497.555 -467.776ZM586.079 -481.204L589.919 -492.407C590.054 -492.794 590.338 -493.111 590.708 -493.288C591.078 -493.466 591.503 -493.489 591.89 -493.354C592.277 -493.218 592.594 -492.934 592.772 -492.565C592.949 -492.196 592.973 -491.771 592.837 -491.384L569.26 -422.759C569.194 -422.557 569.088 -422.371 568.947 -422.212C568.806 -422.054 568.633 -421.926 568.44 -421.838C568.229 -421.799 568.012 -421.799 567.8 -421.838C567.606 -421.802 567.406 -421.802 567.212 -421.838L495.737 -451.099V-450.741C504.057 -420.405 515.603 -387.64 523.615 -374.237L611.857 -351.575C630.187 -413.806 651.665 -488.059 657.783 -514.481C660.991 -529.022 663.054 -543.791 663.953 -558.654H621.56C621.152 -558.654 620.762 -558.816 620.474 -559.104C620.186 -559.392 620.024 -559.782 620.024 -560.189V-572.517L591.378 -563.719L605.509 -521.106C605.631 -520.719 605.598 -520.3 605.417 -519.937C605.235 -519.574 604.919 -519.296 604.536 -519.162H604.05C603.72 -519.162 603.399 -519.265 603.133 -519.458C602.866 -519.651 602.667 -519.924 602.565 -520.236L588.434 -562.875L573.074 -558.091V-517.167C573.074 -516.753 572.909 -516.356 572.617 -516.063C572.324 -515.771 571.927 -515.607 571.512 -515.607H502.726L499.526 -486.371L586.079 -481.204ZM431.636 -329.143L439.751 -347.917C439.91 -348.283 440.202 -348.574 440.569 -348.731C440.935 -348.888 441.348 -348.899 441.722 -348.762L456.57 -342.955C456.843 -342.855 457.082 -342.679 457.258 -342.448C457.435 -342.217 457.543 -341.94 457.568 -341.651L459.693 -314.538L502.445 -302.977C502.82 -302.864 503.141 -302.616 503.344 -302.28C503.547 -301.945 503.619 -301.546 503.545 -301.161L497.785 -273.025C497.715 -272.675 497.527 -272.36 497.252 -272.132C496.977 -271.904 496.632 -271.777 496.275 -271.772H495.968L424.289 -286.377C423.879 -274.406 423.546 -264.61 423.367 -259.264C458.387 -259.904 499.629 -261.234 506.412 -264.943C515.603 -270.058 566.495 -311.98 598.571 -338.94L427.745 -382.985C427.335 -371.884 426.593 -351.396 425.799 -329.962L431.636 -329.143ZM425.825 -326.867C425.364 -313.95 424.878 -300.905 424.468 -289.497L495.123 -275.123L500.243 -300.368L457.799 -311.853C457.488 -311.936 457.21 -312.113 457.004 -312.361C456.797 -312.608 456.673 -312.913 456.647 -313.234L454.496 -340.449L441.953 -345.334L433.965 -326.816C433.829 -326.507 433.594 -326.253 433.298 -326.091C433.002 -325.929 432.661 -325.869 432.327 -325.92L425.825 -326.867ZM303.919 240.478C303.945 240.578 303.945 240.684 303.919 240.785C303.629 253.417 304.056 266.056 305.199 278.64C308.553 277.668 316.693 275.289 327.599 271.939C327.585 271.82 327.585 271.7 327.599 271.581L332.719 228.584C332.77 228.177 332.98 227.807 333.304 227.555C333.629 227.303 334.039 227.19 334.447 227.241C334.854 227.292 335.225 227.503 335.477 227.826C335.729 228.15 335.842 228.561 335.791 228.968L330.671 270.967C350.664 264.751 378.44 255.62 402.862 246.028C391.368 233.393 382.92 225.003 378.875 222.573C367.073 215.488 339.503 205.231 309.935 195.256C305.788 208.071 304.226 225.054 303.868 240.478H303.919ZM307.094 194.258C277.807 184.436 247.011 174.998 227.863 169.243L300.95 237.229C301.436 222.369 303.1 206.485 307.042 194.258H307.094ZM732.841 267.948C732.955 267.577 733.207 267.264 733.545 267.073C733.884 266.883 734.282 266.83 734.659 266.925L759.158 272.732C759.539 272.818 759.872 273.045 760.091 273.369C760.31 273.692 760.397 274.086 760.335 274.471L757.033 294.677L777.922 301.277L790.594 261.375L714.794 242.55L709.29 277.643L727.389 285.316L732.841 267.948ZM730.281 286.237L754.038 293.757L757.033 275.392L735.325 270.276L730.281 286.237ZM760.54 355.962L768.22 332.021L701.38 314.117L694.698 338.978L760.54 355.962ZM693.828 341.894L684.996 374.839L753.859 390.007L759.798 359.083L693.828 341.894ZM763.075 358.111L756.828 390.748L812.354 412.336L851.035 367.575L786.652 283.909L780.38 303.655L771.625 331.356L763.075 358.111ZM814.991 413.999L857.23 449.808L888.334 416.096L852.929 370.056L814.991 413.999ZM787.804 280.328L890.51 413.794L951.437 347.982L820.059 221.652L800.015 243.291L842.254 292.222C842.385 292.377 842.485 292.555 842.547 292.748C842.609 292.941 842.632 293.144 842.615 293.346C842.599 293.548 842.542 293.745 842.45 293.925C842.357 294.105 842.23 294.265 842.075 294.396C841.921 294.527 841.742 294.626 841.549 294.688C841.355 294.75 841.152 294.773 840.95 294.757C840.748 294.74 840.551 294.684 840.371 294.591C840.191 294.499 840.03 294.372 839.899 294.217L798.53 246.361L787.804 280.328ZM955.661 347.803L967.693 359.492L1000.2 321.662L952.154 274.113L918.541 312.198L953.587 345.91C953.869 345.783 954.182 345.744 954.486 345.797C954.79 345.85 955.071 345.994 955.292 346.21C955.514 346.425 955.664 346.702 955.726 347.005C955.787 347.307 955.755 347.621 955.635 347.905L955.661 347.803ZM1198.73 331.356C1198.91 331.265 1199.1 331.21 1199.31 331.195C1199.51 331.181 1199.71 331.206 1199.9 331.271C1200.09 331.335 1200.27 331.437 1200.42 331.57C1200.57 331.703 1200.69 331.865 1200.78 332.047L1214.58 360.183L1230.68 362.178L1243.71 341.715L1225.07 318.925H1196.58C1196.36 318.954 1196.14 318.935 1195.92 318.87C1195.71 318.805 1195.52 318.696 1195.35 318.55C1195.18 318.403 1195.05 318.223 1194.96 318.021C1194.87 317.819 1194.82 317.6 1194.82 317.378C1194.82 317.156 1194.87 316.937 1194.96 316.735C1195.05 316.533 1195.18 316.353 1195.35 316.206C1195.52 316.06 1195.71 315.951 1195.92 315.886C1196.14 315.821 1196.36 315.802 1196.58 315.83H1224.25V293.757L1199.63 297.286H1199.4C1199.2 297.288 1199 297.251 1198.81 297.176C1198.63 297.102 1198.46 296.991 1198.32 296.852C1198.15 296.687 1198.01 296.481 1197.94 296.254C1197.86 296.026 1197.84 295.784 1197.88 295.547L1202.6 260.991C1202.63 260.721 1202.74 260.465 1202.9 260.249C1203.07 260.033 1203.29 259.866 1203.54 259.764L1224.02 251.758L1209.74 191.522L1196.94 194.872C1196.56 194.966 1196.17 194.918 1195.83 194.738C1195.49 194.559 1195.23 194.261 1195.09 193.9L1177.17 145.635L1174.18 149.164H1174.05L1041.5 261.068L1076 293.731L1157.92 223.11C1158.08 222.977 1158.25 222.875 1158.45 222.81C1158.64 222.746 1158.84 222.72 1159.04 222.734C1159.25 222.748 1159.44 222.802 1159.62 222.893C1159.81 222.984 1159.97 223.11 1160.1 223.264L1174.23 239.276C1174.37 239.427 1174.47 239.603 1174.53 239.794C1174.6 239.985 1174.63 240.187 1174.62 240.389C1174.61 240.591 1174.55 240.789 1174.47 240.971C1174.38 241.153 1174.25 241.315 1174.1 241.45C1173.95 241.584 1173.78 241.687 1173.58 241.754C1173.39 241.82 1173.19 241.848 1172.99 241.836C1172.79 241.824 1172.59 241.773 1172.41 241.685C1172.22 241.596 1172.06 241.473 1171.93 241.322L1158.79 226.436L1123.29 257.129L1140.21 273.345C1140.35 273.488 1140.47 273.657 1140.54 273.844C1140.62 274.031 1140.66 274.231 1140.66 274.432C1140.66 274.635 1140.62 274.835 1140.54 275.021C1140.47 275.208 1140.35 275.377 1140.21 275.52L1100.66 317.161L1119.83 335.321L1157.8 371.283L1174.77 351.512C1174.9 351.358 1175.06 351.232 1175.24 351.141C1175.42 351.05 1175.62 350.996 1175.82 350.982C1176.03 350.968 1176.23 350.994 1176.42 351.058C1176.61 351.123 1176.79 351.225 1176.94 351.358C1177.25 351.625 1177.44 352.003 1177.48 352.409C1177.51 352.815 1177.38 353.218 1177.12 353.532L1160.05 373.406L1180.53 392.769L1211.71 361.231L1198.04 333.351C1197.87 332.995 1197.85 332.586 1197.98 332.213C1198.11 331.84 1198.38 331.532 1198.73 331.356ZM1509.1 262.296L1499.63 304.474L1511.76 309.078L1526.51 267.284L1509.1 262.296ZM1528.94 264.854L1586.21 280.737L1599.54 234.697C1599.62 234.418 1599.77 234.166 1599.98 233.971C1600.2 233.776 1600.46 233.646 1600.75 233.597L1619.43 230.298C1619.72 227.484 1620.13 224.773 1620.64 222.215C1620.81 221.328 1621.09 220.203 1621.48 218.839L1525.77 188.12L1509.77 259.15L1528.94 264.854ZM1520.49 183.72C1520.58 183.302 1520.77 182.908 1521.02 182.564C1521.28 182.221 1521.6 181.935 1521.98 181.725C1522.23 181.594 1522.49 181.499 1522.77 181.444L1528.84 161.135L1450.22 134.406L1425.39 209.273L1443.31 216.409C1443.66 216.547 1443.94 216.808 1444.11 217.142C1444.28 217.477 1444.33 217.862 1444.23 218.225L1423.98 294.396L1493.82 302.376L1520.49 183.72ZM1410.57 133.357L1388.27 124.61L1359.52 183.004L1387.53 194.105L1410.57 133.357ZM1390.42 195.256L1422.55 208.045L1443.03 146.018L1413.33 134.38L1390.42 195.256ZM1444.18 143.179L1447.89 131.976L1453.42 115.325L1401.66 97.5993L1389.7 121.822L1444.18 143.179ZM1440.8 218.813L1358.14 185.562L1324.4 254.009L1321.84 273.218L1367.58 281.249H1367.92L1389.29 290.432L1420.78 294.012L1440.8 218.813ZM1355.27 184.539L1282.16 155.227L1282.03 157.247L1305.35 270.455L1318.69 272.808L1321.25 253.471C1321.28 253.314 1321.32 253.16 1321.38 253.011L1355.27 184.539ZM1304.07 273.371L1288.05 275.929L1281.65 286.16L1303.36 297.645L1342.19 319.207L1364.67 283.781L1304.07 273.371ZM1341.78 322.762L1303.05 301.225L1282.57 332.175L1335.46 358.06L1352.94 333.914L1341.78 322.762ZM1300.41 299.742L1279.93 288.922L1253.18 332.124L1279.62 331.356L1300.41 299.742ZM1277.37 287.49L1265.75 281.326C1265.52 281.203 1265.33 281.027 1265.19 280.813C1265.05 280.599 1264.96 280.354 1264.93 280.098L1262.09 248.432L1240.33 239.071C1239.95 238.908 1239.65 238.601 1239.5 238.217C1239.34 237.833 1239.35 237.405 1239.51 237.025C1239.68 236.656 1239.98 236.367 1240.36 236.219C1240.74 236.071 1241.16 236.076 1241.53 236.232L1264.16 245.977C1264.42 246.081 1264.65 246.256 1264.82 246.482C1264.99 246.708 1265.09 246.976 1265.11 247.256L1267.85 279.024L1278.93 284.881L1285.82 273.755C1285.93 273.567 1286.09 273.407 1286.27 273.283C1286.45 273.159 1286.65 273.076 1286.87 273.039L1302.23 270.481L1278.98 157.631C1278.97 157.495 1278.97 157.358 1278.98 157.222L1279.21 153.589C1279.11 153.383 1279.06 153.155 1279.06 152.924C1279.06 152.694 1279.11 152.466 1279.21 152.259C1279.21 152.259 1279.37 152.055 1279.42 151.952L1281.01 125.428C1281.01 125.204 1281.08 124.984 1281.19 124.789L1300.36 90.0283L1216.73 79.1832L1207.66 109.877C1207.59 110.077 1207.48 110.266 1207.36 110.44L1179.66 142.847L1197.58 191.445L1210.45 188.12C1210.86 188.024 1211.28 188.089 1211.63 188.299C1211.81 188.404 1211.97 188.544 1212.09 188.711C1212.21 188.878 1212.3 189.069 1212.35 189.271L1227.3 252.372C1227.31 252.482 1227.31 252.594 1227.3 252.704V316.649L1245.42 339.03L1277.37 287.49ZM998.873 -82.802C998.741 -82.5638 998.549 -82.3648 998.315 -82.2255C998.081 -82.0862 997.814 -82.0115 997.542 -82.0091C997.273 -82.0099 997.008 -82.0804 996.774 -82.2137L996.108 -82.5974C993.753 -79.4257 991.398 -76.254 989.171 -73.2103C989.513 -73.2221 989.848 -73.1135 990.118 -72.9033L1026.85 -44.4862L1045.67 -71.5988C1031.54 -88.6849 1019.48 -103.571 1015.59 -108.38C1010.24 -101.397 1004.04 -93.2378 997.977 -85.104L998.31 -84.8994C998.658 -84.6913 998.911 -84.3561 999.017 -83.9647C999.122 -83.5732 999.07 -83.1562 998.873 -82.802ZM988.172 -70.4734C987.928 -70.6718 987.75 -70.9393 987.66 -71.2407C978.137 -58.196 970.509 -47.2997 969.433 -44.4606C971.993 -41.647 988.403 -28.2698 1005.79 -14.2531L1025.04 -41.954L988.172 -70.4734ZM1008.19 -12.3091C1015.87 -6.06805 1023.78 0.224121 1030.62 5.59546C1030.86 5.79895 1031.04 6.07294 1031.13 6.38049C1031.21 6.68811 1031.2 7.01453 1031.09 7.31567C1030.99 7.61676 1030.79 7.87817 1030.53 8.06451C1030.27 8.25092 1029.96 8.35327 1029.64 8.35785C1029.3 8.36029 1028.96 8.24274 1028.7 8.02533C1014.49 -3.30566 967.974 -40.4448 966.438 -43.3351C966.003 -44.1792 964.954 -46.2 993.318 -84.2599L957.222 -104.953L953.51 -94.8748C953.442 -94.6848 953.336 -94.5103 953.2 -94.361C953.064 -94.2119 952.899 -94.0911 952.716 -94.0055C952.533 -93.9199 952.335 -93.8714 952.133 -93.8625C951.931 -93.8537 951.729 -93.8848 951.539 -93.954C951.158 -94.1033 950.848 -94.3943 950.677 -94.7662C950.505 -95.1381 950.484 -95.562 950.618 -95.949L954.944 -107.715C955.02 -107.925 955.14 -108.117 955.297 -108.276C955.455 -108.435 955.645 -108.558 955.854 -108.636C956.064 -108.714 956.288 -108.745 956.511 -108.727C956.734 -108.709 956.951 -108.643 957.146 -108.533L977.625 -96.7419L983.052 -106.589L955.558 -124.673C955.39 -124.786 955.246 -124.93 955.134 -125.098C955.022 -125.267 954.944 -125.455 954.905 -125.654C954.865 -125.852 954.866 -126.056 954.905 -126.254C954.945 -126.452 955.023 -126.641 955.136 -126.809C955.249 -126.977 955.393 -127.121 955.562 -127.233C955.73 -127.345 955.919 -127.423 956.117 -127.462C956.316 -127.501 956.52 -127.501 956.719 -127.461C956.917 -127.422 957.106 -127.343 957.274 -127.231L985.945 -108.406C986.265 -108.191 986.494 -107.866 986.589 -107.493C986.683 -107.12 986.636 -106.725 986.457 -106.385L980.416 -95.1306L995.212 -86.6642C1000.46 -93.6726 1006.66 -101.832 1013.95 -111.347L1009.55 -170.176L940.429 -222.56L901.134 -144.266L882.83 -63.3115L898.062 -60.6003C898.329 -60.5501 898.578 -60.4261 898.778 -60.2422L1030.92 50.7405L1141.28 93.6348L1150.5 56.4189C1150.57 56.1196 1150.73 55.8489 1150.96 55.6432C1151.19 55.4375 1151.47 55.3065 1151.78 55.2678L1211.43 46.8782L1206.64 -12.8463C1183.19 -7.73071 1149.66 -1.56641 1126.59 -1.56641C1115.76 -1.56641 1107.26 -2.922 1103.17 -6.42621C1093.44 -14.8157 1068.66 -43.8979 1047.72 -69.1434L1008.19 -12.3091ZM1040.68 -166.007L1078.9 -196.496C1056.93 -211.28 1020.91 -235.579 991.424 -255.735L962.906 -225.041L1040.68 -166.007ZM534.137 153.206L533.599 192.059H533.753C610.552 126.682 656.631 87.5217 677.111 70.231L650.846 35.624L578.987 72.8911C578.764 73.0013 578.52 73.0623 578.271 73.0701C577.921 73.0751 577.58 72.9608 577.305 72.7461C577.029 72.5314 576.835 72.2292 576.754 71.8893C576.673 71.5494 576.711 71.1922 576.862 70.8767C577.012 70.5613 577.265 70.3064 577.579 70.1542L686.941 13.4224L702.301 -56.6357L673.809 -88.3013L564.14 -52.7734L578.527 -6.01691C578.586 -5.82379 578.606 -5.62091 578.587 -5.41986C578.568 -5.21881 578.509 -5.02356 578.413 -4.84534C578.318 -4.66711 578.189 -4.50946 578.033 -4.38129C577.876 -4.25317 577.696 -4.15704 577.503 -4.09857H577.042C576.714 -4.10553 576.396 -4.21552 576.135 -4.4129C575.873 -4.61035 575.68 -4.88519 575.583 -5.19843L560.965 -52.313H525.356L536.185 9.2019L534.137 153.206ZM1038.14 260.019L1058.03 243.215L966.822 160.675C966.665 160.532 966.538 160.358 966.45 160.165C966.362 159.971 966.314 159.762 966.31 159.549V120.773L906.561 84.4779C906.379 84.3765 906.222 84.2368 906.1 84.0686L886.311 56.2654L857.921 49.7942L829.224 58.0303L826.229 70.4868L811.765 130.672L928.525 246.258L1003.35 320.307L1039.09 350.54L1049.61 316.854C1049.7 316.586 1049.86 316.347 1050.07 316.163L1073.52 295.931L1038.07 262.296C1037.76 261.982 1037.58 261.56 1037.58 261.119C1037.6 260.908 1037.66 260.702 1037.75 260.513C1037.85 260.324 1037.98 260.157 1038.14 260.019ZM854.081 -131.784L842.254 -99.53L885.927 -91.8566L892.891 -122.729L854.081 -131.784ZM893.71 -125.722L897.78 -143.626L862.427 -154.625L855.157 -134.623L893.71 -125.722ZM841.307 -96.5885L823.925 -48.7321L872.564 -38.9102C872.883 -38.85 873.173 -38.6874 873.39 -38.4473C873.607 -38.2072 873.74 -37.9026 873.768 -37.5801L885.364 -88.7361L841.307 -96.5885ZM827.611 28.6157L864.808 -4.63568L812.252 -16.5039L799.938 17.438L827.611 28.6157ZM798.812 20.1749L783.708 57.3652L823.592 68.2103L826.383 56.5978V31.4548L798.812 20.1749ZM866.907 -7.24469L873.537 -36.557C873.401 -36.3419 873.212 -36.1653 872.988 -36.0444C872.763 -35.9235 872.512 -35.8622 872.257 -35.8665H871.95L822.85 -45.7907L813.327 -19.5221L866.907 -7.24469ZM871.361 -12.8463L903.873 3.06323L909.735 -4.02185C909.864 -4.17804 910.023 -4.30725 910.203 -4.40204C910.382 -4.49689 910.579 -4.55542 910.781 -4.5744C910.983 -4.59344 911.187 -4.57251 911.38 -4.51282C911.574 -4.45312 911.755 -4.35583 911.911 -4.2265C912.067 -4.09717 912.197 -3.93835 912.292 -3.75909C912.386 -3.57983 912.445 -3.38367 912.464 -3.18176C912.483 -2.97992 912.462 -2.77625 912.402 -2.58246C912.343 -2.38867 912.245 -2.20856 912.116 -2.05237L905.486 5.95355C905.345 6.1308 905.166 6.27362 904.962 6.37115C904.758 6.46869 904.534 6.51831 904.308 6.51624C904.069 6.51447 903.834 6.46216 903.617 6.36279L870.644 -9.75128L869.697 -5.58215L882.062 19.3052L953.229 57.5187L968.589 31.1223L958.195 25.2905C958.01 25.1891 957.849 25.0504 957.721 24.883C957.593 24.7156 957.502 24.5233 957.453 24.3185C957.398 24.1208 957.386 23.9139 957.417 23.7111C957.448 23.5084 957.521 23.3144 957.632 23.1419L969.408 4.29102C969.556 4.0816 969.748 3.90698 969.971 3.77942L896.986 -57.6077L882.036 -60.1655L871.361 -12.8463ZM961.165 23.2698L971.533 29.076C971.885 29.2817 972.149 29.6093 972.275 29.9968C972.38 30.4024 972.325 30.8326 972.121 31.199L955.968 58.8743L987.814 75.986C987.688 75.7589 987.623 75.5037 987.623 75.2442C987.623 74.9847 987.688 74.7296 987.814 74.5024L1009.5 38.105C1009.69 37.8118 1009.96 37.5874 1010.29 37.4656L972.173 5.46753C972.187 5.57794 972.187 5.6897 972.173 5.80005L961.165 23.2698ZM990.502 76.0627C990.375 76.2655 990.203 76.4359 989.998 76.5602C989.794 76.6845 989.563 76.7595 989.324 76.7789L1151.81 164.051L1171.34 147.553L1164.48 105.938L1029.57 53.5029C1029.4 53.4586 1029.25 53.3702 1029.13 53.2471L1012.36 39.1793C1012.32 39.3536 1012.26 39.5245 1012.18 39.6909L990.502 76.0627ZM880.167 21.6584C879.888 21.5118 879.663 21.2784 879.527 20.9934L867.598 -2.89642L829.455 31.0966V54.7307L857.435 46.7248C857.687 46.6609 857.951 46.6609 858.203 46.7248L887.54 53.4262C887.913 53.5092 888.242 53.728 888.462 54.04L908.404 82.0223L968.64 118.599C968.867 118.739 969.055 118.934 969.185 119.167C969.315 119.4 969.383 119.662 969.382 119.929V158.884L1060.39 241.245L1149.25 166.225L880.167 21.6584ZM904.385 226.717L889.025 244.749L909.991 263.933L925.351 247.435L904.385 226.717ZM927.424 249.737L910.99 267.284C910.849 267.443 910.675 267.572 910.481 267.66C910.287 267.748 910.076 267.794 909.863 267.795C909.483 267.788 909.119 267.642 908.839 267.386L886.798 247.205L870.568 266.133L916.263 310.101L949.901 271.964L927.424 249.737ZM902.081 224.671L857.845 180.881L832.885 207.84L822.082 219.504L868.315 264.01L902.081 224.671ZM855.643 178.63L810.511 133.997L795.535 172.185L831.63 204.566L855.643 178.63ZM822.773 71.2029L782.556 60.23L762.895 108.828L808.975 129.137L822.773 71.2029ZM795.842 19.075L767.452 9.07404L734.736 96.346L760.028 107.472L795.842 19.075ZM764.457 7.97424L748.918 2.47498L715.638 87.9821L731.766 95.0927L764.457 7.97424ZM746 1.42627L728.259 -4.84033L701.891 68.1079C701.438 69.3901 700.652 70.5288 699.613 71.4075L692.189 77.6486L712.874 86.7543L746 1.42627ZM689.68 79.8483C670.609 95.9368 623.736 135.583 543.762 203.697C540.409 206.561 537.03 209.349 533.676 212.086L534.982 259.405L702.224 107.651L711.696 89.5679L689.68 79.8483ZM561.861 -55.3312L673.706 -91.5496C673.991 -91.6342 674.294 -91.6357 674.58 -91.5542C674.865 -91.4726 675.122 -91.3113 675.319 -91.0892L705.015 -58.1192C705.184 -57.9415 705.305 -57.7242 705.368 -57.4873C705.43 -57.2504 705.432 -57.0014 705.373 -56.7635L689.808 14.8547C689.751 15.0764 689.649 15.284 689.508 15.4645C689.367 15.645 689.191 15.7944 688.989 15.9034L653.79 34.166L679.645 68.2103L688.196 60.9973L743.03 -90.68C743.144 -91.0252 743.29 -91.3592 743.465 -91.6776L759.875 -122.601L696.336 -166.8H642.116C641.709 -166.8 641.318 -166.962 641.03 -167.249C640.742 -167.537 640.58 -167.928 640.58 -168.335V-240.592L585.618 -253.381L564.933 -196.189C564.872 -195.989 564.767 -195.806 564.626 -195.652L533.906 -162.247L529.939 -95.2328C529.919 -95.0104 529.851 -94.7949 529.741 -94.6007C529.63 -94.4066 529.48 -94.2383 529.299 -94.1074L516.857 -84.7971L512.275 -55.3312H561.861ZM757.366 -85.0529L729.411 -7.75623L747.331 -1.43848L812.815 -170.125L801.039 -173.783C794.404 -156.852 786.797 -140.319 778.255 -124.264L757.366 -85.0529ZM750.096 -0.415344L765.609 5.08392L829.327 -164.856L815.656 -169.076L750.096 -0.415344ZM768.502 6.10699L797.02 16.3382L859.432 -155.495L832.245 -163.935L768.502 6.10699ZM860.533 -158.513L897.55 -254.379C889.28 -259.778 880.292 -263.988 870.849 -266.887L833.371 -166.826L860.533 -158.513ZM863.477 -157.592L898.778 -146.645L937.92 -224.529L903.694 -250.491L900.186 -252.819L863.477 -157.592ZM1153.24 58.1581L1144.18 94.7602L1166.42 103.38C1166.67 103.48 1166.89 103.644 1167.06 103.855C1167.22 104.066 1167.33 104.316 1167.37 104.582L1174 144.637L1204.72 108.828L1213.96 77.3928L1211.76 50.0244L1153.24 58.1581ZM1224.25 254.981L1205.51 262.296L1201.21 293.936L1224.25 290.636V254.981ZM1078.21 296.059L1098.25 315.14L1136.65 274.624L1120.65 259.278L1078.21 296.059ZM1158.03 375.836L1143.54 392.718C1143.26 393.019 1142.89 393.21 1142.49 393.255L1130.79 394.201C1130.41 394.171 1130.05 394.002 1129.79 393.728C1129.52 393.453 1129.37 393.091 1129.35 392.711C1129.34 392.33 1129.46 391.956 1129.7 391.661C1129.94 391.365 1130.28 391.168 1130.66 391.106L1141.72 390.211L1155.9 373.713L1118.73 338.723L1099.48 358.878C1099.34 359.03 1099.17 359.152 1098.98 359.235C1098.79 359.319 1098.59 359.363 1098.38 359.364C1097.98 359.357 1097.6 359.202 1097.3 358.929C1097.16 358.787 1097.05 358.617 1096.97 358.431C1096.89 358.244 1096.85 358.044 1096.85 357.842C1096.85 357.64 1096.89 357.44 1096.97 357.254C1097.05 357.067 1097.16 356.898 1097.3 356.755L1116.53 336.6L1075.85 298.105L1052.5 318.235L1041.62 352.714L1140.8 436.686L1178.38 395.122L1158.03 375.836ZM1085.45 393.741L1055.22 426.43L1070.94 438.042L1078.49 428.987C1078.63 428.81 1078.81 428.667 1079.01 428.57C1079.22 428.472 1079.44 428.423 1079.67 428.425C1079.89 428.426 1080.11 428.475 1080.31 428.568C1080.51 428.66 1080.7 428.795 1080.84 428.962L1104.06 456.049L1124.75 426.992L1085.45 393.741ZM1083.1 391.746L1040.63 355.783L1025.27 404.381L1052.66 424.639L1083.1 391.746ZM1038.07 353.635L1002.53 323.683L969.971 361.589L978.777 370.056L1022.71 402.54L1038.07 353.635ZM818.907 218.276L829.659 206.664L794.434 175.331L777.794 217.688L798.018 241.066L818.907 218.276ZM792.335 172.006L808.053 132.002L761.769 111.539L731.049 203.978L775.081 215.923L792.335 172.006ZM759.056 110.286L733.609 99.0829L687.888 192.263L728.157 203.185L759.056 110.286ZM730.896 97.8296L714.717 90.7189L705.066 109.212C704.969 109.367 704.858 109.513 704.733 109.647L573.176 229.044L593.656 255.518L650.436 210.654C650.755 210.399 651.162 210.282 651.568 210.328C651.974 210.373 652.345 210.578 652.599 210.897C652.854 211.216 652.971 211.623 652.926 212.028C652.88 212.433 652.675 212.804 652.356 213.058L538.335 303.221L576.735 310.485L674.909 217.995L684.202 192.903L730.896 97.8296ZM536.492 305.804L538.642 383.893L550.828 398.984L569.285 384.635L575.506 313.452L536.492 305.804ZM591.455 257.206L570.975 230.886L535.135 263.319L536.159 300.765L591.455 257.206ZM532.319 266.056L480.71 312.915C497.606 333.377 516.038 355.911 535.443 379.903L532.319 266.056ZM532.319 261.989L530.988 214.363C504.439 235.891 476.041 255.037 446.125 271.581C456.135 283.321 467.117 296.391 478.842 310.536L532.319 261.989ZM450.58 222.062C469.395 207.636 495.123 184.999 512.48 169.371C512.342 169.323 512.212 169.254 512.096 169.166L501.6 160.726L465.095 169.32L443.54 206.74L450.58 222.062ZM440.903 208.403L395.848 216.793C401.531 222.164 408.98 229.965 417.889 239.813C428.441 235.543 438.536 230.221 448.02 223.929L440.903 208.403ZM450.912 225.694C441.292 232.295 430.994 237.851 420.193 242.268C424.903 247.537 430.023 253.344 435.553 259.61C469.382 241.252 501.249 219.492 530.655 194.668L531.193 156.71C520.159 166.711 477.818 205.359 450.964 225.694H450.912ZM431.841 279.177C395.478 298.196 356.736 312.278 316.642 321.048L320.917 336.395L449.735 300.074C443.488 292.836 437.549 285.802 431.892 279.177H431.841ZM451.808 302.786L414.74 313.247L419.297 329.054L463.149 316.265L451.808 302.786ZM411.745 314.091L321.634 339.49C323.145 345.015 324.681 350.54 326.165 355.911L416.302 329.898L411.745 314.091ZM318.255 338.851C316.668 333.019 315.055 327.213 313.519 321.637L311.215 322.097C288.867 327.341 273.609 331.51 263.113 335.628L334.024 395.813L318.255 338.851ZM312.341 305.983C317.035 304.875 322.001 303.741 327.24 302.581C359.781 294.114 391.314 282.168 421.294 266.951C415.406 260.173 409.953 253.983 405.038 248.509C364.693 264.547 315.004 279.024 305.66 281.761C306.684 285.086 309.193 294.191 312.341 305.983ZM386.862 209.349C389.068 210.772 391.142 212.39 393.057 214.184L440.877 205.283L462.791 167.197C462.892 167.012 463.031 166.851 463.198 166.723C463.366 166.596 463.558 166.504 463.764 166.455L501.779 157.554C502.01 157.501 502.249 157.501 502.48 157.554C502.71 157.608 502.926 157.712 503.11 157.861L514.195 166.762C514.426 166.967 514.595 167.233 514.681 167.529C523.334 159.728 529.555 153.999 531.219 152.464L533.215 9.53442L522.259 -52.313H510.483L378.005 -50.5737C370.325 -17.0411 361.774 21.0445 351.97 64.1945C345.979 90.6165 342.011 108.061 341.525 110.363C339.58 119.238 324.092 163.718 317.845 181.546C347.183 191.624 374.472 201.932 386.862 209.349ZM416.762 -252.998L394.875 -252.691C379.848 -252.512 367.995 -252.358 363.541 -252.051H362.645C344.904 -252.051 242.966 -279.522 213.86 -287.451L182.142 -149.33L181.988 -148.921C181.988 -148.921 181.988 -148.716 181.988 -148.64L135.55 -8.60034L350.152 44.5251C371.835 -51.3923 412.513 -230.745 416.762 -252.998ZM278.524 -276.632C316.924 -266.784 355.323 -257.627 363.003 -258.19C367.637 -258.523 379.566 -258.676 394.696 -258.855L417.121 -259.162C417.71 -278.652 420.679 -359.555 421.601 -384.494L327.701 -408.793L301.692 -399.329L278.652 -328.632L278.524 -276.632ZM378.645 -53.5919L509.203 -55.3057L513.939 -85.9992C514.004 -86.3998 514.224 -86.7585 514.553 -86.9968L526.943 -96.256L531.014 -162.989C531.021 -163.341 531.158 -163.678 531.398 -163.935L562.373 -197.519L583.365 -255.658C583.698 -256.732 594.322 -292.055 607.531 -336.766L606.098 -337.149C586.258 -320.421 520.774 -265.736 509.459 -259.495C501.779 -255.274 466.195 -253.842 423.086 -253.074C420.935 -241.59 407.649 -181.737 378.645 -53.5919ZM515.475 -376.309C505.465 -395.288 495.533 -428.232 490.848 -444.935L435.732 -396.874L515.475 -376.309ZM614.776 -350.731L626.731 -347.636L719.581 -336.97C720.4 -349.478 722.141 -375.081 724.061 -403.78L634.897 -419.485C628.318 -396.848 621.329 -373.009 614.776 -350.705V-350.731ZM663.415 -617.918L663.978 -621.448L602.181 -619.913L554.463 -594.335L572.792 -561.238L587.589 -565.816L583.339 -578.605C583.21 -578.992 583.24 -579.414 583.423 -579.778C583.605 -580.143 583.925 -580.42 584.312 -580.549C584.699 -580.678 585.122 -580.648 585.487 -580.466C585.851 -580.283 586.129 -579.964 586.258 -579.577L590.533 -566.788L664.772 -589.808C664.567 -606.332 663.441 -617.458 663.415 -617.688C663.386 -617.755 663.36 -617.823 663.338 -617.893L663.415 -617.918ZM569.772 -560.24L551.852 -592.801L542.15 -587.685V-551.62L549.266 -553.82L569.772 -560.24ZM549.65 -518.727H570.13V-557.094L551.289 -551.262L549.65 -518.727ZM623.121 -573.515V-561.672H664.081C664.593 -570.574 664.746 -578.963 664.721 -586.406L623.121 -573.515ZM525.843 -518.727V-543.41L505.235 -537.041L503.238 -518.753L525.843 -518.727ZM528.863 -544.305C528.875 -544.186 528.875 -544.066 528.863 -543.947V-518.701H546.578L547.858 -550.265L528.863 -544.305ZM542.124 -591.061L600.235 -622.394L602.411 -642.652L544.838 -651.144L541.945 -639.685L542.124 -591.061ZM602.718 -645.722L604.946 -666.516L551.852 -678.973L545.605 -654.213L602.718 -645.722ZM603.41 -622.983L664.414 -624.517L668.868 -651.656L607.966 -665.8L603.41 -622.983ZM667.562 -624.594L739.472 -626.385C739.625 -632.421 739.779 -638.509 739.932 -644.596L671.889 -650.965L667.562 -624.594ZM624.427 -332.34C624.082 -332.375 623.74 -332.435 623.403 -332.52L610.398 -335.87C598.622 -296.02 588.895 -263.613 586.667 -256.195L642.577 -243.406C642.916 -243.322 643.217 -243.128 643.435 -242.855C643.652 -242.582 643.774 -242.246 643.78 -241.897V-169.972H696.9C697.22 -169.972 697.533 -169.874 697.796 -169.69L761.334 -125.517L764.559 -131.605C781.325 -163.165 794.341 -196.575 803.343 -231.154C812.2 -270.109 812.764 -294.357 805.058 -305.33C801.679 -310.088 796.252 -312.748 788.034 -313.694L624.427 -332.34ZM802.037 -176.648L830.402 -167.849L867.854 -267.807C860.623 -269.747 852.979 -269.497 845.89 -267.091C830.146 -261.183 822.21 -242.178 818.344 -227.292C813.865 -210.126 808.421 -193.226 802.037 -176.673V-176.648ZM825.538 -272.283C829.872 -276.279 834.929 -279.412 840.437 -281.517C846.359 -283.676 852.647 -284.649 858.945 -284.382L826.331 -309.09L820.162 -309.806C824.77 -300.905 826.562 -288.705 825.538 -272.283ZM960.474 -226.806L988.889 -257.499C963.52 -274.841 943.552 -288.73 942.81 -290.009C941.658 -292.03 937.69 -304.051 935.13 -312.134C912.551 -310.881 882.318 -310.574 857.333 -310.574H849.934L960.474 -226.806ZM945.37 -291.723C946.778 -290.188 965.849 -277.015 991.04 -259.776L1040.52 -313.208L1043.83 -331.701C1012.85 -324.386 974.272 -315.919 952.999 -313.541C948.749 -313.08 943.783 -312.671 938.279 -312.339C941.274 -302.977 944.653 -293.13 945.37 -291.748V-291.723ZM1043.47 -312.185C1043.42 -311.897 1043.29 -311.629 1043.08 -311.418L1032.38 -299.857L1063.23 -287.63L1085.12 -341.728C1077.59 -339.835 1063.59 -336.356 1047.1 -332.443L1043.47 -312.185ZM1066.1 -286.607L1128.74 -261.822L1131.86 -266.784L1117.4 -327.43L1088.63 -342.316L1066.1 -286.607ZM1030.13 -297.529L993.6 -258.139C1020.74 -239.62 1054.45 -216.805 1081.46 -198.619L1103.68 -216.83V-219.158C1103.6 -220.736 1104.01 -222.299 1104.86 -223.634L1127.18 -259.162L1030.13 -297.529ZM1103.88 -212.891L1082.53 -195.396L1043.31 -164.089L1108.75 -114.468L1103.88 -212.891ZM1012.85 -167.772L1017.07 -111.5C1022.19 -105.234 1088.19 -23.4355 1105.19 -8.80493C1116.22 0.684509 1167.7 -7.47491 1207.28 -16.1202C1207.47 -16.2299 1207.68 -16.2996 1207.89 -16.3248H1208.1L1216.32 -18.1664L1207.18 -21.1335C1206.35 -21.3958 1205.57 -21.7934 1204.87 -22.3101L1012.85 -167.772ZM1209.69 -13.5112L1212.25 18.9216L1296.32 28.7179L1301.87 10.1227C1266.42 -1.74542 1238.05 -11.0558 1221.9 -16.2993C1218.42 -15.4808 1214.29 -14.5344 1209.69 -13.5112ZM1298.93 30.8665C1298.83 31.1838 1298.63 31.4616 1298.36 31.6594C1298.1 31.8572 1297.77 31.9648 1297.44 31.9664H1297.26L1212.53 22.0676L1216.88 76.165L1301.77 87.1635L1337.61 22.1956L1304.87 11.1459L1298.93 30.8665ZM1283.87 125.991L1282.34 151.952L1356.58 181.725L1421.04 50.9963C1392.88 41.1233 1365.64 31.7361 1340.5 23.1931L1283.87 125.991ZM1402.89 94.8113L1454.24 112.409L1469.04 67.9033C1453.93 62.4808 1438.88 57.135 1424.03 51.9171L1402.89 94.8113ZM1456.65 114.864L1451.12 131.49L1529.73 157.938L1547.93 97.0367C1523.21 87.6751 1497.61 78.2625 1472.01 69.0544L1456.65 114.864ZM1525.77 181.674L1623.22 212.623C1627.93 198.249 1638.07 171.699 1651.18 138.447C1621.69 125.658 1587.18 112.051 1550.72 98.2388L1525.77 181.674ZM1738.73 243.547C1718.81 234.748 1702.89 227.612 1690.09 221.831L1675.83 265.57L1723.24 287.541L1738.73 243.547ZM1716.33 316.393L1733.12 322.353L1742.39 299.972L1725.06 291.762L1716.33 316.393ZM1726.03 288.846L1744.98 297.798C1745.33 297.97 1745.61 298.273 1745.75 298.643C1745.9 299.014 1745.89 299.425 1745.74 299.793L1735.38 324.885C1735.26 325.168 1735.06 325.411 1734.8 325.584C1734.55 325.756 1734.25 325.851 1733.94 325.857C1733.77 325.881 1733.6 325.881 1733.43 325.857L1715.2 319.309L1702.76 354.607L1752.45 372.281L1777.74 303.476L1791.26 266.644C1772.49 258.408 1756.01 251.144 1741.54 244.749L1726.03 288.846ZM1722.19 290.457L1674.86 268.537L1665.72 296.545C1666.92 297.568 1668.1 298.565 1669.35 299.563C1684.36 311.585 1692.39 327.417 1694.67 351.691L1699.95 353.558L1722.19 290.457ZM1672.02 267.232L1635.84 250.479C1639.09 266.03 1648.31 280.84 1663.24 294.319L1672.02 267.232ZM1672.99 264.265L1687.22 220.553C1662.34 209.324 1650.08 203.492 1644.01 200.32C1640.86 208.384 1638.14 216.606 1635.84 224.952C1634.41 232.139 1634.22 239.519 1635.28 246.77L1672.99 264.265ZM1645.03 197.558C1652.13 201.164 1667.56 208.301 1688.2 217.611L1706.11 162.721L1666.77 145.098L1665.49 144.535C1657.73 164.153 1650.46 183.004 1645.03 197.558ZM1673.01 131.055C1695.36 141.031 1717.28 150.904 1738.45 160.444L1747.59 135.199C1747.71 134.835 1747.98 134.533 1748.32 134.353C1748.66 134.173 1749.06 134.128 1749.43 134.227L1763.23 137.91L1821.52 0.991394L1768.4 -25.9933C1763.18 -21.8326 1757.02 -16.9813 1749.92 -11.4395C1737.32 -1.59192 1720.37 11.5807 1716.38 15.622C1714.82 20.3795 1709.88 32.8359 1694.26 71.8935C1687.48 88.8261 1679.24 109.468 1671.22 130.083L1673.01 131.055ZM1708.85 164.051L1690.93 218.941C1705.19 225.336 1721.65 232.728 1739.57 240.657L1758.72 186.534C1742.7 179.219 1726.01 171.699 1708.88 164L1708.85 164.051ZM1742.59 241.833C1758.39 248.842 1775.18 256.234 1792.33 263.779L1811.87 210.628L1761.64 187.787L1742.59 241.833ZM1781.17 303.221L1806.59 312.122L1819.57 279.254L1802.63 271.811L1794.1 268.076L1781.17 303.221ZM1808.92 314.628C1808.81 314.916 1808.61 315.162 1808.36 315.336C1808.1 315.509 1807.8 315.601 1807.49 315.6C1807.32 315.627 1807.15 315.627 1806.98 315.6L1780.12 306.213L1771.52 329.387L1796.58 340.129C1796.92 340.259 1797.2 340.504 1797.38 340.821C1797.55 341.138 1797.61 341.506 1797.54 341.861C1797.47 342.216 1797.28 342.534 1796.99 342.76C1796.71 342.987 1796.36 343.106 1796 343.096C1795.79 343.132 1795.58 343.132 1795.38 343.096L1770.45 332.405L1755.37 373.509L1815.4 394.969C1815.39 394.85 1815.39 394.729 1815.4 394.611L1854.23 294.268L1822.39 280.354L1808.92 314.628ZM1613.26 407.221L1625.35 364.608L1611.88 357.804L1599.08 399.342L1613.26 407.221ZM1579.4 388.728L1596.37 397.859L1608.96 356.934L1609.14 356.576L1594.88 349.261L1579.4 388.728ZM1627.55 362.459C1645.28 362.828 1662.86 365.678 1679.8 370.925C1680.62 339.72 1674.01 323.197 1659.7 311.738C1625.27 284.216 1617.85 255.466 1619.18 233.29L1602.23 236.309L1573.64 335.219L1627.55 362.459ZM1548.34 322.992L1570.69 333.786L1585.21 283.551L1529.35 268.051L1514.5 310.127L1548.34 322.992ZM1522.08 345.22C1521.95 344.909 1521.93 344.568 1522.01 344.242C1522.08 343.917 1522.26 343.624 1522.51 343.404L1544.79 324.936L1498.94 307.518L1474.92 414.152L1511.25 423.053L1547.81 404.432L1522.08 345.22ZM1573.02 462.494L1549.04 407.272L1513.5 425.381L1538.57 476.025L1573.02 462.494ZM1512.3 518.075L1515.96 485.898C1515.99 485.621 1516.1 485.356 1516.26 485.132C1516.43 484.907 1516.65 484.73 1516.91 484.619L1535.8 477.151L1510.41 425.995L1474.28 417.119L1453.24 510.402L1512.3 518.075ZM1259.02 455.179H1259.38L1313.83 477.406C1313.79 477.238 1313.79 477.063 1313.83 476.895L1323.84 451.163C1323.96 450.839 1324.2 450.566 1324.5 450.39C1324.8 450.214 1325.15 450.144 1325.5 450.191L1368.63 456.765L1379.59 381.361L1366.2 371.539C1365.94 371.357 1365.74 371.093 1365.64 370.789C1365.54 370.485 1365.54 370.155 1365.64 369.851L1375.16 339.03C1375.28 338.64 1375.55 338.313 1375.91 338.121C1376.27 337.929 1376.69 337.888 1377.08 338.007C1377.47 338.125 1377.8 338.394 1377.99 338.754C1378.18 339.114 1378.23 339.535 1378.11 339.925L1369.02 369.953L1382.25 379.673C1382.48 379.842 1382.66 380.068 1382.77 380.329C1382.89 380.589 1382.93 380.875 1382.89 381.157L1371.58 458.99C1371.55 459.193 1371.48 459.388 1371.38 459.563C1371.27 459.739 1371.13 459.892 1370.97 460.014C1370.81 460.135 1370.62 460.223 1370.42 460.271C1370.22 460.319 1370.01 460.327 1369.81 460.295L1326.29 453.696L1316.72 478.25C1316.63 478.439 1316.5 478.605 1316.33 478.736L1442.46 530.097L1493.05 305.42L1388.73 293.501C1388.59 293.527 1388.44 293.527 1388.3 293.501L1367.82 284.881L1344.78 321.355L1356.14 332.737C1356.4 332.996 1356.56 333.338 1356.59 333.703C1356.63 334.067 1356.53 334.432 1356.32 334.733L1337.45 361.027C1337.31 361.224 1337.12 361.385 1336.9 361.496C1336.69 361.607 1336.44 361.665 1336.2 361.666C1335.97 361.667 1335.74 361.615 1335.53 361.513L1280.01 334.349L1251.16 335.295L1246.78 342.355L1233.39 363.457L1258.58 381.949L1270.41 366.603C1270.53 366.443 1270.69 366.31 1270.86 366.21C1271.04 366.11 1271.23 366.046 1271.43 366.021C1271.64 365.996 1271.84 366.011 1272.03 366.064C1272.23 366.118 1272.41 366.21 1272.57 366.334C1272.73 366.458 1272.87 366.613 1272.97 366.789C1273.07 366.965 1273.13 367.158 1273.15 367.359C1273.18 367.56 1273.16 367.763 1273.11 367.958C1273.06 368.153 1272.97 368.336 1272.84 368.495L1261.09 383.842L1274.66 393.818C1274.86 393.955 1275.02 394.138 1275.13 394.352C1275.24 394.566 1275.3 394.804 1275.3 395.045V418.961C1275.3 419.329 1275.16 419.685 1274.91 419.958L1245.78 453.21L1259.02 455.179ZM1242.3 452.621L1272.33 418.321V395.813L1230.86 365.349L1214.12 363.252L1181.68 396.068L1144.02 437.709L1242.3 452.621ZM1066 523.6L1085.32 545.981L1126.74 498.764L1159.49 470.219L1170.98 444.846L1140.72 440.242C1140.5 440.202 1140.28 440.105 1140.11 439.96L1127.31 429.141L1105.65 459.527L1066 523.6ZM1079.46 495.797L1102.27 458.734L1079.69 432.389L1072.37 441.162L1049.07 467.584L1079.46 495.797ZM1046.77 465.513L1068.91 440.421L1053.12 428.732L1031.9 451.752L1046.77 465.513ZM1030.28 448.913L1050.64 426.89L1024.34 407.451L1020.02 421.186L1030.28 448.913ZM979.289 460.269L989.094 472.035L1027.8 451.087L1017.23 422.516L978.419 412.413L971.021 421.621L979.289 460.269ZM887.131 558.616L940.634 503.317L948.058 480.757C948.139 480.516 948.277 480.297 948.459 480.119C948.642 479.942 948.864 479.81 949.107 479.734L970.995 473.646L976.115 460.857L967.718 421.57C967.678 421.347 967.685 421.118 967.738 420.898C967.791 420.678 967.889 420.471 968.026 420.291L976.525 409.753C976.707 409.517 976.954 409.34 977.237 409.244C977.519 409.148 977.824 409.138 978.112 409.216L1017.23 419.447L1021.73 405.532L976.781 372.281L953.741 350.079L819.957 494.595L887.131 558.616ZM817.653 492.497L855.054 452.008L812.994 416.429L781.814 458.479L817.653 492.497ZM779.766 456.202L810.485 414.894L755.651 393.511L740.547 410.622L762.87 436.507L779.766 456.202ZM694.391 526.414L706.167 497.613C706.3 497.292 706.533 497.023 706.832 496.846L777.462 458.223L761.385 439.628L679.057 506.13L694.391 526.414ZM677.188 503.752L759.388 437.249L738.192 412.694L656.631 476.639L677.188 503.752ZM654.762 474.184L734.941 411.364L686.839 399.777L628.216 439.167L654.762 474.184ZM627.652 495.413L652.33 476.076L625.656 440.881L598.674 459.016C608.273 471.037 617.95 483.213 627.652 495.413ZM596.728 456.688L685.687 396.836C685.863 396.721 686.06 396.644 686.267 396.609C686.474 396.574 686.686 396.581 686.89 396.631L737.859 408.883L752.195 392.641L682.769 377.294C682.564 377.252 682.37 377.169 682.199 377.05C682.028 376.931 681.882 376.778 681.772 376.601C681.662 376.424 681.589 376.226 681.558 376.02C681.527 375.814 681.538 375.603 681.591 375.402L698.743 311.712C698.856 311.321 699.117 310.988 699.469 310.784C699.822 310.579 700.24 310.518 700.637 310.613L769.091 329.003L777.001 304.141L727.926 288.641L707.139 279.996C706.821 279.862 706.557 279.626 706.39 279.324C706.223 279.023 706.162 278.673 706.218 278.333L712.157 240.375V240.248L715.126 228.379C715.174 228.182 715.261 227.997 715.381 227.834C715.501 227.67 715.652 227.532 715.826 227.428C716 227.323 716.193 227.254 716.393 227.224C716.594 227.194 716.799 227.204 716.995 227.254C717.39 227.357 717.729 227.609 717.939 227.958C718.15 228.307 718.215 228.725 718.122 229.121L715.562 239.352L791.721 258.28L796.175 243.624L775.081 219.223L686.48 195.23L677.546 219.35C677.452 219.566 677.322 219.765 677.162 219.939L578.578 312.787L572.05 385.658C572.001 386.087 571.791 386.48 571.461 386.758L552.492 401.491C566.956 419.344 581.727 437.812 596.728 456.688ZM493.818 438.374L515.372 476.741L517.932 481.217L574.252 453.082C559.762 434.998 544.556 416.045 529.222 397.092L487.52 400.314L493.818 438.374ZM526.636 394.073C505.747 368.24 484.73 342.483 465.197 319.079L418.58 332.533L326.933 358.98C332.54 379.443 337.173 396.478 338.095 399.47L348.053 407.911L526.636 394.073ZM349.615 460.167L367.918 431.11L335.791 401.363L259.913 336.958C254.497 339.01 249.601 342.233 245.578 346.396C236.874 356.423 191.818 405.814 174.359 424.946L276.169 527.258L349.615 460.167ZM245.065 555.956L273.942 529.458L253.667 508.995L224.151 533.422L245.065 555.956ZM222.026 531.146L251.389 506.949L231.83 487.279L196.426 503.573L222.026 531.146ZM229.552 484.824L172.26 427.197C170.289 429.371 168.83 430.982 168.036 431.826C166.372 434.666 160.894 444.027 153.265 456.944L177.662 508.688L229.552 484.824ZM145.944 439.116L155.134 423.437C155.406 422.965 155.732 422.528 156.107 422.132L161.303 416.275L160.868 415.84L140.081 424.281L145.944 439.116ZM137.342 425.432L115.941 434.128V434.256L128.869 467.891C133.989 459.041 139.109 450.498 143.87 442.518L137.342 425.432ZM123.544 533.601L174.897 509.993L151.422 460.192C142.001 476.153 129.765 496.769 117.477 517.18C119.397 522.526 121.445 528.025 123.493 533.601H123.544ZM110.591 498.662C116.094 489.53 121.598 480.297 126.923 471.293L113.151 435.484C113.138 435.442 113.138 435.398 113.151 435.356L90.1108 444.718C95.1796 457.763 102.296 476.562 110.539 498.662H110.591ZM46.105 548.769L90.8275 531.12C93.8995 526.004 97.0739 520.889 100.274 515.518C95.7938 503.394 91.5956 492.139 87.8324 482.036L29.2347 507.614L46.105 548.769ZM28.1852 504.8L86.834 479.222C82.5332 467.738 78.7958 457.941 75.8262 450.345L15.7949 474.695L28.1852 504.8ZM3.58398 444.871L14.6174 471.754L44.3899 459.681C44.2139 459.56 44.0654 459.403 43.9546 459.22L31.1548 432.031L3.58398 444.871ZM33.1772 429.32L46.745 457.89C46.8184 458.15 46.8184 458.424 46.745 458.683L74.5718 447.403C71.6791 440.011 69.6566 435.177 68.7863 433.591C66.8151 430.727 61.9512 420.802 55.5769 407.169L28.5693 419.958L33.1772 429.32ZM15.2574 393.511C15.5287 393.529 15.7902 393.62 16.0151 393.773C16.24 393.925 16.4202 394.135 16.5375 394.38L27.3661 417.196L54.3993 404.407C51.2249 397.526 47.6921 389.802 43.9802 381.617L15.2574 393.511ZM81.4838 424.767C84.3202 430.26 86.7916 435.933 88.8821 441.751L158.59 413.461L71.0134 325.371C59.3834 324.585 47.704 324.953 36.1467 326.471C55.6792 370.542 77.823 419.549 81.4581 424.767H81.4838ZM4.81274 254.367C5.50391 256.183 6.11841 257.717 6.60474 258.843C10.1375 267.283 19.1229 287.874 29.6444 311.815C43.9204 309.534 58.4138 308.925 72.8311 309.999C37.8363 296.621 18.5853 276.287 4.78711 254.367H4.81274ZM91.8516 328.108C86.504 327.038 81.1034 326.253 75.6726 325.755L161.611 412.208L166.986 410.034C186.519 388.625 225.866 345.322 233.853 336.293C236.327 333.478 239.168 331.009 242.301 328.952C190.718 331.893 119.576 333.633 91.9285 328.108H91.8516ZM140.132 162.951L210.711 259.022C210.817 259.158 210.896 259.315 210.941 259.482L227.479 314.321C254.281 313.017 277.987 311.278 291.094 309.666C294.652 309.257 300.898 308.336 309.346 306.674C305.404 292.35 302.537 281.94 302.306 281.096C300.923 267.92 300.401 254.668 300.745 241.424L221.053 167.248L208.688 163.616C207.181 163.181 205.848 162.287 204.874 161.058L177.534 127.551L140.132 162.951ZM215.319 149.471C226.147 152.643 270.23 165.637 311.855 179.628C318.05 162.005 333.512 117.576 335.355 109.109C335.868 106.807 339.836 89.3376 345.826 62.9156C346.722 58.9766 347.669 54.8074 348.642 50.4592L133.477 -2.8197L121.24 34.0126L215.319 149.471ZM12.5438 -178.566L111.103 15.622L164.503 -145.519L12.5438 -178.566ZM152.036 -371.731C136.984 -357.637 49.6378 -251.156 33.5356 -231.538L46.105 -187.032L168.804 -160.303L226.634 -412.041C201.802 -400.71 162.916 -381.859 152.113 -371.731H152.036ZM215.165 -293.462C230.807 -289.165 252.976 -283.231 275.452 -277.425V-328.862C275.426 -329.023 275.426 -329.187 275.452 -329.348L297.878 -397.974L233.878 -374.595L215.165 -293.462ZM478.432 -709.666L378.901 -701.993L363.541 -658.331L421.729 -654.418C421.839 -654.43 421.951 -654.43 422.062 -654.418L478.381 -637.69L478.432 -709.666ZM478.432 -634.391L421.345 -651.349L362.312 -655.39L357.192 -640.836L478.432 -581.623V-634.391ZM478.432 -578.119L356.142 -637.869L350.741 -622.369V-622.139C348.36 -615.693 335.586 -590.934 319.433 -560.419L447.943 -496.474C448.125 -496.384 448.288 -496.259 448.422 -496.106C448.555 -495.953 448.657 -495.775 448.722 -495.583C448.786 -495.39 448.811 -495.186 448.796 -494.984C448.781 -494.781 448.726 -494.584 448.634 -494.402C448.453 -494.041 448.136 -493.766 447.752 -493.636C447.369 -493.507 446.95 -493.534 446.586 -493.712L317.973 -557.657C292.655 -509.903 259.708 -449.334 245.117 -422.579L238.102 -392.5L324.808 -424.012C326.269 -424.548 327.858 -424.628 329.365 -424.242L428.564 -398.664L489.67 -451.943L495.097 -502.485L461.485 -519.213C461.154 -519.374 460.891 -519.648 460.746 -519.986C460.6 -520.324 460.581 -520.704 460.692 -521.055L478.432 -574.768V-578.119ZM481.504 -709.845V-579.756C481.625 -579.541 481.689 -579.299 481.689 -579.053C481.689 -578.806 481.625 -578.564 481.504 -578.349V-574.615C481.527 -574.454 481.527 -574.29 481.504 -574.129L464.122 -521.413L495.533 -505.81L514.579 -681.275L514.297 -681.147L494.381 -676.696V-658.945L510.201 -660.634C510.403 -660.654 510.607 -660.634 510.801 -660.575C510.995 -660.517 511.175 -660.421 511.332 -660.293C511.489 -660.164 511.619 -660.006 511.715 -659.828C511.811 -659.649 511.871 -659.454 511.891 -659.252C511.911 -659.051 511.891 -658.847 511.833 -658.653C511.774 -658.459 511.678 -658.279 511.55 -658.122C511.421 -657.965 511.263 -657.835 511.085 -657.74C510.906 -657.644 510.71 -657.584 510.508 -657.564L492.998 -655.697H492.819C492.438 -655.7 492.073 -655.846 491.795 -656.106C491.632 -656.245 491.502 -656.418 491.414 -656.612C491.325 -656.806 491.281 -657.018 491.283 -657.232V-677.95C491.286 -678.297 491.407 -678.632 491.626 -678.901C491.844 -679.171 492.147 -679.358 492.486 -679.433L513.683 -684.088C513.896 -684.135 514.116 -684.133 514.329 -684.085C514.541 -684.036 514.74 -683.941 514.911 -683.807L518.06 -712.685L481.504 -709.845ZM515.475 -632.114L538.873 -636.82V-639.89C538.846 -640.008 538.846 -640.13 538.873 -640.248L548.805 -679.587L521.312 -685.981L515.475 -632.114ZM524.255 -712.454L521.696 -689.076L549.599 -682.579L555.845 -707.288L524.255 -712.454ZM558.892 -706.802L552.62 -681.863L605.278 -669.611L608.35 -698.719L558.892 -706.802ZM611.422 -698.208L608.299 -668.921L669.38 -654.699L674.833 -687.951L611.422 -698.208ZM677.981 -687.362L672.503 -654.111L739.856 -647.691C740.112 -657.641 740.317 -667.54 740.496 -677.106L677.981 -687.362ZM742.876 -551.365H792.77L796.175 -575.664L744.08 -577.428C743.721 -567.734 743.312 -558.91 742.876 -551.365ZM746.512 -662.296L751.376 -676.415H746.819C746.716 -671.785 746.614 -667.054 746.512 -662.296ZM747.536 -717.954C747.331 -706.52 747.1 -693.399 746.819 -679.587H752.374L765.455 -717.34L747.536 -717.954ZM820.674 -715.038L768.63 -717.11L755.702 -679.484H822.568L820.674 -715.038ZM889.307 -644.647C877.915 -652.525 849.141 -673.627 845.352 -676.39H754.627L746.281 -652.116C745.718 -627.357 745.027 -601.983 744.208 -580.498L797.967 -578.656C798.186 -578.654 798.402 -578.605 798.601 -578.512C798.8 -578.42 798.976 -578.286 799.119 -578.119C799.254 -577.952 799.354 -577.759 799.411 -577.553C799.468 -577.346 799.482 -577.129 799.452 -576.917L795.612 -549.6C795.557 -549.231 795.372 -548.895 795.09 -548.651C794.808 -548.407 794.449 -548.272 794.076 -548.27H742.646C742.083 -538.908 741.469 -531.874 740.803 -528.089C736.707 -504.582 727.849 -369.735 725.673 -336.254L811.714 -326.355C814.94 -326.355 838.645 -325.946 866.472 -326.048V-392.704C866.445 -392.874 866.445 -393.047 866.472 -393.216L950.131 -620.451C941.555 -623.239 900.545 -636.872 889.307 -644.647ZM1132.32 -535.557C1125.13 -542.745 1109.28 -572.364 1106.85 -576.84L984.87 -621.755L953.229 -619.939L869.62 -392.295V-325.793C899.316 -325.946 932.928 -326.585 951.283 -328.632C984.563 -332.315 1064.74 -352.291 1083.22 -356.947L1123.29 -463.095C1123.67 -464.123 1124.28 -465.056 1125.05 -465.832L1169.93 -510.9C1157.62 -518.139 1137.6 -530.288 1132.32 -535.557ZM1550.65 -579.219L1546.24 -678.461L1477.59 -660.403H1477.18C1476.9 -660.401 1476.62 -660.481 1476.38 -660.634C1476.03 -660.862 1475.77 -661.219 1475.67 -661.631L1468.68 -696.34L1407.85 -680.661L1411.31 -662.168C1421.34 -646.949 1429.08 -635.107 1432.02 -630.426L1520.65 -571.546L1550.65 -579.219ZM1440.88 -605.973C1446.36 -589.45 1455.29 -562.491 1464.79 -535.378L1517.6 -555.048L1440.88 -605.973ZM1520.65 -553.001L1465.68 -532.539C1479.05 -494.505 1493.33 -456.982 1500.47 -448.49C1502.58 -446.072 1504.87 -443.823 1507.33 -441.763L1562.07 -476.293L1566.72 -499.799L1570.59 -519.955L1520.65 -553.001ZM1509.84 -439.691C1530.53 -423.27 1567.67 -406.44 1578.96 -402.884C1582.96 -401.165 1586.85 -399.209 1590.61 -397.027C1602.41 -397.027 1618.18 -395.544 1632.23 -394.214C1617.69 -405.007 1600.13 -433.297 1598.52 -435.931L1563.06 -473.377L1509.84 -439.691ZM1565.34 -476.293L1601.05 -461.56L1606.61 -470.615L1569.28 -496.832L1565.34 -476.293ZM1613.98 -567.837L1632.64 -570.574L1647.13 -620.962L1633.62 -625.438L1613.98 -567.837ZM1655.71 -689.92L1645.8 -672.502C1646.63 -671.49 1647.19 -670.281 1647.43 -668.992C1647.66 -667.702 1647.56 -666.374 1647.13 -665.135L1634.61 -628.38L1647.98 -623.929L1651.54 -636.232C1651.61 -636.53 1651.78 -636.798 1652.01 -636.999C1652.25 -637.2 1652.54 -637.325 1652.84 -637.358L1668.2 -639.097L1685.87 -664.342L1655.71 -689.92ZM1688.37 -662.322L1670.45 -636.744C1670.33 -636.568 1670.17 -636.42 1669.99 -636.31C1669.8 -636.199 1669.59 -636.129 1669.38 -636.104L1654.33 -634.365L1635.49 -568.758C1635.4 -568.469 1635.24 -568.212 1635.01 -568.016C1634.78 -567.821 1634.5 -567.696 1634.21 -567.658L1612.98 -564.537L1597.88 -520.159C1603.72 -516.195 1614.72 -508.956 1629.06 -500.567L1658.4 -505.375C1658.35 -505.611 1658.35 -505.856 1658.4 -506.092L1681.39 -612.47C1681.43 -612.675 1681.51 -612.869 1681.63 -613.04C1681.75 -613.212 1681.9 -613.357 1682.08 -613.468C1682.26 -613.574 1682.46 -613.643 1682.68 -613.669C1682.89 -613.696 1683.1 -613.679 1683.31 -613.621L1719.66 -603.671L1729.31 -627.561L1688.37 -662.322ZM1673.53 -561.621L1661.44 -505.912L1716.51 -514.916L1724.6 -550.111L1673.53 -561.621ZM1725.29 -553.129L1735.25 -596.279L1684.05 -610.296L1674.24 -564.639L1725.29 -553.129ZM1716.3 -511.77L1633.28 -498.162C1656.32 -484.913 1687.04 -469.489 1718.66 -459.795L1716.3 -511.77ZM1759.21 -670.66L1743.16 -666.619L1740.8 -622.497L1784.09 -617.816L1793.28 -657.973L1759.21 -670.66ZM1796.33 -657.487L1787.19 -617.586L1854.21 -610.219L1851.93 -662.475L1796.33 -657.487ZM1858.89 -713.017L1842.89 -709.666L1854.57 -665.826L1867.73 -667.002L1858.89 -713.017ZM1899.67 -649.379L1869.29 -664.035L1855.03 -662.756L1857.28 -610.475L1903.03 -622.394L1899.67 -649.379ZM1917.06 -579.449L1913.06 -621.806L1884.16 -614.286L1889.08 -573.924L1917.06 -579.449ZM1865.04 -512.946L1860.35 -565.509L1819.39 -567.581L1811.02 -513.867L1865.04 -512.946ZM1816.4 -569.474C1816.47 -569.846 1816.67 -570.181 1816.97 -570.419C1817.26 -570.658 1817.63 -570.785 1818.01 -570.778L1861.53 -568.553L1886.03 -573.336L1881.17 -613.519L1856.23 -607.022H1855.95H1855.67L1739.14 -619.632C1738.91 -619.684 1738.69 -619.779 1738.5 -619.913L1732 -625.438L1722.86 -602.904L1737.47 -598.863C1737.86 -598.76 1738.18 -598.514 1738.39 -598.176C1738.59 -597.837 1738.66 -597.433 1738.58 -597.047L1719.71 -515.197L1807.8 -513.867L1816.4 -569.474ZM1766.4 -450.153C1776.88 -449.551 1787.38 -449.662 1797.84 -450.485L1807.36 -510.696L1719.45 -512.026L1721.81 -458.721C1736.31 -454.232 1751.27 -451.359 1766.4 -450.153ZM1723.16 -442.223C1654.05 -461.074 1588.43 -507.754 1584.21 -510.823L1573.23 -518.113L1569.8 -500.209L1609.45 -472.329C1609.77 -472.106 1609.99 -471.771 1610.07 -471.391C1610.15 -471.011 1610.09 -470.615 1609.89 -470.282L1602.9 -458.849C1602.71 -458.53 1602.42 -458.291 1602.07 -458.178C1601.72 -458.064 1601.34 -458.085 1601 -458.235L1569.57 -471.203L1601.03 -437.952L1601.23 -437.696C1601.49 -437.287 1625.68 -397.846 1640.04 -393.497H1640.63L1642.83 -393.293V-421.659C1642.84 -422.007 1642.96 -422.344 1643.18 -422.617C1643.4 -422.89 1643.7 -423.083 1644.04 -423.168L1723.16 -442.223ZM1676.93 -427.925L1646.08 -420.431V-392.884C1652.02 -392.321 1657.01 -391.86 1660.01 -391.733C1667.59 -392.084 1675.11 -393.154 1682.49 -394.93L1676.93 -427.925ZM1871.49 -265.889L1867.9 -282.463C1867.83 -282.766 1867.83 -283.082 1867.9 -283.384L1887.54 -331.113L1886.23 -363.085L1774.82 -406.414L1731.43 -403.37C1727.52 -402.322 1673.3 -388.024 1659.75 -388.535C1655.84 -388.714 1648.67 -389.43 1640.37 -390.223C1627.45 -391.502 1610.3 -393.19 1596.68 -393.676C1646.77 -365.72 1788.11 -280.852 1858.87 -238.239L1871.49 -265.889ZM1852.26 -224.248C1736.5 -293.974 1585.46 -384.11 1574.51 -388.126C1560.89 -392.321 1507.46 -416.262 1488.65 -438.566C1475.85 -453.682 1449.63 -529.905 1425.64 -602.469C1422.6 -611.677 1419.96 -619.658 1419.25 -621.55C1417.61 -624.287 1407.85 -639.174 1394.34 -659.662L1277.45 -649.2L1233.49 -553.436C1233.11 -552.602 1232.58 -551.841 1231.93 -551.185L1136.98 -456.317L1098.58 -354.389L1127.54 -339.4C1128.53 -338.888 1129.4 -338.164 1130.09 -337.281C1130.77 -336.397 1131.26 -335.374 1131.5 -334.284L1147.63 -267.168C1148.1 -265.147 1147.75 -263.023 1146.66 -261.259L1119.11 -217.444L1124.82 -102.344L1213.17 -35.4061C1234.16 -28.6279 1507.95 59.8207 1656.94 123.945C1664.03 106.04 1671.79 86.524 1679.98 66.1896C1690.22 40.3814 1700.05 15.9034 1701.74 10.9413C1701.97 6.82324 1704.81 4.23981 1740.44 -23.6402C1755.01 -35.0223 1773.16 -49.2181 1776.28 -52.7479C1780.3 -57.3519 1790.06 -82.6741 1797.17 -104.492C1797.17 -104.773 1797.38 -105.055 1797.51 -105.336L1852.26 -224.248ZM1906.59 -15.9668L1876.53 -31.3135C1876.22 -31.4836 1875.98 -31.7542 1875.84 -32.0809L1856.97 -74.7449C1856.95 -74.8718 1856.95 -75.0018 1856.97 -75.1286L1853.34 -99.4021L1817.91 -112.6L1811.74 -99.223C1808.85 -90.373 1795.89 -51.648 1787.91 -42.5422C1782.65 -37.3647 1777.05 -32.5372 1771.16 -28.0907L1824.21 -1.1571C1824.56 -0.985535 1824.83 -0.684326 1824.96 -0.317017C1825.1 0.050354 1825.08 0.4552 1824.92 0.812317L1780.92 104.122L1845.56 129.29L1906.59 -15.9668ZM1844.38 132.078L1779.71 107.012L1766.15 138.831L1830.99 163.923L1844.38 132.078ZM1829.79 166.762L1763.64 141.184L1749.99 137.552L1741.26 161.672C1768.22 173.847 1793.84 185.485 1817.4 196.228L1829.79 166.762ZM1875.33 239.711C1857.41 231.551 1837.11 222.164 1814.68 211.933L1795.15 265.033L1855.34 291.404L1875.33 239.711ZM1916.72 321.56L1857.05 295.547L1818.34 395.608C1818.34 395.608 1818.34 395.762 1818.16 395.864L1883.88 419.344L1916.72 321.56ZM1882.91 422.311L1835.37 405.302C1835.38 405.413 1835.38 405.524 1835.37 405.635L1825.54 430.88L1873.41 450.754L1882.91 422.311Z" fill="#2C5DEB"/>
</g>
</svg>
