<svg width="1920" height="365" viewBox="0 0 1920 365" fill="none" xmlns="http://www.w3.org/2000/svg">
<mask id="mask0_970_48" style="mask-type:alpha" maskUnits="userSpaceOnUse" x="0" y="0" width="1920" height="365">
<rect y="-3.05176e-05" width="1920" height="365" rx="55" fill="#2C5DEB"/>
</mask>
<g mask="url(#mask0_970_48)">
<path d="M78.591 906.573L68.9143 910H78.1302L79.5893 909.488L79.7429 910H82.9941L82.4821 908.465L244.861 850.838C248.718 868.879 253.104 888.6 258.019 910H273.916C253.206 818.789 241.891 761.955 240.355 724.969C256.951 719.793 274.177 716.91 291.555 716.4L304.354 760.804C304.451 761.124 304.647 761.405 304.914 761.607C305.181 761.809 305.504 761.922 305.839 761.929C306.096 761.921 306.349 761.86 306.582 761.75L343.343 741.646C343.673 741.466 343.926 741.172 344.053 740.818C344.181 740.464 344.174 740.076 344.034 739.728L327.676 698.956L348.821 688.265L371.861 677.113L394.516 695.912L301.666 910H305.046L345.749 816.206L401.07 838.203L404.628 869.561L352.661 877.618C352.315 877.679 352 877.853 351.764 878.112C351.528 878.371 351.384 878.701 351.355 879.051L349.282 910H352.379L354.35 880.483L374.19 877.414L375.957 910H399.662L396.795 873.91L406.497 872.4L443.488 867.566L451.757 910H454.906L446.612 867.157L467.45 864.42L472.16 885.394L456.8 910H460.461L473.261 889.666L477.843 910H484.166L478.355 884.141L536.799 860.276L551.468 899.948C551.6 900.297 551.854 900.588 552.183 900.766C552.512 900.945 552.894 900.999 553.26 900.92L570.693 896.802L574.559 910H577.784L573.125 894.653C573.012 894.274 572.758 893.952 572.416 893.752C572.074 893.553 571.668 893.491 571.282 893.579L553.772 897.723L539.538 859.356L661.623 809.504L745.846 796.715L757.75 822.881C757.839 823.085 757.97 823.268 758.134 823.419L791.029 852.015L833.448 900.434L841.845 910H845.966L836.674 899.411L855.694 877.414L873.87 905.319C874.005 905.537 874.193 905.718 874.417 905.843C874.641 905.968 874.893 906.035 875.15 906.035C875.45 906.029 875.742 905.941 875.995 905.78C876.34 905.555 876.582 905.203 876.668 904.8C876.754 904.398 876.678 903.978 876.456 903.631L857.179 874.037L842.229 849.559L872.948 820.989L888.692 838.893L888.308 870.84C888.305 871.044 888.342 871.246 888.418 871.435C888.493 871.624 888.606 871.797 888.749 871.942C888.892 872.087 889.062 872.202 889.25 872.281C889.438 872.36 889.64 872.4 889.844 872.4C890.045 872.404 890.244 872.367 890.43 872.293C890.616 872.219 890.786 872.108 890.929 871.968C891.072 871.827 891.185 871.66 891.263 871.475C891.34 871.29 891.38 871.092 891.38 870.891L891.79 838.279C891.794 837.902 891.657 837.537 891.406 837.256L875.227 818.891L890.587 804.747L930.599 826.437C930.827 826.559 931.082 826.621 931.341 826.616C931.567 826.618 931.791 826.568 931.995 826.471C932.199 826.373 932.378 826.23 932.519 826.053L941.735 815.003L946.419 826.59C946.507 826.813 946.644 827.012 946.822 827.172C947 827.332 947.213 827.448 947.443 827.511L969.28 833.573L976.55 855.698C976.623 855.919 976.745 856.12 976.909 856.286L1028.88 910H1037.02L1103.35 846.848L1140.39 811.576L1211.22 850.403L1223.46 880.304L1200.91 910H1204.77L1243.35 859.151C1243.63 859.372 1243.97 859.498 1244.32 859.509C1244.55 859.508 1244.78 859.455 1244.99 859.353C1245.2 859.251 1245.38 859.103 1245.53 858.921C1245.66 858.764 1245.75 858.582 1245.81 858.387C1245.87 858.192 1245.89 857.988 1245.87 857.786C1245.84 857.583 1245.78 857.387 1245.69 857.209C1245.59 857.031 1245.45 856.873 1245.3 856.747L1265.78 829.609L1290.4 848.92C1283.58 857.446 1276.83 865.972 1270.15 874.498C1265.98 879.613 1261.83 884.959 1257.71 890.203L1241.89 910H1269.74C1274.48 897.211 1278.73 888.412 1282.26 883.936L1283.82 881.967L1310.37 900.664C1310.62 900.856 1310.93 900.955 1311.24 900.945C1311.48 900.949 1311.72 900.896 1311.94 900.789C1312.16 900.682 1312.35 900.526 1312.49 900.332L1322.38 887.236C1322.62 886.896 1322.73 886.473 1322.66 886.058C1322.6 885.643 1322.37 885.271 1322.03 885.023C1321.69 884.776 1321.27 884.673 1320.85 884.738C1320.44 884.802 1320.06 885.029 1319.82 885.368L1310.91 897.211L1285.74 879.485C1301.69 859.356 1321.92 833.906 1344.01 806.281L1400.69 834.698L1359.19 910H1362.7L1371.37 894.295L1400.15 910H1406.57L1372.86 891.584L1407.34 829.123L1429.02 790.551C1429.1 790.397 1429.15 790.233 1429.18 790.065L1435.78 751.417L1569.57 761.648L1549.09 780.627C1548.83 780.877 1548.66 781.208 1548.61 781.566C1548.57 781.925 1548.64 782.288 1548.83 782.596L1567.42 811.985L1507.31 910H1510.92L1569.52 814.441L1672.99 909.284L1672.55 910H1681.49L1677.65 908.44L1726.52 855.826L1795.43 887.517C1792.74 894.832 1789.95 902.378 1787.16 910H1803.68C1806.77 901.508 1809.84 893.17 1812.81 885.113C1818.11 893.86 1823.28 902.301 1828.17 910H1846.35C1841.97 903.017 1837.08 895.114 1831.86 886.596L1874.2 903.299L1890.05 910H1897.96L1876.76 901.048L1907.2 826.872L1920 831.987V828.662L1908.3 823.93L1919.97 795.488V787.226L1917.59 793.006L1890.3 780.218L1898.29 763.413L1919.97 771.572V768.273L1899.49 760.599L1906.18 746.531C1906.3 746.267 1906.35 745.973 1906.31 745.683C1906.28 745.393 1906.16 745.119 1905.97 744.894L1919.87 750.624V747.273L1877.22 729.727L1883.75 715.249L1919.97 730.519V727.169L1885.11 712.589C1889.74 702.358 1894.43 691.692 1898.93 681.512L1919.97 690.03V673.378L1905.18 667.393C1910.76 654.604 1915.8 643.196 1919.72 634.142L1919.97 634.27V590.787C1904.44 619.639 1882.93 647.519 1832.65 662.405C1830.09 662.789 1827.53 663.224 1824.97 663.735C1802.42 668.237 1744.44 667.521 1695.54 665.245L1711.77 611.531L1752.73 555.822L1804.52 592.936C1804.78 593.135 1805.09 593.243 1805.42 593.243C1805.66 593.243 1805.91 593.183 1806.13 593.067C1806.34 592.951 1806.53 592.783 1806.67 592.578C1806.9 592.243 1807 591.832 1806.93 591.43C1806.86 591.029 1806.64 590.67 1806.31 590.429L1754.6 553.443L1782.38 515.665L1919.97 572.55V569.225L1782.68 512.467L1744.28 476.147L1809.38 396.267L1919.97 451.259V434.045L1817.73 383.094L1919.97 181.744V153.916L1890.97 160.233L1899.75 129.028C1906.33 132.312 1913.08 135.249 1919.97 137.827V121.253C1913.13 118.462 1906.45 115.277 1899.98 111.712C1889.05 98.3347 1795.02 -16.4335 1778.43 -31.9849C1761.85 -47.5363 1702.38 -74.0862 1687.89 -80.404C1647.49 -154.58 1587.59 -265.716 1584.13 -275.794C1582.93 -281.702 1578.09 -326.259 1573.61 -368.898H1558.1C1558.99 -360.227 1559.99 -350.788 1561.02 -341.273L1551.34 -368.898H1534.98L1540.1 -354.242L1468.19 -359.715L1469.55 -368.898H1466.43L1465.09 -359.971L1401.61 -364.805L1401.15 -368.898H1394.95L1395.41 -364.524L1363.41 -359.408L1360.85 -369H1357.65L1360.21 -358.769L1311.32 -350.788L1309.4 -368.898H1306.27L1308.27 -350.277L1244.68 -339.892L1239.92 -368.898H1236.77L1241.58 -339.381L1179.25 -329.15C1178.97 -342.91 1178.74 -355.904 1178.56 -367.21L1188.28 -368.898H1143.97L1099.48 -367.133V-368.898H1096.38L1094.26 -328.485H1074.03C1073.7 -328.485 1073.38 -328.377 1073.11 -328.178C1072.88 -327.999 1054.78 -314.724 1040.68 -304.595L1037.38 -326.003L1060.77 -336.235C1061.02 -336.348 1061.23 -336.52 1061.39 -336.734C1061.55 -336.948 1061.65 -337.198 1061.69 -337.462L1065.41 -366.161C1065.45 -366.552 1065.35 -366.946 1065.12 -367.264C1064.88 -367.582 1064.54 -367.8 1064.15 -367.875L1058.55 -368.898H1041.7L1062.18 -365.061L1058.75 -338.665L1035.07 -328.433C1034.76 -328.293 1034.5 -328.055 1034.33 -327.755C1034.17 -327.456 1034.1 -327.11 1034.15 -326.771L1037.91 -302.651C1034.38 -300.093 1031.26 -297.893 1028.88 -296.256C1017.41 -288.327 971.584 -273.236 967.59 -272.06L935.54 -273.876L878.068 -338L870.388 -362.094L880.628 -368.898H875.073L869.416 -365.163L868.264 -368.898H865.038L875.278 -336.772C875.333 -336.562 875.438 -336.369 875.585 -336.209L932.212 -272.98L811.893 -228.705C809.077 -229.319 791.413 -233.667 788.009 -244.307C786.729 -248.349 777.462 -269.067 765.379 -296.026L824.258 -324.827L839.797 -288.276C839.881 -288.078 840.007 -287.9 840.166 -287.754C840.325 -287.609 840.513 -287.499 840.718 -287.432C840.887 -287.394 841.062 -287.394 841.23 -287.432C841.491 -287.436 841.747 -287.506 841.973 -287.637L877.582 -307.434C877.764 -307.534 877.923 -307.671 878.051 -307.835C878.178 -307.999 878.271 -308.187 878.324 -308.388C878.376 -308.589 878.388 -308.798 878.357 -309.003C878.326 -309.209 878.254 -309.406 878.145 -309.582L848.757 -356.953C848.577 -357.236 848.31 -357.453 847.997 -357.573C847.683 -357.693 847.339 -357.709 847.016 -357.618L817.346 -349.254L808.949 -368.898H805.596L823.106 -327.692L764.227 -298.814L762.691 -302.242C753.603 -322.371 742.928 -346.159 732.918 -368.898H729.59C739.549 -346.236 750.326 -322.218 759.875 -300.988C773.263 -271.139 783.836 -247.556 785.167 -243.387C788.725 -232.311 804.213 -227.452 809.794 -226.045C806.031 -219.036 791.874 -193.049 785.551 -186.732C780.431 -181.616 759.951 -169.287 747.868 -162.151L699.818 -210.11L626.936 -368.898H609.963L640.939 -301.423L527.455 -311.654C538.54 -328.408 551.929 -348.614 565.394 -368.898H546.86C535.289 -351.454 523.283 -333.319 513.068 -317.742L522.591 -368.898H519.468L512.71 -332.705L451.936 -348.435L456.135 -368.898H453.114L441.645 -312.805L373.755 -330.531L376.571 -368.898H373.473L370.581 -329.559L366.126 -227.247C366.109 -226.894 366.215 -226.546 366.424 -226.262C366.634 -225.978 366.936 -225.775 367.278 -225.687L395.848 -218.397L335.356 -178.137L288.713 -315.184C300.698 -331.422 309.815 -349.588 315.669 -368.898H299.516C294.111 -352.87 286.262 -337.771 276.246 -324.136L266.006 -342.041C265.9 -342.244 265.747 -342.42 265.56 -342.553C265.374 -342.686 265.158 -342.774 264.931 -342.808C264.708 -342.844 264.481 -342.831 264.264 -342.769C264.047 -342.707 263.846 -342.598 263.676 -342.45L242.557 -324.546L185.854 -368.898H180.734L240.048 -322.499L182.09 -273.313L179.863 -316.795C179.846 -317.122 179.725 -317.434 179.518 -317.688C179.311 -317.941 179.028 -318.121 178.711 -318.202L161.073 -322.857C160.772 -322.947 160.452 -322.947 160.151 -322.857L124.696 -309.506L68.5559 -314.621L80.2037 -358.308H102.015C102.359 -358.303 102.695 -358.414 102.969 -358.623C103.243 -358.831 103.439 -359.126 103.525 -359.459L105.983 -368.898H102.783L100.837 -361.378H79.1797L61.6952 -365.035L62.4376 -368.898H59.2888L58.6744 -365.675L43.289 -368.898H28.1596L58.0856 -362.657L49.0489 -315.67L18.6878 -301.014L0 -304.671V-301.525L17.1774 -298.175L13.9518 -272.162L0 -275.794V-272.622L3.91675 -271.599L0 -230.035V-197.116L2.55997 -225.252L56.5752 -214.739L51.8649 -161.946L0 -163.686V-160.591L53.2217 -158.8L109.541 -159.67L118.859 -99.7664C76.799 -103.373 31.1804 -116.111 0 -126.368V-110.074C7.2959 -107.721 15.3598 -105.291 23.7309 -102.861C69.1191 -89.8678 108.21 -83.3198 140.491 -83.3198C145.329 -83.3198 150.014 -83.4733 154.52 -83.7547C166.613 -84.6534 178.605 -86.6048 190.359 -89.5865L239.946 -77.6415L234.518 -44.5437C214.039 -48.8919 189.591 -55.3887 189.207 -55.491H188.925L145.022 -58.5604C144.805 -58.6243 144.574 -58.6243 144.356 -58.5604L32.6652 -15.0779L0 -50.5033V-45.9504L30.7196 -12.6992L29.3628 19.8872C29.3097 20.097 29.3097 20.3168 29.3628 20.5266L48.6906 68.2295L46.1306 80.3535L0 -19.4773V17.3294L47.769 120.664L32.5628 129.872L0 107.261V126.036L22.6557 141.766L11.0591 168.521C8.07266 161.563 4.36615 154.936 0 148.749L0 183.305C0.852019 186.063 1.56122 188.863 2.12477 191.694C2.1641 192.164 2.25861 192.628 2.40637 193.076C4.90883 206.772 4.08358 220.868 0 234.179L0 259.757L11.3918 246.559C11.8968 245.976 12.3111 245.321 12.6206 244.615C19.1395 227.759 20.9706 209.455 17.9198 191.643L38.3995 144.375L54.3225 134.758L100.914 235.586L64.8695 249.04C64.6134 249.137 64.3869 249.299 64.2119 249.51C64.037 249.72 63.9196 249.973 63.8712 250.242L60.1336 275.206L41.5994 317.18L10.8799 332.936C10.537 333.117 10.2737 333.418 10.1413 333.782C10.0088 334.146 10.0165 334.547 10.1631 334.905L86.962 517.455L99.8387 548.507L80.1525 557.485L0 370.561V378.388L77.2854 558.789L65.9447 563.905L0 408.519V416.345L63.1544 565.184C54.6809 569.046 46.6682 572.857 39.0907 576.233L16.051 516.279C15.9787 516.089 15.8697 515.915 15.7303 515.767C15.5908 515.62 15.4236 515.501 15.2382 515.418C15.0527 515.335 14.8528 515.289 14.6496 515.283C14.4465 515.277 14.2442 515.311 14.0542 515.383C13.8643 515.456 13.6904 515.564 13.5426 515.704C13.3948 515.843 13.2759 516.01 13.1927 516.195C13.1095 516.381 13.0636 516.581 13.0577 516.784C13.0518 516.987 13.0859 517.189 13.1582 517.378L36.3003 577.487L0 594.342V611.326L41.8554 592.015L61.8232 643.631L2.30397 669.567L0 662.738V673.916L0.435194 673.736L43.801 802.905L0 821.091V824.416L44.7738 805.821L78.591 906.573ZM379.054 910L377.262 876.979L393.774 874.421L396.488 909.079L379.054 910ZM818.549 -346.389L846.709 -354.344L874.74 -309.224L842.05 -291.064L818.549 -346.389ZM244.195 847.794L81.5093 905.524L47.641 804.644L97.0739 784.182C97.4486 784.034 97.7499 783.744 97.9127 783.375C98.0756 783.007 98.0869 782.589 97.9443 782.213L87.5508 755.458C87.5176 755.384 87.4745 755.315 87.4228 755.253L219.619 707.934L225.072 705.965C223.024 737.068 230.013 781.394 244.195 847.794ZM1208.61 -211.926C1208.64 -212.199 1208.59 -212.474 1208.47 -212.721C1208.36 -212.969 1208.17 -213.181 1207.95 -213.333C1207.71 -213.47 1207.44 -213.542 1207.16 -213.542C1206.89 -213.542 1206.62 -213.47 1206.38 -213.333L1183.22 -201.874C1182.22 -219.957 1181.35 -245.356 1180.66 -272.187L1252.98 -270.397L1253.62 -266.484C1253.46 -264.821 1252.41 -253.541 1252.26 -237.401V-237.12C1252.26 -228.833 1252.26 -219.215 1252.95 -208.984C1252.95 -208.984 1252.95 -208.856 1252.95 -208.805C1253.8 -193.252 1255.92 -177.794 1259.3 -162.586C1263.11 -146.011 1272.97 -110.714 1284.31 -71.3749L1195.71 -55.7468L1195.17 -63.4202L1208.61 -211.926ZM1193.81 -82.4246C1190.74 -124.347 1187.39 -165.681 1185.24 -178.035C1184.57 -181.769 1183.96 -188.957 1183.4 -198.497L1205.28 -209.317L1193.81 -82.4246ZM1409.85 -232.363L1414.56 -189.213L1381.13 -199.444V-235.739L1409.85 -232.363ZM1381.13 -238.731V-282.674L1404.88 -277.891L1409.52 -235.637L1381.13 -238.731ZM1343.09 -103.654L1335.02 -127.186L1420.81 -132.302L1422.16 -119.845L1343.09 -103.654ZM1422.45 -116.776L1423.93 -103.271L1353.12 -74.2908L1344.06 -100.713L1422.45 -116.776ZM1333.92 -130.204L1330.08 -141.407C1329.95 -141.794 1329.66 -142.111 1329.29 -142.288C1328.92 -142.466 1328.5 -142.489 1328.11 -142.354C1327.72 -142.218 1327.41 -141.934 1327.23 -141.565C1327.05 -141.196 1327.03 -140.771 1327.16 -140.384L1350.74 -71.7586C1350.81 -71.5569 1350.91 -71.3709 1351.05 -71.2125C1351.19 -71.054 1351.37 -70.9264 1351.56 -70.8378C1351.77 -70.7994 1351.99 -70.7994 1352.2 -70.8378C1352.39 -70.8023 1352.59 -70.8023 1352.79 -70.8378L1424.26 -100.099V-99.7409C1415.94 -69.4054 1404.4 -36.6401 1396.38 -23.2372L1308.14 -0.575195C1289.81 -62.8063 1268.34 -137.059 1262.22 -163.481C1259.01 -178.022 1256.95 -192.792 1256.05 -207.654H1298.44C1298.85 -207.654 1299.24 -207.816 1299.53 -208.104C1299.81 -208.392 1299.98 -208.782 1299.98 -209.189V-221.518L1328.62 -212.719L1314.49 -170.106C1314.37 -169.719 1314.4 -169.3 1314.58 -168.937C1314.76 -168.574 1315.08 -168.296 1315.46 -168.162H1315.95C1316.28 -168.162 1316.6 -168.266 1316.87 -168.458C1317.13 -168.651 1317.33 -168.924 1317.44 -169.236L1331.57 -211.875L1346.93 -207.092V-166.167C1346.93 -165.753 1347.09 -165.356 1347.38 -165.064C1347.68 -164.771 1348.07 -164.607 1348.49 -164.607H1417.27L1420.47 -135.371L1333.92 -130.204ZM1488.36 21.8567L1480.25 3.08246C1480.09 2.71689 1479.8 2.42584 1479.43 2.26889C1479.06 2.11194 1478.65 2.10104 1478.28 2.2384L1463.43 8.04459C1463.16 8.1452 1462.92 8.32123 1462.74 8.55219C1462.56 8.78311 1462.46 9.05948 1462.43 9.34906L1460.31 36.4617L1417.56 48.0229C1417.18 48.1361 1416.86 48.3844 1416.66 48.7198C1416.45 49.0551 1416.38 49.4539 1416.45 49.839L1422.21 77.9747C1422.28 78.3248 1422.47 78.6401 1422.75 78.8682C1423.02 79.0963 1423.37 79.2233 1423.73 79.228H1424.03L1495.71 64.623C1496.12 76.5935 1496.45 86.3898 1496.63 91.7356C1461.61 91.0962 1420.37 89.7661 1413.59 86.0573C1404.4 80.9417 1353.51 39.0195 1321.43 12.0603L1492.26 -31.9849C1492.66 -20.8841 1493.41 -0.396149 1494.2 21.0382L1488.36 21.8567ZM1494.18 24.1331C1494.64 37.05 1495.12 50.0948 1495.53 61.5025L1424.88 75.8773L1419.76 50.6319L1462.2 39.1474C1462.51 39.064 1462.79 38.8865 1463 38.6392C1463.2 38.3919 1463.33 38.087 1463.35 37.7662L1465.5 10.5512L1478.05 5.66583L1486.03 24.1843C1486.17 24.4926 1486.41 24.7474 1486.7 24.9092C1487 25.071 1487.34 25.1309 1487.67 25.0795L1494.18 24.1331ZM1616.08 591.478C1616.05 591.578 1616.05 591.684 1616.08 591.785C1616.37 604.417 1615.94 617.056 1614.8 629.64C1611.45 628.668 1603.31 626.289 1592.4 622.939C1592.42 622.82 1592.42 622.699 1592.4 622.581L1587.28 579.584C1587.23 579.177 1587.02 578.807 1586.7 578.555C1586.37 578.303 1585.96 578.19 1585.55 578.241C1585.15 578.292 1584.78 578.503 1584.52 578.826C1584.27 579.15 1584.16 579.561 1584.21 579.968L1589.33 621.967C1569.34 615.751 1541.56 606.62 1517.14 597.028C1528.63 584.393 1537.08 576.003 1541.13 573.573C1552.93 566.488 1580.5 556.231 1610.06 546.256C1614.21 559.07 1615.77 576.054 1616.13 591.478H1616.08ZM1612.91 545.258C1642.19 535.436 1672.99 525.998 1692.14 520.243L1619.05 588.229C1618.56 573.369 1616.9 557.485 1612.96 545.258H1612.91ZM1187.16 618.948C1187.05 618.577 1186.79 618.264 1186.45 618.073C1186.12 617.882 1185.72 617.83 1185.34 617.925L1160.84 623.732C1160.46 623.818 1160.13 624.045 1159.91 624.368C1159.69 624.692 1159.6 625.086 1159.66 625.471L1162.97 645.677L1142.08 652.276L1129.41 612.375L1205.21 593.55L1210.71 628.643L1192.61 636.316L1187.16 618.948ZM1189.72 637.237L1165.96 644.757L1162.97 626.392L1184.68 621.276L1189.72 637.237ZM1159.46 706.962L1151.78 683.021L1218.62 665.117L1225.3 689.978L1159.46 706.962ZM1226.17 692.894L1235 725.839L1166.14 741.006L1160.2 710.083L1226.17 692.894ZM1156.93 709.111L1163.17 741.748L1107.65 763.336L1068.96 718.575L1133.35 634.909L1139.62 654.655L1148.38 682.356L1156.93 709.111ZM1105.01 764.999L1062.77 800.808L1031.67 767.096L1067.07 721.056L1105.01 764.999ZM1132.2 631.328L1029.49 764.794L968.563 698.982L1099.94 572.652L1119.99 594.291L1077.75 643.222C1077.61 643.376 1077.52 643.555 1077.45 643.748C1077.39 643.941 1077.37 644.144 1077.38 644.346C1077.4 644.548 1077.46 644.745 1077.55 644.925C1077.64 645.105 1077.77 645.265 1077.92 645.396C1078.08 645.527 1078.26 645.626 1078.45 645.688C1078.64 645.75 1078.85 645.773 1079.05 645.757C1079.25 645.74 1079.45 645.684 1079.63 645.591C1079.81 645.499 1079.97 645.372 1080.1 645.217L1121.47 597.361L1132.2 631.328ZM964.339 698.803L952.307 710.492L919.796 672.662L967.846 625.113L1001.46 663.198L966.413 696.91C966.131 696.783 965.818 696.744 965.514 696.797C965.21 696.85 964.929 696.994 964.708 697.21C964.486 697.425 964.336 697.702 964.274 698.005C964.213 698.307 964.245 698.621 964.365 698.905L964.339 698.803ZM721.27 682.356C721.091 682.265 720.895 682.21 720.694 682.195C720.493 682.181 720.292 682.206 720.101 682.271C719.91 682.335 719.734 682.437 719.583 682.57C719.432 682.703 719.31 682.865 719.222 683.047L705.424 711.182L689.322 713.178L676.292 692.715L694.928 669.925H723.421C723.641 669.954 723.864 669.935 724.077 669.87C724.289 669.805 724.485 669.696 724.651 669.55C724.818 669.403 724.952 669.223 725.043 669.021C725.135 668.819 725.182 668.6 725.182 668.378C725.182 668.156 725.135 667.937 725.043 667.735C724.952 667.533 724.818 667.353 724.651 667.206C724.485 667.06 724.289 666.951 724.077 666.886C723.864 666.821 723.641 666.802 723.421 666.83H695.747V644.757L720.374 648.286H720.605C720.804 648.288 721.001 648.251 721.186 648.176C721.37 648.102 721.538 647.991 721.68 647.852C721.854 647.687 721.985 647.481 722.061 647.254C722.137 647.026 722.156 646.784 722.115 646.547L717.405 611.991C717.37 611.721 717.264 611.465 717.098 611.249C716.931 611.033 716.71 610.866 716.458 610.764L695.978 602.758L710.263 542.521L723.062 545.872C723.435 545.965 723.83 545.918 724.17 545.738C724.51 545.559 724.772 545.261 724.906 544.9L742.825 496.635L745.82 500.164H745.948L878.504 612.068L843.995 644.731L762.076 574.11C761.924 573.977 761.746 573.875 761.554 573.81C761.362 573.746 761.159 573.72 760.956 573.734C760.754 573.748 760.557 573.802 760.375 573.893C760.194 573.984 760.033 574.11 759.9 574.264L745.769 590.276C745.635 590.427 745.531 590.603 745.465 590.794C745.399 590.985 745.371 591.187 745.383 591.389C745.394 591.591 745.446 591.789 745.534 591.971C745.623 592.152 745.746 592.315 745.897 592.45C746.049 592.584 746.225 592.687 746.416 592.754C746.607 592.82 746.81 592.848 747.012 592.836C747.214 592.824 747.412 592.773 747.594 592.684C747.776 592.596 747.939 592.473 748.073 592.322L761.206 577.435L796.713 608.129L779.791 624.345C779.648 624.488 779.534 624.657 779.457 624.844C779.379 625.031 779.339 625.23 779.339 625.432C779.339 625.634 779.379 625.834 779.457 626.021C779.534 626.208 779.648 626.377 779.791 626.52L819.343 668.161L800.169 686.321L762.204 722.283L745.232 702.512C745.099 702.358 744.938 702.232 744.757 702.141C744.575 702.05 744.378 701.996 744.176 701.982C743.973 701.968 743.77 701.994 743.578 702.058C743.386 702.123 743.208 702.225 743.056 702.358C742.747 702.625 742.556 703.002 742.523 703.409C742.489 703.815 742.616 704.218 742.877 704.532L759.951 724.406L739.472 743.769L708.291 712.231L721.962 684.351C722.13 683.995 722.152 683.586 722.023 683.213C721.894 682.84 721.624 682.532 721.27 682.356ZM410.9 613.296L420.372 655.474L408.238 660.078L393.492 618.283L410.9 613.296ZM391.06 615.854L333.794 631.737L320.457 585.697C320.382 585.418 320.23 585.166 320.016 584.971C319.803 584.776 319.538 584.646 319.253 584.597L300.566 581.298C300.284 578.484 299.874 575.773 299.362 573.215C299.192 572.328 298.91 571.203 298.518 569.839L394.235 539.12L410.235 610.15L391.06 615.854ZM399.508 534.72C399.415 534.302 399.235 533.908 398.979 533.564C398.723 533.221 398.398 532.935 398.023 532.725C397.774 532.594 397.507 532.499 397.23 532.444L391.163 512.135L469.779 485.406L494.611 560.273L476.691 567.409C476.342 567.547 476.055 567.808 475.886 568.142C475.716 568.477 475.675 568.862 475.77 569.225L496.019 645.396L426.183 653.376L399.508 534.72ZM509.433 484.357L531.731 475.61L560.479 534.004L532.473 545.105L509.433 484.357ZM529.58 546.256L497.453 559.045L476.973 497.018L506.668 485.38L529.58 546.256ZM475.821 494.179L472.109 482.976L466.579 466.325L518.342 448.599L530.297 472.822L475.821 494.179ZM479.2 569.813L561.861 536.562L595.602 605.008L598.162 624.217L552.415 632.249H552.082L530.707 641.431L499.219 645.012L479.2 569.813ZM564.728 535.539L637.841 506.226L637.969 508.247L614.648 621.455L601.31 623.808L598.75 604.471C598.722 604.314 598.679 604.16 598.622 604.011L564.728 535.539ZM615.928 624.371L631.953 626.929L638.353 637.16L616.645 648.644L577.81 670.207L555.333 634.781L615.928 624.371ZM578.219 673.762L616.952 652.225L637.432 683.175L584.543 709.06L567.058 684.914L578.219 673.762ZM619.589 650.742L640.068 639.922L666.82 683.124L640.375 682.356L619.589 650.742ZM642.628 638.49L654.25 632.326C654.476 632.203 654.669 632.027 654.812 631.813C654.954 631.599 655.043 631.354 655.07 631.098L657.911 599.432L679.671 590.071C680.051 589.908 680.35 589.601 680.504 589.217C680.658 588.833 680.653 588.405 680.49 588.025C680.322 587.656 680.017 587.367 679.64 587.219C679.262 587.071 678.842 587.076 678.468 587.232L655.838 596.977C655.576 597.081 655.349 597.256 655.182 597.482C655.014 597.708 654.914 597.976 654.891 598.256L652.151 630.024L641.067 635.881L634.18 624.755C634.067 624.567 633.914 624.406 633.733 624.283C633.552 624.159 633.347 624.076 633.131 624.039L617.771 621.481L641.015 508.631C641.028 508.495 641.028 508.358 641.015 508.222L640.785 504.589C640.887 504.382 640.94 504.155 640.94 503.924C640.94 503.694 640.887 503.466 640.785 503.259C640.785 503.259 640.631 503.055 640.58 502.952L638.993 476.428C638.985 476.204 638.924 475.984 638.814 475.789L619.64 441.028L703.274 430.183L712.336 460.877C712.413 461.077 712.516 461.266 712.643 461.439L740.342 493.847L722.422 542.445L709.546 539.12C709.145 539.024 708.723 539.089 708.368 539.299C708.189 539.404 708.033 539.544 707.91 539.711C707.787 539.878 707.699 540.069 707.651 540.271L692.701 603.371C692.689 603.482 692.689 603.594 692.701 603.704V667.649L674.577 690.03L642.628 638.49ZM921.127 268.198C921.259 268.436 921.451 268.635 921.685 268.774C921.919 268.914 922.186 268.988 922.458 268.991C922.727 268.99 922.992 268.919 923.226 268.786L923.892 268.403C926.247 271.574 928.602 274.746 930.829 277.79C930.487 277.778 930.152 277.886 929.882 278.097L893.147 306.514L874.331 279.401C888.462 262.315 900.519 247.429 904.41 242.62C909.761 249.603 915.956 257.762 922.023 265.896L921.69 266.101C921.342 266.309 921.089 266.644 920.983 267.035C920.878 267.427 920.93 267.844 921.127 268.198ZM931.828 280.526C932.072 280.328 932.25 280.061 932.34 279.759C941.863 292.804 949.491 303.7 950.567 306.539C948.007 309.353 931.597 322.73 914.215 336.747L894.964 309.046L931.828 280.526ZM911.809 338.691C904.129 344.932 896.219 351.224 889.383 356.595C889.137 356.799 888.959 357.073 888.874 357.38C888.788 357.688 888.799 358.014 888.905 358.316C889.012 358.617 889.207 358.878 889.467 359.064C889.726 359.251 890.037 359.353 890.356 359.358C890.701 359.36 891.036 359.243 891.303 359.025C905.511 347.694 952.026 310.555 953.562 307.665C953.997 306.821 955.046 304.8 926.682 266.74L962.778 246.047L966.49 256.125C966.558 256.315 966.664 256.49 966.8 256.639C966.936 256.788 967.101 256.909 967.284 256.994C967.467 257.08 967.665 257.129 967.867 257.137C968.069 257.146 968.271 257.115 968.461 257.046C968.842 256.897 969.152 256.606 969.323 256.234C969.495 255.862 969.516 255.438 969.382 255.051L965.056 243.285C964.98 243.075 964.86 242.883 964.703 242.724C964.545 242.565 964.355 242.442 964.146 242.364C963.936 242.286 963.712 242.255 963.489 242.273C963.266 242.29 963.049 242.357 962.854 242.467L942.375 254.258L936.948 244.41L964.442 226.327C964.61 226.214 964.754 226.07 964.866 225.902C964.978 225.733 965.056 225.545 965.095 225.346C965.135 225.148 965.134 224.944 965.095 224.746C965.055 224.547 964.977 224.359 964.864 224.191C964.751 224.023 964.607 223.879 964.438 223.767C964.27 223.655 964.081 223.577 963.883 223.538C963.684 223.499 963.48 223.499 963.281 223.538C963.083 223.578 962.894 223.657 962.726 223.769L934.055 242.594C933.735 242.809 933.506 243.134 933.411 243.507C933.317 243.88 933.364 244.274 933.543 244.615L939.584 255.869L924.788 264.336C919.54 257.327 913.345 249.168 906.049 239.653L910.452 180.824L979.571 128.44L1018.87 206.734L1037.17 287.688L1021.94 290.4C1021.67 290.45 1021.42 290.574 1021.22 290.758L889.076 401.74L778.716 444.635L769.5 407.419C769.43 407.12 769.269 406.849 769.04 406.643C768.812 406.437 768.525 406.306 768.22 406.268L708.573 397.878L713.36 338.154C736.809 343.269 770.345 349.434 793.41 349.434C804.239 349.434 812.738 348.078 816.834 344.574C826.562 336.184 851.342 307.102 872.283 281.857L911.809 338.691ZM879.323 184.993L841.102 154.504C863.067 139.72 899.086 115.421 928.576 95.2654L957.094 125.959L879.323 184.993ZM1385.86 504.206L1386.4 543.059H1386.25C1309.45 477.681 1263.37 438.522 1242.89 421.231L1269.15 386.624L1341.01 423.891C1341.24 424.001 1341.48 424.062 1341.73 424.07C1342.08 424.075 1342.42 423.961 1342.7 423.746C1342.97 423.531 1343.17 423.229 1343.25 422.889C1343.33 422.549 1343.29 422.192 1343.14 421.877C1342.99 421.561 1342.74 421.306 1342.42 421.154L1233.06 364.422L1217.7 294.364L1246.19 262.699L1355.86 298.227L1341.47 344.983C1341.41 345.176 1341.39 345.379 1341.41 345.58C1341.43 345.781 1341.49 345.976 1341.59 346.155C1341.68 346.333 1341.81 346.49 1341.97 346.619C1342.12 346.747 1342.3 346.843 1342.5 346.901H1342.96C1343.29 346.894 1343.6 346.784 1343.87 346.587C1344.13 346.39 1344.32 346.115 1344.42 345.802L1359.03 298.687H1394.64L1383.82 360.202L1385.86 504.206ZM881.857 611.019L861.966 594.215L953.178 511.674C953.335 511.532 953.462 511.358 953.55 511.165C953.638 510.971 953.686 510.762 953.69 510.549V471.773L1013.44 435.478C1013.62 435.376 1013.78 435.237 1013.9 435.069L1033.69 407.265L1062.08 400.794L1090.78 409.03L1093.77 421.487L1108.23 481.672L991.475 597.258L916.647 671.307L880.91 701.54L870.388 667.854C870.3 667.586 870.141 667.347 869.928 667.163L846.478 646.931L881.934 613.296C882.243 612.982 882.418 612.56 882.42 612.119C882.403 611.908 882.345 611.702 882.248 611.513C882.152 611.324 882.019 611.157 881.857 611.019ZM1065.92 219.216L1077.75 251.47L1034.07 259.143L1027.11 228.271L1065.92 219.216ZM1026.29 225.278L1022.22 207.374L1057.57 196.375L1064.84 216.377L1026.29 225.278ZM1078.69 254.411L1096.07 302.268L1047.44 312.09C1047.12 312.15 1046.83 312.312 1046.61 312.553C1046.39 312.793 1046.26 313.097 1046.23 313.42L1034.64 262.264L1078.69 254.411ZM1092.39 379.616L1055.19 346.364L1107.75 334.496L1120.06 368.438L1092.39 379.616ZM1121.19 371.175L1136.29 408.365L1096.41 419.21L1093.62 407.598V382.455L1121.19 371.175ZM1053.09 343.755L1046.46 314.443C1046.6 314.658 1046.79 314.835 1047.01 314.956C1047.24 315.076 1047.49 315.138 1047.74 315.133H1048.05L1097.15 305.209L1106.67 331.478L1053.09 343.755ZM1048.64 338.154L1016.13 354.063L1010.26 346.978C1010.14 346.822 1009.98 346.693 1009.8 346.598C1009.62 346.503 1009.42 346.445 1009.22 346.426C1009.02 346.406 1008.81 346.427 1008.62 346.487C1008.43 346.547 1008.25 346.644 1008.09 346.773C1007.93 346.903 1007.8 347.062 1007.71 347.241C1007.61 347.42 1007.55 347.616 1007.54 347.818C1007.52 348.02 1007.54 348.224 1007.6 348.417C1007.66 348.611 1007.75 348.791 1007.88 348.948L1014.51 356.953C1014.65 357.131 1014.83 357.274 1015.04 357.371C1015.24 357.469 1015.47 357.518 1015.69 357.516C1015.93 357.514 1016.17 357.462 1016.38 357.363L1049.36 341.249L1050.3 345.418L1037.94 370.305L966.771 408.519L951.411 382.122L961.805 376.29C961.99 376.189 962.151 376.05 962.279 375.883C962.407 375.716 962.498 375.523 962.547 375.318C962.602 375.121 962.614 374.914 962.583 374.711C962.552 374.508 962.479 374.314 962.368 374.142L950.592 355.291C950.444 355.082 950.252 354.907 950.029 354.779L1023.01 293.392L1037.96 290.834L1048.64 338.154ZM958.835 374.27L948.467 380.076C948.115 380.282 947.851 380.609 947.725 380.997C947.62 381.402 947.675 381.833 947.879 382.199L964.032 409.874L932.186 426.986C932.312 426.759 932.377 426.504 932.377 426.244C932.377 425.985 932.312 425.729 932.186 425.502L910.503 389.105C910.315 388.812 910.036 388.587 909.709 388.466L947.827 356.467C947.813 356.578 947.813 356.69 947.827 356.8L958.835 374.27ZM929.498 427.063C929.625 427.265 929.797 427.436 930.002 427.56C930.206 427.684 930.437 427.759 930.676 427.779L768.195 515.051L748.662 498.553L755.523 456.938L890.433 404.503C890.598 404.459 890.749 404.37 890.868 404.247L907.636 390.179C907.684 390.354 907.744 390.524 907.815 390.691L929.498 427.063ZM1039.83 372.658C1040.11 372.512 1040.34 372.278 1040.47 371.993L1052.4 348.104L1090.55 382.097V405.731L1062.57 397.725C1062.31 397.661 1062.05 397.661 1061.8 397.725L1032.46 404.426C1032.09 404.509 1031.76 404.728 1031.54 405.04L1011.6 433.022L951.36 469.599C951.133 469.739 950.945 469.934 950.815 470.167C950.685 470.4 950.617 470.662 950.618 470.929V509.884L859.611 592.245L770.754 517.225L1039.83 372.658ZM1015.62 577.717L1030.98 595.749L1010.01 614.933L994.649 598.435L1015.62 577.717ZM992.576 600.737L1009.01 618.283C1009.15 618.443 1009.32 618.572 1009.52 618.66C1009.71 618.748 1009.92 618.794 1010.14 618.795C1010.52 618.788 1010.88 618.642 1011.16 618.386L1033.2 598.205L1049.43 617.132L1003.74 661.101L970.099 622.964L992.576 600.737ZM1017.92 575.671L1062.16 531.881L1087.12 558.84L1097.92 570.504L1051.69 615.009L1017.92 575.671ZM1064.36 529.63L1109.49 484.997L1124.46 523.185L1088.37 555.566L1064.36 529.63ZM1097.23 422.203L1137.44 411.23L1157.1 459.828L1111.03 480.137L1097.23 422.203ZM1124.16 370.075L1152.55 360.074L1185.26 447.346L1159.97 458.472L1124.16 370.075ZM1155.54 358.974L1171.08 353.475L1204.36 438.982L1188.23 446.093L1155.54 358.974ZM1174 352.426L1191.74 346.16L1218.11 419.108C1218.56 420.39 1219.35 421.529 1220.39 422.407L1227.81 428.648L1207.13 437.754L1174 352.426ZM1230.32 430.848C1249.39 446.937 1296.26 486.583 1376.24 554.697C1379.59 557.561 1382.97 560.349 1386.32 563.086L1385.02 610.405L1217.78 458.651L1208.3 440.568L1230.32 430.848ZM1358.14 295.669L1246.29 259.45C1246.01 259.366 1245.71 259.364 1245.42 259.446C1245.13 259.527 1244.88 259.689 1244.68 259.911L1214.99 292.881C1214.82 293.058 1214.7 293.276 1214.63 293.513C1214.57 293.75 1214.57 293.999 1214.63 294.236L1230.19 365.855C1230.25 366.076 1230.35 366.284 1230.49 366.464C1230.63 366.645 1230.81 366.794 1231.01 366.903L1266.21 385.166L1240.35 419.21L1231.8 411.997L1176.97 260.32C1176.86 259.975 1176.71 259.641 1176.53 259.322L1160.13 228.399L1223.66 184.2H1277.88C1278.29 184.2 1278.68 184.038 1278.97 183.75C1279.26 183.463 1279.42 183.072 1279.42 182.665V110.408L1334.38 97.6186L1355.07 154.811C1355.13 155.01 1355.23 155.194 1355.37 155.348L1386.09 188.753L1390.06 255.767C1390.08 255.99 1390.15 256.205 1390.26 256.399C1390.37 256.593 1390.52 256.762 1390.7 256.893L1403.14 266.203L1407.73 295.669H1358.14ZM1162.63 265.947L1190.59 343.244L1172.67 349.561L1107.19 180.875L1118.96 177.217C1125.6 194.148 1133.2 210.681 1141.74 226.736L1162.63 265.947ZM1169.9 350.585L1154.39 356.084L1090.67 186.144L1104.34 181.924L1169.9 350.585ZM1151.5 357.107L1122.98 367.338L1060.57 195.505L1087.76 187.065L1151.5 357.107ZM1059.47 192.487L1022.45 96.621C1030.72 91.2219 1039.71 87.0115 1049.15 84.1134L1086.63 184.174L1059.47 192.487ZM1056.52 193.408L1021.22 204.355L982.08 126.47L1016.31 100.509L1019.81 98.1813L1056.52 193.408ZM766.761 409.158L775.823 445.76L753.577 454.38C753.328 454.48 753.109 454.644 752.943 454.855C752.777 455.066 752.669 455.316 752.63 455.582L746 495.637L715.28 459.828L706.039 428.393L708.24 401.024L766.761 409.158ZM695.747 605.98L714.487 613.296L718.787 644.936L695.747 641.636V605.98ZM841.794 647.059L821.749 666.14L783.35 625.624L799.349 610.278L841.794 647.059ZM761.974 726.836L776.463 743.718C776.736 744.019 777.109 744.21 777.513 744.255L789.212 745.201C789.592 745.171 789.948 745.002 790.212 744.728C790.477 744.453 790.632 744.091 790.647 743.71C790.663 743.33 790.539 742.956 790.298 742.661C790.057 742.365 789.716 742.168 789.34 742.106L778.281 741.211L764.099 724.713L801.269 689.723L820.52 709.878C820.661 710.03 820.831 710.152 821.02 710.235C821.21 710.319 821.414 710.363 821.621 710.364C822.021 710.357 822.404 710.202 822.696 709.929C822.839 709.787 822.953 709.617 823.031 709.431C823.108 709.244 823.148 709.044 823.148 708.842C823.148 708.64 823.108 708.44 823.031 708.254C822.953 708.067 822.839 707.898 822.696 707.755L803.471 687.6L844.149 649.105L867.496 669.235L878.375 703.714L779.202 787.686L741.622 746.122L761.974 726.836ZM834.549 744.741L864.782 777.429L849.064 789.042L841.512 779.987C841.372 779.81 841.193 779.667 840.988 779.57C840.784 779.472 840.561 779.422 840.334 779.425C840.111 779.426 839.891 779.475 839.688 779.568C839.485 779.66 839.304 779.795 839.157 779.962L815.938 807.049L795.253 777.992L834.549 744.741ZM836.904 742.746L879.374 706.783L894.734 755.381L867.342 775.639L836.904 742.746ZM881.934 704.635L917.466 674.683L950.029 712.589L941.223 721.056L897.294 753.54L881.934 704.635ZM1101.09 569.276L1090.34 557.664L1125.57 526.331L1142.21 568.688L1121.98 592.066L1101.09 569.276ZM1127.66 523.006L1111.95 483.002L1158.23 462.539L1188.95 554.978L1144.92 566.923L1127.66 523.006ZM1160.94 461.286L1186.39 450.083L1232.11 543.263L1191.84 554.185L1160.94 461.286ZM1189.1 448.83L1205.28 441.719L1214.93 460.212C1215.03 460.367 1215.14 460.513 1215.27 460.647L1346.82 580.044L1326.34 606.518L1269.56 561.654C1269.24 561.399 1268.84 561.282 1268.43 561.328C1268.03 561.373 1267.66 561.578 1267.4 561.897C1267.15 562.216 1267.03 562.622 1267.07 563.028C1267.12 563.433 1267.32 563.804 1267.64 564.058L1381.66 654.22L1343.27 661.485L1245.09 568.995L1235.8 543.903L1189.1 448.83ZM1383.51 656.804L1381.36 734.893L1369.17 749.984L1350.71 735.635L1344.49 664.452L1383.51 656.804ZM1328.55 608.206L1349.03 581.886L1384.86 614.319L1383.84 651.765L1328.55 608.206ZM1387.68 617.056L1439.29 663.915C1422.39 684.377 1403.96 706.911 1384.56 730.903L1387.68 617.056ZM1387.68 612.989L1389.01 565.363C1415.56 586.891 1443.96 606.037 1473.87 622.581C1463.87 634.321 1452.88 647.391 1441.16 661.536L1387.68 612.989ZM1469.42 573.062C1450.6 558.636 1424.88 535.999 1407.52 520.371C1407.66 520.323 1407.79 520.254 1407.9 520.166L1418.4 511.726L1454.91 520.32L1476.46 557.74L1469.42 573.062ZM1479.1 559.403L1524.15 567.793C1518.47 573.164 1511.02 580.965 1502.11 590.813C1491.56 586.543 1481.46 581.221 1471.98 574.929L1479.1 559.403ZM1469.09 576.694C1478.71 583.295 1489.01 588.851 1499.81 593.268C1495.1 598.537 1489.98 604.343 1484.45 610.61C1450.62 592.252 1418.75 570.492 1389.34 545.668L1388.81 507.71C1399.84 517.711 1442.18 556.359 1469.04 576.694H1469.09ZM1488.16 630.177C1524.52 649.196 1563.26 663.278 1603.36 672.048L1599.08 687.395L1470.27 651.074C1476.51 643.836 1482.45 636.802 1488.11 630.177H1488.16ZM1468.19 653.786L1505.26 664.247L1500.7 680.054L1456.85 667.265L1468.19 653.786ZM1508.26 665.091L1598.37 690.49C1596.86 696.015 1595.32 701.54 1593.83 706.911L1503.7 680.898L1508.26 665.091ZM1601.74 689.85C1603.33 684.019 1604.94 678.213 1606.48 672.637L1608.78 673.097C1631.13 678.34 1646.39 682.51 1656.89 686.628L1585.98 746.813L1601.74 689.85ZM1607.66 656.983C1602.97 655.875 1598 654.741 1592.76 653.581C1560.22 645.114 1528.69 633.168 1498.71 617.951C1504.59 611.173 1510.05 604.983 1514.96 599.509C1555.31 615.547 1605 630.024 1614.34 632.76C1613.32 636.086 1610.81 645.191 1607.66 656.983ZM1533.14 560.349C1530.93 561.772 1528.86 563.39 1526.94 565.184L1479.12 556.282L1457.21 518.197C1457.11 518.012 1456.97 517.851 1456.8 517.723C1456.63 517.595 1456.44 517.504 1456.24 517.455L1418.22 508.554C1417.99 508.501 1417.75 508.501 1417.52 508.554C1417.29 508.607 1417.07 508.712 1416.89 508.861L1405.81 517.762C1405.57 517.967 1405.41 518.233 1405.32 518.529C1396.67 510.728 1390.45 504.999 1388.78 503.464L1386.78 360.534L1397.74 298.687H1409.52L1542 300.426C1549.68 333.959 1558.23 372.044 1568.03 415.194C1574.02 441.616 1577.99 459.061 1578.47 461.363C1580.42 470.238 1595.91 514.718 1602.15 532.546C1572.82 542.624 1545.53 552.932 1533.14 560.349ZM1503.24 98.0022L1525.13 98.3092C1540.15 98.4883 1552 98.6417 1556.46 98.9486H1557.36C1575.1 98.9486 1677.03 71.4779 1706.14 63.5488L1737.86 201.67L1738.01 202.079C1738.01 202.079 1738.01 202.284 1738.01 202.36L1784.45 342.4L1569.85 395.525C1548.16 299.608 1507.49 120.255 1503.24 98.0022ZM1641.48 74.3682C1603.08 84.2157 1564.68 93.3726 1557 92.8099C1552.36 92.4774 1540.43 92.3239 1525.3 92.1449L1502.88 91.838C1502.29 72.3476 1499.32 -8.55548 1498.4 -33.494L1592.3 -57.7931L1618.31 -48.3292L1641.35 22.3683L1641.48 74.3682ZM1541.36 297.408L1410.8 295.694L1406.06 265.001C1406 264.6 1405.78 264.241 1405.45 264.003L1393.06 254.744L1388.99 188.011C1388.98 187.659 1388.84 187.322 1388.6 187.065L1357.63 153.481L1336.64 95.3421C1336.3 94.2679 1325.68 58.9447 1312.47 14.2344L1313.9 13.8508C1333.74 30.5788 1399.23 85.2644 1410.54 91.5054C1418.22 95.7258 1453.8 97.1582 1496.91 97.9255C1499.06 109.41 1512.35 169.262 1541.36 297.408ZM1404.53 -25.3091C1414.53 -44.2879 1424.47 -77.2323 1429.15 -93.9347L1484.27 -45.8737L1404.53 -25.3091ZM1305.22 0.26889L1293.27 3.3638L1200.42 14.0298C1199.6 1.52222 1197.86 -24.0813 1195.94 -52.7798L1285.1 -68.4846C1291.68 -45.8481 1298.67 -22.0095 1305.22 0.294464V0.26889ZM1256.58 -266.918L1256.02 -270.448L1317.82 -268.913L1365.54 -243.336L1347.21 -210.238L1332.41 -214.816L1336.66 -227.605C1336.79 -227.992 1336.76 -228.414 1336.58 -228.778C1336.39 -229.143 1336.07 -229.42 1335.69 -229.549C1335.3 -229.678 1334.88 -229.648 1334.51 -229.466C1334.15 -229.283 1333.87 -228.964 1333.74 -228.577L1329.47 -215.788L1255.23 -238.808C1255.43 -255.332 1256.56 -266.458 1256.58 -266.688C1256.61 -266.755 1256.64 -266.823 1256.66 -266.893L1256.58 -266.918ZM1350.23 -209.24L1368.15 -241.801L1377.85 -236.685V-200.62L1370.73 -202.82L1350.23 -209.24ZM1370.35 -167.727H1349.87V-206.094L1368.71 -200.262L1370.35 -167.727ZM1296.88 -222.515V-210.672H1255.92C1255.41 -219.574 1255.25 -227.963 1255.28 -235.406L1296.88 -222.515ZM1394.16 -167.727V-192.41L1414.77 -186.041L1416.76 -167.753L1394.16 -167.727ZM1391.14 -193.305C1391.12 -193.186 1391.12 -193.066 1391.14 -192.947V-167.701H1373.42L1372.14 -199.265L1391.14 -193.305ZM1377.88 -240.062L1319.76 -271.395L1317.59 -291.652L1375.16 -300.144L1378.06 -288.685L1377.88 -240.062ZM1317.28 -294.722L1315.05 -315.516L1368.15 -327.973L1374.39 -303.214L1317.28 -294.722ZM1316.59 -271.983L1255.59 -273.517L1251.13 -300.656L1312.03 -314.8L1316.59 -271.983ZM1252.44 -273.594L1180.53 -275.385C1180.37 -281.421 1180.22 -287.509 1180.07 -293.596L1248.11 -299.965L1252.44 -273.594ZM1295.57 18.6595C1295.92 18.6247 1296.26 18.5648 1296.6 18.4804L1309.6 15.1297C1321.38 54.9801 1331.11 87.3874 1333.33 94.805L1277.42 107.594C1277.08 107.678 1276.78 107.872 1276.57 108.145C1276.35 108.417 1276.23 108.754 1276.22 109.103V181.028H1223.1C1222.78 181.028 1222.47 181.126 1222.2 181.31L1158.67 225.483L1155.44 219.395C1138.68 187.835 1125.66 154.425 1116.66 119.846C1107.8 80.8906 1107.24 56.6427 1114.94 45.6698C1118.32 40.9123 1123.75 38.2521 1131.97 37.3058L1295.57 18.6595ZM1117.96 174.352L1089.6 183.151L1052.15 83.1926C1059.38 81.2533 1067.02 81.5026 1074.11 83.9088C1089.85 89.8173 1097.79 108.822 1101.66 123.708C1106.13 140.874 1111.58 157.774 1117.96 174.327V174.352ZM1094.46 78.7165C1090.13 74.7213 1085.07 71.5876 1079.56 69.4828C1073.64 67.3242 1067.35 66.3508 1061.05 66.6181L1093.67 41.9098L1099.84 41.1936C1095.23 50.0948 1093.44 62.2954 1094.46 78.7165ZM959.526 124.194L931.111 93.5005C956.48 76.1587 976.448 62.2699 977.19 60.991C978.342 58.9703 982.31 46.9486 984.87 38.866C1007.45 40.1193 1037.68 40.4263 1062.67 40.4263H1070.07L959.526 124.194ZM974.63 59.2772C973.222 60.8119 954.151 73.9846 928.96 91.2241L879.476 37.7917L876.174 19.2989C907.15 26.6142 945.728 35.0805 967.001 37.4592C971.251 37.9196 976.217 38.3289 981.721 38.6614C978.726 48.0229 975.347 57.8704 974.63 59.2516V59.2772ZM876.532 38.8148C876.58 39.1033 876.714 39.3707 876.916 39.5822L887.617 51.1434L856.769 63.3697L834.882 9.27234C842.408 11.1651 856.411 14.6437 872.897 18.5571L876.532 38.8148ZM853.902 64.3928L791.26 89.1779L788.137 84.2157L802.6 23.5704L831.375 8.68402L853.902 64.3928ZM889.87 53.471L926.4 92.8611C899.265 111.38 865.55 134.195 838.542 152.381L816.322 134.169V131.842C816.4 130.264 815.989 128.701 815.144 127.366L792.821 91.838L889.87 53.471ZM816.117 138.108L837.467 155.604L876.686 186.911L811.253 236.532L816.117 138.108ZM907.149 183.228L902.926 239.5C897.806 245.766 831.81 327.564 814.812 342.195C803.778 351.684 752.297 343.525 712.72 334.88C712.532 334.77 712.322 334.7 712.106 334.675H711.901L703.683 332.833L712.823 329.866C713.65 329.604 714.429 329.207 715.126 328.69L907.149 183.228ZM710.314 337.489L707.754 369.922L623.685 379.718L618.129 361.123C653.585 349.255 681.949 339.944 698.103 334.701C701.584 335.519 705.706 336.466 710.314 337.489ZM621.073 381.866C621.171 382.184 621.368 382.462 621.635 382.659C621.902 382.857 622.226 382.965 622.558 382.966H622.737L707.472 373.068L703.12 427.165L618.232 438.163L582.392 373.195L615.134 362.146L621.073 381.866ZM636.126 476.991L637.662 502.952L563.423 532.725L498.963 401.996C527.123 392.123 554.361 382.736 579.499 374.193L636.126 476.991ZM517.113 445.811L465.76 463.409L450.964 418.903C466.067 413.481 481.12 408.135 495.968 402.917L517.113 445.811ZM463.354 465.864L468.883 482.49L390.267 508.938L372.065 448.037C396.795 438.675 422.394 429.262 447.994 420.054L463.354 465.864ZM394.235 532.674L296.777 563.623C292.066 549.248 281.929 522.699 268.822 489.447C298.313 476.658 332.821 463.051 369.275 449.239L394.235 532.674ZM181.271 594.547C201.188 585.748 217.111 578.612 229.911 572.831L244.17 616.57L196.759 638.541L181.271 594.547ZM203.671 667.393L186.878 673.353L177.61 650.972L194.941 642.761L203.671 667.393ZM193.969 639.846L175.025 648.798C174.667 648.97 174.388 649.273 174.245 649.643C174.103 650.014 174.107 650.425 174.257 650.793L184.625 675.885C184.744 676.168 184.943 676.411 185.197 676.584C185.452 676.756 185.751 676.851 186.058 676.857C186.228 676.881 186.4 676.881 186.57 676.857L204.797 670.309L217.239 705.607L167.55 723.281L142.257 654.476L128.741 617.644C147.505 609.408 163.991 602.144 178.455 595.749L193.969 639.846ZM197.809 641.457L245.142 619.537L254.281 647.545C253.078 648.568 251.901 649.565 250.646 650.563C235.645 662.584 227.607 678.417 225.328 702.691L220.055 704.558L197.809 641.457ZM247.984 618.232L284.156 601.479C280.905 617.03 271.689 631.84 256.765 645.319L247.984 618.232ZM247.011 615.265L232.778 571.552C257.661 560.324 269.923 554.492 275.99 551.32C279.136 559.384 281.862 567.606 284.156 575.952C285.594 583.139 285.784 590.519 284.719 597.77L247.011 615.265ZM274.966 548.558C267.875 552.164 252.438 559.301 231.805 568.611L213.885 513.721L253.232 496.098L254.512 495.535C262.268 515.153 269.539 534.004 274.966 548.558ZM246.986 482.055C224.637 492.031 202.724 501.904 181.553 511.444L172.414 486.199C172.285 485.835 172.024 485.533 171.682 485.353C171.341 485.173 170.944 485.128 170.571 485.227L156.772 488.91L98.4819 351.991L151.601 325.007C156.824 329.167 162.984 334.019 170.084 339.56C182.679 349.408 199.626 362.581 203.62 366.622C205.181 371.379 210.122 383.836 225.738 422.893C232.522 439.826 240.765 460.467 248.777 481.083L246.986 482.055ZM211.146 515.051L229.066 569.941C214.807 576.336 198.346 583.728 180.426 591.657L161.278 537.534C177.303 530.219 193.994 522.699 211.12 515L211.146 515.051ZM177.406 592.833C161.611 599.842 144.817 607.234 127.665 614.779L108.133 561.628L158.359 538.787L177.406 592.833ZM138.827 654.22L113.406 663.122L100.427 630.254L117.374 622.811L125.899 619.076L138.827 654.22ZM111.077 665.628C111.19 665.916 111.388 666.162 111.643 666.335C111.899 666.509 112.201 666.601 112.51 666.6C112.68 666.627 112.853 666.627 113.022 666.6L139.877 657.213L148.478 680.387L123.416 691.129C123.078 691.259 122.796 691.504 122.621 691.821C122.446 692.137 122.389 692.506 122.459 692.861C122.53 693.216 122.724 693.534 123.006 693.76C123.289 693.987 123.643 694.106 124.005 694.096C124.208 694.132 124.416 694.132 124.619 694.096L149.553 683.405L164.631 724.509L104.6 745.969C104.615 745.85 104.615 745.729 104.6 745.61L65.7655 645.268L97.6115 631.354L111.077 665.628ZM306.735 758.22L294.652 715.608L308.117 708.804L320.917 750.342L306.735 758.22ZM340.603 739.728L323.631 748.859L311.036 707.934L310.857 707.576L325.116 700.261L340.603 739.728ZM292.451 713.459C274.724 713.828 257.136 716.678 240.202 721.925C239.382 690.72 245.987 674.197 260.297 662.738C294.729 635.216 302.153 606.466 300.822 584.29L317.769 587.309L346.363 686.219L292.451 713.459ZM371.656 673.992L349.307 684.786L334.792 634.551L390.651 619.051L405.499 661.127L371.656 673.992ZM397.921 696.219C398.046 695.909 398.072 695.568 397.994 695.242C397.916 694.917 397.738 694.624 397.486 694.403L375.214 675.936L421.063 658.518L445.076 765.152L408.75 774.053L372.193 755.432L397.921 696.219ZM346.978 813.494L370.965 758.271L406.497 776.381L381.435 827.025L346.978 813.494ZM407.7 869.075L404.039 836.898C404.008 836.621 403.904 836.356 403.738 836.131C403.572 835.907 403.349 835.73 403.092 835.619L384.2 828.151L409.595 776.995L445.716 768.119L466.759 861.402L407.7 869.075ZM660.983 806.179H660.625L606.174 828.406C606.213 828.238 606.213 828.063 606.174 827.895L596.165 802.163C596.036 801.839 595.802 801.566 595.501 801.39C595.199 801.214 594.847 801.144 594.501 801.191L551.365 807.765L540.409 732.361L553.797 722.539C554.061 722.356 554.259 722.093 554.36 721.789C554.462 721.484 554.462 721.155 554.361 720.851L544.838 690.03C544.719 689.64 544.45 689.313 544.09 689.121C543.73 688.929 543.308 688.888 542.918 689.006C542.527 689.125 542.2 689.394 542.008 689.754C541.816 690.114 541.775 690.535 541.894 690.925L550.981 720.953L537.746 730.673C537.518 730.842 537.339 731.068 537.227 731.329C537.115 731.589 537.073 731.875 537.106 732.156L548.421 809.99C548.45 810.193 548.518 810.388 548.622 810.563C548.727 810.739 548.865 810.892 549.03 811.014C549.195 811.135 549.382 811.223 549.581 811.271C549.779 811.319 549.986 811.327 550.188 811.295L593.707 804.696L603.282 829.25C603.372 829.439 603.503 829.605 603.666 829.736L477.536 881.097L426.951 656.42L531.27 644.501C531.414 644.527 531.561 644.527 531.705 644.501L552.185 635.881L575.224 672.355L563.858 683.737C563.599 683.996 563.438 684.338 563.406 684.703C563.373 685.067 563.47 685.432 563.679 685.733L582.546 712.027C582.69 712.224 582.879 712.385 583.097 712.496C583.315 712.607 583.556 712.665 583.8 712.666C584.031 712.667 584.259 712.615 584.466 712.513L639.991 685.349L668.842 686.295L673.22 693.355L686.608 714.457L661.418 732.949L649.591 717.603C649.467 717.443 649.312 717.31 649.136 717.21C648.96 717.11 648.766 717.046 648.565 717.021C648.365 716.996 648.161 717.011 647.966 717.064C647.771 717.118 647.588 717.21 647.428 717.334C647.268 717.458 647.135 717.613 647.035 717.789C646.935 717.965 646.871 718.158 646.846 718.359C646.821 718.56 646.836 718.763 646.889 718.958C646.943 719.153 647.035 719.336 647.159 719.495L658.91 734.842L645.342 744.818C645.143 744.955 644.981 745.138 644.87 745.352C644.758 745.566 644.701 745.804 644.702 746.045V769.961C644.701 770.329 644.838 770.685 645.086 770.958L674.218 804.21L660.983 806.179ZM677.7 803.621L647.671 769.321V746.813L689.143 716.349L705.885 714.252L738.32 747.068L775.977 788.709L677.7 803.621ZM854.005 874.6L834.677 896.981L793.257 849.764L760.515 821.219L749.02 795.846L779.279 791.242C779.505 791.202 779.716 791.105 779.894 790.96L792.693 780.141L814.351 810.527L854.005 874.6ZM840.539 846.797L817.73 809.734L840.309 783.389L847.63 792.162L870.926 818.584L840.539 846.797ZM873.23 816.513L851.086 791.421L866.881 779.731L888.103 802.752L873.23 816.513ZM889.716 799.912L869.364 777.89L895.655 758.451L899.982 772.186L889.716 799.912ZM940.711 811.269L930.906 823.035L892.199 802.087L902.772 773.516L941.581 763.413L948.979 772.621L940.711 811.269ZM1032.87 909.616L979.366 854.317L971.942 831.757C971.861 831.516 971.723 831.297 971.541 831.119C971.358 830.942 971.136 830.809 970.893 830.734L949.005 824.646L943.885 811.857L952.282 772.57C952.322 772.347 952.315 772.118 952.262 771.898C952.209 771.678 952.111 771.471 951.974 771.291L943.475 760.753C943.293 760.516 943.046 760.34 942.763 760.244C942.481 760.148 942.176 760.138 941.888 760.215L902.772 770.447L898.266 756.532L943.219 723.281L966.259 701.079L1100.04 845.595L1032.87 909.616ZM1102.35 843.497L1064.95 803.007L1107.01 767.428L1138.19 809.479L1102.35 843.497ZM1140.23 807.202L1109.51 765.894L1164.35 744.511L1179.45 761.622L1157.13 787.507L1140.23 807.202ZM1225.61 877.414L1213.83 848.613C1213.7 848.292 1213.47 848.023 1213.17 847.846L1142.54 809.223L1158.61 790.628L1240.94 857.13L1225.61 877.414ZM1242.81 854.752L1160.61 788.249L1181.81 763.694L1263.37 827.639L1242.81 854.752ZM1265.24 825.183L1185.06 762.364L1233.16 750.777L1291.78 790.167L1265.24 825.183ZM1292.35 846.413L1267.67 827.076L1294.34 791.881L1321.33 810.016C1311.73 822.037 1302.05 834.213 1292.35 846.413ZM1323.27 807.688L1234.31 747.836C1234.14 747.721 1233.94 747.644 1233.73 747.609C1233.53 747.574 1233.31 747.581 1233.11 747.631L1182.14 759.883L1167.81 743.641L1237.23 728.294C1237.44 728.252 1237.63 728.169 1237.8 728.05C1237.97 727.931 1238.12 727.778 1238.23 727.601C1238.34 727.424 1238.41 727.226 1238.44 727.02C1238.47 726.814 1238.46 726.603 1238.41 726.401L1221.26 662.712C1221.14 662.321 1220.88 661.988 1220.53 661.783C1220.18 661.579 1219.76 661.517 1219.36 661.613L1150.91 680.003L1143 655.141L1192.07 639.641L1212.86 630.996C1213.18 630.862 1213.44 630.626 1213.61 630.324C1213.78 630.022 1213.84 629.673 1213.78 629.333L1207.84 591.375V591.248L1204.87 579.379C1204.83 579.182 1204.74 578.997 1204.62 578.833C1204.5 578.67 1204.35 578.532 1204.17 578.427C1204 578.323 1203.81 578.254 1203.61 578.224C1203.41 578.194 1203.2 578.204 1203 578.254C1202.61 578.357 1202.27 578.609 1202.06 578.958C1201.85 579.307 1201.78 579.725 1201.88 580.121L1204.44 590.352L1128.28 609.28L1123.82 594.624L1144.92 570.222L1233.52 546.23L1242.45 570.35C1242.55 570.566 1242.68 570.765 1242.84 570.939L1341.42 663.787L1347.95 736.658C1348 737.087 1348.21 737.48 1348.54 737.758L1367.51 752.491C1353.04 770.344 1338.27 788.812 1323.27 807.688ZM1426.18 789.374L1404.63 827.741L1402.07 832.217L1345.75 804.082C1360.24 785.998 1375.44 767.045 1390.78 748.092L1432.48 751.314L1426.18 789.374ZM1393.36 745.073C1414.25 719.24 1435.27 693.483 1454.8 670.079L1501.42 683.533L1593.07 709.98C1587.46 730.443 1582.83 747.478 1581.91 750.47L1571.95 758.911L1393.36 745.073ZM1570.39 811.167L1552.08 782.11L1584.21 752.363L1660.09 687.958C1665.5 690.01 1670.4 693.233 1674.42 697.396C1683.13 707.423 1728.18 756.814 1745.64 775.946L1643.83 878.258L1570.39 811.167ZM1674.93 906.956L1646.06 880.458L1666.33 859.995L1695.85 884.422L1674.93 906.956ZM1697.97 882.146L1668.61 857.949L1688.17 838.279L1723.57 854.573L1697.97 882.146ZM1690.45 835.824L1747.74 778.197C1749.71 780.371 1751.17 781.982 1751.96 782.826C1753.63 785.666 1759.11 795.027 1766.73 807.944L1742.34 859.688L1690.45 835.824ZM1774.06 790.116L1764.87 774.437C1764.59 773.965 1764.27 773.527 1763.89 773.132L1758.7 767.275L1759.13 766.84L1779.92 775.281L1774.06 790.116ZM1782.66 776.432L1804.06 785.128V785.256L1791.13 818.891C1786.01 810.041 1780.89 801.498 1776.13 793.518L1782.66 776.432ZM1796.46 884.601L1745.1 860.993L1768.58 811.192C1778 827.153 1790.24 847.769 1802.52 868.18C1800.6 873.526 1798.56 879.025 1796.51 884.601H1796.46ZM1809.41 849.662C1803.91 840.53 1798.4 831.297 1793.08 822.293L1806.85 786.484C1806.86 786.442 1806.86 786.398 1806.85 786.356L1829.89 795.718C1824.82 808.762 1817.7 827.562 1809.46 849.662H1809.41ZM1873.9 899.769L1829.17 882.12C1826.1 877.004 1822.93 871.889 1819.73 866.517C1824.21 854.394 1828.4 843.139 1832.17 833.036L1890.77 858.614L1873.9 899.769ZM1891.81 855.8L1833.17 830.222C1837.47 818.738 1841.2 808.941 1844.17 801.345L1904.21 825.695L1891.81 855.8ZM1916.42 795.871L1905.38 822.754L1875.61 810.681C1875.79 810.56 1875.93 810.403 1876.05 810.22L1888.85 783.031L1916.42 795.871ZM1886.82 780.32L1873.26 808.89C1873.18 809.15 1873.18 809.424 1873.26 809.683L1845.43 798.403C1848.32 791.011 1850.34 786.177 1851.21 784.591C1853.18 781.727 1858.05 771.802 1864.42 758.169L1891.43 770.958L1886.82 780.32ZM1904.74 744.511C1904.47 744.529 1904.21 744.62 1903.98 744.773C1903.76 744.925 1903.58 745.135 1903.46 745.38L1892.63 768.196L1865.6 755.407C1868.78 748.526 1872.31 740.802 1876.02 732.617L1904.74 744.511ZM1838.52 775.767C1835.68 781.26 1833.21 786.933 1831.12 792.751L1761.41 764.461L1848.99 676.371C1860.62 675.585 1872.3 675.953 1883.85 677.471C1864.32 721.542 1842.18 770.549 1838.54 775.767H1838.52ZM1915.19 605.367C1914.5 607.183 1913.88 608.717 1913.4 609.843C1909.86 618.283 1900.88 638.874 1890.36 662.815C1876.08 660.534 1861.59 659.925 1847.17 660.999C1882.16 647.621 1901.41 627.287 1915.21 605.367H1915.19ZM1828.15 679.108C1833.5 678.038 1838.9 677.253 1844.33 676.755L1758.39 763.208L1753.01 761.034C1733.48 739.625 1694.13 696.322 1686.15 687.293C1683.67 684.478 1680.83 682.009 1677.7 679.952C1729.28 682.893 1800.42 684.633 1828.07 679.108H1828.15ZM1779.87 513.951L1709.29 610.022C1709.18 610.158 1709.1 610.315 1709.06 610.482L1692.52 665.321C1665.72 664.017 1642.01 662.277 1628.91 660.666C1625.35 660.257 1619.1 659.336 1610.65 657.673C1614.6 643.35 1617.46 632.94 1617.69 632.096C1619.08 618.92 1619.6 605.668 1619.26 592.424L1698.95 518.248L1711.31 514.616C1712.82 514.181 1714.15 513.287 1715.13 512.058L1742.47 478.551L1779.87 513.951ZM1704.68 500.471C1693.85 503.643 1649.77 516.637 1608.14 530.628C1601.95 513.005 1586.49 468.576 1584.64 460.109C1584.13 457.807 1580.16 440.338 1574.17 413.916C1573.28 409.977 1572.33 405.807 1571.36 401.459L1786.52 348.18L1798.76 385.013L1704.68 500.471ZM1907.46 172.434L1808.9 366.622L1755.5 205.481L1907.46 172.434ZM1767.96 -20.7306C1783.02 -6.63718 1870.36 99.8438 1886.46 119.462L1873.9 163.968L1751.2 190.697L1693.37 -61.0414C1718.2 -49.7104 1757.08 -30.8595 1767.89 -20.7306H1767.96ZM1704.83 57.5379C1689.19 61.835 1667.02 67.7691 1644.55 73.5753V22.1381C1644.57 21.9772 1644.57 21.813 1644.55 21.6521L1622.12 -46.9736L1686.12 -23.5953L1704.83 57.5379ZM1441.57 -358.667L1541.1 -350.993L1556.46 -307.332L1498.27 -303.418C1498.16 -303.43 1498.05 -303.43 1497.94 -303.418L1441.62 -286.69L1441.57 -358.667ZM1441.57 -283.391L1498.66 -300.349L1557.69 -304.39L1562.81 -289.836L1441.57 -230.623V-283.391ZM1441.57 -227.119L1563.86 -286.869L1569.26 -271.369V-271.139C1571.64 -264.693 1584.41 -239.934 1600.57 -209.419L1472.06 -145.474C1471.87 -145.385 1471.71 -145.26 1471.58 -145.106C1471.44 -144.953 1471.34 -144.775 1471.28 -144.583C1471.21 -144.39 1471.19 -144.186 1471.2 -143.984C1471.22 -143.781 1471.27 -143.584 1471.37 -143.402C1471.55 -143.041 1471.86 -142.766 1472.25 -142.636C1472.63 -142.507 1473.05 -142.534 1473.41 -142.712L1602.03 -206.657C1627.34 -158.903 1660.29 -98.3341 1674.88 -71.5796L1681.9 -41.4999L1595.19 -73.0119C1593.73 -73.5481 1592.14 -73.6284 1590.63 -73.2421L1491.44 -47.6642L1430.33 -100.943L1424.9 -151.485L1458.51 -168.213C1458.85 -168.374 1459.11 -168.648 1459.25 -168.986C1459.4 -169.325 1459.42 -169.704 1459.31 -170.055L1441.57 -223.768V-227.119ZM1438.5 -358.846V-228.756C1438.37 -228.541 1438.31 -228.299 1438.31 -228.053C1438.31 -227.806 1438.37 -227.564 1438.5 -227.349V-223.615C1438.47 -223.454 1438.47 -223.29 1438.5 -223.129L1455.88 -170.413L1424.47 -154.81L1405.42 -330.275L1405.7 -330.147L1425.62 -325.697V-307.945L1409.8 -309.634C1409.6 -309.654 1409.39 -309.634 1409.2 -309.575C1409.01 -309.517 1408.82 -309.421 1408.67 -309.293C1408.51 -309.164 1408.38 -309.006 1408.28 -308.828C1408.19 -308.649 1408.13 -308.454 1408.11 -308.252C1408.09 -308.051 1408.11 -307.847 1408.17 -307.653C1408.23 -307.459 1408.32 -307.279 1408.45 -307.122C1408.58 -306.965 1408.74 -306.836 1408.92 -306.74C1409.09 -306.644 1409.29 -306.584 1409.49 -306.564L1427 -304.697H1427.18C1427.56 -304.7 1427.93 -304.846 1428.2 -305.106C1428.37 -305.245 1428.5 -305.418 1428.59 -305.612C1428.67 -305.807 1428.72 -306.018 1428.72 -306.232V-326.95C1428.71 -327.297 1428.59 -327.632 1428.37 -327.901C1428.16 -328.171 1427.85 -328.358 1427.51 -328.433L1406.32 -333.089C1406.1 -333.135 1405.88 -333.133 1405.67 -333.085C1405.46 -333.036 1405.26 -332.941 1405.09 -332.807L1401.94 -361.685L1438.5 -358.846ZM1404.53 -281.114L1381.13 -285.82V-288.89C1381.15 -289.008 1381.15 -289.13 1381.13 -289.248L1371.19 -328.587L1398.69 -334.981L1404.53 -281.114ZM1395.74 -361.455L1398.3 -338.076L1370.4 -331.579L1364.15 -356.288L1395.74 -361.455ZM1361.11 -355.802L1367.38 -330.863L1314.72 -318.611L1311.65 -347.719L1361.11 -355.802ZM1308.58 -347.208L1311.7 -317.921L1250.62 -303.699L1245.17 -336.951L1308.58 -347.208ZM1242.02 -336.363L1247.5 -303.111L1180.14 -296.691C1179.89 -306.641 1179.68 -316.54 1179.5 -326.106L1242.02 -336.363ZM1177.12 -200.365H1127.23L1123.82 -224.664L1175.92 -226.428C1176.28 -216.734 1176.69 -207.91 1177.12 -200.365ZM1173.49 -311.296L1168.62 -325.415H1173.18C1173.28 -320.786 1173.39 -316.054 1173.49 -311.296ZM1172.46 -366.954C1172.67 -355.52 1172.9 -342.399 1173.18 -328.587H1167.63L1154.54 -366.34L1172.46 -366.954ZM1099.33 -364.038L1151.37 -366.11L1164.3 -328.485H1097.43L1099.33 -364.038ZM1030.69 -293.647C1042.09 -301.525 1070.86 -322.627 1074.65 -325.39H1165.37L1173.72 -301.116C1174.28 -276.357 1174.97 -250.983 1175.79 -229.498L1122.03 -227.656C1121.81 -227.654 1121.6 -227.605 1121.4 -227.512C1121.2 -227.42 1121.02 -227.286 1120.88 -227.119C1120.75 -226.952 1120.65 -226.76 1120.59 -226.553C1120.53 -226.346 1120.52 -226.129 1120.55 -225.917L1124.39 -198.6C1124.44 -198.231 1124.63 -197.895 1124.91 -197.651C1125.19 -197.407 1125.55 -197.272 1125.92 -197.27H1177.35C1177.92 -187.908 1178.53 -180.874 1179.2 -177.089C1183.29 -153.582 1192.15 -18.7355 1194.33 14.746L1108.29 24.6447C1105.06 24.6447 1081.36 25.0539 1053.53 24.9516V-41.7045C1053.55 -41.874 1053.55 -42.0466 1053.53 -42.2161L969.869 -269.451C978.445 -272.239 1019.46 -285.872 1030.69 -293.647ZM787.676 -184.557C794.869 -191.745 810.716 -221.364 813.148 -225.84L935.13 -270.755L966.771 -268.939L1050.38 -41.2953V25.2074C1020.68 25.0539 987.072 24.4145 968.717 22.3683C935.437 18.685 855.259 -1.29138 836.776 -5.94656L796.713 -112.095C796.327 -113.123 795.724 -114.056 794.946 -114.832L750.07 -159.9C762.383 -167.139 782.402 -179.288 787.676 -184.557ZM369.352 -228.219L373.755 -327.461L442.413 -309.403H442.823C443.104 -309.401 443.38 -309.481 443.616 -309.634C443.974 -309.863 444.231 -310.219 444.333 -310.631L451.322 -345.34L512.147 -329.661L508.691 -311.168C498.656 -295.949 490.925 -284.107 487.981 -279.426L399.355 -220.546L369.352 -228.219ZM479.123 -254.973C473.645 -238.45 464.711 -211.491 455.213 -184.378L402.401 -204.048L479.123 -254.973ZM399.355 -202.002L454.317 -181.539C440.954 -143.505 426.67 -105.982 419.527 -97.49C417.42 -95.0721 415.126 -92.8229 412.666 -90.763L357.934 -125.293L353.275 -148.799L349.41 -168.955L399.355 -202.002ZM410.158 -88.6912C389.473 -72.2702 352.328 -55.4399 341.039 -51.8845C337.043 -50.1646 333.154 -48.2087 329.391 -46.0272C317.589 -46.0272 301.82 -44.5437 287.766 -43.2136C302.306 -54.0075 319.868 -82.2967 321.481 -84.9313L356.936 -122.377L410.158 -88.6912ZM354.658 -125.293L318.946 -110.56L313.391 -119.615L350.715 -145.832L354.658 -125.293ZM306.018 -216.837L287.356 -219.574L272.867 -269.962L286.383 -274.438L306.018 -216.837ZM264.291 -338.92L274.198 -321.502C273.365 -320.49 272.805 -319.281 272.572 -317.992C272.339 -316.702 272.441 -315.375 272.867 -314.135L285.385 -277.38L272.022 -272.929L268.464 -285.232C268.387 -285.53 268.221 -285.798 267.987 -285.999C267.754 -286.201 267.465 -286.326 267.158 -286.358L251.798 -288.097L234.134 -313.342L264.291 -338.92ZM231.626 -311.322L249.545 -285.744C249.67 -285.568 249.83 -285.42 250.015 -285.31C250.2 -285.2 250.407 -285.13 250.621 -285.104L265.673 -283.365L284.515 -217.758C284.597 -217.469 284.762 -217.212 284.99 -217.016C285.217 -216.821 285.497 -216.696 285.795 -216.658L307.017 -213.537L322.121 -169.159C316.284 -165.195 305.276 -157.956 290.94 -149.567L261.603 -154.375C261.654 -154.611 261.654 -154.856 261.603 -155.092L238.614 -261.47C238.573 -261.675 238.491 -261.869 238.372 -262.04C238.253 -262.212 238.1 -262.357 237.923 -262.468C237.739 -262.574 237.536 -262.643 237.324 -262.669C237.113 -262.696 236.899 -262.679 236.694 -262.621L200.343 -252.671L190.692 -276.561L231.626 -311.322ZM246.474 -210.621L258.557 -154.913L203.492 -163.916L195.402 -199.111L246.474 -210.621ZM194.711 -202.129L184.753 -245.279L235.952 -259.296L245.757 -213.64L194.711 -202.129ZM203.696 -160.77L286.716 -147.162C263.676 -133.913 232.957 -118.49 201.341 -108.795L203.696 -160.77ZM160.791 -319.66L176.842 -315.619L179.198 -271.497L135.909 -266.816L126.718 -306.973L160.791 -319.66ZM123.672 -306.487L132.811 -266.586L65.7911 -259.219L68.0695 -311.475L123.672 -306.487ZM61.1064 -362.017L77.1062 -358.667L65.4327 -314.826L52.2745 -316.002L61.1064 -362.017ZM20.3261 -298.379L50.7129 -313.035L64.9719 -311.757L62.7192 -259.475L16.9726 -271.395L20.3261 -298.379ZM2.94396 -228.449L6.93751 -270.806L35.8395 -263.286L30.9244 -222.924L2.94396 -228.449ZM54.9625 -161.946L59.6472 -214.509L100.607 -216.581L108.978 -162.867L54.9625 -161.946ZM103.602 -218.474C103.53 -218.846 103.328 -219.181 103.033 -219.42C102.738 -219.658 102.369 -219.785 101.989 -219.778L58.4696 -217.553L33.9707 -222.336L38.8347 -262.519L63.7687 -256.022H64.0503H64.3319L180.862 -268.632C181.091 -268.684 181.308 -268.779 181.502 -268.913L188.004 -274.438L197.143 -251.904L182.526 -247.863C182.143 -247.76 181.815 -247.514 181.61 -247.176C181.405 -246.837 181.339 -246.433 181.425 -246.047L200.292 -164.197L112.203 -162.867L103.602 -218.474ZM153.598 -99.1526C143.124 -98.5512 132.621 -98.6623 122.162 -99.4851L112.638 -159.696L200.548 -161.026L198.193 -107.721C183.689 -103.232 168.733 -100.359 153.598 -99.1526ZM196.836 -91.2234C265.955 -110.074 331.567 -156.754 335.791 -159.824L346.773 -167.113L350.203 -149.209L310.549 -121.329C310.231 -121.106 310.01 -120.771 309.929 -120.391C309.848 -120.011 309.914 -119.615 310.114 -119.282L317.103 -107.849C317.286 -107.53 317.582 -107.291 317.932 -107.178C318.282 -107.064 318.662 -107.085 318.997 -107.235L350.434 -120.203L318.972 -86.9519L318.767 -86.6961C318.511 -86.2869 294.319 -46.8457 279.958 -42.4974H279.369L277.167 -42.2928V-70.6588C277.161 -71.0075 277.04 -71.3443 276.822 -71.6172C276.605 -71.89 276.303 -72.0835 275.964 -72.1678L196.836 -91.2234ZM243.069 -76.9254L273.916 -69.431V-41.8836C267.977 -41.3209 262.985 -40.8604 259.99 -40.7326C252.413 -41.0836 244.887 -42.1542 237.514 -43.9298L243.069 -76.9254ZM48.5114 85.111L52.0953 68.5365C52.1722 68.2343 52.1722 67.9178 52.0953 67.6157L32.4604 19.8872L33.7659 -12.0853L145.176 -55.4143L188.567 -52.3705C192.484 -51.3218 246.704 -37.0238 260.246 -37.5353C264.163 -37.7144 271.331 -38.4305 279.625 -39.2235C292.553 -40.5024 309.705 -42.1905 323.324 -42.6765C273.225 -14.7198 131.889 70.1479 61.132 112.761L48.5114 85.111ZM67.7367 126.752C183.498 57.0264 334.536 -33.1103 345.493 -37.1261C359.112 -41.3208 412.538 -65.2618 431.354 -87.5658C444.154 -102.682 470.368 -178.905 494.355 -251.469C497.401 -260.677 500.038 -268.658 500.755 -270.55C502.393 -273.287 512.147 -288.174 525.663 -308.662L642.551 -298.2L686.506 -202.436C686.894 -201.603 687.422 -200.841 688.068 -200.186L783.017 -105.317L821.416 -3.38876L792.463 11.5999C791.469 12.1123 790.598 12.8357 789.913 13.7193C789.227 14.6029 788.744 15.6255 788.495 16.7155L772.367 83.8321C771.898 85.8526 772.247 87.9767 773.34 89.7406L800.885 133.556L795.177 248.656L706.832 315.594C685.84 322.372 412.052 410.821 263.062 474.945C255.971 457.04 248.214 437.524 240.022 417.19C229.783 391.381 219.952 366.903 218.263 361.941C218.032 357.823 215.191 355.24 179.556 327.36C164.99 315.978 146.84 301.782 143.716 298.252C139.697 293.648 129.944 268.326 122.827 246.508C122.827 246.227 122.622 245.945 122.494 245.664L67.7367 126.752ZM13.4142 335.033L43.4682 319.686C43.7791 319.516 44.0228 319.246 44.1594 318.919L63.0264 276.255C63.0494 276.128 63.0494 275.998 63.0264 275.871L66.6615 251.598L102.091 238.4L108.261 251.777C111.154 260.627 124.107 299.352 132.094 308.458C137.353 313.635 142.946 318.463 148.836 322.909L95.7939 349.843C95.4424 350.014 95.1713 350.316 95.0376 350.683C94.9039 351.05 94.9181 351.455 95.0771 351.812L139.083 455.122L74.4438 480.29L13.4142 335.033ZM75.6214 483.078L140.286 458.012L153.854 489.831L89.01 514.923L75.6214 483.078ZM90.2132 517.762L156.363 492.184L170.007 488.552L178.737 512.672C151.78 524.847 126.155 536.485 102.603 547.228L90.2132 517.762ZM44.6714 590.71C62.5912 582.551 82.8917 573.164 105.317 562.933L124.85 616.033L64.6647 642.403L44.6714 590.71ZM3.27676 672.56L62.9496 646.547L101.656 746.608C101.656 746.608 101.656 746.761 101.835 746.864L36.1211 770.344L3.27676 672.56ZM37.0939 773.311L84.6325 756.302C84.622 756.413 84.622 756.524 84.6325 756.635L94.4627 781.88L46.5914 801.754L37.0939 773.311Z" fill="#2C5DEB"/>
</g>
</svg>
