<svg width="31" height="18" viewBox="0 0 31 18" fill="none" xmlns="http://www.w3.org/2000/svg">
<path d="M31.0001 16.6118H0V18H31.0001V16.6118Z" fill="#CB001C"/>
<path d="M31.0001 15.2329H0V16.6211H31.0001V15.2329Z" fill="white"/>
<path d="M31.0001 13.8448H0V15.2237H31.0001V13.8448Z" fill="#CB001C"/>
<path d="M31.0001 12.4659H0V13.854H31.0001V12.4659Z" fill="white"/>
<path d="M31.0001 11.0777H0V12.4658H31.0001V11.0777Z" fill="#CB001C"/>
<path d="M31.0001 9.68948H0V11.0684H31.0001V9.68948Z" fill="white"/>
<path d="M31.0001 8.31055H0V9.69871H31.0001V8.31055Z" fill="#CB001C"/>
<path d="M31.0001 6.92236H0V8.30132H31.0001V6.92236Z" fill="white"/>
<path d="M31.0001 5.54343H0V6.93157H31.0001V5.54343Z" fill="#CB001C"/>
<path d="M31.0001 4.15527H0V5.54342H31.0001V4.15527Z" fill="white"/>
<path d="M31.0001 2.76709H0V4.15525H31.0001V2.76709Z" fill="#CB001C"/>
<path d="M31.0001 1.38815H0V2.77631H31.0001V1.38815Z" fill="white"/>
<path d="M31.0001 0H0V1.38815H31.0001V0Z" fill="#CB001C"/>
<path d="M14.1607 0H0V9.68947H14.1607V0Z" fill="#2A3560"/>
<path d="M1.28404 1.06644L1.40413 1.43415H1.79208L1.47805 1.66398L1.59813 2.0317L1.28404 1.80187L0.969954 2.0317L1.09004 1.66398L0.776009 1.43415H1.16396L1.28404 1.06644Z" fill="white"/>
<path d="M1.28404 2.68439L1.40413 3.0521H1.79208L1.47805 3.28193L1.59813 3.64966L1.28404 3.41983L0.969954 3.64966L1.09004 3.28193L0.776009 3.0521H1.16396L1.28404 2.68439Z" fill="white"/>
<path d="M1.28404 4.3024L1.40413 4.67013H1.79208L1.47805 4.89996L1.59813 5.26767L1.28404 5.03785L0.969954 5.26767L1.09004 4.89996L0.776009 4.67013H1.16396L1.28404 4.3024Z" fill="white"/>
<path d="M1.28404 5.92035L1.40413 6.28807H1.79208L1.47805 6.51789L1.59813 6.88562L1.28404 6.6558L0.969954 6.88562L1.09004 6.51789L0.776009 6.28807H1.16396L1.28404 5.92035Z" fill="white"/>
<path d="M1.28404 7.53836L1.40413 7.90609H1.79208L1.47805 8.13592L1.59813 8.50363L1.28404 8.27381L0.969954 8.50363L1.09004 8.13592L0.776009 7.90609H1.16396L1.28404 7.53836Z" fill="white"/>
<path d="M2.4198 1.92139L2.53065 2.28912H2.91865L2.6138 2.51894L2.72465 2.87747L2.4198 2.65683L2.10577 2.87747L2.22586 2.51894L1.91177 2.28912H2.29971L2.4198 1.92139Z" fill="white"/>
<path d="M2.4198 3.53934L2.53065 3.90705H2.91865L2.6138 4.13688L2.72465 4.49541L2.4198 4.27477L2.10577 4.49541L2.22586 4.13688L1.91177 3.90705H2.29971L2.4198 3.53934Z" fill="white"/>
<path d="M2.4198 5.15732L2.53065 5.52503H2.91865L2.6138 5.74567L2.72465 6.11339L2.4198 5.89277L2.10577 6.11339L2.22586 5.74567L1.91177 5.52503H2.29971L2.4198 5.15732Z" fill="white"/>
<path d="M2.4198 6.77533L2.53065 7.14306H2.91865L2.6138 7.36368L2.72465 7.73141L2.4198 7.50159L2.10577 7.73141L2.22586 7.36368L1.91177 7.14306H2.29971L2.4198 6.77533Z" fill="white"/>
<path d="M3.55621 1.06644L3.6763 1.43415H4.07349L3.7594 1.66398L3.87949 2.0317L3.55621 1.80187L3.25137 2.0317L3.37146 1.66398L3.05737 1.43415H3.43612L3.55621 1.06644Z" fill="white"/>
<path d="M3.55621 2.68439L3.6763 3.0521H4.07349L3.7594 3.28193L3.87949 3.64966L3.55621 3.41983L3.25137 3.64966L3.37146 3.28193L3.05737 3.0521H3.43612L3.55621 2.68439Z" fill="white"/>
<path d="M3.55621 4.3024L3.6763 4.67013H4.07349L3.7594 4.89996L3.87949 5.26767L3.55621 5.03785L3.25137 5.26767L3.37146 4.89996L3.05737 4.67013H3.43612L3.55621 4.3024Z" fill="white"/>
<path d="M3.55621 5.92035L3.6763 6.28807H4.07349L3.7594 6.51789L3.87949 6.88562L3.55621 6.6558L3.25137 6.88562L3.37146 6.51789L3.05737 6.28807H3.43612L3.55621 5.92035Z" fill="white"/>
<path d="M3.55621 7.53836L3.6763 7.90609H4.07349L3.7594 8.13592L3.87949 8.50363L3.55621 8.27381L3.25137 8.50363L3.37146 8.13592L3.05737 7.90609H3.43612L3.55621 7.53836Z" fill="white"/>
<path d="M4.69233 1.92139L4.81242 2.28912H5.20036L4.88633 2.51894L5.00636 2.87747L4.69233 2.65683L4.37824 2.87747L4.49833 2.51894L4.18429 2.28912H4.57224L4.69233 1.92139Z" fill="white"/>
<path d="M4.69233 3.53934L4.81242 3.90705H5.20036L4.88633 4.13688L5.00636 4.49541L4.69233 4.27477L4.37824 4.49541L4.49833 4.13688L4.18429 3.90705H4.57224L4.69233 3.53934Z" fill="white"/>
<path d="M4.69233 5.15732L4.81242 5.52503H5.20036L4.88633 5.74567L5.00636 6.11339L4.69233 5.89277L4.37824 6.11339L4.49833 5.74567L4.18429 5.52503H4.57224L4.69233 5.15732Z" fill="white"/>
<path d="M4.69233 6.77533L4.81242 7.14306H5.20036L4.88633 7.36368L5.00636 7.73141L4.69233 7.50159L4.37824 7.73141L4.49833 7.36368L4.18429 7.14306H4.57224L4.69233 6.77533Z" fill="white"/>
<path d="M5.83776 1.06644L5.95785 1.43415H6.3458L6.03176 1.66398L6.16104 2.0317L5.83776 1.80187L5.52373 2.0317L5.64376 1.66398L5.33897 1.43415H5.71767L5.83776 1.06644Z" fill="white"/>
<path d="M5.83776 2.68439L5.95785 3.0521H6.3458L6.03176 3.28193L6.16104 3.64966L5.83776 3.41983L5.52373 3.64966L5.64376 3.28193L5.33897 3.0521H5.71767L5.83776 2.68439Z" fill="white"/>
<path d="M5.83776 4.3024L5.95785 4.67013H6.3458L6.03176 4.89996L6.16104 5.26767L5.83776 5.03785L5.52373 5.26767L5.64376 4.89996L5.33897 4.67013H5.71767L5.83776 4.3024Z" fill="white"/>
<path d="M5.83776 5.92035L5.95785 6.28807H6.3458L6.03176 6.51789L6.16104 6.88562L5.83776 6.6558L5.52373 6.88562L5.64376 6.51789L5.33897 6.28807H5.71767L5.83776 5.92035Z" fill="white"/>
<path d="M5.83776 7.53836L5.95785 7.90609H6.3458L6.03176 8.13592L6.16104 8.50363L5.83776 8.27381L5.52373 8.50363L5.64376 8.13592L5.33897 7.90609H5.71767L5.83776 7.53836Z" fill="white"/>
<path d="M6.97368 1.92139L7.09377 2.28912H7.48178L7.16769 2.51894L7.28777 2.87747L6.97368 2.65683L6.65965 2.87747L6.77974 2.51894L6.46565 2.28912H6.8536L6.97368 1.92139Z" fill="white"/>
<path d="M6.97368 3.53934L7.09377 3.90705H7.48178L7.16769 4.13688L7.28777 4.49541L6.97368 4.27477L6.65965 4.49541L6.77974 4.13688L6.46565 3.90705H6.8536L6.97368 3.53934Z" fill="white"/>
<path d="M6.97368 5.15732L7.09377 5.52503H7.48178L7.16769 5.74567L7.28777 6.11339L6.97368 5.89277L6.65965 6.11339L6.77974 5.74567L6.46565 5.52503H6.8536L6.97368 5.15732Z" fill="white"/>
<path d="M6.97368 6.77533L7.09377 7.14306H7.48178L7.16769 7.36368L7.28777 7.73141L6.97368 7.50159L6.65965 7.73141L6.77974 7.36368L6.46565 7.14306H6.8536L6.97368 6.77533Z" fill="white"/>
<path d="M8.11959 1.06644L8.23962 1.43415H8.62763L8.31354 1.66398L8.43362 2.0317L8.11959 1.80187L7.8055 2.0317L7.92559 1.66398L7.6115 1.43415H7.9995L8.11959 1.06644Z" fill="white"/>
<path d="M8.11959 2.68439L8.23962 3.0521H8.62763L8.31354 3.28193L8.43362 3.64966L8.11959 3.41983L7.8055 3.64966L7.92559 3.28193L7.6115 3.0521H7.9995L8.11959 2.68439Z" fill="white"/>
<path d="M8.11959 4.3024L8.23962 4.67013H8.62763L8.31354 4.89996L8.43362 5.26767L8.11959 5.03785L7.8055 5.26767L7.92559 4.89996L7.6115 4.67013H7.9995L8.11959 4.3024Z" fill="white"/>
<path d="M8.11959 5.92035L8.23962 6.28807H8.62763L8.31354 6.51789L8.43362 6.88562L8.11959 6.6558L7.8055 6.88562L7.92559 6.51789L7.6115 6.28807H7.9995L8.11959 5.92035Z" fill="white"/>
<path d="M8.11959 7.53836L8.23962 7.90609H8.62763L8.31354 8.13592L8.43362 8.50363L8.11959 8.27381L7.8055 8.50363L7.92559 8.13592L7.6115 7.90609H7.9995L8.11959 7.53836Z" fill="white"/>
<path d="M9.2463 1.92139L9.36639 2.28912H9.76358L9.4403 2.51894L9.56039 2.87747L9.2463 2.65683L8.94145 2.87747L9.06154 2.51894L8.74751 2.28912H9.13546L9.2463 1.92139Z" fill="white"/>
<path d="M9.2463 3.53934L9.36639 3.90705H9.76358L9.4403 4.13688L9.56039 4.49541L9.2463 4.27477L8.94145 4.49541L9.06154 4.13688L8.74751 3.90705H9.13546L9.2463 3.53934Z" fill="white"/>
<path d="M9.2463 5.15732L9.36639 5.52503H9.76358L9.4403 5.74567L9.56039 6.11339L9.2463 5.89277L8.94145 6.11339L9.06154 5.74567L8.74751 5.52503H9.13546L9.2463 5.15732Z" fill="white"/>
<path d="M9.2463 6.77533L9.36639 7.14306H9.76358L9.4403 7.36368L9.56039 7.73141L9.2463 7.50159L8.94145 7.73141L9.06154 7.36368L8.74751 7.14306H9.13546L9.2463 6.77533Z" fill="white"/>
<path d="M10.4011 1.06644L10.5212 1.43415H10.9092L10.5951 1.66398L10.706 2.0317L10.4011 1.80187L10.0871 2.0317L10.2071 1.66398L9.89311 1.43415H10.2811L10.4011 1.06644Z" fill="white"/>
<path d="M10.4011 2.68439L10.5212 3.0521H10.9092L10.5951 3.28193L10.706 3.64966L10.4011 3.41983L10.0871 3.64966L10.2071 3.28193L9.89311 3.0521H10.2811L10.4011 2.68439Z" fill="white"/>
<path d="M10.4011 4.3024L10.5212 4.67013H10.9092L10.5951 4.89996L10.706 5.26767L10.4011 5.03785L10.0871 5.26767L10.2071 4.89996L9.89311 4.67013H10.2811L10.4011 4.3024Z" fill="white"/>
<path d="M10.4011 5.92035L10.5212 6.28807H10.9092L10.5951 6.51789L10.706 6.88562L10.4011 6.6558L10.0871 6.88562L10.2071 6.51789L9.89311 6.28807H10.2811L10.4011 5.92035Z" fill="white"/>
<path d="M10.4011 7.53836L10.5212 7.90609H10.9092L10.5951 8.13592L10.706 8.50363L10.4011 8.27381L10.0871 8.50363L10.2071 8.13592L9.89311 7.90609H10.2811L10.4011 7.53836Z" fill="white"/>
<path d="M11.5282 1.92139L11.6482 2.28912H12.0362L11.7222 2.51894L11.8422 2.87747L11.5282 2.65683L11.2141 2.87747L11.3342 2.51894L11.0294 2.28912H11.4081L11.5282 1.92139Z" fill="white"/>
<path d="M11.5282 3.53934L11.6482 3.90705H12.0362L11.7222 4.13688L11.8422 4.49541L11.5282 4.27477L11.2141 4.49541L11.3342 4.13688L11.0294 3.90705H11.4081L11.5282 3.53934Z" fill="white"/>
<path d="M11.5282 5.15732L11.6482 5.52503H12.0362L11.7222 5.74567L11.8422 6.11339L11.5282 5.89277L11.2141 6.11339L11.3342 5.74567L11.0294 5.52503H11.4081L11.5282 5.15732Z" fill="white"/>
<path d="M11.5282 6.77533L11.6482 7.14306H12.0362L11.7222 7.36368L11.8422 7.73141L11.5282 7.50159L11.2141 7.73141L11.3342 7.36368L11.0294 7.14306H11.4081L11.5282 6.77533Z" fill="white"/>
<path d="M12.6736 1.06644L12.7936 1.43415H13.1816L12.8675 1.66398L12.9876 2.0317L12.6736 1.80187L12.3687 2.0317L12.4796 1.66398L12.1747 1.43415H12.5535L12.6736 1.06644Z" fill="white"/>
<path d="M12.6736 2.68439L12.7936 3.0521H13.1816L12.8675 3.28193L12.9876 3.64966L12.6736 3.41983L12.3687 3.64966L12.4796 3.28193L12.1747 3.0521H12.5535L12.6736 2.68439Z" fill="white"/>
<path d="M12.6736 4.3024L12.7936 4.67013H13.1816L12.8675 4.89996L12.9876 5.26767L12.6736 5.03785L12.3687 5.26767L12.4796 4.89996L12.1747 4.67013H12.5535L12.6736 4.3024Z" fill="white"/>
<path d="M12.6736 5.92035L12.7936 6.28807H13.1816L12.8675 6.51789L12.9876 6.88562L12.6736 6.6558L12.3687 6.88562L12.4796 6.51789L12.1747 6.28807H12.5535L12.6736 5.92035Z" fill="white"/>
<path d="M12.6736 7.53836L12.7936 7.90609H13.1816L12.8675 8.13592L12.9876 8.50363L12.6736 8.27381L12.3687 8.50363L12.4796 8.13592L12.1747 7.90609H12.5535L12.6736 7.53836Z" fill="white"/>
</svg>
